G04 #@! TF.FileFunction,Copper,L2,Bot,Signal*
%FSLAX46Y46*%
G04 Gerber Fmt 4.6, Leading zero omitted, Abs format (unit mm)*
G04 Created by KiCad (PCBNEW 4.0.7) date Fri Feb  9 22:12:21 2018*
%MOMM*%
%LPD*%
G01*
G04 APERTURE LIST*
%ADD10C,0.100000*%
%ADD11C,0.600000*%
%ADD12R,2.400000X2.400000*%
%ADD13C,2.400000*%
%ADD14R,1.600000X1.600000*%
%ADD15O,1.600000X1.600000*%
%ADD16R,1.700000X1.700000*%
%ADD17O,1.700000X1.700000*%
%ADD18O,2.000000X2.000000*%
%ADD19R,2.000000X2.000000*%
%ADD20O,2.500000X4.000000*%
%ADD21R,1.980000X3.960000*%
%ADD22O,1.980000X3.960000*%
%ADD23C,1.000000*%
%ADD24R,1.000000X1.000000*%
%ADD25C,1.500000*%
%ADD26R,1.727200X1.727200*%
%ADD27O,1.727200X1.727200*%
%ADD28C,1.600000*%
%ADD29C,0.381000*%
%ADD30C,0.812800*%
%ADD31C,0.254000*%
%ADD32C,2.765520*%
%ADD33C,0.508000*%
G04 APERTURE END LIST*
D10*
D11*
X149860000Y-89535000D03*
X147320000Y-90805000D03*
X149860000Y-90805000D03*
X148590000Y-90805000D03*
X148590000Y-89535000D03*
X149225000Y-99695000D03*
X149225000Y-101600000D03*
X147320000Y-89535000D03*
X144780000Y-89535000D03*
X149225000Y-106045000D03*
D12*
X135255000Y-67310000D03*
D13*
X127755000Y-67310000D03*
D14*
X195262500Y-112712500D03*
D15*
X202882500Y-145732500D03*
X195262500Y-115252500D03*
X202882500Y-143192500D03*
X195262500Y-117792500D03*
X202882500Y-140652500D03*
X195262500Y-120332500D03*
X202882500Y-138112500D03*
X195262500Y-122872500D03*
X202882500Y-135572500D03*
X195262500Y-125412500D03*
X202882500Y-133032500D03*
X195262500Y-127952500D03*
X202882500Y-130492500D03*
X195262500Y-130492500D03*
X202882500Y-127952500D03*
X195262500Y-133032500D03*
X202882500Y-125412500D03*
X195262500Y-135572500D03*
X202882500Y-122872500D03*
X195262500Y-138112500D03*
X202882500Y-120332500D03*
X195262500Y-140652500D03*
X202882500Y-117792500D03*
X195262500Y-143192500D03*
X202882500Y-115252500D03*
X195262500Y-145732500D03*
X202882500Y-112712500D03*
D16*
X177800000Y-112395000D03*
D17*
X177800000Y-114935000D03*
X177800000Y-117475000D03*
X177800000Y-120015000D03*
D14*
X133350000Y-142875000D03*
D15*
X161290000Y-135255000D03*
X135890000Y-142875000D03*
X158750000Y-135255000D03*
X138430000Y-142875000D03*
X156210000Y-135255000D03*
X140970000Y-142875000D03*
X153670000Y-135255000D03*
X143510000Y-142875000D03*
X151130000Y-135255000D03*
X146050000Y-142875000D03*
X148590000Y-135255000D03*
X148590000Y-142875000D03*
X146050000Y-135255000D03*
X151130000Y-142875000D03*
X143510000Y-135255000D03*
X153670000Y-142875000D03*
X140970000Y-135255000D03*
X156210000Y-142875000D03*
X138430000Y-135255000D03*
X158750000Y-142875000D03*
X135890000Y-135255000D03*
X161290000Y-142875000D03*
X133350000Y-135255000D03*
D12*
X135255000Y-87630000D03*
D13*
X127755000Y-87630000D03*
D18*
X144145000Y-78740000D03*
X149225000Y-73660000D03*
X144145000Y-73660000D03*
D19*
X149225000Y-78740000D03*
D20*
X215900000Y-82960000D03*
X215900000Y-60960000D03*
X186690000Y-82960000D03*
X186690000Y-60960000D03*
D21*
X144145000Y-64135000D03*
D22*
X149145000Y-64135000D03*
X154145000Y-64135000D03*
D16*
X138430000Y-147955000D03*
D17*
X140970000Y-147955000D03*
X143510000Y-147955000D03*
X146050000Y-147955000D03*
X148590000Y-147955000D03*
X151130000Y-147955000D03*
X153670000Y-147955000D03*
X156210000Y-147955000D03*
D16*
X156210000Y-127635000D03*
D17*
X153670000Y-127635000D03*
X151130000Y-127635000D03*
X148590000Y-127635000D03*
X146050000Y-127635000D03*
X143510000Y-127635000D03*
X140970000Y-127635000D03*
X138430000Y-127635000D03*
D16*
X214630000Y-112395000D03*
D17*
X214630000Y-114935000D03*
X214630000Y-117475000D03*
X214630000Y-120015000D03*
D16*
X219710000Y-129540000D03*
D17*
X219710000Y-132080000D03*
X219710000Y-134620000D03*
X219710000Y-137160000D03*
X219710000Y-139700000D03*
X219710000Y-142240000D03*
X219710000Y-144780000D03*
X219710000Y-147320000D03*
X219710000Y-149860000D03*
D16*
X219710000Y-102870000D03*
D17*
X219710000Y-100330000D03*
X219710000Y-97790000D03*
X219710000Y-95250000D03*
D16*
X194818000Y-100330000D03*
D17*
X197358000Y-100330000D03*
X199898000Y-100330000D03*
D16*
X165735000Y-100330000D03*
D17*
X168275000Y-100330000D03*
X170815000Y-100330000D03*
D16*
X168910000Y-104775000D03*
D17*
X166370000Y-104775000D03*
D16*
X156845000Y-73660000D03*
D17*
X154305000Y-73660000D03*
D21*
X195580000Y-64135000D03*
D22*
X200580000Y-64135000D03*
X205580000Y-64135000D03*
D21*
X166370000Y-64135000D03*
D22*
X171370000Y-64135000D03*
X176370000Y-64135000D03*
D16*
X124142500Y-101282500D03*
D17*
X126682500Y-101282500D03*
D16*
X124142500Y-112712500D03*
D17*
X126682500Y-112712500D03*
D23*
X133350000Y-102870000D03*
X132080000Y-101600000D03*
D24*
X134620000Y-101600000D03*
D23*
X133350000Y-114300000D03*
X132080000Y-113030000D03*
D24*
X134620000Y-113030000D03*
D25*
X187960000Y-136906000D03*
X187960000Y-132026000D03*
D16*
X187642500Y-115252500D03*
D17*
X187642500Y-117792500D03*
D16*
X207010000Y-113665000D03*
D26*
X211455000Y-101600000D03*
D27*
X208915000Y-101600000D03*
X211455000Y-99060000D03*
X208915000Y-99060000D03*
X211455000Y-96520000D03*
X208915000Y-96520000D03*
D28*
X128905000Y-106045000D03*
D15*
X123825000Y-106045000D03*
D28*
X128905000Y-117475000D03*
D15*
X123825000Y-117475000D03*
D16*
X156210000Y-123825000D03*
D17*
X153670000Y-123825000D03*
X151130000Y-123825000D03*
X148590000Y-123825000D03*
X146050000Y-123825000D03*
X143510000Y-123825000D03*
X140970000Y-123825000D03*
X138430000Y-123825000D03*
D11*
X144780000Y-90805000D03*
X144780000Y-92075000D03*
X144780000Y-88265000D03*
X212725000Y-132080000D03*
X137795000Y-118110000D03*
X182880000Y-126365000D03*
X193040000Y-96520000D03*
X168275000Y-120650000D03*
X137795000Y-106680000D03*
X214630000Y-132080000D03*
X187706000Y-134366000D03*
X154305000Y-82550000D03*
X140970000Y-82550000D03*
X208280000Y-140652500D03*
X201930000Y-106680000D03*
X209232500Y-135572500D03*
X211455000Y-136715500D03*
X210185000Y-142240000D03*
X151130000Y-130175000D03*
X212090000Y-142240000D03*
X205486000Y-134112000D03*
X177800000Y-124460000D03*
X156845000Y-120015000D03*
X142875000Y-114935000D03*
X142875000Y-111760000D03*
X158750000Y-121285000D03*
X197993000Y-93980000D03*
X168910000Y-93980000D03*
X155575000Y-86995000D03*
X151765000Y-93345000D03*
D29*
X219710000Y-129540000D02*
X215265000Y-129540000D01*
X215265000Y-129540000D02*
X212725000Y-132080000D01*
X170180000Y-118110000D02*
X170180000Y-120650000D01*
X170180000Y-120650000D02*
X175895000Y-126365000D01*
X175895000Y-126365000D02*
X182880000Y-126365000D01*
X195262500Y-130492500D02*
X200342500Y-130492500D01*
X200342500Y-130492500D02*
X202882500Y-127952500D01*
X219710000Y-132080000D02*
X221615000Y-130175000D01*
X221615000Y-130175000D02*
X221615000Y-104775000D01*
X221615000Y-104775000D02*
X219710000Y-102870000D01*
X212090000Y-92710000D02*
X201295000Y-92710000D01*
X208915000Y-96520000D02*
X208915000Y-95885000D01*
X208915000Y-95885000D02*
X212090000Y-92710000D01*
X221615000Y-100965000D02*
X219710000Y-102870000D01*
X221615000Y-94615000D02*
X221615000Y-100965000D01*
X219710000Y-92710000D02*
X221615000Y-94615000D01*
X212090000Y-92710000D02*
X219710000Y-92710000D01*
X208915000Y-96520000D02*
X201295000Y-96520000D01*
X168275000Y-120650000D02*
X168275000Y-118110000D01*
D30*
X144145000Y-73660000D02*
X138430000Y-73660000D01*
D29*
X219710000Y-132080000D02*
X214630000Y-132080000D01*
D31*
X195135500Y-130492500D02*
X195262500Y-130492500D01*
X191262000Y-134366000D02*
X195135500Y-130492500D01*
X187706000Y-134366000D02*
X191262000Y-134366000D01*
D30*
X127755000Y-87630000D02*
X127755000Y-87750000D01*
D32*
X127755000Y-67310000D02*
X127755000Y-87630000D01*
D29*
X219710000Y-102235000D02*
X219710000Y-102870000D01*
X194818000Y-100330000D02*
X194818000Y-100457000D01*
D30*
X140970000Y-82550000D02*
X154305000Y-82550000D01*
D31*
X208280000Y-140652500D02*
X208280000Y-142875000D01*
X208280000Y-142875000D02*
X210185000Y-144780000D01*
X210185000Y-144780000D02*
X219710000Y-144780000D01*
X211455000Y-101600000D02*
X211455000Y-125730000D01*
X208280000Y-128905000D02*
X208280000Y-140652500D01*
X211455000Y-125730000D02*
X208280000Y-128905000D01*
X171196000Y-140589000D02*
X169799000Y-141986000D01*
X182499000Y-140589000D02*
X171196000Y-140589000D01*
X183896000Y-141986000D02*
X182499000Y-140589000D01*
X169799000Y-141986000D02*
X163322000Y-141986000D01*
X183896000Y-141986000D02*
X201549000Y-141986000D01*
X201549000Y-141986000D02*
X202882500Y-140652500D01*
X133350000Y-142875000D02*
X135890000Y-140335000D01*
X161290000Y-140335000D02*
X163322000Y-141986000D01*
X135890000Y-140335000D02*
X161290000Y-140335000D01*
X201930000Y-106680000D02*
X207645000Y-100965000D01*
X207645000Y-100965000D02*
X207645000Y-97790000D01*
X207645000Y-97790000D02*
X210185000Y-97790000D01*
X210185000Y-97790000D02*
X211455000Y-96520000D01*
X173101000Y-139446000D02*
X197485000Y-139446000D01*
X173101000Y-139446000D02*
X168910000Y-135255000D01*
X161290000Y-135255000D02*
X168910000Y-135255000D01*
X201358500Y-135572500D02*
X202882500Y-135572500D01*
X197485000Y-139446000D02*
X201358500Y-135572500D01*
X209232500Y-135572500D02*
X209232500Y-129921000D01*
X213360000Y-100965000D02*
X211455000Y-99060000D01*
X212725000Y-110490000D02*
X212725000Y-126428500D01*
X213360000Y-109855000D02*
X212725000Y-110490000D01*
X213360000Y-100965000D02*
X213360000Y-109855000D01*
X212725000Y-126428500D02*
X209232500Y-129921000D01*
X207010000Y-133985000D02*
X202882500Y-138112500D01*
X202882500Y-138112500D02*
X205740000Y-140970000D01*
X208280000Y-147320000D02*
X205740000Y-144780000D01*
X205740000Y-140970000D02*
X205740000Y-144780000D01*
X219710000Y-147320000D02*
X208280000Y-147320000D01*
X202882500Y-138112500D02*
X203517500Y-138112500D01*
X207010000Y-133985000D02*
X207010000Y-128270000D01*
X210185000Y-100330000D02*
X210185000Y-125095000D01*
X210185000Y-125095000D02*
X207010000Y-128270000D01*
X208915000Y-99060000D02*
X210185000Y-100330000D01*
D30*
X154145000Y-64135000D02*
X154145000Y-68740000D01*
X154145000Y-68740000D02*
X149225000Y-73660000D01*
X144145000Y-64135000D02*
X144145000Y-70485000D01*
X146685000Y-76200000D02*
X144145000Y-78740000D01*
X146685000Y-73025000D02*
X146685000Y-76200000D01*
X144145000Y-70485000D02*
X146685000Y-73025000D01*
D31*
X218440000Y-105410000D02*
X218440000Y-124460000D01*
X211455000Y-136715500D02*
X211455000Y-131445000D01*
X211455000Y-131445000D02*
X218440000Y-124460000D01*
X217805000Y-102235000D02*
X217805000Y-104775000D01*
X217805000Y-102235000D02*
X219710000Y-100330000D01*
X217805000Y-104775000D02*
X218440000Y-105410000D01*
X210185000Y-130810000D02*
X216535000Y-124460000D01*
X210185000Y-130810000D02*
X210185000Y-142240000D01*
X219710000Y-97790000D02*
X216535000Y-100965000D01*
X216535000Y-100965000D02*
X216535000Y-124460000D01*
X140970000Y-147955000D02*
X142875000Y-149860000D01*
X158750000Y-147955000D02*
X158750000Y-142875000D01*
X156845000Y-149860000D02*
X158750000Y-147955000D01*
X142875000Y-149860000D02*
X156845000Y-149860000D01*
X143510000Y-148590000D02*
X143510000Y-145415000D01*
X143510000Y-145415000D02*
X146050000Y-142875000D01*
X146050000Y-148590000D02*
X146050000Y-145415000D01*
X146050000Y-145415000D02*
X148590000Y-142875000D01*
X156210000Y-142875000D02*
X151130000Y-147955000D01*
X156210000Y-142875000D02*
X156210000Y-143510000D01*
X158750000Y-135255000D02*
X151130000Y-127635000D01*
X143510000Y-135255000D02*
X143510000Y-132715000D01*
X143510000Y-132715000D02*
X148590000Y-127635000D01*
X156210000Y-135255000D02*
X151130000Y-130175000D01*
X140970000Y-127635000D02*
X140970000Y-135255000D01*
X212090000Y-142240000D02*
X219710000Y-142240000D01*
X205232000Y-133858000D02*
X205486000Y-134112000D01*
X195262500Y-120332500D02*
X198310500Y-120332500D01*
X199644000Y-121666000D02*
X198310500Y-120332500D01*
X204724000Y-121666000D02*
X199644000Y-121666000D01*
X205232000Y-122174000D02*
X204724000Y-121666000D01*
X205232000Y-133858000D02*
X205232000Y-122174000D01*
X175260000Y-120015000D02*
X177800000Y-117475000D01*
X175260000Y-121920000D02*
X175260000Y-120015000D01*
X177800000Y-124460000D02*
X175260000Y-121920000D01*
X196850000Y-121602500D02*
X193357500Y-121602500D01*
X198120000Y-122872500D02*
X196850000Y-121602500D01*
X202882500Y-122872500D02*
X198120000Y-122872500D01*
X191770000Y-120015000D02*
X193357500Y-121602500D01*
X191770000Y-120015000D02*
X177800000Y-120015000D01*
D29*
X126682500Y-101282500D02*
X131762500Y-101282500D01*
X131762500Y-101282500D02*
X132080000Y-101600000D01*
X126682500Y-112712500D02*
X131762500Y-112712500D01*
X131762500Y-112712500D02*
X132080000Y-113030000D01*
D31*
X195262500Y-122872500D02*
X193040000Y-125095000D01*
X169545000Y-128905000D02*
X160655000Y-120015000D01*
X191770000Y-128905000D02*
X169545000Y-128905000D01*
X193040000Y-127635000D02*
X191770000Y-128905000D01*
X193040000Y-125095000D02*
X193040000Y-127635000D01*
X156845000Y-120015000D02*
X160655000Y-120015000D01*
X142875000Y-111760000D02*
X142875000Y-114935000D01*
X175577500Y-138112500D02*
X195262500Y-138112500D01*
X158750000Y-121285000D02*
X175577500Y-138112500D01*
X186055000Y-147320000D02*
X198755000Y-147320000D01*
X198755000Y-147320000D02*
X202882500Y-143192500D01*
X186055000Y-147320000D02*
X180340000Y-141605000D01*
X172085000Y-141605000D02*
X170815000Y-142875000D01*
X180340000Y-141605000D02*
X172085000Y-141605000D01*
X170815000Y-142875000D02*
X161290000Y-142875000D01*
X202882500Y-115252500D02*
X204470000Y-113665000D01*
X197358000Y-100330000D02*
X197358000Y-105283000D01*
X204470000Y-112395000D02*
X204470000Y-113665000D01*
X197358000Y-105283000D02*
X204470000Y-112395000D01*
X197358000Y-94615000D02*
X197358000Y-100330000D01*
X197993000Y-93980000D02*
X197358000Y-94615000D01*
X192405000Y-102870000D02*
X202247500Y-112712500D01*
X192405000Y-102870000D02*
X170815000Y-102870000D01*
X170815000Y-102870000D02*
X168275000Y-100330000D01*
X202882500Y-112712500D02*
X202247500Y-112712500D01*
X168910000Y-93980000D02*
X168275000Y-94615000D01*
X168275000Y-94615000D02*
X168275000Y-100330000D01*
D33*
X152400000Y-90170000D02*
X155575000Y-86995000D01*
X152400000Y-92710000D02*
X152400000Y-90170000D01*
X151765000Y-93345000D02*
X152400000Y-92710000D01*
D31*
X187642500Y-115252500D02*
X195262500Y-115252500D01*
X195262500Y-117792500D02*
X187642500Y-117792500D01*
G36*
X140208000Y-81280000D02*
X140218006Y-81329410D01*
X140246447Y-81371035D01*
X140288841Y-81398315D01*
X140335000Y-81407000D01*
X160528000Y-81407000D01*
X160528000Y-89535000D01*
X160538006Y-89584410D01*
X160566447Y-89626035D01*
X160608841Y-89653315D01*
X160655000Y-89662000D01*
X201803000Y-89662000D01*
X201803000Y-99568000D01*
X201159964Y-99568000D01*
X200948054Y-99250853D01*
X200466285Y-98928946D01*
X199898000Y-98815907D01*
X199329715Y-98928946D01*
X198847946Y-99250853D01*
X198636036Y-99568000D01*
X198619964Y-99568000D01*
X198408054Y-99250853D01*
X198120000Y-99058382D01*
X198120000Y-94930630D01*
X198135506Y-94915125D01*
X198178167Y-94915162D01*
X198521943Y-94773117D01*
X198785192Y-94510327D01*
X198927838Y-94166799D01*
X198928162Y-93794833D01*
X198786117Y-93451057D01*
X198523327Y-93187808D01*
X198179799Y-93045162D01*
X197807833Y-93044838D01*
X197464057Y-93186883D01*
X197200808Y-93449673D01*
X197058162Y-93793201D01*
X197058124Y-93837246D01*
X196819185Y-94076185D01*
X196654004Y-94323395D01*
X196596000Y-94615000D01*
X196596000Y-99058382D01*
X196307946Y-99250853D01*
X196096036Y-99568000D01*
X195895000Y-99568000D01*
X195895000Y-99434847D01*
X195860441Y-99351415D01*
X195796585Y-99287559D01*
X195713153Y-99253000D01*
X195147750Y-99253000D01*
X195091000Y-99309750D01*
X195091000Y-99568000D01*
X194545000Y-99568000D01*
X194545000Y-99309750D01*
X194488250Y-99253000D01*
X193922847Y-99253000D01*
X193839415Y-99287559D01*
X193775559Y-99351415D01*
X193741000Y-99434847D01*
X193741000Y-99568000D01*
X172720000Y-99568000D01*
X172670590Y-99578006D01*
X172628965Y-99606447D01*
X172601685Y-99648841D01*
X172593000Y-99695000D01*
X172593000Y-102108000D01*
X171130631Y-102108000D01*
X170858142Y-101835511D01*
X171383285Y-101731054D01*
X171865054Y-101409147D01*
X172186961Y-100927378D01*
X172300000Y-100359093D01*
X172300000Y-100300907D01*
X172186961Y-99732622D01*
X171865054Y-99250853D01*
X171383285Y-98928946D01*
X170815000Y-98815907D01*
X170246715Y-98928946D01*
X169764946Y-99250853D01*
X169545000Y-99580026D01*
X169325054Y-99250853D01*
X169037000Y-99058382D01*
X169037000Y-94930630D01*
X169052506Y-94915125D01*
X169095167Y-94915162D01*
X169438943Y-94773117D01*
X169702192Y-94510327D01*
X169844838Y-94166799D01*
X169845162Y-93794833D01*
X169703117Y-93451057D01*
X169440327Y-93187808D01*
X169096799Y-93045162D01*
X168724833Y-93044838D01*
X168381057Y-93186883D01*
X168117808Y-93449673D01*
X167975162Y-93793201D01*
X167975124Y-93837246D01*
X167736185Y-94076185D01*
X167571004Y-94323395D01*
X167513000Y-94615000D01*
X167513000Y-99058382D01*
X167224946Y-99250853D01*
X166903039Y-99732622D01*
X166812000Y-100190306D01*
X166812000Y-100056998D01*
X166755252Y-100056998D01*
X166812000Y-100000250D01*
X166812000Y-99434847D01*
X166777441Y-99351415D01*
X166713585Y-99287559D01*
X166630153Y-99253000D01*
X166064750Y-99253000D01*
X166008000Y-99309750D01*
X166008000Y-100057000D01*
X166028000Y-100057000D01*
X166028000Y-100603000D01*
X166008000Y-100603000D01*
X166008000Y-101350250D01*
X166064750Y-101407000D01*
X166630153Y-101407000D01*
X166713585Y-101372441D01*
X166777441Y-101308585D01*
X166812000Y-101225153D01*
X166812000Y-100659750D01*
X166755252Y-100603002D01*
X166812000Y-100603002D01*
X166812000Y-100469694D01*
X166903039Y-100927378D01*
X167224946Y-101409147D01*
X167706715Y-101731054D01*
X168275000Y-101844093D01*
X168639049Y-101771679D01*
X170276184Y-103408815D01*
X170430740Y-103512086D01*
X170523395Y-103573996D01*
X170815000Y-103632000D01*
X172593000Y-103632000D01*
X172593000Y-119253000D01*
X157405466Y-119253000D01*
X157375327Y-119222808D01*
X157031799Y-119080162D01*
X156659833Y-119079838D01*
X156316057Y-119221883D01*
X156284886Y-119253000D01*
X122682000Y-119253000D01*
X122682000Y-118339755D01*
X122782189Y-118489698D01*
X123247736Y-118800767D01*
X123796887Y-118910000D01*
X123853113Y-118910000D01*
X124402264Y-118800767D01*
X124867811Y-118489698D01*
X125178880Y-118024151D01*
X125231584Y-117759187D01*
X127469752Y-117759187D01*
X127687757Y-118286800D01*
X128091077Y-118690824D01*
X128618309Y-118909750D01*
X129189187Y-118910248D01*
X129716800Y-118692243D01*
X130120824Y-118288923D01*
X130339750Y-117761691D01*
X130340248Y-117190813D01*
X130122243Y-116663200D01*
X129718923Y-116259176D01*
X129191691Y-116040250D01*
X128620813Y-116039752D01*
X128093200Y-116257757D01*
X127689176Y-116661077D01*
X127470250Y-117188309D01*
X127469752Y-117759187D01*
X125231584Y-117759187D01*
X125288113Y-117475000D01*
X125178880Y-116925849D01*
X124867811Y-116460302D01*
X124402264Y-116149233D01*
X123853113Y-116040000D01*
X123796887Y-116040000D01*
X123247736Y-116149233D01*
X122782189Y-116460302D01*
X122682000Y-116610245D01*
X122682000Y-113758819D01*
X122689338Y-113797817D01*
X122828410Y-114013941D01*
X123040610Y-114158931D01*
X123292500Y-114209940D01*
X124992500Y-114209940D01*
X125227817Y-114165662D01*
X125443941Y-114026590D01*
X125588931Y-113814390D01*
X125602586Y-113746959D01*
X125632446Y-113791647D01*
X126114215Y-114113554D01*
X126682500Y-114226593D01*
X127250785Y-114113554D01*
X127732554Y-113791647D01*
X127902035Y-113538000D01*
X131061830Y-113538000D01*
X131117233Y-113672086D01*
X131436235Y-113991645D01*
X131853244Y-114164803D01*
X132215117Y-114165119D01*
X132214803Y-114524775D01*
X132387233Y-114942086D01*
X132706235Y-115261645D01*
X133123244Y-115434803D01*
X133574775Y-115435197D01*
X133992086Y-115262767D01*
X134311645Y-114943765D01*
X134484803Y-114526756D01*
X134485197Y-114075225D01*
X134341879Y-113728371D01*
X134370000Y-113700250D01*
X134370000Y-113280000D01*
X134870000Y-113280000D01*
X134870000Y-113700250D01*
X134926750Y-113757000D01*
X135165153Y-113757000D01*
X135248585Y-113722441D01*
X135312441Y-113658585D01*
X135347000Y-113575153D01*
X135347000Y-113336750D01*
X135290250Y-113280000D01*
X134870000Y-113280000D01*
X134370000Y-113280000D01*
X133949750Y-113280000D01*
X133921431Y-113308319D01*
X133576756Y-113165197D01*
X133214883Y-113164881D01*
X133215197Y-112805225D01*
X133082820Y-112484847D01*
X133893000Y-112484847D01*
X133893000Y-112723250D01*
X133949750Y-112780000D01*
X134370000Y-112780000D01*
X134370000Y-112359750D01*
X134870000Y-112359750D01*
X134870000Y-112780000D01*
X135290250Y-112780000D01*
X135347000Y-112723250D01*
X135347000Y-112484847D01*
X135312441Y-112401415D01*
X135248585Y-112337559D01*
X135165153Y-112303000D01*
X134926750Y-112303000D01*
X134870000Y-112359750D01*
X134370000Y-112359750D01*
X134313250Y-112303000D01*
X134074847Y-112303000D01*
X133991415Y-112337559D01*
X133927559Y-112401415D01*
X133893000Y-112484847D01*
X133082820Y-112484847D01*
X133042767Y-112387914D01*
X132723765Y-112068355D01*
X132427097Y-111945167D01*
X141939838Y-111945167D01*
X142081883Y-112288943D01*
X142113000Y-112320114D01*
X142113000Y-114374534D01*
X142082808Y-114404673D01*
X141940162Y-114748201D01*
X141939838Y-115120167D01*
X142081883Y-115463943D01*
X142344673Y-115727192D01*
X142688201Y-115869838D01*
X143060167Y-115870162D01*
X143403943Y-115728117D01*
X143667192Y-115465327D01*
X143809838Y-115121799D01*
X143810162Y-114749833D01*
X143668117Y-114406057D01*
X143637000Y-114374886D01*
X143637000Y-112320466D01*
X143667192Y-112290327D01*
X143809838Y-111946799D01*
X143810162Y-111574833D01*
X143668117Y-111231057D01*
X143405327Y-110967808D01*
X143061799Y-110825162D01*
X142689833Y-110824838D01*
X142346057Y-110966883D01*
X142082808Y-111229673D01*
X141940162Y-111573201D01*
X141939838Y-111945167D01*
X132427097Y-111945167D01*
X132306756Y-111895197D01*
X131855225Y-111894803D01*
X131837841Y-111901986D01*
X131762500Y-111887000D01*
X127902035Y-111887000D01*
X127732554Y-111633353D01*
X127250785Y-111311446D01*
X126682500Y-111198407D01*
X126114215Y-111311446D01*
X125632446Y-111633353D01*
X125604650Y-111674952D01*
X125595662Y-111627183D01*
X125456590Y-111411059D01*
X125244390Y-111266069D01*
X124992500Y-111215060D01*
X123292500Y-111215060D01*
X123057183Y-111259338D01*
X122841059Y-111398410D01*
X122696069Y-111610610D01*
X122682000Y-111680085D01*
X122682000Y-106909755D01*
X122782189Y-107059698D01*
X123247736Y-107370767D01*
X123796887Y-107480000D01*
X123853113Y-107480000D01*
X124402264Y-107370767D01*
X124867811Y-107059698D01*
X125178880Y-106594151D01*
X125231584Y-106329187D01*
X127469752Y-106329187D01*
X127687757Y-106856800D01*
X128091077Y-107260824D01*
X128618309Y-107479750D01*
X129189187Y-107480248D01*
X129716800Y-107262243D01*
X130120824Y-106858923D01*
X130339750Y-106331691D01*
X130340248Y-105760813D01*
X130122243Y-105233200D01*
X130096709Y-105207621D01*
X165383679Y-105207621D01*
X165624315Y-105552138D01*
X165937384Y-105761292D01*
X166097000Y-105758047D01*
X166097000Y-105048000D01*
X165384895Y-105048000D01*
X165383679Y-105207621D01*
X130096709Y-105207621D01*
X129718923Y-104829176D01*
X129191691Y-104610250D01*
X128620813Y-104609752D01*
X128093200Y-104827757D01*
X127689176Y-105231077D01*
X127470250Y-105758309D01*
X127469752Y-106329187D01*
X125231584Y-106329187D01*
X125288113Y-106045000D01*
X125178880Y-105495849D01*
X124867811Y-105030302D01*
X124402264Y-104719233D01*
X123853113Y-104610000D01*
X123796887Y-104610000D01*
X123247736Y-104719233D01*
X122782189Y-105030302D01*
X122682000Y-105180245D01*
X122682000Y-104342379D01*
X165383679Y-104342379D01*
X165384895Y-104502000D01*
X166097000Y-104502000D01*
X166097000Y-103791953D01*
X166643000Y-103791953D01*
X166643000Y-104502000D01*
X166663000Y-104502000D01*
X166663000Y-105048000D01*
X166643000Y-105048000D01*
X166643000Y-105758047D01*
X166802616Y-105761292D01*
X167115685Y-105552138D01*
X167356321Y-105207621D01*
X167355105Y-105048002D01*
X167412560Y-105048002D01*
X167412560Y-105625000D01*
X167456838Y-105860317D01*
X167595910Y-106076441D01*
X167808110Y-106221431D01*
X168060000Y-106272440D01*
X169760000Y-106272440D01*
X169995317Y-106228162D01*
X170211441Y-106089090D01*
X170356431Y-105876890D01*
X170407440Y-105625000D01*
X170407440Y-103925000D01*
X170363162Y-103689683D01*
X170224090Y-103473559D01*
X170011890Y-103328569D01*
X169760000Y-103277560D01*
X168060000Y-103277560D01*
X167824683Y-103321838D01*
X167608559Y-103460910D01*
X167463569Y-103673110D01*
X167412560Y-103925000D01*
X167412560Y-104501998D01*
X167355105Y-104501998D01*
X167356321Y-104342379D01*
X167115685Y-103997862D01*
X166802616Y-103788708D01*
X166643000Y-103791953D01*
X166097000Y-103791953D01*
X165937384Y-103788708D01*
X165624315Y-103997862D01*
X165383679Y-104342379D01*
X122682000Y-104342379D01*
X122682000Y-102328819D01*
X122689338Y-102367817D01*
X122828410Y-102583941D01*
X123040610Y-102728931D01*
X123292500Y-102779940D01*
X124992500Y-102779940D01*
X125227817Y-102735662D01*
X125443941Y-102596590D01*
X125588931Y-102384390D01*
X125602586Y-102316959D01*
X125632446Y-102361647D01*
X126114215Y-102683554D01*
X126682500Y-102796593D01*
X127250785Y-102683554D01*
X127732554Y-102361647D01*
X127902035Y-102108000D01*
X131061830Y-102108000D01*
X131117233Y-102242086D01*
X131436235Y-102561645D01*
X131853244Y-102734803D01*
X132215117Y-102735119D01*
X132214803Y-103094775D01*
X132387233Y-103512086D01*
X132706235Y-103831645D01*
X133123244Y-104004803D01*
X133574775Y-104005197D01*
X133992086Y-103832767D01*
X134311645Y-103513765D01*
X134484803Y-103096756D01*
X134485197Y-102645225D01*
X134341879Y-102298371D01*
X134370000Y-102270250D01*
X134370000Y-101850000D01*
X134870000Y-101850000D01*
X134870000Y-102270250D01*
X134926750Y-102327000D01*
X135165153Y-102327000D01*
X135248585Y-102292441D01*
X135312441Y-102228585D01*
X135347000Y-102145153D01*
X135347000Y-101906750D01*
X135290250Y-101850000D01*
X134870000Y-101850000D01*
X134370000Y-101850000D01*
X133949750Y-101850000D01*
X133921431Y-101878319D01*
X133576756Y-101735197D01*
X133214883Y-101734881D01*
X133215197Y-101375225D01*
X133082820Y-101054847D01*
X133893000Y-101054847D01*
X133893000Y-101293250D01*
X133949750Y-101350000D01*
X134370000Y-101350000D01*
X134370000Y-100929750D01*
X134870000Y-100929750D01*
X134870000Y-101350000D01*
X135290250Y-101350000D01*
X135347000Y-101293250D01*
X135347000Y-101054847D01*
X135312441Y-100971415D01*
X135248585Y-100907559D01*
X135165153Y-100873000D01*
X134926750Y-100873000D01*
X134870000Y-100929750D01*
X134370000Y-100929750D01*
X134313250Y-100873000D01*
X134074847Y-100873000D01*
X133991415Y-100907559D01*
X133927559Y-100971415D01*
X133893000Y-101054847D01*
X133082820Y-101054847D01*
X133042767Y-100957914D01*
X132745123Y-100659750D01*
X164658000Y-100659750D01*
X164658000Y-101225153D01*
X164692559Y-101308585D01*
X164756415Y-101372441D01*
X164839847Y-101407000D01*
X165405250Y-101407000D01*
X165462000Y-101350250D01*
X165462000Y-100603000D01*
X164714750Y-100603000D01*
X164658000Y-100659750D01*
X132745123Y-100659750D01*
X132723765Y-100638355D01*
X132306756Y-100465197D01*
X131855225Y-100464803D01*
X131837841Y-100471986D01*
X131762500Y-100457000D01*
X127902035Y-100457000D01*
X127732554Y-100203353D01*
X127250785Y-99881446D01*
X126682500Y-99768407D01*
X126114215Y-99881446D01*
X125632446Y-100203353D01*
X125604650Y-100244952D01*
X125595662Y-100197183D01*
X125456590Y-99981059D01*
X125244390Y-99836069D01*
X124992500Y-99785060D01*
X123292500Y-99785060D01*
X123057183Y-99829338D01*
X122841059Y-99968410D01*
X122696069Y-100180610D01*
X122682000Y-100250085D01*
X122682000Y-99434847D01*
X164658000Y-99434847D01*
X164658000Y-100000250D01*
X164714750Y-100057000D01*
X165462000Y-100057000D01*
X165462000Y-99309750D01*
X165405250Y-99253000D01*
X164839847Y-99253000D01*
X164756415Y-99287559D01*
X164692559Y-99351415D01*
X164658000Y-99434847D01*
X122682000Y-99434847D01*
X122682000Y-93530167D01*
X150829838Y-93530167D01*
X150971883Y-93873943D01*
X151234673Y-94137192D01*
X151578201Y-94279838D01*
X151950167Y-94280162D01*
X152293943Y-94138117D01*
X152557192Y-93875327D01*
X152603549Y-93763687D01*
X153028618Y-93338618D01*
X153221330Y-93050205D01*
X153289000Y-92710000D01*
X153289000Y-90538236D01*
X155993474Y-87833762D01*
X156103943Y-87788117D01*
X156367192Y-87525327D01*
X156509838Y-87181799D01*
X156510162Y-86809833D01*
X156368117Y-86466057D01*
X156105327Y-86202808D01*
X155761799Y-86060162D01*
X155389833Y-86059838D01*
X155046057Y-86201883D01*
X154782808Y-86464673D01*
X154736451Y-86576313D01*
X151771382Y-89541382D01*
X151578671Y-89829794D01*
X151511000Y-90170000D01*
X151511000Y-92341764D01*
X151346526Y-92506238D01*
X151236057Y-92551883D01*
X150972808Y-92814673D01*
X150830162Y-93158201D01*
X150829838Y-93530167D01*
X122682000Y-93530167D01*
X122682000Y-88792693D01*
X126978387Y-88792693D01*
X127135849Y-88946644D01*
X127686837Y-89083360D01*
X128248202Y-88998814D01*
X128374151Y-88946644D01*
X128531613Y-88792693D01*
X127755000Y-88016080D01*
X126978387Y-88792693D01*
X122682000Y-88792693D01*
X122682000Y-87561837D01*
X126301640Y-87561837D01*
X126386186Y-88123202D01*
X126438356Y-88249151D01*
X126592307Y-88406613D01*
X127368920Y-87630000D01*
X128141080Y-87630000D01*
X128917693Y-88406613D01*
X129071644Y-88249151D01*
X129208360Y-87698163D01*
X129123814Y-87136798D01*
X129071644Y-87010849D01*
X128917693Y-86853387D01*
X128141080Y-87630000D01*
X127368920Y-87630000D01*
X126592307Y-86853387D01*
X126438356Y-87010849D01*
X126301640Y-87561837D01*
X122682000Y-87561837D01*
X122682000Y-86467307D01*
X126978387Y-86467307D01*
X127755000Y-87243920D01*
X128531613Y-86467307D01*
X128493456Y-86430000D01*
X133407560Y-86430000D01*
X133407560Y-88830000D01*
X133451838Y-89065317D01*
X133590910Y-89281441D01*
X133803110Y-89426431D01*
X134055000Y-89477440D01*
X136455000Y-89477440D01*
X136690317Y-89433162D01*
X136906441Y-89294090D01*
X137051431Y-89081890D01*
X137102440Y-88830000D01*
X137102440Y-86430000D01*
X137058162Y-86194683D01*
X136919090Y-85978559D01*
X136706890Y-85833569D01*
X136455000Y-85782560D01*
X134055000Y-85782560D01*
X133819683Y-85826838D01*
X133603559Y-85965910D01*
X133458569Y-86178110D01*
X133407560Y-86430000D01*
X128493456Y-86430000D01*
X128374151Y-86313356D01*
X127823163Y-86176640D01*
X127261798Y-86261186D01*
X127135849Y-86313356D01*
X126978387Y-86467307D01*
X122682000Y-86467307D01*
X122682000Y-82550000D01*
X139928600Y-82550000D01*
X140007872Y-82948527D01*
X140233619Y-83286381D01*
X140571473Y-83512128D01*
X140970000Y-83591400D01*
X154305000Y-83591400D01*
X154703527Y-83512128D01*
X155041381Y-83286381D01*
X155267128Y-82948527D01*
X155346400Y-82550000D01*
X155267128Y-82151473D01*
X155041381Y-81813619D01*
X154703527Y-81587872D01*
X154305000Y-81508600D01*
X140970000Y-81508600D01*
X140571473Y-81587872D01*
X140233619Y-81813619D01*
X140007872Y-82151473D01*
X139928600Y-82550000D01*
X122682000Y-82550000D01*
X122682000Y-68472693D01*
X126978387Y-68472693D01*
X127135849Y-68626644D01*
X127686837Y-68763360D01*
X128248202Y-68678814D01*
X128374151Y-68626644D01*
X128531613Y-68472693D01*
X127755000Y-67696080D01*
X126978387Y-68472693D01*
X122682000Y-68472693D01*
X122682000Y-67241837D01*
X126301640Y-67241837D01*
X126386186Y-67803202D01*
X126438356Y-67929151D01*
X126592307Y-68086613D01*
X127368920Y-67310000D01*
X128141080Y-67310000D01*
X128917693Y-68086613D01*
X129071644Y-67929151D01*
X129208360Y-67378163D01*
X129123814Y-66816798D01*
X129071644Y-66690849D01*
X128917693Y-66533387D01*
X128141080Y-67310000D01*
X127368920Y-67310000D01*
X126592307Y-66533387D01*
X126438356Y-66690849D01*
X126301640Y-67241837D01*
X122682000Y-67241837D01*
X122682000Y-66147307D01*
X126978387Y-66147307D01*
X127755000Y-66923920D01*
X128531613Y-66147307D01*
X128493456Y-66110000D01*
X133407560Y-66110000D01*
X133407560Y-68510000D01*
X133451838Y-68745317D01*
X133590910Y-68961441D01*
X133803110Y-69106431D01*
X134055000Y-69157440D01*
X136455000Y-69157440D01*
X136690317Y-69113162D01*
X136906441Y-68974090D01*
X137051431Y-68761890D01*
X137102440Y-68510000D01*
X137102440Y-66110000D01*
X137058162Y-65874683D01*
X136919090Y-65658559D01*
X136706890Y-65513569D01*
X136455000Y-65462560D01*
X134055000Y-65462560D01*
X133819683Y-65506838D01*
X133603559Y-65645910D01*
X133458569Y-65858110D01*
X133407560Y-66110000D01*
X128493456Y-66110000D01*
X128374151Y-65993356D01*
X127823163Y-65856640D01*
X127261798Y-65941186D01*
X127135849Y-65993356D01*
X126978387Y-66147307D01*
X122682000Y-66147307D01*
X122682000Y-58547000D01*
X140208000Y-58547000D01*
X140208000Y-81280000D01*
X140208000Y-81280000D01*
G37*
X140208000Y-81280000D02*
X140218006Y-81329410D01*
X140246447Y-81371035D01*
X140288841Y-81398315D01*
X140335000Y-81407000D01*
X160528000Y-81407000D01*
X160528000Y-89535000D01*
X160538006Y-89584410D01*
X160566447Y-89626035D01*
X160608841Y-89653315D01*
X160655000Y-89662000D01*
X201803000Y-89662000D01*
X201803000Y-99568000D01*
X201159964Y-99568000D01*
X200948054Y-99250853D01*
X200466285Y-98928946D01*
X199898000Y-98815907D01*
X199329715Y-98928946D01*
X198847946Y-99250853D01*
X198636036Y-99568000D01*
X198619964Y-99568000D01*
X198408054Y-99250853D01*
X198120000Y-99058382D01*
X198120000Y-94930630D01*
X198135506Y-94915125D01*
X198178167Y-94915162D01*
X198521943Y-94773117D01*
X198785192Y-94510327D01*
X198927838Y-94166799D01*
X198928162Y-93794833D01*
X198786117Y-93451057D01*
X198523327Y-93187808D01*
X198179799Y-93045162D01*
X197807833Y-93044838D01*
X197464057Y-93186883D01*
X197200808Y-93449673D01*
X197058162Y-93793201D01*
X197058124Y-93837246D01*
X196819185Y-94076185D01*
X196654004Y-94323395D01*
X196596000Y-94615000D01*
X196596000Y-99058382D01*
X196307946Y-99250853D01*
X196096036Y-99568000D01*
X195895000Y-99568000D01*
X195895000Y-99434847D01*
X195860441Y-99351415D01*
X195796585Y-99287559D01*
X195713153Y-99253000D01*
X195147750Y-99253000D01*
X195091000Y-99309750D01*
X195091000Y-99568000D01*
X194545000Y-99568000D01*
X194545000Y-99309750D01*
X194488250Y-99253000D01*
X193922847Y-99253000D01*
X193839415Y-99287559D01*
X193775559Y-99351415D01*
X193741000Y-99434847D01*
X193741000Y-99568000D01*
X172720000Y-99568000D01*
X172670590Y-99578006D01*
X172628965Y-99606447D01*
X172601685Y-99648841D01*
X172593000Y-99695000D01*
X172593000Y-102108000D01*
X171130631Y-102108000D01*
X170858142Y-101835511D01*
X171383285Y-101731054D01*
X171865054Y-101409147D01*
X172186961Y-100927378D01*
X172300000Y-100359093D01*
X172300000Y-100300907D01*
X172186961Y-99732622D01*
X171865054Y-99250853D01*
X171383285Y-98928946D01*
X170815000Y-98815907D01*
X170246715Y-98928946D01*
X169764946Y-99250853D01*
X169545000Y-99580026D01*
X169325054Y-99250853D01*
X169037000Y-99058382D01*
X169037000Y-94930630D01*
X169052506Y-94915125D01*
X169095167Y-94915162D01*
X169438943Y-94773117D01*
X169702192Y-94510327D01*
X169844838Y-94166799D01*
X169845162Y-93794833D01*
X169703117Y-93451057D01*
X169440327Y-93187808D01*
X169096799Y-93045162D01*
X168724833Y-93044838D01*
X168381057Y-93186883D01*
X168117808Y-93449673D01*
X167975162Y-93793201D01*
X167975124Y-93837246D01*
X167736185Y-94076185D01*
X167571004Y-94323395D01*
X167513000Y-94615000D01*
X167513000Y-99058382D01*
X167224946Y-99250853D01*
X166903039Y-99732622D01*
X166812000Y-100190306D01*
X166812000Y-100056998D01*
X166755252Y-100056998D01*
X166812000Y-100000250D01*
X166812000Y-99434847D01*
X166777441Y-99351415D01*
X166713585Y-99287559D01*
X166630153Y-99253000D01*
X166064750Y-99253000D01*
X166008000Y-99309750D01*
X166008000Y-100057000D01*
X166028000Y-100057000D01*
X166028000Y-100603000D01*
X166008000Y-100603000D01*
X166008000Y-101350250D01*
X166064750Y-101407000D01*
X166630153Y-101407000D01*
X166713585Y-101372441D01*
X166777441Y-101308585D01*
X166812000Y-101225153D01*
X166812000Y-100659750D01*
X166755252Y-100603002D01*
X166812000Y-100603002D01*
X166812000Y-100469694D01*
X166903039Y-100927378D01*
X167224946Y-101409147D01*
X167706715Y-101731054D01*
X168275000Y-101844093D01*
X168639049Y-101771679D01*
X170276184Y-103408815D01*
X170430740Y-103512086D01*
X170523395Y-103573996D01*
X170815000Y-103632000D01*
X172593000Y-103632000D01*
X172593000Y-119253000D01*
X157405466Y-119253000D01*
X157375327Y-119222808D01*
X157031799Y-119080162D01*
X156659833Y-119079838D01*
X156316057Y-119221883D01*
X156284886Y-119253000D01*
X122682000Y-119253000D01*
X122682000Y-118339755D01*
X122782189Y-118489698D01*
X123247736Y-118800767D01*
X123796887Y-118910000D01*
X123853113Y-118910000D01*
X124402264Y-118800767D01*
X124867811Y-118489698D01*
X125178880Y-118024151D01*
X125231584Y-117759187D01*
X127469752Y-117759187D01*
X127687757Y-118286800D01*
X128091077Y-118690824D01*
X128618309Y-118909750D01*
X129189187Y-118910248D01*
X129716800Y-118692243D01*
X130120824Y-118288923D01*
X130339750Y-117761691D01*
X130340248Y-117190813D01*
X130122243Y-116663200D01*
X129718923Y-116259176D01*
X129191691Y-116040250D01*
X128620813Y-116039752D01*
X128093200Y-116257757D01*
X127689176Y-116661077D01*
X127470250Y-117188309D01*
X127469752Y-117759187D01*
X125231584Y-117759187D01*
X125288113Y-117475000D01*
X125178880Y-116925849D01*
X124867811Y-116460302D01*
X124402264Y-116149233D01*
X123853113Y-116040000D01*
X123796887Y-116040000D01*
X123247736Y-116149233D01*
X122782189Y-116460302D01*
X122682000Y-116610245D01*
X122682000Y-113758819D01*
X122689338Y-113797817D01*
X122828410Y-114013941D01*
X123040610Y-114158931D01*
X123292500Y-114209940D01*
X124992500Y-114209940D01*
X125227817Y-114165662D01*
X125443941Y-114026590D01*
X125588931Y-113814390D01*
X125602586Y-113746959D01*
X125632446Y-113791647D01*
X126114215Y-114113554D01*
X126682500Y-114226593D01*
X127250785Y-114113554D01*
X127732554Y-113791647D01*
X127902035Y-113538000D01*
X131061830Y-113538000D01*
X131117233Y-113672086D01*
X131436235Y-113991645D01*
X131853244Y-114164803D01*
X132215117Y-114165119D01*
X132214803Y-114524775D01*
X132387233Y-114942086D01*
X132706235Y-115261645D01*
X133123244Y-115434803D01*
X133574775Y-115435197D01*
X133992086Y-115262767D01*
X134311645Y-114943765D01*
X134484803Y-114526756D01*
X134485197Y-114075225D01*
X134341879Y-113728371D01*
X134370000Y-113700250D01*
X134370000Y-113280000D01*
X134870000Y-113280000D01*
X134870000Y-113700250D01*
X134926750Y-113757000D01*
X135165153Y-113757000D01*
X135248585Y-113722441D01*
X135312441Y-113658585D01*
X135347000Y-113575153D01*
X135347000Y-113336750D01*
X135290250Y-113280000D01*
X134870000Y-113280000D01*
X134370000Y-113280000D01*
X133949750Y-113280000D01*
X133921431Y-113308319D01*
X133576756Y-113165197D01*
X133214883Y-113164881D01*
X133215197Y-112805225D01*
X133082820Y-112484847D01*
X133893000Y-112484847D01*
X133893000Y-112723250D01*
X133949750Y-112780000D01*
X134370000Y-112780000D01*
X134370000Y-112359750D01*
X134870000Y-112359750D01*
X134870000Y-112780000D01*
X135290250Y-112780000D01*
X135347000Y-112723250D01*
X135347000Y-112484847D01*
X135312441Y-112401415D01*
X135248585Y-112337559D01*
X135165153Y-112303000D01*
X134926750Y-112303000D01*
X134870000Y-112359750D01*
X134370000Y-112359750D01*
X134313250Y-112303000D01*
X134074847Y-112303000D01*
X133991415Y-112337559D01*
X133927559Y-112401415D01*
X133893000Y-112484847D01*
X133082820Y-112484847D01*
X133042767Y-112387914D01*
X132723765Y-112068355D01*
X132427097Y-111945167D01*
X141939838Y-111945167D01*
X142081883Y-112288943D01*
X142113000Y-112320114D01*
X142113000Y-114374534D01*
X142082808Y-114404673D01*
X141940162Y-114748201D01*
X141939838Y-115120167D01*
X142081883Y-115463943D01*
X142344673Y-115727192D01*
X142688201Y-115869838D01*
X143060167Y-115870162D01*
X143403943Y-115728117D01*
X143667192Y-115465327D01*
X143809838Y-115121799D01*
X143810162Y-114749833D01*
X143668117Y-114406057D01*
X143637000Y-114374886D01*
X143637000Y-112320466D01*
X143667192Y-112290327D01*
X143809838Y-111946799D01*
X143810162Y-111574833D01*
X143668117Y-111231057D01*
X143405327Y-110967808D01*
X143061799Y-110825162D01*
X142689833Y-110824838D01*
X142346057Y-110966883D01*
X142082808Y-111229673D01*
X141940162Y-111573201D01*
X141939838Y-111945167D01*
X132427097Y-111945167D01*
X132306756Y-111895197D01*
X131855225Y-111894803D01*
X131837841Y-111901986D01*
X131762500Y-111887000D01*
X127902035Y-111887000D01*
X127732554Y-111633353D01*
X127250785Y-111311446D01*
X126682500Y-111198407D01*
X126114215Y-111311446D01*
X125632446Y-111633353D01*
X125604650Y-111674952D01*
X125595662Y-111627183D01*
X125456590Y-111411059D01*
X125244390Y-111266069D01*
X124992500Y-111215060D01*
X123292500Y-111215060D01*
X123057183Y-111259338D01*
X122841059Y-111398410D01*
X122696069Y-111610610D01*
X122682000Y-111680085D01*
X122682000Y-106909755D01*
X122782189Y-107059698D01*
X123247736Y-107370767D01*
X123796887Y-107480000D01*
X123853113Y-107480000D01*
X124402264Y-107370767D01*
X124867811Y-107059698D01*
X125178880Y-106594151D01*
X125231584Y-106329187D01*
X127469752Y-106329187D01*
X127687757Y-106856800D01*
X128091077Y-107260824D01*
X128618309Y-107479750D01*
X129189187Y-107480248D01*
X129716800Y-107262243D01*
X130120824Y-106858923D01*
X130339750Y-106331691D01*
X130340248Y-105760813D01*
X130122243Y-105233200D01*
X130096709Y-105207621D01*
X165383679Y-105207621D01*
X165624315Y-105552138D01*
X165937384Y-105761292D01*
X166097000Y-105758047D01*
X166097000Y-105048000D01*
X165384895Y-105048000D01*
X165383679Y-105207621D01*
X130096709Y-105207621D01*
X129718923Y-104829176D01*
X129191691Y-104610250D01*
X128620813Y-104609752D01*
X128093200Y-104827757D01*
X127689176Y-105231077D01*
X127470250Y-105758309D01*
X127469752Y-106329187D01*
X125231584Y-106329187D01*
X125288113Y-106045000D01*
X125178880Y-105495849D01*
X124867811Y-105030302D01*
X124402264Y-104719233D01*
X123853113Y-104610000D01*
X123796887Y-104610000D01*
X123247736Y-104719233D01*
X122782189Y-105030302D01*
X122682000Y-105180245D01*
X122682000Y-104342379D01*
X165383679Y-104342379D01*
X165384895Y-104502000D01*
X166097000Y-104502000D01*
X166097000Y-103791953D01*
X166643000Y-103791953D01*
X166643000Y-104502000D01*
X166663000Y-104502000D01*
X166663000Y-105048000D01*
X166643000Y-105048000D01*
X166643000Y-105758047D01*
X166802616Y-105761292D01*
X167115685Y-105552138D01*
X167356321Y-105207621D01*
X167355105Y-105048002D01*
X167412560Y-105048002D01*
X167412560Y-105625000D01*
X167456838Y-105860317D01*
X167595910Y-106076441D01*
X167808110Y-106221431D01*
X168060000Y-106272440D01*
X169760000Y-106272440D01*
X169995317Y-106228162D01*
X170211441Y-106089090D01*
X170356431Y-105876890D01*
X170407440Y-105625000D01*
X170407440Y-103925000D01*
X170363162Y-103689683D01*
X170224090Y-103473559D01*
X170011890Y-103328569D01*
X169760000Y-103277560D01*
X168060000Y-103277560D01*
X167824683Y-103321838D01*
X167608559Y-103460910D01*
X167463569Y-103673110D01*
X167412560Y-103925000D01*
X167412560Y-104501998D01*
X167355105Y-104501998D01*
X167356321Y-104342379D01*
X167115685Y-103997862D01*
X166802616Y-103788708D01*
X166643000Y-103791953D01*
X166097000Y-103791953D01*
X165937384Y-103788708D01*
X165624315Y-103997862D01*
X165383679Y-104342379D01*
X122682000Y-104342379D01*
X122682000Y-102328819D01*
X122689338Y-102367817D01*
X122828410Y-102583941D01*
X123040610Y-102728931D01*
X123292500Y-102779940D01*
X124992500Y-102779940D01*
X125227817Y-102735662D01*
X125443941Y-102596590D01*
X125588931Y-102384390D01*
X125602586Y-102316959D01*
X125632446Y-102361647D01*
X126114215Y-102683554D01*
X126682500Y-102796593D01*
X127250785Y-102683554D01*
X127732554Y-102361647D01*
X127902035Y-102108000D01*
X131061830Y-102108000D01*
X131117233Y-102242086D01*
X131436235Y-102561645D01*
X131853244Y-102734803D01*
X132215117Y-102735119D01*
X132214803Y-103094775D01*
X132387233Y-103512086D01*
X132706235Y-103831645D01*
X133123244Y-104004803D01*
X133574775Y-104005197D01*
X133992086Y-103832767D01*
X134311645Y-103513765D01*
X134484803Y-103096756D01*
X134485197Y-102645225D01*
X134341879Y-102298371D01*
X134370000Y-102270250D01*
X134370000Y-101850000D01*
X134870000Y-101850000D01*
X134870000Y-102270250D01*
X134926750Y-102327000D01*
X135165153Y-102327000D01*
X135248585Y-102292441D01*
X135312441Y-102228585D01*
X135347000Y-102145153D01*
X135347000Y-101906750D01*
X135290250Y-101850000D01*
X134870000Y-101850000D01*
X134370000Y-101850000D01*
X133949750Y-101850000D01*
X133921431Y-101878319D01*
X133576756Y-101735197D01*
X133214883Y-101734881D01*
X133215197Y-101375225D01*
X133082820Y-101054847D01*
X133893000Y-101054847D01*
X133893000Y-101293250D01*
X133949750Y-101350000D01*
X134370000Y-101350000D01*
X134370000Y-100929750D01*
X134870000Y-100929750D01*
X134870000Y-101350000D01*
X135290250Y-101350000D01*
X135347000Y-101293250D01*
X135347000Y-101054847D01*
X135312441Y-100971415D01*
X135248585Y-100907559D01*
X135165153Y-100873000D01*
X134926750Y-100873000D01*
X134870000Y-100929750D01*
X134370000Y-100929750D01*
X134313250Y-100873000D01*
X134074847Y-100873000D01*
X133991415Y-100907559D01*
X133927559Y-100971415D01*
X133893000Y-101054847D01*
X133082820Y-101054847D01*
X133042767Y-100957914D01*
X132745123Y-100659750D01*
X164658000Y-100659750D01*
X164658000Y-101225153D01*
X164692559Y-101308585D01*
X164756415Y-101372441D01*
X164839847Y-101407000D01*
X165405250Y-101407000D01*
X165462000Y-101350250D01*
X165462000Y-100603000D01*
X164714750Y-100603000D01*
X164658000Y-100659750D01*
X132745123Y-100659750D01*
X132723765Y-100638355D01*
X132306756Y-100465197D01*
X131855225Y-100464803D01*
X131837841Y-100471986D01*
X131762500Y-100457000D01*
X127902035Y-100457000D01*
X127732554Y-100203353D01*
X127250785Y-99881446D01*
X126682500Y-99768407D01*
X126114215Y-99881446D01*
X125632446Y-100203353D01*
X125604650Y-100244952D01*
X125595662Y-100197183D01*
X125456590Y-99981059D01*
X125244390Y-99836069D01*
X124992500Y-99785060D01*
X123292500Y-99785060D01*
X123057183Y-99829338D01*
X122841059Y-99968410D01*
X122696069Y-100180610D01*
X122682000Y-100250085D01*
X122682000Y-99434847D01*
X164658000Y-99434847D01*
X164658000Y-100000250D01*
X164714750Y-100057000D01*
X165462000Y-100057000D01*
X165462000Y-99309750D01*
X165405250Y-99253000D01*
X164839847Y-99253000D01*
X164756415Y-99287559D01*
X164692559Y-99351415D01*
X164658000Y-99434847D01*
X122682000Y-99434847D01*
X122682000Y-93530167D01*
X150829838Y-93530167D01*
X150971883Y-93873943D01*
X151234673Y-94137192D01*
X151578201Y-94279838D01*
X151950167Y-94280162D01*
X152293943Y-94138117D01*
X152557192Y-93875327D01*
X152603549Y-93763687D01*
X153028618Y-93338618D01*
X153221330Y-93050205D01*
X153289000Y-92710000D01*
X153289000Y-90538236D01*
X155993474Y-87833762D01*
X156103943Y-87788117D01*
X156367192Y-87525327D01*
X156509838Y-87181799D01*
X156510162Y-86809833D01*
X156368117Y-86466057D01*
X156105327Y-86202808D01*
X155761799Y-86060162D01*
X155389833Y-86059838D01*
X155046057Y-86201883D01*
X154782808Y-86464673D01*
X154736451Y-86576313D01*
X151771382Y-89541382D01*
X151578671Y-89829794D01*
X151511000Y-90170000D01*
X151511000Y-92341764D01*
X151346526Y-92506238D01*
X151236057Y-92551883D01*
X150972808Y-92814673D01*
X150830162Y-93158201D01*
X150829838Y-93530167D01*
X122682000Y-93530167D01*
X122682000Y-88792693D01*
X126978387Y-88792693D01*
X127135849Y-88946644D01*
X127686837Y-89083360D01*
X128248202Y-88998814D01*
X128374151Y-88946644D01*
X128531613Y-88792693D01*
X127755000Y-88016080D01*
X126978387Y-88792693D01*
X122682000Y-88792693D01*
X122682000Y-87561837D01*
X126301640Y-87561837D01*
X126386186Y-88123202D01*
X126438356Y-88249151D01*
X126592307Y-88406613D01*
X127368920Y-87630000D01*
X128141080Y-87630000D01*
X128917693Y-88406613D01*
X129071644Y-88249151D01*
X129208360Y-87698163D01*
X129123814Y-87136798D01*
X129071644Y-87010849D01*
X128917693Y-86853387D01*
X128141080Y-87630000D01*
X127368920Y-87630000D01*
X126592307Y-86853387D01*
X126438356Y-87010849D01*
X126301640Y-87561837D01*
X122682000Y-87561837D01*
X122682000Y-86467307D01*
X126978387Y-86467307D01*
X127755000Y-87243920D01*
X128531613Y-86467307D01*
X128493456Y-86430000D01*
X133407560Y-86430000D01*
X133407560Y-88830000D01*
X133451838Y-89065317D01*
X133590910Y-89281441D01*
X133803110Y-89426431D01*
X134055000Y-89477440D01*
X136455000Y-89477440D01*
X136690317Y-89433162D01*
X136906441Y-89294090D01*
X137051431Y-89081890D01*
X137102440Y-88830000D01*
X137102440Y-86430000D01*
X137058162Y-86194683D01*
X136919090Y-85978559D01*
X136706890Y-85833569D01*
X136455000Y-85782560D01*
X134055000Y-85782560D01*
X133819683Y-85826838D01*
X133603559Y-85965910D01*
X133458569Y-86178110D01*
X133407560Y-86430000D01*
X128493456Y-86430000D01*
X128374151Y-86313356D01*
X127823163Y-86176640D01*
X127261798Y-86261186D01*
X127135849Y-86313356D01*
X126978387Y-86467307D01*
X122682000Y-86467307D01*
X122682000Y-82550000D01*
X139928600Y-82550000D01*
X140007872Y-82948527D01*
X140233619Y-83286381D01*
X140571473Y-83512128D01*
X140970000Y-83591400D01*
X154305000Y-83591400D01*
X154703527Y-83512128D01*
X155041381Y-83286381D01*
X155267128Y-82948527D01*
X155346400Y-82550000D01*
X155267128Y-82151473D01*
X155041381Y-81813619D01*
X154703527Y-81587872D01*
X154305000Y-81508600D01*
X140970000Y-81508600D01*
X140571473Y-81587872D01*
X140233619Y-81813619D01*
X140007872Y-82151473D01*
X139928600Y-82550000D01*
X122682000Y-82550000D01*
X122682000Y-68472693D01*
X126978387Y-68472693D01*
X127135849Y-68626644D01*
X127686837Y-68763360D01*
X128248202Y-68678814D01*
X128374151Y-68626644D01*
X128531613Y-68472693D01*
X127755000Y-67696080D01*
X126978387Y-68472693D01*
X122682000Y-68472693D01*
X122682000Y-67241837D01*
X126301640Y-67241837D01*
X126386186Y-67803202D01*
X126438356Y-67929151D01*
X126592307Y-68086613D01*
X127368920Y-67310000D01*
X128141080Y-67310000D01*
X128917693Y-68086613D01*
X129071644Y-67929151D01*
X129208360Y-67378163D01*
X129123814Y-66816798D01*
X129071644Y-66690849D01*
X128917693Y-66533387D01*
X128141080Y-67310000D01*
X127368920Y-67310000D01*
X126592307Y-66533387D01*
X126438356Y-66690849D01*
X126301640Y-67241837D01*
X122682000Y-67241837D01*
X122682000Y-66147307D01*
X126978387Y-66147307D01*
X127755000Y-66923920D01*
X128531613Y-66147307D01*
X128493456Y-66110000D01*
X133407560Y-66110000D01*
X133407560Y-68510000D01*
X133451838Y-68745317D01*
X133590910Y-68961441D01*
X133803110Y-69106431D01*
X134055000Y-69157440D01*
X136455000Y-69157440D01*
X136690317Y-69113162D01*
X136906441Y-68974090D01*
X137051431Y-68761890D01*
X137102440Y-68510000D01*
X137102440Y-66110000D01*
X137058162Y-65874683D01*
X136919090Y-65658559D01*
X136706890Y-65513569D01*
X136455000Y-65462560D01*
X134055000Y-65462560D01*
X133819683Y-65506838D01*
X133603559Y-65645910D01*
X133458569Y-65858110D01*
X133407560Y-66110000D01*
X128493456Y-66110000D01*
X128374151Y-65993356D01*
X127823163Y-65856640D01*
X127261798Y-65941186D01*
X127135849Y-65993356D01*
X126978387Y-66147307D01*
X122682000Y-66147307D01*
X122682000Y-58547000D01*
X140208000Y-58547000D01*
X140208000Y-81280000D01*
M02*
