M48
;DRILL file {KiCad 4.0.7} date Fri Feb  9 22:12:23 2018
;FORMAT={-:-/ absolute / inch / decimal}
FMAT,2
INCH,TZ
T1C0.012
T2C0.016
T3C0.024
T4C0.031
T5C0.039
T6C0.040
T7C0.047
T8C0.052
T9C0.059
%
G90
G05
M72
T1
X5.7Y-3.475
X5.7Y-3.525
X5.7Y-3.575
X5.7Y-3.625
X5.8Y-3.525
X5.8Y-3.575
X5.85Y-3.525
X5.85Y-3.575
X5.875Y-3.925
X5.875Y-4.
X5.875Y-4.175
X5.9Y-3.525
X5.9Y-3.575
T2
X5.425Y-4.2
X5.425Y-4.65
X5.55Y-3.25
X5.625Y-4.4
X5.625Y-4.525
X5.95Y-5.125
X5.975Y-3.675
X6.075Y-3.25
X6.125Y-3.425
X6.175Y-4.725
X6.25Y-4.775
X6.625Y-4.75
X6.65Y-3.7
X7.Y-4.9
X7.2Y-4.975
X7.39Y-5.29
X7.6Y-3.8
X7.795Y-3.7
X7.95Y-4.2
X8.09Y-5.28
X8.2Y-5.5375
X8.2375Y-5.3375
X8.275Y-5.6
X8.325Y-5.3825
X8.35Y-5.6
X8.375Y-5.2
X8.45Y-5.2
T3
X5.2Y-4.
X5.2Y-4.45
X5.25Y-4.05
X5.25Y-4.5
X5.3Y-4.
X5.3Y-4.45
T4
X4.875Y-4.175
X4.875Y-4.625
X5.075Y-4.175
X5.075Y-4.625
X5.25Y-5.325
X5.25Y-5.625
X5.35Y-5.325
X5.35Y-5.625
X5.45Y-5.325
X5.45Y-5.625
X5.55Y-5.325
X5.55Y-5.625
X5.65Y-5.325
X5.65Y-5.625
X5.75Y-5.325
X5.75Y-5.625
X5.85Y-5.325
X5.85Y-5.625
X5.95Y-5.325
X5.95Y-5.625
X6.05Y-5.325
X6.05Y-5.625
X6.15Y-5.325
X6.15Y-5.625
X6.25Y-5.325
X6.25Y-5.625
X6.35Y-5.325
X6.35Y-5.625
X7.4Y-5.1979
X7.4Y-5.39
X7.6875Y-4.4375
X7.6875Y-4.5375
X7.6875Y-4.6375
X7.6875Y-4.7375
X7.6875Y-4.8375
X7.6875Y-4.9375
X7.6875Y-5.0375
X7.6875Y-5.1375
X7.6875Y-5.2375
X7.6875Y-5.3375
X7.6875Y-5.4375
X7.6875Y-5.5375
X7.6875Y-5.6375
X7.6875Y-5.7375
X7.9875Y-4.4375
X7.9875Y-4.5375
X7.9875Y-4.6375
X7.9875Y-4.7375
X7.9875Y-4.8375
X7.9875Y-4.9375
X7.9875Y-5.0375
X7.9875Y-5.1375
X7.9875Y-5.2375
X7.9875Y-5.3375
X7.9875Y-5.4375
X7.9875Y-5.5375
X7.9875Y-5.6375
X7.9875Y-5.7375
T5
X4.8875Y-3.9875
X4.8875Y-4.4375
X4.9875Y-3.9875
X4.9875Y-4.4375
X5.45Y-4.875
X5.45Y-5.025
X5.45Y-5.825
X5.55Y-4.875
X5.55Y-5.025
X5.55Y-5.825
X5.65Y-4.875
X5.65Y-5.025
X5.65Y-5.825
X5.675Y-2.9
X5.675Y-3.1
X5.75Y-4.875
X5.75Y-5.025
X5.75Y-5.825
X5.85Y-4.875
X5.85Y-5.025
X5.85Y-5.825
X5.875Y-2.9
X5.875Y-3.1
X5.95Y-4.875
X5.95Y-5.025
X5.95Y-5.825
X6.05Y-4.875
X6.05Y-5.025
X6.05Y-5.825
X6.075Y-2.9
X6.15Y-4.875
X6.15Y-5.025
X6.15Y-5.825
X6.175Y-2.9
X6.525Y-3.95
X6.55Y-4.125
X6.625Y-3.95
X6.65Y-4.125
X6.725Y-3.95
X7.Y-4.425
X7.Y-4.525
X7.Y-4.625
X7.Y-4.725
X7.3875Y-4.5375
X7.3875Y-4.6375
X7.67Y-3.95
X7.77Y-3.95
X7.87Y-3.95
X8.15Y-4.475
X8.45Y-4.425
X8.45Y-4.525
X8.45Y-4.625
X8.45Y-4.725
X8.65Y-3.75
X8.65Y-3.85
X8.65Y-3.95
X8.65Y-4.05
X8.65Y-5.1
X8.65Y-5.2
X8.65Y-5.3
X8.65Y-5.4
X8.65Y-5.5
X8.65Y-5.6
X8.65Y-5.7
X8.65Y-5.8
X8.65Y-5.9
T6
X8.225Y-3.8
X8.225Y-3.9
X8.225Y-4.
X8.325Y-3.8
X8.325Y-3.9
X8.325Y-4.
T7
X5.0297Y-2.65
X5.0297Y-3.45
X5.325Y-2.65
X5.325Y-3.45
T8
X5.675Y-2.525
X5.8719Y-2.525
X6.0687Y-2.525
X6.55Y-2.525
X6.7469Y-2.525
X6.9437Y-2.525
X7.7Y-2.525
X7.8969Y-2.525
X8.0937Y-2.525
T9
X7.35Y-2.4
X7.35Y-3.2661
X8.5Y-2.4
X8.5Y-3.2661
T0
M30
