G04 #@! TF.FileFunction,Legend,Top*
%FSLAX46Y46*%
G04 Gerber Fmt 4.6, Leading zero omitted, Abs format (unit mm)*
G04 Created by KiCad (PCBNEW 4.0.7) date Fri Feb  9 05:02:28 2018*
%MOMM*%
%LPD*%
G01*
G04 APERTURE LIST*
%ADD10C,0.100000*%
%ADD11C,0.120000*%
%ADD12C,0.150000*%
G04 APERTURE END LIST*
D10*
D11*
X157488000Y-68160000D02*
X158488000Y-68160000D01*
X158488000Y-66460000D02*
X157488000Y-66460000D01*
X149620000Y-105795000D02*
X148450000Y-105795000D01*
X145050000Y-105795000D02*
X146220000Y-105795000D01*
X145810000Y-101215000D02*
X146220000Y-101215000D01*
X148860000Y-101215000D02*
X148450000Y-101215000D01*
X149620000Y-101985000D02*
X149620000Y-105795000D01*
X149620000Y-101985000D02*
X148860000Y-101215000D01*
X145050000Y-101985000D02*
X145050000Y-105795000D01*
X145050000Y-101985000D02*
X145810000Y-101215000D01*
X145450000Y-111475000D02*
X145450000Y-110775000D01*
X146650000Y-110775000D02*
X146650000Y-111475000D01*
X152150000Y-104505000D02*
X152150000Y-102505000D01*
X150110000Y-102505000D02*
X150110000Y-104505000D01*
X146650000Y-114585000D02*
X146650000Y-115285000D01*
X145450000Y-115285000D02*
X145450000Y-114585000D01*
X103765000Y-41910000D02*
G75*
G03X103765000Y-41910000I-9090000J0D01*
G01*
X94675000Y-50960000D02*
X94675000Y-32860000D01*
X94635000Y-50960000D02*
X94635000Y-32860000D01*
X94595000Y-50960000D02*
X94595000Y-32860000D01*
X94555000Y-50960000D02*
X94555000Y-32860000D01*
X94515000Y-50959000D02*
X94515000Y-32861000D01*
X94475000Y-50958000D02*
X94475000Y-32862000D01*
X94435000Y-50957000D02*
X94435000Y-32863000D01*
X94395000Y-50956000D02*
X94395000Y-32864000D01*
X94355000Y-50955000D02*
X94355000Y-32865000D01*
X94315000Y-50953000D02*
X94315000Y-32867000D01*
X94275000Y-50952000D02*
X94275000Y-32868000D01*
X94235000Y-50950000D02*
X94235000Y-32870000D01*
X94195000Y-50948000D02*
X94195000Y-32872000D01*
X94155000Y-50946000D02*
X94155000Y-32874000D01*
X94115000Y-50943000D02*
X94115000Y-32877000D01*
X94075000Y-50941000D02*
X94075000Y-32879000D01*
X94035000Y-50938000D02*
X94035000Y-32882000D01*
X93995000Y-50935000D02*
X93995000Y-32885000D01*
X93954000Y-50932000D02*
X93954000Y-32888000D01*
X93914000Y-50929000D02*
X93914000Y-32891000D01*
X93874000Y-50925000D02*
X93874000Y-32895000D01*
X93834000Y-50922000D02*
X93834000Y-32898000D01*
X93794000Y-50918000D02*
X93794000Y-32902000D01*
X93754000Y-50914000D02*
X93754000Y-32906000D01*
X93714000Y-50910000D02*
X93714000Y-32910000D01*
X93674000Y-50905000D02*
X93674000Y-32915000D01*
X93634000Y-50901000D02*
X93634000Y-32919000D01*
X93594000Y-50896000D02*
X93594000Y-32924000D01*
X93554000Y-50891000D02*
X93554000Y-32929000D01*
X93514000Y-50886000D02*
X93514000Y-32934000D01*
X93474000Y-50881000D02*
X93474000Y-32939000D01*
X93434000Y-50876000D02*
X93434000Y-32944000D01*
X93394000Y-50870000D02*
X93394000Y-32950000D01*
X93354000Y-50864000D02*
X93354000Y-32956000D01*
X93314000Y-50858000D02*
X93314000Y-32962000D01*
X93274000Y-50852000D02*
X93274000Y-32968000D01*
X93234000Y-50846000D02*
X93234000Y-32974000D01*
X93194000Y-50839000D02*
X93194000Y-32981000D01*
X93154000Y-50833000D02*
X93154000Y-32987000D01*
X93114000Y-50826000D02*
X93114000Y-32994000D01*
X93074000Y-50819000D02*
X93074000Y-33001000D01*
X93034000Y-50811000D02*
X93034000Y-33009000D01*
X92994000Y-50804000D02*
X92994000Y-33016000D01*
X92954000Y-50796000D02*
X92954000Y-33024000D01*
X92914000Y-50788000D02*
X92914000Y-33032000D01*
X92874000Y-50780000D02*
X92874000Y-33040000D01*
X92834000Y-50772000D02*
X92834000Y-33048000D01*
X92794000Y-50764000D02*
X92794000Y-33056000D01*
X92754000Y-50755000D02*
X92754000Y-33065000D01*
X92714000Y-50747000D02*
X92714000Y-33073000D01*
X92674000Y-50738000D02*
X92674000Y-33082000D01*
X92634000Y-50729000D02*
X92634000Y-33091000D01*
X92594000Y-50719000D02*
X92594000Y-33101000D01*
X92554000Y-50710000D02*
X92554000Y-33110000D01*
X92514000Y-50700000D02*
X92514000Y-33120000D01*
X92474000Y-50690000D02*
X92474000Y-33130000D01*
X92434000Y-50680000D02*
X92434000Y-33140000D01*
X92394000Y-50670000D02*
X92394000Y-33150000D01*
X92354000Y-50659000D02*
X92354000Y-33161000D01*
X92314000Y-50649000D02*
X92314000Y-33171000D01*
X92274000Y-50638000D02*
X92274000Y-43290000D01*
X92274000Y-40530000D02*
X92274000Y-33182000D01*
X92234000Y-50627000D02*
X92234000Y-43290000D01*
X92234000Y-40530000D02*
X92234000Y-33193000D01*
X92194000Y-50616000D02*
X92194000Y-43290000D01*
X92194000Y-40530000D02*
X92194000Y-33204000D01*
X92154000Y-50604000D02*
X92154000Y-43290000D01*
X92154000Y-40530000D02*
X92154000Y-33216000D01*
X92114000Y-50593000D02*
X92114000Y-43290000D01*
X92114000Y-40530000D02*
X92114000Y-33227000D01*
X92074000Y-50581000D02*
X92074000Y-43290000D01*
X92074000Y-40530000D02*
X92074000Y-33239000D01*
X92034000Y-50569000D02*
X92034000Y-43290000D01*
X92034000Y-40530000D02*
X92034000Y-33251000D01*
X91994000Y-50556000D02*
X91994000Y-43290000D01*
X91994000Y-40530000D02*
X91994000Y-33264000D01*
X91954000Y-50544000D02*
X91954000Y-43290000D01*
X91954000Y-40530000D02*
X91954000Y-33276000D01*
X91914000Y-50531000D02*
X91914000Y-43290000D01*
X91914000Y-40530000D02*
X91914000Y-33289000D01*
X91874000Y-50519000D02*
X91874000Y-43290000D01*
X91874000Y-40530000D02*
X91874000Y-33301000D01*
X91834000Y-50505000D02*
X91834000Y-43290000D01*
X91834000Y-40530000D02*
X91834000Y-33315000D01*
X91794000Y-50492000D02*
X91794000Y-43290000D01*
X91794000Y-40530000D02*
X91794000Y-33328000D01*
X91754000Y-50479000D02*
X91754000Y-43290000D01*
X91754000Y-40530000D02*
X91754000Y-33341000D01*
X91714000Y-50465000D02*
X91714000Y-43290000D01*
X91714000Y-40530000D02*
X91714000Y-33355000D01*
X91674000Y-50451000D02*
X91674000Y-43290000D01*
X91674000Y-40530000D02*
X91674000Y-33369000D01*
X91634000Y-50437000D02*
X91634000Y-43290000D01*
X91634000Y-40530000D02*
X91634000Y-33383000D01*
X91594000Y-50423000D02*
X91594000Y-43290000D01*
X91594000Y-40530000D02*
X91594000Y-33397000D01*
X91554000Y-50408000D02*
X91554000Y-43290000D01*
X91554000Y-40530000D02*
X91554000Y-33412000D01*
X91514000Y-50394000D02*
X91514000Y-43290000D01*
X91514000Y-40530000D02*
X91514000Y-33426000D01*
X91474000Y-50379000D02*
X91474000Y-43290000D01*
X91474000Y-40530000D02*
X91474000Y-33441000D01*
X91434000Y-50363000D02*
X91434000Y-43290000D01*
X91434000Y-40530000D02*
X91434000Y-33457000D01*
X91394000Y-50348000D02*
X91394000Y-43290000D01*
X91394000Y-40530000D02*
X91394000Y-33472000D01*
X91354000Y-50333000D02*
X91354000Y-43290000D01*
X91354000Y-40530000D02*
X91354000Y-33487000D01*
X91314000Y-50317000D02*
X91314000Y-43290000D01*
X91314000Y-40530000D02*
X91314000Y-33503000D01*
X91274000Y-50301000D02*
X91274000Y-43290000D01*
X91274000Y-40530000D02*
X91274000Y-33519000D01*
X91234000Y-50284000D02*
X91234000Y-43290000D01*
X91234000Y-40530000D02*
X91234000Y-33536000D01*
X91194000Y-50268000D02*
X91194000Y-43290000D01*
X91194000Y-40530000D02*
X91194000Y-33552000D01*
X91154000Y-50251000D02*
X91154000Y-43290000D01*
X91154000Y-40530000D02*
X91154000Y-33569000D01*
X91114000Y-50234000D02*
X91114000Y-43290000D01*
X91114000Y-40530000D02*
X91114000Y-33586000D01*
X91074000Y-50217000D02*
X91074000Y-43290000D01*
X91074000Y-40530000D02*
X91074000Y-33603000D01*
X91034000Y-50200000D02*
X91034000Y-43290000D01*
X91034000Y-40530000D02*
X91034000Y-33620000D01*
X90994000Y-50182000D02*
X90994000Y-43290000D01*
X90994000Y-40530000D02*
X90994000Y-33638000D01*
X90954000Y-50164000D02*
X90954000Y-43290000D01*
X90954000Y-40530000D02*
X90954000Y-33656000D01*
X90914000Y-50146000D02*
X90914000Y-43290000D01*
X90914000Y-40530000D02*
X90914000Y-33674000D01*
X90874000Y-50128000D02*
X90874000Y-43290000D01*
X90874000Y-40530000D02*
X90874000Y-33692000D01*
X90834000Y-50110000D02*
X90834000Y-43290000D01*
X90834000Y-40530000D02*
X90834000Y-33710000D01*
X90794000Y-50091000D02*
X90794000Y-43290000D01*
X90794000Y-40530000D02*
X90794000Y-33729000D01*
X90754000Y-50072000D02*
X90754000Y-43290000D01*
X90754000Y-40530000D02*
X90754000Y-33748000D01*
X90714000Y-50053000D02*
X90714000Y-43290000D01*
X90714000Y-40530000D02*
X90714000Y-33767000D01*
X90674000Y-50033000D02*
X90674000Y-43290000D01*
X90674000Y-40530000D02*
X90674000Y-33787000D01*
X90634000Y-50013000D02*
X90634000Y-43290000D01*
X90634000Y-40530000D02*
X90634000Y-33807000D01*
X90594000Y-49993000D02*
X90594000Y-43290000D01*
X90594000Y-40530000D02*
X90594000Y-33827000D01*
X90554000Y-49973000D02*
X90554000Y-43290000D01*
X90554000Y-40530000D02*
X90554000Y-33847000D01*
X90514000Y-49953000D02*
X90514000Y-43290000D01*
X90514000Y-40530000D02*
X90514000Y-33867000D01*
X90474000Y-49932000D02*
X90474000Y-43290000D01*
X90474000Y-40530000D02*
X90474000Y-33888000D01*
X90434000Y-49911000D02*
X90434000Y-43290000D01*
X90434000Y-40530000D02*
X90434000Y-33909000D01*
X90394000Y-49890000D02*
X90394000Y-43290000D01*
X90394000Y-40530000D02*
X90394000Y-33930000D01*
X90354000Y-49868000D02*
X90354000Y-43290000D01*
X90354000Y-40530000D02*
X90354000Y-33952000D01*
X90314000Y-49847000D02*
X90314000Y-43290000D01*
X90314000Y-40530000D02*
X90314000Y-33973000D01*
X90274000Y-49825000D02*
X90274000Y-43290000D01*
X90274000Y-40530000D02*
X90274000Y-33995000D01*
X90234000Y-49802000D02*
X90234000Y-43290000D01*
X90234000Y-40530000D02*
X90234000Y-34018000D01*
X90194000Y-49780000D02*
X90194000Y-43290000D01*
X90194000Y-40530000D02*
X90194000Y-34040000D01*
X90154000Y-49757000D02*
X90154000Y-43290000D01*
X90154000Y-40530000D02*
X90154000Y-34063000D01*
X90114000Y-49734000D02*
X90114000Y-43290000D01*
X90114000Y-40530000D02*
X90114000Y-34086000D01*
X90074000Y-49711000D02*
X90074000Y-43290000D01*
X90074000Y-40530000D02*
X90074000Y-34109000D01*
X90034000Y-49687000D02*
X90034000Y-43290000D01*
X90034000Y-40530000D02*
X90034000Y-34133000D01*
X89994000Y-49663000D02*
X89994000Y-43290000D01*
X89994000Y-40530000D02*
X89994000Y-34157000D01*
X89954000Y-49639000D02*
X89954000Y-43290000D01*
X89954000Y-40530000D02*
X89954000Y-34181000D01*
X89914000Y-49615000D02*
X89914000Y-43290000D01*
X89914000Y-40530000D02*
X89914000Y-34205000D01*
X89874000Y-49590000D02*
X89874000Y-43290000D01*
X89874000Y-40530000D02*
X89874000Y-34230000D01*
X89834000Y-49565000D02*
X89834000Y-43290000D01*
X89834000Y-40530000D02*
X89834000Y-34255000D01*
X89794000Y-49540000D02*
X89794000Y-43290000D01*
X89794000Y-40530000D02*
X89794000Y-34280000D01*
X89754000Y-49514000D02*
X89754000Y-43290000D01*
X89754000Y-40530000D02*
X89754000Y-34306000D01*
X89714000Y-49488000D02*
X89714000Y-43290000D01*
X89714000Y-40530000D02*
X89714000Y-34332000D01*
X89674000Y-49462000D02*
X89674000Y-43290000D01*
X89674000Y-40530000D02*
X89674000Y-34358000D01*
X89634000Y-49435000D02*
X89634000Y-43290000D01*
X89634000Y-40530000D02*
X89634000Y-34385000D01*
X89594000Y-49409000D02*
X89594000Y-43290000D01*
X89594000Y-40530000D02*
X89594000Y-34411000D01*
X89554000Y-49381000D02*
X89554000Y-43290000D01*
X89554000Y-40530000D02*
X89554000Y-34439000D01*
X89514000Y-49354000D02*
X89514000Y-34466000D01*
X89474000Y-49326000D02*
X89474000Y-34494000D01*
X89434000Y-49298000D02*
X89434000Y-34522000D01*
X89394000Y-49270000D02*
X89394000Y-34550000D01*
X89354000Y-49241000D02*
X89354000Y-34579000D01*
X89314000Y-49212000D02*
X89314000Y-34608000D01*
X89274000Y-49183000D02*
X89274000Y-34637000D01*
X89234000Y-49153000D02*
X89234000Y-34667000D01*
X89194000Y-49123000D02*
X89194000Y-34697000D01*
X89154000Y-49093000D02*
X89154000Y-34727000D01*
X89114000Y-49062000D02*
X89114000Y-34758000D01*
X89074000Y-49031000D02*
X89074000Y-34789000D01*
X89034000Y-48999000D02*
X89034000Y-34821000D01*
X88994000Y-48967000D02*
X88994000Y-34853000D01*
X88954000Y-48935000D02*
X88954000Y-34885000D01*
X88914000Y-48903000D02*
X88914000Y-34917000D01*
X88874000Y-48870000D02*
X88874000Y-34950000D01*
X88834000Y-48836000D02*
X88834000Y-34984000D01*
X88794000Y-48803000D02*
X88794000Y-35017000D01*
X88754000Y-48768000D02*
X88754000Y-35052000D01*
X88714000Y-48734000D02*
X88714000Y-35086000D01*
X88674000Y-48699000D02*
X88674000Y-35121000D01*
X88634000Y-48664000D02*
X88634000Y-35156000D01*
X88594000Y-48628000D02*
X88594000Y-35192000D01*
X88554000Y-48592000D02*
X88554000Y-35228000D01*
X88514000Y-48555000D02*
X88514000Y-35265000D01*
X88474000Y-48518000D02*
X88474000Y-35302000D01*
X88434000Y-48480000D02*
X88434000Y-35340000D01*
X88394000Y-48442000D02*
X88394000Y-35378000D01*
X88354000Y-48404000D02*
X88354000Y-35416000D01*
X88314000Y-48365000D02*
X88314000Y-35455000D01*
X88274000Y-48326000D02*
X88274000Y-35494000D01*
X88234000Y-48286000D02*
X88234000Y-35534000D01*
X88194000Y-48245000D02*
X88194000Y-35575000D01*
X88154000Y-48204000D02*
X88154000Y-35616000D01*
X88114000Y-48163000D02*
X88114000Y-35657000D01*
X88074000Y-48121000D02*
X88074000Y-35699000D01*
X88034000Y-48078000D02*
X88034000Y-35742000D01*
X87994000Y-48035000D02*
X87994000Y-35785000D01*
X87954000Y-47992000D02*
X87954000Y-35828000D01*
X87914000Y-47948000D02*
X87914000Y-35872000D01*
X87874000Y-47903000D02*
X87874000Y-35917000D01*
X87834000Y-47857000D02*
X87834000Y-35963000D01*
X87794000Y-47811000D02*
X87794000Y-36009000D01*
X87754000Y-47765000D02*
X87754000Y-36055000D01*
X87714000Y-47717000D02*
X87714000Y-36103000D01*
X87674000Y-47669000D02*
X87674000Y-36151000D01*
X87634000Y-47621000D02*
X87634000Y-36199000D01*
X87594000Y-47572000D02*
X87594000Y-36248000D01*
X87554000Y-47521000D02*
X87554000Y-36299000D01*
X87514000Y-47471000D02*
X87514000Y-36349000D01*
X87474000Y-47419000D02*
X87474000Y-36401000D01*
X87434000Y-47367000D02*
X87434000Y-36453000D01*
X87394000Y-47314000D02*
X87394000Y-36506000D01*
X87354000Y-47260000D02*
X87354000Y-36560000D01*
X87314000Y-47205000D02*
X87314000Y-36615000D01*
X87274000Y-47150000D02*
X87274000Y-36670000D01*
X87234000Y-47093000D02*
X87234000Y-36727000D01*
X87194000Y-47036000D02*
X87194000Y-36784000D01*
X87154000Y-46977000D02*
X87154000Y-36843000D01*
X87114000Y-46918000D02*
X87114000Y-36902000D01*
X87074000Y-46857000D02*
X87074000Y-36963000D01*
X87034000Y-46796000D02*
X87034000Y-37024000D01*
X86994000Y-46733000D02*
X86994000Y-37087000D01*
X86954000Y-46669000D02*
X86954000Y-37151000D01*
X86914000Y-46604000D02*
X86914000Y-37216000D01*
X86874000Y-46538000D02*
X86874000Y-37282000D01*
X86834000Y-46471000D02*
X86834000Y-37349000D01*
X86794000Y-46402000D02*
X86794000Y-37418000D01*
X86754000Y-46332000D02*
X86754000Y-37488000D01*
X86714000Y-46260000D02*
X86714000Y-37560000D01*
X86674000Y-46187000D02*
X86674000Y-37633000D01*
X86634000Y-46112000D02*
X86634000Y-37708000D01*
X86594000Y-46035000D02*
X86594000Y-37785000D01*
X86554000Y-45956000D02*
X86554000Y-37864000D01*
X86514000Y-45876000D02*
X86514000Y-37944000D01*
X86475000Y-45793000D02*
X86475000Y-38027000D01*
X86435000Y-45709000D02*
X86435000Y-38111000D01*
X86395000Y-45621000D02*
X86395000Y-38199000D01*
X86355000Y-45532000D02*
X86355000Y-38288000D01*
X86315000Y-45440000D02*
X86315000Y-38380000D01*
X86275000Y-45344000D02*
X86275000Y-38476000D01*
X86235000Y-45246000D02*
X86235000Y-38574000D01*
X86195000Y-45144000D02*
X86195000Y-38676000D01*
X86155000Y-45039000D02*
X86155000Y-38781000D01*
X86115000Y-44929000D02*
X86115000Y-38891000D01*
X86075000Y-44815000D02*
X86075000Y-39005000D01*
X86035000Y-44695000D02*
X86035000Y-39125000D01*
X85995000Y-44570000D02*
X85995000Y-39250000D01*
X85955000Y-44438000D02*
X85955000Y-39382000D01*
X85915000Y-44298000D02*
X85915000Y-39522000D01*
X85875000Y-44148000D02*
X85875000Y-39672000D01*
X85835000Y-43988000D02*
X85835000Y-39832000D01*
X85795000Y-43813000D02*
X85795000Y-40007000D01*
X85755000Y-43620000D02*
X85755000Y-40200000D01*
X85715000Y-43402000D02*
X85715000Y-40418000D01*
X85675000Y-43146000D02*
X85675000Y-40674000D01*
X85635000Y-42823000D02*
X85635000Y-40997000D01*
X85595000Y-42297000D02*
X85595000Y-41523000D01*
X101625000Y-41910000D02*
X99825000Y-41910000D01*
X100725000Y-42810000D02*
X100725000Y-41010000D01*
X103765000Y-62230000D02*
G75*
G03X103765000Y-62230000I-9090000J0D01*
G01*
X94675000Y-71280000D02*
X94675000Y-53180000D01*
X94635000Y-71280000D02*
X94635000Y-53180000D01*
X94595000Y-71280000D02*
X94595000Y-53180000D01*
X94555000Y-71280000D02*
X94555000Y-53180000D01*
X94515000Y-71279000D02*
X94515000Y-53181000D01*
X94475000Y-71278000D02*
X94475000Y-53182000D01*
X94435000Y-71277000D02*
X94435000Y-53183000D01*
X94395000Y-71276000D02*
X94395000Y-53184000D01*
X94355000Y-71275000D02*
X94355000Y-53185000D01*
X94315000Y-71273000D02*
X94315000Y-53187000D01*
X94275000Y-71272000D02*
X94275000Y-53188000D01*
X94235000Y-71270000D02*
X94235000Y-53190000D01*
X94195000Y-71268000D02*
X94195000Y-53192000D01*
X94155000Y-71266000D02*
X94155000Y-53194000D01*
X94115000Y-71263000D02*
X94115000Y-53197000D01*
X94075000Y-71261000D02*
X94075000Y-53199000D01*
X94035000Y-71258000D02*
X94035000Y-53202000D01*
X93995000Y-71255000D02*
X93995000Y-53205000D01*
X93954000Y-71252000D02*
X93954000Y-53208000D01*
X93914000Y-71249000D02*
X93914000Y-53211000D01*
X93874000Y-71245000D02*
X93874000Y-53215000D01*
X93834000Y-71242000D02*
X93834000Y-53218000D01*
X93794000Y-71238000D02*
X93794000Y-53222000D01*
X93754000Y-71234000D02*
X93754000Y-53226000D01*
X93714000Y-71230000D02*
X93714000Y-53230000D01*
X93674000Y-71225000D02*
X93674000Y-53235000D01*
X93634000Y-71221000D02*
X93634000Y-53239000D01*
X93594000Y-71216000D02*
X93594000Y-53244000D01*
X93554000Y-71211000D02*
X93554000Y-53249000D01*
X93514000Y-71206000D02*
X93514000Y-53254000D01*
X93474000Y-71201000D02*
X93474000Y-53259000D01*
X93434000Y-71196000D02*
X93434000Y-53264000D01*
X93394000Y-71190000D02*
X93394000Y-53270000D01*
X93354000Y-71184000D02*
X93354000Y-53276000D01*
X93314000Y-71178000D02*
X93314000Y-53282000D01*
X93274000Y-71172000D02*
X93274000Y-53288000D01*
X93234000Y-71166000D02*
X93234000Y-53294000D01*
X93194000Y-71159000D02*
X93194000Y-53301000D01*
X93154000Y-71153000D02*
X93154000Y-53307000D01*
X93114000Y-71146000D02*
X93114000Y-53314000D01*
X93074000Y-71139000D02*
X93074000Y-53321000D01*
X93034000Y-71131000D02*
X93034000Y-53329000D01*
X92994000Y-71124000D02*
X92994000Y-53336000D01*
X92954000Y-71116000D02*
X92954000Y-53344000D01*
X92914000Y-71108000D02*
X92914000Y-53352000D01*
X92874000Y-71100000D02*
X92874000Y-53360000D01*
X92834000Y-71092000D02*
X92834000Y-53368000D01*
X92794000Y-71084000D02*
X92794000Y-53376000D01*
X92754000Y-71075000D02*
X92754000Y-53385000D01*
X92714000Y-71067000D02*
X92714000Y-53393000D01*
X92674000Y-71058000D02*
X92674000Y-53402000D01*
X92634000Y-71049000D02*
X92634000Y-53411000D01*
X92594000Y-71039000D02*
X92594000Y-53421000D01*
X92554000Y-71030000D02*
X92554000Y-53430000D01*
X92514000Y-71020000D02*
X92514000Y-53440000D01*
X92474000Y-71010000D02*
X92474000Y-53450000D01*
X92434000Y-71000000D02*
X92434000Y-53460000D01*
X92394000Y-70990000D02*
X92394000Y-53470000D01*
X92354000Y-70979000D02*
X92354000Y-53481000D01*
X92314000Y-70969000D02*
X92314000Y-53491000D01*
X92274000Y-70958000D02*
X92274000Y-63610000D01*
X92274000Y-60850000D02*
X92274000Y-53502000D01*
X92234000Y-70947000D02*
X92234000Y-63610000D01*
X92234000Y-60850000D02*
X92234000Y-53513000D01*
X92194000Y-70936000D02*
X92194000Y-63610000D01*
X92194000Y-60850000D02*
X92194000Y-53524000D01*
X92154000Y-70924000D02*
X92154000Y-63610000D01*
X92154000Y-60850000D02*
X92154000Y-53536000D01*
X92114000Y-70913000D02*
X92114000Y-63610000D01*
X92114000Y-60850000D02*
X92114000Y-53547000D01*
X92074000Y-70901000D02*
X92074000Y-63610000D01*
X92074000Y-60850000D02*
X92074000Y-53559000D01*
X92034000Y-70889000D02*
X92034000Y-63610000D01*
X92034000Y-60850000D02*
X92034000Y-53571000D01*
X91994000Y-70876000D02*
X91994000Y-63610000D01*
X91994000Y-60850000D02*
X91994000Y-53584000D01*
X91954000Y-70864000D02*
X91954000Y-63610000D01*
X91954000Y-60850000D02*
X91954000Y-53596000D01*
X91914000Y-70851000D02*
X91914000Y-63610000D01*
X91914000Y-60850000D02*
X91914000Y-53609000D01*
X91874000Y-70839000D02*
X91874000Y-63610000D01*
X91874000Y-60850000D02*
X91874000Y-53621000D01*
X91834000Y-70825000D02*
X91834000Y-63610000D01*
X91834000Y-60850000D02*
X91834000Y-53635000D01*
X91794000Y-70812000D02*
X91794000Y-63610000D01*
X91794000Y-60850000D02*
X91794000Y-53648000D01*
X91754000Y-70799000D02*
X91754000Y-63610000D01*
X91754000Y-60850000D02*
X91754000Y-53661000D01*
X91714000Y-70785000D02*
X91714000Y-63610000D01*
X91714000Y-60850000D02*
X91714000Y-53675000D01*
X91674000Y-70771000D02*
X91674000Y-63610000D01*
X91674000Y-60850000D02*
X91674000Y-53689000D01*
X91634000Y-70757000D02*
X91634000Y-63610000D01*
X91634000Y-60850000D02*
X91634000Y-53703000D01*
X91594000Y-70743000D02*
X91594000Y-63610000D01*
X91594000Y-60850000D02*
X91594000Y-53717000D01*
X91554000Y-70728000D02*
X91554000Y-63610000D01*
X91554000Y-60850000D02*
X91554000Y-53732000D01*
X91514000Y-70714000D02*
X91514000Y-63610000D01*
X91514000Y-60850000D02*
X91514000Y-53746000D01*
X91474000Y-70699000D02*
X91474000Y-63610000D01*
X91474000Y-60850000D02*
X91474000Y-53761000D01*
X91434000Y-70683000D02*
X91434000Y-63610000D01*
X91434000Y-60850000D02*
X91434000Y-53777000D01*
X91394000Y-70668000D02*
X91394000Y-63610000D01*
X91394000Y-60850000D02*
X91394000Y-53792000D01*
X91354000Y-70653000D02*
X91354000Y-63610000D01*
X91354000Y-60850000D02*
X91354000Y-53807000D01*
X91314000Y-70637000D02*
X91314000Y-63610000D01*
X91314000Y-60850000D02*
X91314000Y-53823000D01*
X91274000Y-70621000D02*
X91274000Y-63610000D01*
X91274000Y-60850000D02*
X91274000Y-53839000D01*
X91234000Y-70604000D02*
X91234000Y-63610000D01*
X91234000Y-60850000D02*
X91234000Y-53856000D01*
X91194000Y-70588000D02*
X91194000Y-63610000D01*
X91194000Y-60850000D02*
X91194000Y-53872000D01*
X91154000Y-70571000D02*
X91154000Y-63610000D01*
X91154000Y-60850000D02*
X91154000Y-53889000D01*
X91114000Y-70554000D02*
X91114000Y-63610000D01*
X91114000Y-60850000D02*
X91114000Y-53906000D01*
X91074000Y-70537000D02*
X91074000Y-63610000D01*
X91074000Y-60850000D02*
X91074000Y-53923000D01*
X91034000Y-70520000D02*
X91034000Y-63610000D01*
X91034000Y-60850000D02*
X91034000Y-53940000D01*
X90994000Y-70502000D02*
X90994000Y-63610000D01*
X90994000Y-60850000D02*
X90994000Y-53958000D01*
X90954000Y-70484000D02*
X90954000Y-63610000D01*
X90954000Y-60850000D02*
X90954000Y-53976000D01*
X90914000Y-70466000D02*
X90914000Y-63610000D01*
X90914000Y-60850000D02*
X90914000Y-53994000D01*
X90874000Y-70448000D02*
X90874000Y-63610000D01*
X90874000Y-60850000D02*
X90874000Y-54012000D01*
X90834000Y-70430000D02*
X90834000Y-63610000D01*
X90834000Y-60850000D02*
X90834000Y-54030000D01*
X90794000Y-70411000D02*
X90794000Y-63610000D01*
X90794000Y-60850000D02*
X90794000Y-54049000D01*
X90754000Y-70392000D02*
X90754000Y-63610000D01*
X90754000Y-60850000D02*
X90754000Y-54068000D01*
X90714000Y-70373000D02*
X90714000Y-63610000D01*
X90714000Y-60850000D02*
X90714000Y-54087000D01*
X90674000Y-70353000D02*
X90674000Y-63610000D01*
X90674000Y-60850000D02*
X90674000Y-54107000D01*
X90634000Y-70333000D02*
X90634000Y-63610000D01*
X90634000Y-60850000D02*
X90634000Y-54127000D01*
X90594000Y-70313000D02*
X90594000Y-63610000D01*
X90594000Y-60850000D02*
X90594000Y-54147000D01*
X90554000Y-70293000D02*
X90554000Y-63610000D01*
X90554000Y-60850000D02*
X90554000Y-54167000D01*
X90514000Y-70273000D02*
X90514000Y-63610000D01*
X90514000Y-60850000D02*
X90514000Y-54187000D01*
X90474000Y-70252000D02*
X90474000Y-63610000D01*
X90474000Y-60850000D02*
X90474000Y-54208000D01*
X90434000Y-70231000D02*
X90434000Y-63610000D01*
X90434000Y-60850000D02*
X90434000Y-54229000D01*
X90394000Y-70210000D02*
X90394000Y-63610000D01*
X90394000Y-60850000D02*
X90394000Y-54250000D01*
X90354000Y-70188000D02*
X90354000Y-63610000D01*
X90354000Y-60850000D02*
X90354000Y-54272000D01*
X90314000Y-70167000D02*
X90314000Y-63610000D01*
X90314000Y-60850000D02*
X90314000Y-54293000D01*
X90274000Y-70145000D02*
X90274000Y-63610000D01*
X90274000Y-60850000D02*
X90274000Y-54315000D01*
X90234000Y-70122000D02*
X90234000Y-63610000D01*
X90234000Y-60850000D02*
X90234000Y-54338000D01*
X90194000Y-70100000D02*
X90194000Y-63610000D01*
X90194000Y-60850000D02*
X90194000Y-54360000D01*
X90154000Y-70077000D02*
X90154000Y-63610000D01*
X90154000Y-60850000D02*
X90154000Y-54383000D01*
X90114000Y-70054000D02*
X90114000Y-63610000D01*
X90114000Y-60850000D02*
X90114000Y-54406000D01*
X90074000Y-70031000D02*
X90074000Y-63610000D01*
X90074000Y-60850000D02*
X90074000Y-54429000D01*
X90034000Y-70007000D02*
X90034000Y-63610000D01*
X90034000Y-60850000D02*
X90034000Y-54453000D01*
X89994000Y-69983000D02*
X89994000Y-63610000D01*
X89994000Y-60850000D02*
X89994000Y-54477000D01*
X89954000Y-69959000D02*
X89954000Y-63610000D01*
X89954000Y-60850000D02*
X89954000Y-54501000D01*
X89914000Y-69935000D02*
X89914000Y-63610000D01*
X89914000Y-60850000D02*
X89914000Y-54525000D01*
X89874000Y-69910000D02*
X89874000Y-63610000D01*
X89874000Y-60850000D02*
X89874000Y-54550000D01*
X89834000Y-69885000D02*
X89834000Y-63610000D01*
X89834000Y-60850000D02*
X89834000Y-54575000D01*
X89794000Y-69860000D02*
X89794000Y-63610000D01*
X89794000Y-60850000D02*
X89794000Y-54600000D01*
X89754000Y-69834000D02*
X89754000Y-63610000D01*
X89754000Y-60850000D02*
X89754000Y-54626000D01*
X89714000Y-69808000D02*
X89714000Y-63610000D01*
X89714000Y-60850000D02*
X89714000Y-54652000D01*
X89674000Y-69782000D02*
X89674000Y-63610000D01*
X89674000Y-60850000D02*
X89674000Y-54678000D01*
X89634000Y-69755000D02*
X89634000Y-63610000D01*
X89634000Y-60850000D02*
X89634000Y-54705000D01*
X89594000Y-69729000D02*
X89594000Y-63610000D01*
X89594000Y-60850000D02*
X89594000Y-54731000D01*
X89554000Y-69701000D02*
X89554000Y-63610000D01*
X89554000Y-60850000D02*
X89554000Y-54759000D01*
X89514000Y-69674000D02*
X89514000Y-54786000D01*
X89474000Y-69646000D02*
X89474000Y-54814000D01*
X89434000Y-69618000D02*
X89434000Y-54842000D01*
X89394000Y-69590000D02*
X89394000Y-54870000D01*
X89354000Y-69561000D02*
X89354000Y-54899000D01*
X89314000Y-69532000D02*
X89314000Y-54928000D01*
X89274000Y-69503000D02*
X89274000Y-54957000D01*
X89234000Y-69473000D02*
X89234000Y-54987000D01*
X89194000Y-69443000D02*
X89194000Y-55017000D01*
X89154000Y-69413000D02*
X89154000Y-55047000D01*
X89114000Y-69382000D02*
X89114000Y-55078000D01*
X89074000Y-69351000D02*
X89074000Y-55109000D01*
X89034000Y-69319000D02*
X89034000Y-55141000D01*
X88994000Y-69287000D02*
X88994000Y-55173000D01*
X88954000Y-69255000D02*
X88954000Y-55205000D01*
X88914000Y-69223000D02*
X88914000Y-55237000D01*
X88874000Y-69190000D02*
X88874000Y-55270000D01*
X88834000Y-69156000D02*
X88834000Y-55304000D01*
X88794000Y-69123000D02*
X88794000Y-55337000D01*
X88754000Y-69088000D02*
X88754000Y-55372000D01*
X88714000Y-69054000D02*
X88714000Y-55406000D01*
X88674000Y-69019000D02*
X88674000Y-55441000D01*
X88634000Y-68984000D02*
X88634000Y-55476000D01*
X88594000Y-68948000D02*
X88594000Y-55512000D01*
X88554000Y-68912000D02*
X88554000Y-55548000D01*
X88514000Y-68875000D02*
X88514000Y-55585000D01*
X88474000Y-68838000D02*
X88474000Y-55622000D01*
X88434000Y-68800000D02*
X88434000Y-55660000D01*
X88394000Y-68762000D02*
X88394000Y-55698000D01*
X88354000Y-68724000D02*
X88354000Y-55736000D01*
X88314000Y-68685000D02*
X88314000Y-55775000D01*
X88274000Y-68646000D02*
X88274000Y-55814000D01*
X88234000Y-68606000D02*
X88234000Y-55854000D01*
X88194000Y-68565000D02*
X88194000Y-55895000D01*
X88154000Y-68524000D02*
X88154000Y-55936000D01*
X88114000Y-68483000D02*
X88114000Y-55977000D01*
X88074000Y-68441000D02*
X88074000Y-56019000D01*
X88034000Y-68398000D02*
X88034000Y-56062000D01*
X87994000Y-68355000D02*
X87994000Y-56105000D01*
X87954000Y-68312000D02*
X87954000Y-56148000D01*
X87914000Y-68268000D02*
X87914000Y-56192000D01*
X87874000Y-68223000D02*
X87874000Y-56237000D01*
X87834000Y-68177000D02*
X87834000Y-56283000D01*
X87794000Y-68131000D02*
X87794000Y-56329000D01*
X87754000Y-68085000D02*
X87754000Y-56375000D01*
X87714000Y-68037000D02*
X87714000Y-56423000D01*
X87674000Y-67989000D02*
X87674000Y-56471000D01*
X87634000Y-67941000D02*
X87634000Y-56519000D01*
X87594000Y-67892000D02*
X87594000Y-56568000D01*
X87554000Y-67841000D02*
X87554000Y-56619000D01*
X87514000Y-67791000D02*
X87514000Y-56669000D01*
X87474000Y-67739000D02*
X87474000Y-56721000D01*
X87434000Y-67687000D02*
X87434000Y-56773000D01*
X87394000Y-67634000D02*
X87394000Y-56826000D01*
X87354000Y-67580000D02*
X87354000Y-56880000D01*
X87314000Y-67525000D02*
X87314000Y-56935000D01*
X87274000Y-67470000D02*
X87274000Y-56990000D01*
X87234000Y-67413000D02*
X87234000Y-57047000D01*
X87194000Y-67356000D02*
X87194000Y-57104000D01*
X87154000Y-67297000D02*
X87154000Y-57163000D01*
X87114000Y-67238000D02*
X87114000Y-57222000D01*
X87074000Y-67177000D02*
X87074000Y-57283000D01*
X87034000Y-67116000D02*
X87034000Y-57344000D01*
X86994000Y-67053000D02*
X86994000Y-57407000D01*
X86954000Y-66989000D02*
X86954000Y-57471000D01*
X86914000Y-66924000D02*
X86914000Y-57536000D01*
X86874000Y-66858000D02*
X86874000Y-57602000D01*
X86834000Y-66791000D02*
X86834000Y-57669000D01*
X86794000Y-66722000D02*
X86794000Y-57738000D01*
X86754000Y-66652000D02*
X86754000Y-57808000D01*
X86714000Y-66580000D02*
X86714000Y-57880000D01*
X86674000Y-66507000D02*
X86674000Y-57953000D01*
X86634000Y-66432000D02*
X86634000Y-58028000D01*
X86594000Y-66355000D02*
X86594000Y-58105000D01*
X86554000Y-66276000D02*
X86554000Y-58184000D01*
X86514000Y-66196000D02*
X86514000Y-58264000D01*
X86475000Y-66113000D02*
X86475000Y-58347000D01*
X86435000Y-66029000D02*
X86435000Y-58431000D01*
X86395000Y-65941000D02*
X86395000Y-58519000D01*
X86355000Y-65852000D02*
X86355000Y-58608000D01*
X86315000Y-65760000D02*
X86315000Y-58700000D01*
X86275000Y-65664000D02*
X86275000Y-58796000D01*
X86235000Y-65566000D02*
X86235000Y-58894000D01*
X86195000Y-65464000D02*
X86195000Y-58996000D01*
X86155000Y-65359000D02*
X86155000Y-59101000D01*
X86115000Y-65249000D02*
X86115000Y-59211000D01*
X86075000Y-65135000D02*
X86075000Y-59325000D01*
X86035000Y-65015000D02*
X86035000Y-59445000D01*
X85995000Y-64890000D02*
X85995000Y-59570000D01*
X85955000Y-64758000D02*
X85955000Y-59702000D01*
X85915000Y-64618000D02*
X85915000Y-59842000D01*
X85875000Y-64468000D02*
X85875000Y-59992000D01*
X85835000Y-64308000D02*
X85835000Y-60152000D01*
X85795000Y-64133000D02*
X85795000Y-60327000D01*
X85755000Y-63940000D02*
X85755000Y-60520000D01*
X85715000Y-63722000D02*
X85715000Y-60738000D01*
X85675000Y-63466000D02*
X85675000Y-60994000D01*
X85635000Y-63143000D02*
X85635000Y-61317000D01*
X85595000Y-62617000D02*
X85595000Y-61843000D01*
X101625000Y-62230000D02*
X99825000Y-62230000D01*
X100725000Y-63130000D02*
X100725000Y-61330000D01*
X123575000Y-66405000D02*
X123575000Y-64405000D01*
X121535000Y-64405000D02*
X121535000Y-66405000D01*
X138815000Y-113395000D02*
X138815000Y-111395000D01*
X136775000Y-111395000D02*
X136775000Y-113395000D01*
X115840000Y-64520000D02*
X117840000Y-64520000D01*
X117840000Y-62480000D02*
X115840000Y-62480000D01*
X136285000Y-114685000D02*
X135115000Y-114685000D01*
X131715000Y-114685000D02*
X132885000Y-114685000D01*
X132475000Y-110105000D02*
X132885000Y-110105000D01*
X135525000Y-110105000D02*
X135115000Y-110105000D01*
X136285000Y-110875000D02*
X136285000Y-114685000D01*
X136285000Y-110875000D02*
X135525000Y-110105000D01*
X131715000Y-110875000D02*
X131715000Y-114685000D01*
X131715000Y-110875000D02*
X132475000Y-110105000D01*
X107450000Y-64350000D02*
X108450000Y-64350000D01*
X108450000Y-62650000D02*
X107450000Y-62650000D01*
X108800000Y-79240000D02*
X108800000Y-78240000D01*
X107100000Y-78240000D02*
X107100000Y-79240000D01*
X110990000Y-74080000D02*
X109990000Y-74080000D01*
X109990000Y-75780000D02*
X110990000Y-75780000D01*
X121535000Y-72025000D02*
X121535000Y-74025000D01*
X123575000Y-74025000D02*
X123575000Y-72025000D01*
X159528000Y-72140000D02*
X161528000Y-72140000D01*
X161528000Y-70100000D02*
X159528000Y-70100000D01*
X130445000Y-72140000D02*
X132445000Y-72140000D01*
X132445000Y-70100000D02*
X130445000Y-70100000D01*
X128405000Y-68160000D02*
X129405000Y-68160000D01*
X129405000Y-66460000D02*
X128405000Y-66460000D01*
X113950635Y-55738579D02*
X116213377Y-53475837D01*
X116806383Y-51542379D02*
G75*
G03X113203223Y-47887572I-4411383J-745519D01*
G01*
X111322824Y-47976015D02*
G75*
G03X108084477Y-51210267I1072176J-4311883D01*
G01*
X107983618Y-53033417D02*
G75*
G03X111586777Y-56688223I4411382J745519D01*
G01*
X116460000Y-73631000D02*
X119760000Y-73631000D01*
X116460000Y-76425000D02*
X119760000Y-76425000D01*
X119760000Y-76425000D02*
X119760000Y-71025000D01*
X116460000Y-76425000D02*
X116460000Y-71025000D01*
X115485000Y-86465000D02*
X114385000Y-86465000D01*
X114385000Y-86465000D02*
X114385000Y-89065000D01*
X115485000Y-86465000D02*
X115485000Y-89065000D01*
X181570000Y-40560000D02*
X184070000Y-40560000D01*
X174070000Y-40560000D02*
X176570000Y-40560000D01*
X174070000Y-52560000D02*
X176570000Y-52560000D01*
X184070000Y-52560000D02*
X181570000Y-52560000D01*
X179070000Y-42060000D02*
X179070000Y-51060000D01*
X181570000Y-42060000D02*
X176570000Y-42060000D01*
X181570000Y-51060000D02*
X176570000Y-51060000D01*
X180970000Y-56560000D02*
X181570000Y-56560000D01*
X177170000Y-36560000D02*
X176570000Y-36560000D01*
X176570000Y-36560000D02*
X176570000Y-56560000D01*
X176570000Y-56560000D02*
X177170000Y-56560000D01*
X181570000Y-56560000D02*
X181570000Y-36560000D01*
X181570000Y-36560000D02*
X180970000Y-36560000D01*
X180970000Y-58560000D02*
X184070000Y-58560000D01*
X177170000Y-34560000D02*
X174070000Y-34560000D01*
X174070000Y-34560000D02*
X174070000Y-58560000D01*
X174070000Y-58560000D02*
X177170000Y-58560000D01*
X184070000Y-58560000D02*
X184070000Y-34560000D01*
X184070000Y-34560000D02*
X180970000Y-34560000D01*
X152360000Y-40560000D02*
X154860000Y-40560000D01*
X144860000Y-40560000D02*
X147360000Y-40560000D01*
X144860000Y-52560000D02*
X147360000Y-52560000D01*
X154860000Y-52560000D02*
X152360000Y-52560000D01*
X149860000Y-42060000D02*
X149860000Y-51060000D01*
X152360000Y-42060000D02*
X147360000Y-42060000D01*
X152360000Y-51060000D02*
X147360000Y-51060000D01*
X151760000Y-56560000D02*
X152360000Y-56560000D01*
X147960000Y-36560000D02*
X147360000Y-36560000D01*
X147360000Y-36560000D02*
X147360000Y-56560000D01*
X147360000Y-56560000D02*
X147960000Y-56560000D01*
X152360000Y-56560000D02*
X152360000Y-36560000D01*
X152360000Y-36560000D02*
X151760000Y-36560000D01*
X151760000Y-58560000D02*
X154860000Y-58560000D01*
X147960000Y-34560000D02*
X144860000Y-34560000D01*
X144860000Y-34560000D02*
X144860000Y-58560000D01*
X144860000Y-58560000D02*
X147960000Y-58560000D01*
X154860000Y-58560000D02*
X154860000Y-34560000D01*
X154860000Y-34560000D02*
X151760000Y-34560000D01*
X104665000Y-32435000D02*
X104665000Y-45035000D01*
X104665000Y-45035000D02*
X120065000Y-45035000D01*
X120065000Y-45035000D02*
X120065000Y-44085000D01*
X120065000Y-44085000D02*
X120565000Y-44385000D01*
X120565000Y-44385000D02*
X120565000Y-42385000D01*
X120565000Y-42385000D02*
X120065000Y-42635000D01*
X120065000Y-42635000D02*
X120065000Y-37235000D01*
X120065000Y-37235000D02*
X120565000Y-37485000D01*
X120565000Y-37485000D02*
X120565000Y-32435000D01*
X120565000Y-32435000D02*
X104665000Y-32435000D01*
X125790000Y-124520000D02*
X125790000Y-121860000D01*
X107950000Y-124520000D02*
X125790000Y-124520000D01*
X107950000Y-121860000D02*
X125790000Y-121860000D01*
X107950000Y-124520000D02*
X107950000Y-121860000D01*
X106680000Y-124520000D02*
X105350000Y-124520000D01*
X105350000Y-124520000D02*
X105350000Y-123190000D01*
X125790000Y-100390000D02*
X125790000Y-97730000D01*
X107950000Y-100390000D02*
X125790000Y-100390000D01*
X107950000Y-97730000D02*
X125790000Y-97730000D01*
X107950000Y-100390000D02*
X107950000Y-97730000D01*
X106680000Y-100390000D02*
X105350000Y-100390000D01*
X105350000Y-100390000D02*
X105350000Y-99060000D01*
X151190000Y-78165000D02*
X151190000Y-75505000D01*
X143510000Y-78165000D02*
X151190000Y-78165000D01*
X143510000Y-75505000D02*
X151190000Y-75505000D01*
X143510000Y-78165000D02*
X143510000Y-75505000D01*
X142240000Y-78165000D02*
X140910000Y-78165000D01*
X140910000Y-78165000D02*
X140910000Y-76835000D01*
X151190000Y-83245000D02*
X151190000Y-80585000D01*
X143510000Y-83245000D02*
X151190000Y-83245000D01*
X143510000Y-80585000D02*
X151190000Y-80585000D01*
X143510000Y-83245000D02*
X143510000Y-80585000D01*
X142240000Y-83245000D02*
X140910000Y-83245000D01*
X140910000Y-83245000D02*
X140910000Y-81915000D01*
X181550000Y-125790000D02*
X184210000Y-125790000D01*
X181550000Y-105410000D02*
X181550000Y-125790000D01*
X184210000Y-105410000D02*
X184210000Y-125790000D01*
X181550000Y-105410000D02*
X184210000Y-105410000D01*
X181550000Y-104140000D02*
X181550000Y-102810000D01*
X181550000Y-102810000D02*
X182880000Y-102810000D01*
X184210000Y-68520000D02*
X181550000Y-68520000D01*
X184210000Y-76200000D02*
X184210000Y-68520000D01*
X181550000Y-76200000D02*
X181550000Y-68520000D01*
X184210000Y-76200000D02*
X181550000Y-76200000D01*
X184210000Y-77470000D02*
X184210000Y-78800000D01*
X184210000Y-78800000D02*
X182880000Y-78800000D01*
X164398000Y-76260000D02*
X164398000Y-73600000D01*
X159258000Y-76260000D02*
X164398000Y-76260000D01*
X159258000Y-73600000D02*
X164398000Y-73600000D01*
X159258000Y-76260000D02*
X159258000Y-73600000D01*
X157988000Y-76260000D02*
X156658000Y-76260000D01*
X156658000Y-76260000D02*
X156658000Y-74930000D01*
X135315000Y-76260000D02*
X135315000Y-73600000D01*
X130175000Y-76260000D02*
X135315000Y-76260000D01*
X130175000Y-73600000D02*
X135315000Y-73600000D01*
X130175000Y-76260000D02*
X130175000Y-73600000D01*
X128905000Y-76260000D02*
X127575000Y-76260000D01*
X127575000Y-76260000D02*
X127575000Y-74930000D01*
X120590000Y-86935000D02*
X120590000Y-89595000D01*
X123190000Y-86935000D02*
X120590000Y-86935000D01*
X123190000Y-89595000D02*
X120590000Y-89595000D01*
X123190000Y-86935000D02*
X123190000Y-89595000D01*
X124460000Y-86935000D02*
X125790000Y-86935000D01*
X125790000Y-86935000D02*
X125790000Y-88265000D01*
X118050000Y-55820000D02*
X118050000Y-58480000D01*
X120650000Y-55820000D02*
X118050000Y-55820000D01*
X120650000Y-58480000D02*
X118050000Y-58480000D01*
X120650000Y-55820000D02*
X120650000Y-58480000D01*
X121920000Y-55820000D02*
X123250000Y-55820000D01*
X123250000Y-55820000D02*
X123250000Y-57150000D01*
X156100000Y-32435000D02*
X156100000Y-45035000D01*
X156100000Y-45035000D02*
X171500000Y-45035000D01*
X171500000Y-45035000D02*
X171500000Y-44085000D01*
X171500000Y-44085000D02*
X172000000Y-44385000D01*
X172000000Y-44385000D02*
X172000000Y-42385000D01*
X172000000Y-42385000D02*
X171500000Y-42635000D01*
X171500000Y-42635000D02*
X171500000Y-37235000D01*
X171500000Y-37235000D02*
X172000000Y-37485000D01*
X172000000Y-37485000D02*
X172000000Y-32435000D01*
X172000000Y-32435000D02*
X156100000Y-32435000D01*
X126890000Y-32435000D02*
X126890000Y-45035000D01*
X126890000Y-45035000D02*
X142290000Y-45035000D01*
X142290000Y-45035000D02*
X142290000Y-44085000D01*
X142290000Y-44085000D02*
X142790000Y-44385000D01*
X142790000Y-44385000D02*
X142790000Y-42385000D01*
X142790000Y-42385000D02*
X142290000Y-42635000D01*
X142290000Y-42635000D02*
X142290000Y-37235000D01*
X142290000Y-37235000D02*
X142790000Y-37485000D01*
X142790000Y-37485000D02*
X142790000Y-32435000D01*
X142790000Y-32435000D02*
X126890000Y-32435000D01*
D12*
X118975000Y-78095000D02*
X116375000Y-78095000D01*
X118975000Y-78095000D02*
X120025000Y-79145000D01*
X120025000Y-79145000D02*
X120025000Y-81745000D01*
X114925000Y-83195000D02*
X118625000Y-83195000D01*
X114925000Y-83195000D02*
X114925000Y-79495000D01*
D11*
X89277500Y-83442500D02*
X86617500Y-83442500D01*
X89277500Y-86042500D02*
X89277500Y-83442500D01*
X86617500Y-86042500D02*
X86617500Y-83442500D01*
X89277500Y-86042500D02*
X86617500Y-86042500D01*
X89277500Y-87312500D02*
X89277500Y-88642500D01*
X89277500Y-88642500D02*
X87947500Y-88642500D01*
X89277500Y-103127500D02*
X86617500Y-103127500D01*
X89277500Y-105727500D02*
X89277500Y-103127500D01*
X86617500Y-105727500D02*
X86617500Y-103127500D01*
X89277500Y-105727500D02*
X86617500Y-105727500D01*
X89277500Y-106997500D02*
X89277500Y-108327500D01*
X89277500Y-108327500D02*
X87947500Y-108327500D01*
X86097500Y-76622500D02*
X86097500Y-80222500D01*
X86109022Y-76584022D02*
G75*
G02X90547500Y-78422500I1838478J-1838478D01*
G01*
X86109022Y-80260978D02*
G75*
G03X90547500Y-78422500I1838478J1838478D01*
G01*
X86097500Y-96307500D02*
X86097500Y-99907500D01*
X86109022Y-96269022D02*
G75*
G02X90547500Y-98107500I1838478J-1838478D01*
G01*
X86109022Y-99945978D02*
G75*
G03X90547500Y-98107500I1838478J1838478D01*
G01*
X158385000Y-90050000D02*
X156615000Y-90050000D01*
X156615000Y-90050000D02*
X156615000Y-125850000D01*
X156615000Y-125850000D02*
X162155000Y-125850000D01*
X162155000Y-125850000D02*
X162155000Y-90050000D01*
X162155000Y-90050000D02*
X160385000Y-90050000D01*
X154185000Y-90050000D02*
X154185000Y-125850000D01*
X154185000Y-125850000D02*
X164585000Y-125850000D01*
X164585000Y-125850000D02*
X164585000Y-90050000D01*
X164585000Y-90050000D02*
X154185000Y-90050000D01*
X160385000Y-90050000D02*
G75*
G02X158385000Y-90050000I-1000000J0D01*
G01*
X100210000Y-113395000D02*
X100210000Y-115165000D01*
X100210000Y-115165000D02*
X130930000Y-115165000D01*
X130930000Y-115165000D02*
X130930000Y-109625000D01*
X130930000Y-109625000D02*
X100210000Y-109625000D01*
X100210000Y-109625000D02*
X100210000Y-111395000D01*
X100210000Y-117595000D02*
X130930000Y-117595000D01*
X130930000Y-117595000D02*
X130930000Y-107195000D01*
X130930000Y-107195000D02*
X100210000Y-107195000D01*
X100210000Y-107195000D02*
X100210000Y-117595000D01*
X100210000Y-111395000D02*
G75*
G02X100210000Y-113395000I0J-1000000D01*
G01*
D12*
X114300000Y-70866000D02*
X109220000Y-70866000D01*
X109220000Y-70866000D02*
X109220000Y-66294000D01*
X109220000Y-66294000D02*
X114300000Y-66294000D01*
X114300000Y-66294000D02*
X114300000Y-70866000D01*
X114300000Y-69342000D02*
X113792000Y-69342000D01*
X113792000Y-69342000D02*
X113792000Y-68072000D01*
X113792000Y-68072000D02*
X114300000Y-68072000D01*
X163068000Y-63881000D02*
X157988000Y-63881000D01*
X157988000Y-63881000D02*
X157988000Y-59309000D01*
X157988000Y-59309000D02*
X163068000Y-59309000D01*
X163068000Y-59309000D02*
X163068000Y-63881000D01*
X163068000Y-62357000D02*
X162560000Y-62357000D01*
X162560000Y-62357000D02*
X162560000Y-61087000D01*
X162560000Y-61087000D02*
X163068000Y-61087000D01*
X133985000Y-63881000D02*
X128905000Y-63881000D01*
X128905000Y-63881000D02*
X128905000Y-59309000D01*
X128905000Y-59309000D02*
X133985000Y-59309000D01*
X133985000Y-59309000D02*
X133985000Y-63881000D01*
X133985000Y-62357000D02*
X133477000Y-62357000D01*
X133477000Y-62357000D02*
X133477000Y-61087000D01*
X133477000Y-61087000D02*
X133985000Y-61087000D01*
D11*
X147335000Y-116330000D02*
X147335000Y-109930000D01*
X152385000Y-116330000D02*
X152385000Y-109930000D01*
X152385000Y-116330000D02*
G75*
G02X147335000Y-116330000I-2525000J0D01*
G01*
X152385000Y-109930000D02*
G75*
G03X147335000Y-109930000I-2525000J0D01*
G01*
X152010000Y-92110000D02*
X152010000Y-93310000D01*
X150250000Y-93310000D02*
X150250000Y-92110000D01*
X116170000Y-106290000D02*
X114970000Y-106290000D01*
X114970000Y-104530000D02*
X116170000Y-104530000D01*
X112430000Y-60080000D02*
X113630000Y-60080000D01*
X113630000Y-61840000D02*
X112430000Y-61840000D01*
X107350000Y-60080000D02*
X108550000Y-60080000D01*
X108550000Y-61840000D02*
X107350000Y-61840000D01*
X109890000Y-81670000D02*
X111090000Y-81670000D01*
X111090000Y-83430000D02*
X109890000Y-83430000D01*
X109890000Y-89290000D02*
X111090000Y-89290000D01*
X111090000Y-91050000D02*
X109890000Y-91050000D01*
X111090000Y-87240000D02*
X109890000Y-87240000D01*
X109890000Y-85480000D02*
X111090000Y-85480000D01*
X116595000Y-88865000D02*
X116595000Y-87665000D01*
X118355000Y-87665000D02*
X118355000Y-88865000D01*
X94542500Y-76552500D02*
X94542500Y-77752500D01*
X92782500Y-77752500D02*
X92782500Y-76552500D01*
X94542500Y-96237500D02*
X94542500Y-97437500D01*
X92782500Y-97437500D02*
X92782500Y-96237500D01*
X146625000Y-97850000D02*
X149285000Y-97850000D01*
X146625000Y-95250000D02*
X146625000Y-97850000D01*
X149285000Y-95250000D02*
X149285000Y-97850000D01*
X146625000Y-95250000D02*
X149285000Y-95250000D01*
X146625000Y-93980000D02*
X146625000Y-92650000D01*
X146625000Y-92650000D02*
X147955000Y-92650000D01*
X165675000Y-97850000D02*
X168335000Y-97850000D01*
X165675000Y-97790000D02*
X165675000Y-97850000D01*
X168335000Y-97790000D02*
X168335000Y-97850000D01*
X165675000Y-97790000D02*
X168335000Y-97790000D01*
X165675000Y-96520000D02*
X165675000Y-95190000D01*
X165675000Y-95190000D02*
X167005000Y-95190000D01*
X167920000Y-122170000D02*
X167920000Y-106430000D01*
X167920000Y-106430000D02*
X177520000Y-106430000D01*
X177520000Y-106430000D02*
X177520000Y-122170000D01*
X177520000Y-122170000D02*
X167920000Y-122170000D01*
X94655000Y-81915000D02*
G75*
G03X94655000Y-81915000I-1310000J0D01*
G01*
X93345000Y-83225000D02*
X93345000Y-85895000D01*
X94655000Y-102235000D02*
G75*
G03X94655000Y-102235000I-1310000J0D01*
G01*
X93345000Y-103545000D02*
X93345000Y-106215000D01*
D12*
X157345143Y-69417143D02*
X157297524Y-69464762D01*
X157154667Y-69512381D01*
X157059429Y-69512381D01*
X156916571Y-69464762D01*
X156821333Y-69369524D01*
X156773714Y-69274286D01*
X156726095Y-69083810D01*
X156726095Y-68940952D01*
X156773714Y-68750476D01*
X156821333Y-68655238D01*
X156916571Y-68560000D01*
X157059429Y-68512381D01*
X157154667Y-68512381D01*
X157297524Y-68560000D01*
X157345143Y-68607619D01*
X158297524Y-69512381D02*
X157726095Y-69512381D01*
X158011809Y-69512381D02*
X158011809Y-68512381D01*
X157916571Y-68655238D01*
X157821333Y-68750476D01*
X157726095Y-68798095D01*
X158630857Y-68512381D02*
X159297524Y-68512381D01*
X158868952Y-69512381D01*
X144097143Y-103671666D02*
X144144762Y-103719285D01*
X144192381Y-103862142D01*
X144192381Y-103957380D01*
X144144762Y-104100238D01*
X144049524Y-104195476D01*
X143954286Y-104243095D01*
X143763810Y-104290714D01*
X143620952Y-104290714D01*
X143430476Y-104243095D01*
X143335238Y-104195476D01*
X143240000Y-104100238D01*
X143192381Y-103957380D01*
X143192381Y-103862142D01*
X143240000Y-103719285D01*
X143287619Y-103671666D01*
X144192381Y-102719285D02*
X144192381Y-103290714D01*
X144192381Y-103005000D02*
X143192381Y-103005000D01*
X143335238Y-103100238D01*
X143430476Y-103195476D01*
X143478095Y-103290714D01*
X145401429Y-101105952D02*
X145401429Y-100344047D01*
X145782381Y-100724999D02*
X145020476Y-100724999D01*
X145137143Y-111291666D02*
X145184762Y-111339285D01*
X145232381Y-111482142D01*
X145232381Y-111577380D01*
X145184762Y-111720238D01*
X145089524Y-111815476D01*
X144994286Y-111863095D01*
X144803810Y-111910714D01*
X144660952Y-111910714D01*
X144470476Y-111863095D01*
X144375238Y-111815476D01*
X144280000Y-111720238D01*
X144232381Y-111577380D01*
X144232381Y-111482142D01*
X144280000Y-111339285D01*
X144327619Y-111291666D01*
X144327619Y-110910714D02*
X144280000Y-110863095D01*
X144232381Y-110767857D01*
X144232381Y-110529761D01*
X144280000Y-110434523D01*
X144327619Y-110386904D01*
X144422857Y-110339285D01*
X144518095Y-110339285D01*
X144660952Y-110386904D01*
X145232381Y-110958333D01*
X145232381Y-110339285D01*
X153237143Y-103671666D02*
X153284762Y-103719285D01*
X153332381Y-103862142D01*
X153332381Y-103957380D01*
X153284762Y-104100238D01*
X153189524Y-104195476D01*
X153094286Y-104243095D01*
X152903810Y-104290714D01*
X152760952Y-104290714D01*
X152570476Y-104243095D01*
X152475238Y-104195476D01*
X152380000Y-104100238D01*
X152332381Y-103957380D01*
X152332381Y-103862142D01*
X152380000Y-103719285D01*
X152427619Y-103671666D01*
X152332381Y-103338333D02*
X152332381Y-102719285D01*
X152713333Y-103052619D01*
X152713333Y-102909761D01*
X152760952Y-102814523D01*
X152808571Y-102766904D01*
X152903810Y-102719285D01*
X153141905Y-102719285D01*
X153237143Y-102766904D01*
X153284762Y-102814523D01*
X153332381Y-102909761D01*
X153332381Y-103195476D01*
X153284762Y-103290714D01*
X153237143Y-103338333D01*
X145137143Y-115101666D02*
X145184762Y-115149285D01*
X145232381Y-115292142D01*
X145232381Y-115387380D01*
X145184762Y-115530238D01*
X145089524Y-115625476D01*
X144994286Y-115673095D01*
X144803810Y-115720714D01*
X144660952Y-115720714D01*
X144470476Y-115673095D01*
X144375238Y-115625476D01*
X144280000Y-115530238D01*
X144232381Y-115387380D01*
X144232381Y-115292142D01*
X144280000Y-115149285D01*
X144327619Y-115101666D01*
X144565714Y-114244523D02*
X145232381Y-114244523D01*
X144184762Y-114482619D02*
X144899048Y-114720714D01*
X144899048Y-114101666D01*
X94508334Y-52577143D02*
X94460715Y-52624762D01*
X94317858Y-52672381D01*
X94222620Y-52672381D01*
X94079762Y-52624762D01*
X93984524Y-52529524D01*
X93936905Y-52434286D01*
X93889286Y-52243810D01*
X93889286Y-52100952D01*
X93936905Y-51910476D01*
X93984524Y-51815238D01*
X94079762Y-51720000D01*
X94222620Y-51672381D01*
X94317858Y-51672381D01*
X94460715Y-51720000D01*
X94508334Y-51767619D01*
X95413096Y-51672381D02*
X94936905Y-51672381D01*
X94889286Y-52148571D01*
X94936905Y-52100952D01*
X95032143Y-52053333D01*
X95270239Y-52053333D01*
X95365477Y-52100952D01*
X95413096Y-52148571D01*
X95460715Y-52243810D01*
X95460715Y-52481905D01*
X95413096Y-52577143D01*
X95365477Y-52624762D01*
X95270239Y-52672381D01*
X95032143Y-52672381D01*
X94936905Y-52624762D01*
X94889286Y-52577143D01*
X94508334Y-72897143D02*
X94460715Y-72944762D01*
X94317858Y-72992381D01*
X94222620Y-72992381D01*
X94079762Y-72944762D01*
X93984524Y-72849524D01*
X93936905Y-72754286D01*
X93889286Y-72563810D01*
X93889286Y-72420952D01*
X93936905Y-72230476D01*
X93984524Y-72135238D01*
X94079762Y-72040000D01*
X94222620Y-71992381D01*
X94317858Y-71992381D01*
X94460715Y-72040000D01*
X94508334Y-72087619D01*
X95365477Y-71992381D02*
X95175000Y-71992381D01*
X95079762Y-72040000D01*
X95032143Y-72087619D01*
X94936905Y-72230476D01*
X94889286Y-72420952D01*
X94889286Y-72801905D01*
X94936905Y-72897143D01*
X94984524Y-72944762D01*
X95079762Y-72992381D01*
X95270239Y-72992381D01*
X95365477Y-72944762D01*
X95413096Y-72897143D01*
X95460715Y-72801905D01*
X95460715Y-72563810D01*
X95413096Y-72468571D01*
X95365477Y-72420952D01*
X95270239Y-72373333D01*
X95079762Y-72373333D01*
X94984524Y-72420952D01*
X94936905Y-72468571D01*
X94889286Y-72563810D01*
X124662143Y-65571666D02*
X124709762Y-65619285D01*
X124757381Y-65762142D01*
X124757381Y-65857380D01*
X124709762Y-66000238D01*
X124614524Y-66095476D01*
X124519286Y-66143095D01*
X124328810Y-66190714D01*
X124185952Y-66190714D01*
X123995476Y-66143095D01*
X123900238Y-66095476D01*
X123805000Y-66000238D01*
X123757381Y-65857380D01*
X123757381Y-65762142D01*
X123805000Y-65619285D01*
X123852619Y-65571666D01*
X123757381Y-65238333D02*
X123757381Y-64571666D01*
X124757381Y-65000238D01*
X137628334Y-108307143D02*
X137580715Y-108354762D01*
X137437858Y-108402381D01*
X137342620Y-108402381D01*
X137199762Y-108354762D01*
X137104524Y-108259524D01*
X137056905Y-108164286D01*
X137009286Y-107973810D01*
X137009286Y-107830952D01*
X137056905Y-107640476D01*
X137104524Y-107545238D01*
X137199762Y-107450000D01*
X137342620Y-107402381D01*
X137437858Y-107402381D01*
X137580715Y-107450000D01*
X137628334Y-107497619D01*
X138199762Y-107830952D02*
X138104524Y-107783333D01*
X138056905Y-107735714D01*
X138009286Y-107640476D01*
X138009286Y-107592857D01*
X138056905Y-107497619D01*
X138104524Y-107450000D01*
X138199762Y-107402381D01*
X138390239Y-107402381D01*
X138485477Y-107450000D01*
X138533096Y-107497619D01*
X138580715Y-107592857D01*
X138580715Y-107640476D01*
X138533096Y-107735714D01*
X138485477Y-107783333D01*
X138390239Y-107830952D01*
X138199762Y-107830952D01*
X138104524Y-107878571D01*
X138056905Y-107926190D01*
X138009286Y-108021429D01*
X138009286Y-108211905D01*
X138056905Y-108307143D01*
X138104524Y-108354762D01*
X138199762Y-108402381D01*
X138390239Y-108402381D01*
X138485477Y-108354762D01*
X138533096Y-108307143D01*
X138580715Y-108211905D01*
X138580715Y-108021429D01*
X138533096Y-107926190D01*
X138485477Y-107878571D01*
X138390239Y-107830952D01*
X116673334Y-65607143D02*
X116625715Y-65654762D01*
X116482858Y-65702381D01*
X116387620Y-65702381D01*
X116244762Y-65654762D01*
X116149524Y-65559524D01*
X116101905Y-65464286D01*
X116054286Y-65273810D01*
X116054286Y-65130952D01*
X116101905Y-64940476D01*
X116149524Y-64845238D01*
X116244762Y-64750000D01*
X116387620Y-64702381D01*
X116482858Y-64702381D01*
X116625715Y-64750000D01*
X116673334Y-64797619D01*
X117149524Y-65702381D02*
X117340000Y-65702381D01*
X117435239Y-65654762D01*
X117482858Y-65607143D01*
X117578096Y-65464286D01*
X117625715Y-65273810D01*
X117625715Y-64892857D01*
X117578096Y-64797619D01*
X117530477Y-64750000D01*
X117435239Y-64702381D01*
X117244762Y-64702381D01*
X117149524Y-64750000D01*
X117101905Y-64797619D01*
X117054286Y-64892857D01*
X117054286Y-65130952D01*
X117101905Y-65226190D01*
X117149524Y-65273810D01*
X117244762Y-65321429D01*
X117435239Y-65321429D01*
X117530477Y-65273810D01*
X117578096Y-65226190D01*
X117625715Y-65130952D01*
X133342143Y-108307143D02*
X133294524Y-108354762D01*
X133151667Y-108402381D01*
X133056429Y-108402381D01*
X132913571Y-108354762D01*
X132818333Y-108259524D01*
X132770714Y-108164286D01*
X132723095Y-107973810D01*
X132723095Y-107830952D01*
X132770714Y-107640476D01*
X132818333Y-107545238D01*
X132913571Y-107450000D01*
X133056429Y-107402381D01*
X133151667Y-107402381D01*
X133294524Y-107450000D01*
X133342143Y-107497619D01*
X134294524Y-108402381D02*
X133723095Y-108402381D01*
X134008809Y-108402381D02*
X134008809Y-107402381D01*
X133913571Y-107545238D01*
X133818333Y-107640476D01*
X133723095Y-107688095D01*
X134913571Y-107402381D02*
X135008810Y-107402381D01*
X135104048Y-107450000D01*
X135151667Y-107497619D01*
X135199286Y-107592857D01*
X135246905Y-107783333D01*
X135246905Y-108021429D01*
X135199286Y-108211905D01*
X135151667Y-108307143D01*
X135104048Y-108354762D01*
X135008810Y-108402381D01*
X134913571Y-108402381D01*
X134818333Y-108354762D01*
X134770714Y-108307143D01*
X134723095Y-108211905D01*
X134675476Y-108021429D01*
X134675476Y-107783333D01*
X134723095Y-107592857D01*
X134770714Y-107497619D01*
X134818333Y-107450000D01*
X134913571Y-107402381D01*
X132066429Y-109995952D02*
X132066429Y-109234047D01*
X132447381Y-109614999D02*
X131685476Y-109614999D01*
X107307143Y-65607143D02*
X107259524Y-65654762D01*
X107116667Y-65702381D01*
X107021429Y-65702381D01*
X106878571Y-65654762D01*
X106783333Y-65559524D01*
X106735714Y-65464286D01*
X106688095Y-65273810D01*
X106688095Y-65130952D01*
X106735714Y-64940476D01*
X106783333Y-64845238D01*
X106878571Y-64750000D01*
X107021429Y-64702381D01*
X107116667Y-64702381D01*
X107259524Y-64750000D01*
X107307143Y-64797619D01*
X108259524Y-65702381D02*
X107688095Y-65702381D01*
X107973809Y-65702381D02*
X107973809Y-64702381D01*
X107878571Y-64845238D01*
X107783333Y-64940476D01*
X107688095Y-64988095D01*
X109211905Y-65702381D02*
X108640476Y-65702381D01*
X108926190Y-65702381D02*
X108926190Y-64702381D01*
X108830952Y-64845238D01*
X108735714Y-64940476D01*
X108640476Y-64988095D01*
X106402143Y-79382857D02*
X106449762Y-79430476D01*
X106497381Y-79573333D01*
X106497381Y-79668571D01*
X106449762Y-79811429D01*
X106354524Y-79906667D01*
X106259286Y-79954286D01*
X106068810Y-80001905D01*
X105925952Y-80001905D01*
X105735476Y-79954286D01*
X105640238Y-79906667D01*
X105545000Y-79811429D01*
X105497381Y-79668571D01*
X105497381Y-79573333D01*
X105545000Y-79430476D01*
X105592619Y-79382857D01*
X106497381Y-78430476D02*
X106497381Y-79001905D01*
X106497381Y-78716191D02*
X105497381Y-78716191D01*
X105640238Y-78811429D01*
X105735476Y-78906667D01*
X105783095Y-79001905D01*
X105592619Y-78049524D02*
X105545000Y-78001905D01*
X105497381Y-77906667D01*
X105497381Y-77668571D01*
X105545000Y-77573333D01*
X105592619Y-77525714D01*
X105687857Y-77478095D01*
X105783095Y-77478095D01*
X105925952Y-77525714D01*
X106497381Y-78097143D01*
X106497381Y-77478095D01*
X109847143Y-77192143D02*
X109799524Y-77239762D01*
X109656667Y-77287381D01*
X109561429Y-77287381D01*
X109418571Y-77239762D01*
X109323333Y-77144524D01*
X109275714Y-77049286D01*
X109228095Y-76858810D01*
X109228095Y-76715952D01*
X109275714Y-76525476D01*
X109323333Y-76430238D01*
X109418571Y-76335000D01*
X109561429Y-76287381D01*
X109656667Y-76287381D01*
X109799524Y-76335000D01*
X109847143Y-76382619D01*
X110799524Y-77287381D02*
X110228095Y-77287381D01*
X110513809Y-77287381D02*
X110513809Y-76287381D01*
X110418571Y-76430238D01*
X110323333Y-76525476D01*
X110228095Y-76573095D01*
X111132857Y-76287381D02*
X111751905Y-76287381D01*
X111418571Y-76668333D01*
X111561429Y-76668333D01*
X111656667Y-76715952D01*
X111704286Y-76763571D01*
X111751905Y-76858810D01*
X111751905Y-77096905D01*
X111704286Y-77192143D01*
X111656667Y-77239762D01*
X111561429Y-77287381D01*
X111275714Y-77287381D01*
X111180476Y-77239762D01*
X111132857Y-77192143D01*
X124817143Y-73667857D02*
X124864762Y-73715476D01*
X124912381Y-73858333D01*
X124912381Y-73953571D01*
X124864762Y-74096429D01*
X124769524Y-74191667D01*
X124674286Y-74239286D01*
X124483810Y-74286905D01*
X124340952Y-74286905D01*
X124150476Y-74239286D01*
X124055238Y-74191667D01*
X123960000Y-74096429D01*
X123912381Y-73953571D01*
X123912381Y-73858333D01*
X123960000Y-73715476D01*
X124007619Y-73667857D01*
X124912381Y-72715476D02*
X124912381Y-73286905D01*
X124912381Y-73001191D02*
X123912381Y-73001191D01*
X124055238Y-73096429D01*
X124150476Y-73191667D01*
X124198095Y-73286905D01*
X124245714Y-71858333D02*
X124912381Y-71858333D01*
X123864762Y-72096429D02*
X124579048Y-72334524D01*
X124579048Y-71715476D01*
X159885143Y-73227143D02*
X159837524Y-73274762D01*
X159694667Y-73322381D01*
X159599429Y-73322381D01*
X159456571Y-73274762D01*
X159361333Y-73179524D01*
X159313714Y-73084286D01*
X159266095Y-72893810D01*
X159266095Y-72750952D01*
X159313714Y-72560476D01*
X159361333Y-72465238D01*
X159456571Y-72370000D01*
X159599429Y-72322381D01*
X159694667Y-72322381D01*
X159837524Y-72370000D01*
X159885143Y-72417619D01*
X160837524Y-73322381D02*
X160266095Y-73322381D01*
X160551809Y-73322381D02*
X160551809Y-72322381D01*
X160456571Y-72465238D01*
X160361333Y-72560476D01*
X160266095Y-72608095D01*
X161742286Y-72322381D02*
X161266095Y-72322381D01*
X161218476Y-72798571D01*
X161266095Y-72750952D01*
X161361333Y-72703333D01*
X161599429Y-72703333D01*
X161694667Y-72750952D01*
X161742286Y-72798571D01*
X161789905Y-72893810D01*
X161789905Y-73131905D01*
X161742286Y-73227143D01*
X161694667Y-73274762D01*
X161599429Y-73322381D01*
X161361333Y-73322381D01*
X161266095Y-73274762D01*
X161218476Y-73227143D01*
X130802143Y-73227143D02*
X130754524Y-73274762D01*
X130611667Y-73322381D01*
X130516429Y-73322381D01*
X130373571Y-73274762D01*
X130278333Y-73179524D01*
X130230714Y-73084286D01*
X130183095Y-72893810D01*
X130183095Y-72750952D01*
X130230714Y-72560476D01*
X130278333Y-72465238D01*
X130373571Y-72370000D01*
X130516429Y-72322381D01*
X130611667Y-72322381D01*
X130754524Y-72370000D01*
X130802143Y-72417619D01*
X131754524Y-73322381D02*
X131183095Y-73322381D01*
X131468809Y-73322381D02*
X131468809Y-72322381D01*
X131373571Y-72465238D01*
X131278333Y-72560476D01*
X131183095Y-72608095D01*
X132611667Y-72322381D02*
X132421190Y-72322381D01*
X132325952Y-72370000D01*
X132278333Y-72417619D01*
X132183095Y-72560476D01*
X132135476Y-72750952D01*
X132135476Y-73131905D01*
X132183095Y-73227143D01*
X132230714Y-73274762D01*
X132325952Y-73322381D01*
X132516429Y-73322381D01*
X132611667Y-73274762D01*
X132659286Y-73227143D01*
X132706905Y-73131905D01*
X132706905Y-72893810D01*
X132659286Y-72798571D01*
X132611667Y-72750952D01*
X132516429Y-72703333D01*
X132325952Y-72703333D01*
X132230714Y-72750952D01*
X132183095Y-72798571D01*
X132135476Y-72893810D01*
X128262143Y-69417143D02*
X128214524Y-69464762D01*
X128071667Y-69512381D01*
X127976429Y-69512381D01*
X127833571Y-69464762D01*
X127738333Y-69369524D01*
X127690714Y-69274286D01*
X127643095Y-69083810D01*
X127643095Y-68940952D01*
X127690714Y-68750476D01*
X127738333Y-68655238D01*
X127833571Y-68560000D01*
X127976429Y-68512381D01*
X128071667Y-68512381D01*
X128214524Y-68560000D01*
X128262143Y-68607619D01*
X129214524Y-69512381D02*
X128643095Y-69512381D01*
X128928809Y-69512381D02*
X128928809Y-68512381D01*
X128833571Y-68655238D01*
X128738333Y-68750476D01*
X128643095Y-68798095D01*
X129785952Y-68940952D02*
X129690714Y-68893333D01*
X129643095Y-68845714D01*
X129595476Y-68750476D01*
X129595476Y-68702857D01*
X129643095Y-68607619D01*
X129690714Y-68560000D01*
X129785952Y-68512381D01*
X129976429Y-68512381D01*
X130071667Y-68560000D01*
X130119286Y-68607619D01*
X130166905Y-68702857D01*
X130166905Y-68750476D01*
X130119286Y-68845714D01*
X130071667Y-68893333D01*
X129976429Y-68940952D01*
X129785952Y-68940952D01*
X129690714Y-68988571D01*
X129643095Y-69036190D01*
X129595476Y-69131429D01*
X129595476Y-69321905D01*
X129643095Y-69417143D01*
X129690714Y-69464762D01*
X129785952Y-69512381D01*
X129976429Y-69512381D01*
X130071667Y-69464762D01*
X130119286Y-69417143D01*
X130166905Y-69321905D01*
X130166905Y-69131429D01*
X130119286Y-69036190D01*
X130071667Y-68988571D01*
X129976429Y-68940952D01*
X107781498Y-55857575D02*
X108488605Y-55150468D01*
X108656964Y-55318827D01*
X108724308Y-55453514D01*
X108724308Y-55588201D01*
X108690636Y-55689216D01*
X108589621Y-55857575D01*
X108488605Y-55958591D01*
X108320247Y-56059606D01*
X108219231Y-56093277D01*
X108084545Y-56093277D01*
X107949857Y-56025933D01*
X107781498Y-55857575D01*
X108858995Y-56935071D02*
X108454933Y-56531010D01*
X108656964Y-56733040D02*
X109364070Y-56025933D01*
X109195712Y-56059605D01*
X109061025Y-56059605D01*
X108960010Y-56025933D01*
X116062381Y-73763095D02*
X115062381Y-73763095D01*
X115062381Y-73525000D01*
X115110000Y-73382142D01*
X115205238Y-73286904D01*
X115300476Y-73239285D01*
X115490952Y-73191666D01*
X115633810Y-73191666D01*
X115824286Y-73239285D01*
X115919524Y-73286904D01*
X116014762Y-73382142D01*
X116062381Y-73525000D01*
X116062381Y-73763095D01*
X115157619Y-72810714D02*
X115110000Y-72763095D01*
X115062381Y-72667857D01*
X115062381Y-72429761D01*
X115110000Y-72334523D01*
X115157619Y-72286904D01*
X115252857Y-72239285D01*
X115348095Y-72239285D01*
X115490952Y-72286904D01*
X116062381Y-72858333D01*
X116062381Y-72239285D01*
X114117381Y-89003095D02*
X113117381Y-89003095D01*
X113117381Y-88765000D01*
X113165000Y-88622142D01*
X113260238Y-88526904D01*
X113355476Y-88479285D01*
X113545952Y-88431666D01*
X113688810Y-88431666D01*
X113879286Y-88479285D01*
X113974524Y-88526904D01*
X114069762Y-88622142D01*
X114117381Y-88765000D01*
X114117381Y-89003095D01*
X113117381Y-88098333D02*
X113117381Y-87479285D01*
X113498333Y-87812619D01*
X113498333Y-87669761D01*
X113545952Y-87574523D01*
X113593571Y-87526904D01*
X113688810Y-87479285D01*
X113926905Y-87479285D01*
X114022143Y-87526904D01*
X114069762Y-87574523D01*
X114117381Y-87669761D01*
X114117381Y-87955476D01*
X114069762Y-88050714D01*
X114022143Y-88098333D01*
X172648571Y-46688333D02*
X172648571Y-47021667D01*
X173172381Y-47021667D02*
X172172381Y-47021667D01*
X172172381Y-46545476D01*
X173172381Y-45640714D02*
X173172381Y-46212143D01*
X173172381Y-45926429D02*
X172172381Y-45926429D01*
X172315238Y-46021667D01*
X172410476Y-46116905D01*
X172458095Y-46212143D01*
X143438571Y-46688333D02*
X143438571Y-47021667D01*
X143962381Y-47021667D02*
X142962381Y-47021667D01*
X142962381Y-46545476D01*
X143057619Y-46212143D02*
X143010000Y-46164524D01*
X142962381Y-46069286D01*
X142962381Y-45831190D01*
X143010000Y-45735952D01*
X143057619Y-45688333D01*
X143152857Y-45640714D01*
X143248095Y-45640714D01*
X143390952Y-45688333D01*
X143962381Y-46259762D01*
X143962381Y-45640714D01*
X121586667Y-38187381D02*
X121586667Y-38901667D01*
X121539047Y-39044524D01*
X121443809Y-39139762D01*
X121300952Y-39187381D01*
X121205714Y-39187381D01*
X122586667Y-39187381D02*
X122015238Y-39187381D01*
X122300952Y-39187381D02*
X122300952Y-38187381D01*
X122205714Y-38330238D01*
X122110476Y-38425476D01*
X122015238Y-38473095D01*
X103802381Y-123523333D02*
X104516667Y-123523333D01*
X104659524Y-123570953D01*
X104754762Y-123666191D01*
X104802381Y-123809048D01*
X104802381Y-123904286D01*
X103897619Y-123094762D02*
X103850000Y-123047143D01*
X103802381Y-122951905D01*
X103802381Y-122713809D01*
X103850000Y-122618571D01*
X103897619Y-122570952D01*
X103992857Y-122523333D01*
X104088095Y-122523333D01*
X104230952Y-122570952D01*
X104802381Y-123142381D01*
X104802381Y-122523333D01*
X103802381Y-99393333D02*
X104516667Y-99393333D01*
X104659524Y-99440953D01*
X104754762Y-99536191D01*
X104802381Y-99679048D01*
X104802381Y-99774286D01*
X103802381Y-99012381D02*
X103802381Y-98393333D01*
X104183333Y-98726667D01*
X104183333Y-98583809D01*
X104230952Y-98488571D01*
X104278571Y-98440952D01*
X104373810Y-98393333D01*
X104611905Y-98393333D01*
X104707143Y-98440952D01*
X104754762Y-98488571D01*
X104802381Y-98583809D01*
X104802381Y-98869524D01*
X104754762Y-98964762D01*
X104707143Y-99012381D01*
X139362381Y-77168333D02*
X140076667Y-77168333D01*
X140219524Y-77215953D01*
X140314762Y-77311191D01*
X140362381Y-77454048D01*
X140362381Y-77549286D01*
X139695714Y-76263571D02*
X140362381Y-76263571D01*
X139314762Y-76501667D02*
X140029048Y-76739762D01*
X140029048Y-76120714D01*
X139362381Y-82248333D02*
X140076667Y-82248333D01*
X140219524Y-82295953D01*
X140314762Y-82391191D01*
X140362381Y-82534048D01*
X140362381Y-82629286D01*
X139362381Y-81295952D02*
X139362381Y-81772143D01*
X139838571Y-81819762D01*
X139790952Y-81772143D01*
X139743333Y-81676905D01*
X139743333Y-81438809D01*
X139790952Y-81343571D01*
X139838571Y-81295952D01*
X139933810Y-81248333D01*
X140171905Y-81248333D01*
X140267143Y-81295952D01*
X140314762Y-81343571D01*
X140362381Y-81438809D01*
X140362381Y-81676905D01*
X140314762Y-81772143D01*
X140267143Y-81819762D01*
X182546667Y-101262381D02*
X182546667Y-101976667D01*
X182499047Y-102119524D01*
X182403809Y-102214762D01*
X182260952Y-102262381D01*
X182165714Y-102262381D01*
X183451429Y-101262381D02*
X183260952Y-101262381D01*
X183165714Y-101310000D01*
X183118095Y-101357619D01*
X183022857Y-101500476D01*
X182975238Y-101690952D01*
X182975238Y-102071905D01*
X183022857Y-102167143D01*
X183070476Y-102214762D01*
X183165714Y-102262381D01*
X183356191Y-102262381D01*
X183451429Y-102214762D01*
X183499048Y-102167143D01*
X183546667Y-102071905D01*
X183546667Y-101833810D01*
X183499048Y-101738571D01*
X183451429Y-101690952D01*
X183356191Y-101643333D01*
X183165714Y-101643333D01*
X183070476Y-101690952D01*
X183022857Y-101738571D01*
X182975238Y-101833810D01*
X182546667Y-79252381D02*
X182546667Y-79966667D01*
X182499047Y-80109524D01*
X182403809Y-80204762D01*
X182260952Y-80252381D01*
X182165714Y-80252381D01*
X182927619Y-79252381D02*
X183594286Y-79252381D01*
X183165714Y-80252381D01*
X155110381Y-75263333D02*
X155824667Y-75263333D01*
X155967524Y-75310953D01*
X156062762Y-75406191D01*
X156110381Y-75549048D01*
X156110381Y-75644286D01*
X155538952Y-74644286D02*
X155491333Y-74739524D01*
X155443714Y-74787143D01*
X155348476Y-74834762D01*
X155300857Y-74834762D01*
X155205619Y-74787143D01*
X155158000Y-74739524D01*
X155110381Y-74644286D01*
X155110381Y-74453809D01*
X155158000Y-74358571D01*
X155205619Y-74310952D01*
X155300857Y-74263333D01*
X155348476Y-74263333D01*
X155443714Y-74310952D01*
X155491333Y-74358571D01*
X155538952Y-74453809D01*
X155538952Y-74644286D01*
X155586571Y-74739524D01*
X155634190Y-74787143D01*
X155729429Y-74834762D01*
X155919905Y-74834762D01*
X156015143Y-74787143D01*
X156062762Y-74739524D01*
X156110381Y-74644286D01*
X156110381Y-74453809D01*
X156062762Y-74358571D01*
X156015143Y-74310952D01*
X155919905Y-74263333D01*
X155729429Y-74263333D01*
X155634190Y-74310952D01*
X155586571Y-74358571D01*
X155538952Y-74453809D01*
X126027381Y-75263333D02*
X126741667Y-75263333D01*
X126884524Y-75310953D01*
X126979762Y-75406191D01*
X127027381Y-75549048D01*
X127027381Y-75644286D01*
X127027381Y-74739524D02*
X127027381Y-74549048D01*
X126979762Y-74453809D01*
X126932143Y-74406190D01*
X126789286Y-74310952D01*
X126598810Y-74263333D01*
X126217857Y-74263333D01*
X126122619Y-74310952D01*
X126075000Y-74358571D01*
X126027381Y-74453809D01*
X126027381Y-74644286D01*
X126075000Y-74739524D01*
X126122619Y-74787143D01*
X126217857Y-74834762D01*
X126455952Y-74834762D01*
X126551190Y-74787143D01*
X126598810Y-74739524D01*
X126646429Y-74644286D01*
X126646429Y-74453809D01*
X126598810Y-74358571D01*
X126551190Y-74310952D01*
X126455952Y-74263333D01*
X126242381Y-89074523D02*
X126956667Y-89074523D01*
X127099524Y-89122143D01*
X127194762Y-89217381D01*
X127242381Y-89360238D01*
X127242381Y-89455476D01*
X127242381Y-88074523D02*
X127242381Y-88645952D01*
X127242381Y-88360238D02*
X126242381Y-88360238D01*
X126385238Y-88455476D01*
X126480476Y-88550714D01*
X126528095Y-88645952D01*
X126242381Y-87455476D02*
X126242381Y-87360237D01*
X126290000Y-87264999D01*
X126337619Y-87217380D01*
X126432857Y-87169761D01*
X126623333Y-87122142D01*
X126861429Y-87122142D01*
X127051905Y-87169761D01*
X127147143Y-87217380D01*
X127194762Y-87264999D01*
X127242381Y-87360237D01*
X127242381Y-87455476D01*
X127194762Y-87550714D01*
X127147143Y-87598333D01*
X127051905Y-87645952D01*
X126861429Y-87693571D01*
X126623333Y-87693571D01*
X126432857Y-87645952D01*
X126337619Y-87598333D01*
X126290000Y-87550714D01*
X126242381Y-87455476D01*
X123702381Y-57959523D02*
X124416667Y-57959523D01*
X124559524Y-58007143D01*
X124654762Y-58102381D01*
X124702381Y-58245238D01*
X124702381Y-58340476D01*
X124702381Y-56959523D02*
X124702381Y-57530952D01*
X124702381Y-57245238D02*
X123702381Y-57245238D01*
X123845238Y-57340476D01*
X123940476Y-57435714D01*
X123988095Y-57530952D01*
X124702381Y-56007142D02*
X124702381Y-56578571D01*
X124702381Y-56292857D02*
X123702381Y-56292857D01*
X123845238Y-56388095D01*
X123940476Y-56483333D01*
X123988095Y-56578571D01*
X167465477Y-45807381D02*
X167465477Y-46521667D01*
X167417857Y-46664524D01*
X167322619Y-46759762D01*
X167179762Y-46807381D01*
X167084524Y-46807381D01*
X168465477Y-46807381D02*
X167894048Y-46807381D01*
X168179762Y-46807381D02*
X168179762Y-45807381D01*
X168084524Y-45950238D01*
X167989286Y-46045476D01*
X167894048Y-46093095D01*
X168846429Y-45902619D02*
X168894048Y-45855000D01*
X168989286Y-45807381D01*
X169227382Y-45807381D01*
X169322620Y-45855000D01*
X169370239Y-45902619D01*
X169417858Y-45997857D01*
X169417858Y-46093095D01*
X169370239Y-46235952D01*
X168798810Y-46807381D01*
X169417858Y-46807381D01*
X138255477Y-45807381D02*
X138255477Y-46521667D01*
X138207857Y-46664524D01*
X138112619Y-46759762D01*
X137969762Y-46807381D01*
X137874524Y-46807381D01*
X139255477Y-46807381D02*
X138684048Y-46807381D01*
X138969762Y-46807381D02*
X138969762Y-45807381D01*
X138874524Y-45950238D01*
X138779286Y-46045476D01*
X138684048Y-46093095D01*
X139588810Y-45807381D02*
X140207858Y-45807381D01*
X139874524Y-46188333D01*
X140017382Y-46188333D01*
X140112620Y-46235952D01*
X140160239Y-46283571D01*
X140207858Y-46378810D01*
X140207858Y-46616905D01*
X140160239Y-46712143D01*
X140112620Y-46759762D01*
X140017382Y-46807381D01*
X139731667Y-46807381D01*
X139636429Y-46759762D01*
X139588810Y-46712143D01*
X117258334Y-84497381D02*
X116782143Y-84497381D01*
X116782143Y-83497381D01*
X118115477Y-84497381D02*
X117544048Y-84497381D01*
X117829762Y-84497381D02*
X117829762Y-83497381D01*
X117734524Y-83640238D01*
X117639286Y-83735476D01*
X117544048Y-83783095D01*
X87304643Y-90094881D02*
X86828452Y-90094881D01*
X86828452Y-89094881D01*
X87590357Y-90047262D02*
X87733214Y-90094881D01*
X87971310Y-90094881D01*
X88066548Y-90047262D01*
X88114167Y-89999643D01*
X88161786Y-89904405D01*
X88161786Y-89809167D01*
X88114167Y-89713929D01*
X88066548Y-89666310D01*
X87971310Y-89618690D01*
X87780833Y-89571071D01*
X87685595Y-89523452D01*
X87637976Y-89475833D01*
X87590357Y-89380595D01*
X87590357Y-89285357D01*
X87637976Y-89190119D01*
X87685595Y-89142500D01*
X87780833Y-89094881D01*
X88018929Y-89094881D01*
X88161786Y-89142500D01*
X89114167Y-90094881D02*
X88542738Y-90094881D01*
X88828452Y-90094881D02*
X88828452Y-89094881D01*
X88733214Y-89237738D01*
X88637976Y-89332976D01*
X88542738Y-89380595D01*
X87304643Y-109989881D02*
X86828452Y-109989881D01*
X86828452Y-108989881D01*
X87590357Y-109942262D02*
X87733214Y-109989881D01*
X87971310Y-109989881D01*
X88066548Y-109942262D01*
X88114167Y-109894643D01*
X88161786Y-109799405D01*
X88161786Y-109704167D01*
X88114167Y-109608929D01*
X88066548Y-109561310D01*
X87971310Y-109513690D01*
X87780833Y-109466071D01*
X87685595Y-109418452D01*
X87637976Y-109370833D01*
X87590357Y-109275595D01*
X87590357Y-109180357D01*
X87637976Y-109085119D01*
X87685595Y-109037500D01*
X87780833Y-108989881D01*
X88018929Y-108989881D01*
X88161786Y-109037500D01*
X88542738Y-109085119D02*
X88590357Y-109037500D01*
X88685595Y-108989881D01*
X88923691Y-108989881D01*
X89018929Y-109037500D01*
X89066548Y-109085119D01*
X89114167Y-109180357D01*
X89114167Y-109275595D01*
X89066548Y-109418452D01*
X88495119Y-109989881D01*
X89114167Y-109989881D01*
X92055119Y-78517738D02*
X92007500Y-78612976D01*
X91912262Y-78708214D01*
X91769405Y-78851071D01*
X91721786Y-78946310D01*
X91721786Y-79041548D01*
X91959881Y-78993929D02*
X91912262Y-79089167D01*
X91817024Y-79184405D01*
X91626548Y-79232024D01*
X91293214Y-79232024D01*
X91102738Y-79184405D01*
X91007500Y-79089167D01*
X90959881Y-78993929D01*
X90959881Y-78803452D01*
X91007500Y-78708214D01*
X91102738Y-78612976D01*
X91293214Y-78565357D01*
X91626548Y-78565357D01*
X91817024Y-78612976D01*
X91912262Y-78708214D01*
X91959881Y-78803452D01*
X91959881Y-78993929D01*
X91959881Y-77612976D02*
X91959881Y-78184405D01*
X91959881Y-77898691D02*
X90959881Y-77898691D01*
X91102738Y-77993929D01*
X91197976Y-78089167D01*
X91245595Y-78184405D01*
X92055119Y-98202738D02*
X92007500Y-98297976D01*
X91912262Y-98393214D01*
X91769405Y-98536071D01*
X91721786Y-98631310D01*
X91721786Y-98726548D01*
X91959881Y-98678929D02*
X91912262Y-98774167D01*
X91817024Y-98869405D01*
X91626548Y-98917024D01*
X91293214Y-98917024D01*
X91102738Y-98869405D01*
X91007500Y-98774167D01*
X90959881Y-98678929D01*
X90959881Y-98488452D01*
X91007500Y-98393214D01*
X91102738Y-98297976D01*
X91293214Y-98250357D01*
X91626548Y-98250357D01*
X91817024Y-98297976D01*
X91912262Y-98393214D01*
X91959881Y-98488452D01*
X91959881Y-98678929D01*
X91055119Y-97869405D02*
X91007500Y-97821786D01*
X90959881Y-97726548D01*
X90959881Y-97488452D01*
X91007500Y-97393214D01*
X91055119Y-97345595D01*
X91150357Y-97297976D01*
X91245595Y-97297976D01*
X91388452Y-97345595D01*
X91959881Y-97917024D01*
X91959881Y-97297976D01*
X158623095Y-88502381D02*
X158623095Y-89311905D01*
X158670714Y-89407143D01*
X158718333Y-89454762D01*
X158813571Y-89502381D01*
X159004048Y-89502381D01*
X159099286Y-89454762D01*
X159146905Y-89407143D01*
X159194524Y-89311905D01*
X159194524Y-88502381D01*
X160194524Y-89502381D02*
X159623095Y-89502381D01*
X159908809Y-89502381D02*
X159908809Y-88502381D01*
X159813571Y-88645238D01*
X159718333Y-88740476D01*
X159623095Y-88788095D01*
X98512381Y-113156905D02*
X99321905Y-113156905D01*
X99417143Y-113109286D01*
X99464762Y-113061667D01*
X99512381Y-112966429D01*
X99512381Y-112775952D01*
X99464762Y-112680714D01*
X99417143Y-112633095D01*
X99321905Y-112585476D01*
X98512381Y-112585476D01*
X98607619Y-112156905D02*
X98560000Y-112109286D01*
X98512381Y-112014048D01*
X98512381Y-111775952D01*
X98560000Y-111680714D01*
X98607619Y-111633095D01*
X98702857Y-111585476D01*
X98798095Y-111585476D01*
X98940952Y-111633095D01*
X99512381Y-112204524D01*
X99512381Y-111585476D01*
X110998095Y-69302381D02*
X110998095Y-70111905D01*
X111045714Y-70207143D01*
X111093333Y-70254762D01*
X111188571Y-70302381D01*
X111379048Y-70302381D01*
X111474286Y-70254762D01*
X111521905Y-70207143D01*
X111569524Y-70111905D01*
X111569524Y-69302381D01*
X111950476Y-69302381D02*
X112569524Y-69302381D01*
X112236190Y-69683333D01*
X112379048Y-69683333D01*
X112474286Y-69730952D01*
X112521905Y-69778571D01*
X112569524Y-69873810D01*
X112569524Y-70111905D01*
X112521905Y-70207143D01*
X112474286Y-70254762D01*
X112379048Y-70302381D01*
X112093333Y-70302381D01*
X111998095Y-70254762D01*
X111950476Y-70207143D01*
X159766095Y-62317381D02*
X159766095Y-63126905D01*
X159813714Y-63222143D01*
X159861333Y-63269762D01*
X159956571Y-63317381D01*
X160147048Y-63317381D01*
X160242286Y-63269762D01*
X160289905Y-63222143D01*
X160337524Y-63126905D01*
X160337524Y-62317381D01*
X161242286Y-62650714D02*
X161242286Y-63317381D01*
X161004190Y-62269762D02*
X160766095Y-62984048D01*
X161385143Y-62984048D01*
X130683095Y-62317381D02*
X130683095Y-63126905D01*
X130730714Y-63222143D01*
X130778333Y-63269762D01*
X130873571Y-63317381D01*
X131064048Y-63317381D01*
X131159286Y-63269762D01*
X131206905Y-63222143D01*
X131254524Y-63126905D01*
X131254524Y-62317381D01*
X132206905Y-62317381D02*
X131730714Y-62317381D01*
X131683095Y-62793571D01*
X131730714Y-62745952D01*
X131825952Y-62698333D01*
X132064048Y-62698333D01*
X132159286Y-62745952D01*
X132206905Y-62793571D01*
X132254524Y-62888810D01*
X132254524Y-63126905D01*
X132206905Y-63222143D01*
X132159286Y-63269762D01*
X132064048Y-63317381D01*
X131825952Y-63317381D01*
X131730714Y-63269762D01*
X131683095Y-63222143D01*
X146311190Y-113606191D02*
X146787381Y-113606191D01*
X145787381Y-113939524D02*
X146311190Y-113606191D01*
X145787381Y-113272857D01*
X146787381Y-112415714D02*
X146787381Y-112987143D01*
X146787381Y-112701429D02*
X145787381Y-112701429D01*
X145930238Y-112796667D01*
X146025476Y-112891905D01*
X146073095Y-112987143D01*
X150963334Y-89987381D02*
X150630000Y-89511190D01*
X150391905Y-89987381D02*
X150391905Y-88987381D01*
X150772858Y-88987381D01*
X150868096Y-89035000D01*
X150915715Y-89082619D01*
X150963334Y-89177857D01*
X150963334Y-89320714D01*
X150915715Y-89415952D01*
X150868096Y-89463571D01*
X150772858Y-89511190D01*
X150391905Y-89511190D01*
X151915715Y-89987381D02*
X151344286Y-89987381D01*
X151630000Y-89987381D02*
X151630000Y-88987381D01*
X151534762Y-89130238D01*
X151439524Y-89225476D01*
X151344286Y-89273095D01*
X115403334Y-104162381D02*
X115070000Y-103686190D01*
X114831905Y-104162381D02*
X114831905Y-103162381D01*
X115212858Y-103162381D01*
X115308096Y-103210000D01*
X115355715Y-103257619D01*
X115403334Y-103352857D01*
X115403334Y-103495714D01*
X115355715Y-103590952D01*
X115308096Y-103638571D01*
X115212858Y-103686190D01*
X114831905Y-103686190D01*
X115784286Y-103257619D02*
X115831905Y-103210000D01*
X115927143Y-103162381D01*
X116165239Y-103162381D01*
X116260477Y-103210000D01*
X116308096Y-103257619D01*
X116355715Y-103352857D01*
X116355715Y-103448095D01*
X116308096Y-103590952D01*
X115736667Y-104162381D01*
X116355715Y-104162381D01*
X112863334Y-59507381D02*
X112530000Y-59031190D01*
X112291905Y-59507381D02*
X112291905Y-58507381D01*
X112672858Y-58507381D01*
X112768096Y-58555000D01*
X112815715Y-58602619D01*
X112863334Y-58697857D01*
X112863334Y-58840714D01*
X112815715Y-58935952D01*
X112768096Y-58983571D01*
X112672858Y-59031190D01*
X112291905Y-59031190D01*
X113196667Y-58507381D02*
X113815715Y-58507381D01*
X113482381Y-58888333D01*
X113625239Y-58888333D01*
X113720477Y-58935952D01*
X113768096Y-58983571D01*
X113815715Y-59078810D01*
X113815715Y-59316905D01*
X113768096Y-59412143D01*
X113720477Y-59459762D01*
X113625239Y-59507381D01*
X113339524Y-59507381D01*
X113244286Y-59459762D01*
X113196667Y-59412143D01*
X107783334Y-59507381D02*
X107450000Y-59031190D01*
X107211905Y-59507381D02*
X107211905Y-58507381D01*
X107592858Y-58507381D01*
X107688096Y-58555000D01*
X107735715Y-58602619D01*
X107783334Y-58697857D01*
X107783334Y-58840714D01*
X107735715Y-58935952D01*
X107688096Y-58983571D01*
X107592858Y-59031190D01*
X107211905Y-59031190D01*
X108640477Y-58840714D02*
X108640477Y-59507381D01*
X108402381Y-58459762D02*
X108164286Y-59174048D01*
X108783334Y-59174048D01*
X110323334Y-81097381D02*
X109990000Y-80621190D01*
X109751905Y-81097381D02*
X109751905Y-80097381D01*
X110132858Y-80097381D01*
X110228096Y-80145000D01*
X110275715Y-80192619D01*
X110323334Y-80287857D01*
X110323334Y-80430714D01*
X110275715Y-80525952D01*
X110228096Y-80573571D01*
X110132858Y-80621190D01*
X109751905Y-80621190D01*
X111228096Y-80097381D02*
X110751905Y-80097381D01*
X110704286Y-80573571D01*
X110751905Y-80525952D01*
X110847143Y-80478333D01*
X111085239Y-80478333D01*
X111180477Y-80525952D01*
X111228096Y-80573571D01*
X111275715Y-80668810D01*
X111275715Y-80906905D01*
X111228096Y-81002143D01*
X111180477Y-81049762D01*
X111085239Y-81097381D01*
X110847143Y-81097381D01*
X110751905Y-81049762D01*
X110704286Y-81002143D01*
X110323334Y-92322381D02*
X109990000Y-91846190D01*
X109751905Y-92322381D02*
X109751905Y-91322381D01*
X110132858Y-91322381D01*
X110228096Y-91370000D01*
X110275715Y-91417619D01*
X110323334Y-91512857D01*
X110323334Y-91655714D01*
X110275715Y-91750952D01*
X110228096Y-91798571D01*
X110132858Y-91846190D01*
X109751905Y-91846190D01*
X111180477Y-91322381D02*
X110990000Y-91322381D01*
X110894762Y-91370000D01*
X110847143Y-91417619D01*
X110751905Y-91560476D01*
X110704286Y-91750952D01*
X110704286Y-92131905D01*
X110751905Y-92227143D01*
X110799524Y-92274762D01*
X110894762Y-92322381D01*
X111085239Y-92322381D01*
X111180477Y-92274762D01*
X111228096Y-92227143D01*
X111275715Y-92131905D01*
X111275715Y-91893810D01*
X111228096Y-91798571D01*
X111180477Y-91750952D01*
X111085239Y-91703333D01*
X110894762Y-91703333D01*
X110799524Y-91750952D01*
X110751905Y-91798571D01*
X110704286Y-91893810D01*
X110323334Y-85112381D02*
X109990000Y-84636190D01*
X109751905Y-85112381D02*
X109751905Y-84112381D01*
X110132858Y-84112381D01*
X110228096Y-84160000D01*
X110275715Y-84207619D01*
X110323334Y-84302857D01*
X110323334Y-84445714D01*
X110275715Y-84540952D01*
X110228096Y-84588571D01*
X110132858Y-84636190D01*
X109751905Y-84636190D01*
X110656667Y-84112381D02*
X111323334Y-84112381D01*
X110894762Y-85112381D01*
X119627381Y-88431666D02*
X119151190Y-88765000D01*
X119627381Y-89003095D02*
X118627381Y-89003095D01*
X118627381Y-88622142D01*
X118675000Y-88526904D01*
X118722619Y-88479285D01*
X118817857Y-88431666D01*
X118960714Y-88431666D01*
X119055952Y-88479285D01*
X119103571Y-88526904D01*
X119151190Y-88622142D01*
X119151190Y-89003095D01*
X119055952Y-87860238D02*
X119008333Y-87955476D01*
X118960714Y-88003095D01*
X118865476Y-88050714D01*
X118817857Y-88050714D01*
X118722619Y-88003095D01*
X118675000Y-87955476D01*
X118627381Y-87860238D01*
X118627381Y-87669761D01*
X118675000Y-87574523D01*
X118722619Y-87526904D01*
X118817857Y-87479285D01*
X118865476Y-87479285D01*
X118960714Y-87526904D01*
X119008333Y-87574523D01*
X119055952Y-87669761D01*
X119055952Y-87860238D01*
X119103571Y-87955476D01*
X119151190Y-88003095D01*
X119246429Y-88050714D01*
X119436905Y-88050714D01*
X119532143Y-88003095D01*
X119579762Y-87955476D01*
X119627381Y-87860238D01*
X119627381Y-87669761D01*
X119579762Y-87574523D01*
X119532143Y-87526904D01*
X119436905Y-87479285D01*
X119246429Y-87479285D01*
X119151190Y-87526904D01*
X119103571Y-87574523D01*
X119055952Y-87669761D01*
X96019881Y-77795357D02*
X95543690Y-78128691D01*
X96019881Y-78366786D02*
X95019881Y-78366786D01*
X95019881Y-77985833D01*
X95067500Y-77890595D01*
X95115119Y-77842976D01*
X95210357Y-77795357D01*
X95353214Y-77795357D01*
X95448452Y-77842976D01*
X95496071Y-77890595D01*
X95543690Y-77985833D01*
X95543690Y-78366786D01*
X96019881Y-76842976D02*
X96019881Y-77414405D01*
X96019881Y-77128691D02*
X95019881Y-77128691D01*
X95162738Y-77223929D01*
X95257976Y-77319167D01*
X95305595Y-77414405D01*
X95019881Y-76223929D02*
X95019881Y-76128690D01*
X95067500Y-76033452D01*
X95115119Y-75985833D01*
X95210357Y-75938214D01*
X95400833Y-75890595D01*
X95638929Y-75890595D01*
X95829405Y-75938214D01*
X95924643Y-75985833D01*
X95972262Y-76033452D01*
X96019881Y-76128690D01*
X96019881Y-76223929D01*
X95972262Y-76319167D01*
X95924643Y-76366786D01*
X95829405Y-76414405D01*
X95638929Y-76462024D01*
X95400833Y-76462024D01*
X95210357Y-76414405D01*
X95115119Y-76366786D01*
X95067500Y-76319167D01*
X95019881Y-76223929D01*
X96019881Y-97480357D02*
X95543690Y-97813691D01*
X96019881Y-98051786D02*
X95019881Y-98051786D01*
X95019881Y-97670833D01*
X95067500Y-97575595D01*
X95115119Y-97527976D01*
X95210357Y-97480357D01*
X95353214Y-97480357D01*
X95448452Y-97527976D01*
X95496071Y-97575595D01*
X95543690Y-97670833D01*
X95543690Y-98051786D01*
X96019881Y-96527976D02*
X96019881Y-97099405D01*
X96019881Y-96813691D02*
X95019881Y-96813691D01*
X95162738Y-96908929D01*
X95257976Y-97004167D01*
X95305595Y-97099405D01*
X95115119Y-96147024D02*
X95067500Y-96099405D01*
X95019881Y-96004167D01*
X95019881Y-95766071D01*
X95067500Y-95670833D01*
X95115119Y-95623214D01*
X95210357Y-95575595D01*
X95305595Y-95575595D01*
X95448452Y-95623214D01*
X96019881Y-96194643D01*
X96019881Y-95575595D01*
X147145477Y-91102381D02*
X147145477Y-91816667D01*
X147097857Y-91959524D01*
X147002619Y-92054762D01*
X146859762Y-92102381D01*
X146764524Y-92102381D01*
X148145477Y-92102381D02*
X147574048Y-92102381D01*
X147859762Y-92102381D02*
X147859762Y-91102381D01*
X147764524Y-91245238D01*
X147669286Y-91340476D01*
X147574048Y-91388095D01*
X149002620Y-91435714D02*
X149002620Y-92102381D01*
X148764524Y-91054762D02*
X148526429Y-91769048D01*
X149145477Y-91769048D01*
X166195477Y-93642381D02*
X166195477Y-94356667D01*
X166147857Y-94499524D01*
X166052619Y-94594762D01*
X165909762Y-94642381D01*
X165814524Y-94642381D01*
X167195477Y-94642381D02*
X166624048Y-94642381D01*
X166909762Y-94642381D02*
X166909762Y-93642381D01*
X166814524Y-93785238D01*
X166719286Y-93880476D01*
X166624048Y-93928095D01*
X168100239Y-93642381D02*
X167624048Y-93642381D01*
X167576429Y-94118571D01*
X167624048Y-94070952D01*
X167719286Y-94023333D01*
X167957382Y-94023333D01*
X168052620Y-94070952D01*
X168100239Y-94118571D01*
X168147858Y-94213810D01*
X168147858Y-94451905D01*
X168100239Y-94547143D01*
X168052620Y-94594762D01*
X167957382Y-94642381D01*
X167719286Y-94642381D01*
X167624048Y-94594762D01*
X167576429Y-94547143D01*
X166847143Y-115054285D02*
X166894762Y-115101904D01*
X166942381Y-115244761D01*
X166942381Y-115339999D01*
X166894762Y-115482857D01*
X166799524Y-115578095D01*
X166704286Y-115625714D01*
X166513810Y-115673333D01*
X166370952Y-115673333D01*
X166180476Y-115625714D01*
X166085238Y-115578095D01*
X165990000Y-115482857D01*
X165942381Y-115339999D01*
X165942381Y-115244761D01*
X165990000Y-115101904D01*
X166037619Y-115054285D01*
X165942381Y-114435238D02*
X165942381Y-114244761D01*
X165990000Y-114149523D01*
X166085238Y-114054285D01*
X166275714Y-114006666D01*
X166609048Y-114006666D01*
X166799524Y-114054285D01*
X166894762Y-114149523D01*
X166942381Y-114244761D01*
X166942381Y-114435238D01*
X166894762Y-114530476D01*
X166799524Y-114625714D01*
X166609048Y-114673333D01*
X166275714Y-114673333D01*
X166085238Y-114625714D01*
X165990000Y-114530476D01*
X165942381Y-114435238D01*
X166942381Y-113578095D02*
X165942381Y-113578095D01*
X166942381Y-113006666D01*
X165942381Y-113006666D01*
X166942381Y-112006666D02*
X166942381Y-112578095D01*
X166942381Y-112292381D02*
X165942381Y-112292381D01*
X166085238Y-112387619D01*
X166180476Y-112482857D01*
X166228095Y-112578095D01*
D11*
X176162381Y-116534285D02*
X176162381Y-117105714D01*
X176162381Y-116820000D02*
X175162381Y-116820000D01*
X175305238Y-116915238D01*
X175400476Y-117010476D01*
X175448095Y-117105714D01*
D12*
X96107381Y-84621666D02*
X95631190Y-84955000D01*
X96107381Y-85193095D02*
X95107381Y-85193095D01*
X95107381Y-84812142D01*
X95155000Y-84716904D01*
X95202619Y-84669285D01*
X95297857Y-84621666D01*
X95440714Y-84621666D01*
X95535952Y-84669285D01*
X95583571Y-84716904D01*
X95631190Y-84812142D01*
X95631190Y-85193095D01*
X96107381Y-84145476D02*
X96107381Y-83955000D01*
X96059762Y-83859761D01*
X96012143Y-83812142D01*
X95869286Y-83716904D01*
X95678810Y-83669285D01*
X95297857Y-83669285D01*
X95202619Y-83716904D01*
X95155000Y-83764523D01*
X95107381Y-83859761D01*
X95107381Y-84050238D01*
X95155000Y-84145476D01*
X95202619Y-84193095D01*
X95297857Y-84240714D01*
X95535952Y-84240714D01*
X95631190Y-84193095D01*
X95678810Y-84145476D01*
X95726429Y-84050238D01*
X95726429Y-83859761D01*
X95678810Y-83764523D01*
X95631190Y-83716904D01*
X95535952Y-83669285D01*
X96107381Y-105417857D02*
X95631190Y-105751191D01*
X96107381Y-105989286D02*
X95107381Y-105989286D01*
X95107381Y-105608333D01*
X95155000Y-105513095D01*
X95202619Y-105465476D01*
X95297857Y-105417857D01*
X95440714Y-105417857D01*
X95535952Y-105465476D01*
X95583571Y-105513095D01*
X95631190Y-105608333D01*
X95631190Y-105989286D01*
X96107381Y-104465476D02*
X96107381Y-105036905D01*
X96107381Y-104751191D02*
X95107381Y-104751191D01*
X95250238Y-104846429D01*
X95345476Y-104941667D01*
X95393095Y-105036905D01*
X96107381Y-103513095D02*
X96107381Y-104084524D01*
X96107381Y-103798810D02*
X95107381Y-103798810D01*
X95250238Y-103894048D01*
X95345476Y-103989286D01*
X95393095Y-104084524D01*
M02*
