G04 #@! TF.FileFunction,Legend,Bot*
%FSLAX46Y46*%
G04 Gerber Fmt 4.6, Leading zero omitted, Abs format (unit mm)*
G04 Created by KiCad (PCBNEW 4.0.7) date Fri Feb  9 22:12:21 2018*
%MOMM*%
%LPD*%
G01*
G04 APERTURE LIST*
%ADD10C,0.100000*%
%ADD11C,0.300000*%
G04 APERTURE END LIST*
D10*
D11*
X187180714Y-151173571D02*
X187895000Y-151173571D01*
X187895000Y-149673571D01*
X186037857Y-151173571D02*
X186037857Y-150387857D01*
X186109286Y-150245000D01*
X186252143Y-150173571D01*
X186537857Y-150173571D01*
X186680714Y-150245000D01*
X186037857Y-151102143D02*
X186180714Y-151173571D01*
X186537857Y-151173571D01*
X186680714Y-151102143D01*
X186752143Y-150959286D01*
X186752143Y-150816429D01*
X186680714Y-150673571D01*
X186537857Y-150602143D01*
X186180714Y-150602143D01*
X186037857Y-150530714D01*
X185466428Y-150173571D02*
X185109285Y-151173571D01*
X184752143Y-150173571D02*
X185109285Y-151173571D01*
X185252143Y-151530714D01*
X185323571Y-151602143D01*
X185466428Y-151673571D01*
X183966428Y-151173571D02*
X184109286Y-151102143D01*
X184180714Y-151030714D01*
X184252143Y-150887857D01*
X184252143Y-150459286D01*
X184180714Y-150316429D01*
X184109286Y-150245000D01*
X183966428Y-150173571D01*
X183752143Y-150173571D01*
X183609286Y-150245000D01*
X183537857Y-150316429D01*
X183466428Y-150459286D01*
X183466428Y-150887857D01*
X183537857Y-151030714D01*
X183609286Y-151102143D01*
X183752143Y-151173571D01*
X183966428Y-151173571D01*
X182180714Y-150173571D02*
X182180714Y-151173571D01*
X182823571Y-150173571D02*
X182823571Y-150959286D01*
X182752143Y-151102143D01*
X182609285Y-151173571D01*
X182395000Y-151173571D01*
X182252143Y-151102143D01*
X182180714Y-151030714D01*
X181680714Y-150173571D02*
X181109285Y-150173571D01*
X181466428Y-149673571D02*
X181466428Y-150959286D01*
X181395000Y-151102143D01*
X181252142Y-151173571D01*
X181109285Y-151173571D01*
X180609285Y-151030714D02*
X180537857Y-151102143D01*
X180609285Y-151173571D01*
X180680714Y-151102143D01*
X180609285Y-151030714D01*
X180609285Y-151173571D01*
X180609285Y-150245000D02*
X180537857Y-150316429D01*
X180609285Y-150387857D01*
X180680714Y-150316429D01*
X180609285Y-150245000D01*
X180609285Y-150387857D01*
X178823571Y-151102143D02*
X178609285Y-151173571D01*
X178252142Y-151173571D01*
X178109285Y-151102143D01*
X178037856Y-151030714D01*
X177966428Y-150887857D01*
X177966428Y-150745000D01*
X178037856Y-150602143D01*
X178109285Y-150530714D01*
X178252142Y-150459286D01*
X178537856Y-150387857D01*
X178680714Y-150316429D01*
X178752142Y-150245000D01*
X178823571Y-150102143D01*
X178823571Y-149959286D01*
X178752142Y-149816429D01*
X178680714Y-149745000D01*
X178537856Y-149673571D01*
X178180714Y-149673571D01*
X177966428Y-149745000D01*
X177323571Y-150173571D02*
X177323571Y-151673571D01*
X177323571Y-150245000D02*
X177180714Y-150173571D01*
X176895000Y-150173571D01*
X176752143Y-150245000D01*
X176680714Y-150316429D01*
X176609285Y-150459286D01*
X176609285Y-150887857D01*
X176680714Y-151030714D01*
X176752143Y-151102143D01*
X176895000Y-151173571D01*
X177180714Y-151173571D01*
X177323571Y-151102143D01*
X175395000Y-151102143D02*
X175537857Y-151173571D01*
X175823571Y-151173571D01*
X175966428Y-151102143D01*
X176037857Y-150959286D01*
X176037857Y-150387857D01*
X175966428Y-150245000D01*
X175823571Y-150173571D01*
X175537857Y-150173571D01*
X175395000Y-150245000D01*
X175323571Y-150387857D01*
X175323571Y-150530714D01*
X176037857Y-150673571D01*
X174680714Y-150173571D02*
X174680714Y-151173571D01*
X174680714Y-150316429D02*
X174609286Y-150245000D01*
X174466428Y-150173571D01*
X174252143Y-150173571D01*
X174109286Y-150245000D01*
X174037857Y-150387857D01*
X174037857Y-151173571D01*
X172680714Y-151102143D02*
X172823571Y-151173571D01*
X173109285Y-151173571D01*
X173252143Y-151102143D01*
X173323571Y-151030714D01*
X173395000Y-150887857D01*
X173395000Y-150459286D01*
X173323571Y-150316429D01*
X173252143Y-150245000D01*
X173109285Y-150173571D01*
X172823571Y-150173571D01*
X172680714Y-150245000D01*
X171466429Y-151102143D02*
X171609286Y-151173571D01*
X171895000Y-151173571D01*
X172037857Y-151102143D01*
X172109286Y-150959286D01*
X172109286Y-150387857D01*
X172037857Y-150245000D01*
X171895000Y-150173571D01*
X171609286Y-150173571D01*
X171466429Y-150245000D01*
X171395000Y-150387857D01*
X171395000Y-150530714D01*
X172109286Y-150673571D01*
X170752143Y-151173571D02*
X170752143Y-150173571D01*
X170752143Y-150459286D02*
X170680715Y-150316429D01*
X170609286Y-150245000D01*
X170466429Y-150173571D01*
X170323572Y-150173571D01*
X168680715Y-151173571D02*
X168680715Y-149673571D01*
X168180715Y-150745000D01*
X167680715Y-149673571D01*
X167680715Y-151173571D01*
X166752143Y-151173571D02*
X166895001Y-151102143D01*
X166966429Y-151030714D01*
X167037858Y-150887857D01*
X167037858Y-150459286D01*
X166966429Y-150316429D01*
X166895001Y-150245000D01*
X166752143Y-150173571D01*
X166537858Y-150173571D01*
X166395001Y-150245000D01*
X166323572Y-150316429D01*
X166252143Y-150459286D01*
X166252143Y-150887857D01*
X166323572Y-151030714D01*
X166395001Y-151102143D01*
X166537858Y-151173571D01*
X166752143Y-151173571D01*
X165680715Y-151102143D02*
X165537858Y-151173571D01*
X165252143Y-151173571D01*
X165109286Y-151102143D01*
X165037858Y-150959286D01*
X165037858Y-150887857D01*
X165109286Y-150745000D01*
X165252143Y-150673571D01*
X165466429Y-150673571D01*
X165609286Y-150602143D01*
X165680715Y-150459286D01*
X165680715Y-150387857D01*
X165609286Y-150245000D01*
X165466429Y-150173571D01*
X165252143Y-150173571D01*
X165109286Y-150245000D01*
X164466429Y-151102143D02*
X164323572Y-151173571D01*
X164037857Y-151173571D01*
X163895000Y-151102143D01*
X163823572Y-150959286D01*
X163823572Y-150887857D01*
X163895000Y-150745000D01*
X164037857Y-150673571D01*
X164252143Y-150673571D01*
X164395000Y-150602143D01*
X164466429Y-150459286D01*
X164466429Y-150387857D01*
X164395000Y-150245000D01*
X164252143Y-150173571D01*
X164037857Y-150173571D01*
X163895000Y-150245000D01*
M02*
