M48
;DRILL file {KiCad 4.0.7} date Fri Feb  9 05:02:30 2018
;FORMAT={-:-/ absolute / inch / decimal}
FMAT,2
INCH,TZ
T1C0.016
T2C0.024
T3C0.031
T4C0.039
T5C0.040
T6C0.047
T7C0.052
T8C0.059
%
G90
G05
M72
T1
X3.65Y-3.55
X3.75Y-3.65
X3.8Y-3.35
X4.025Y-2.4
X4.35Y-2.675
X4.4Y-3.775
X4.475Y-3.55
X4.5Y-3.775
X4.5Y-4.375
X4.525Y-2.825
X4.65Y-4.7
X4.675Y-2.575
X4.675Y-3.35
X4.85Y-2.4
X4.925Y-3.
X5.025Y-2.55
X5.1Y-4.475
X5.2Y-2.7
X5.7Y-3.35
X5.7Y-3.85
X5.75Y-4.45
X5.875Y-2.9
X6.1Y-2.575
X6.225Y-4.3
X6.225Y-4.375
X6.25Y-3.95
X6.275Y-3.075
X6.275Y-3.45
X6.325Y-4.2
X6.345Y-2.7
X6.5Y-2.75
X6.55Y-4.1
X6.55Y-4.4
X6.55Y-4.5
X6.8Y-4.1
X7.05Y-4.15
X7.075Y-4.575
X7.075Y-4.925
X7.325Y-4.775
X7.325Y-4.875
T2
X3.4625Y-3.0375
X3.4625Y-3.1375
X3.4625Y-3.8125
X3.4625Y-3.9125
X3.5125Y-3.0875
X3.5125Y-3.8625
T3
X3.675Y-3.225
X3.675Y-3.425
X3.675Y-4.025
X3.675Y-4.225
X4.Y-4.275
X4.Y-4.575
X4.1Y-4.275
X4.1Y-4.575
X4.2Y-4.275
X4.2Y-4.575
X4.3Y-4.275
X4.3Y-4.575
X4.4Y-4.275
X4.4Y-4.575
X4.5Y-4.275
X4.5Y-4.575
X4.6Y-4.275
X4.6Y-4.575
X4.7Y-4.275
X4.7Y-4.575
X4.8Y-4.275
X4.8Y-4.575
X4.9Y-4.275
X4.9Y-4.575
X5.Y-4.275
X5.Y-4.575
X5.1Y-4.275
X5.1Y-4.575
X5.9Y-4.3579
X5.9Y-4.55
X6.125Y-3.6
X6.125Y-3.7
X6.125Y-3.8
X6.125Y-3.9
X6.125Y-4.
X6.125Y-4.1
X6.125Y-4.2
X6.125Y-4.3
X6.125Y-4.4
X6.125Y-4.5
X6.125Y-4.6
X6.125Y-4.7
X6.125Y-4.8
X6.125Y-4.9
X6.425Y-3.6
X6.425Y-3.7
X6.425Y-3.8
X6.425Y-3.9
X6.425Y-4.
X6.425Y-4.1
X6.425Y-4.2
X6.425Y-4.3
X6.425Y-4.4
X6.425Y-4.5
X6.425Y-4.6
X6.425Y-4.7
X6.425Y-4.8
X6.425Y-4.9
T4
X3.4625Y-3.3375
X3.4625Y-3.4375
X3.4625Y-4.1125
X3.4625Y-4.2125
X4.2Y-3.9
X4.2Y-4.85
X4.2836Y-2.0586
X4.3Y-3.9
X4.3Y-4.85
X4.4Y-3.9
X4.4Y-4.85
X4.425Y-1.9172
X4.425Y-2.2
X4.5Y-3.9
X4.5Y-4.85
X4.5664Y-2.0586
X4.6Y-3.9
X4.6Y-4.85
X4.7Y-2.25
X4.7Y-3.9
X4.7Y-4.85
X4.8Y-2.25
X4.8Y-3.475
X4.8Y-3.9
X4.8Y-4.85
X4.9Y-3.475
X4.9Y-3.9
X4.9Y-4.85
X5.075Y-2.95
X5.175Y-2.95
X5.275Y-2.95
X5.6Y-3.025
X5.6Y-3.225
X5.7Y-3.025
X5.7Y-3.225
X5.8Y-3.025
X5.8Y-3.225
X5.825Y-3.7
X5.825Y-3.8
X5.9Y-3.025
X5.9Y-3.225
X6.22Y-2.95
X6.32Y-2.95
X6.42Y-2.95
X6.575Y-3.8
X7.2Y-2.75
X7.2Y-2.85
X7.2Y-2.95
X7.2Y-3.05
X7.2Y-4.1
X7.2Y-4.2
X7.2Y-4.3
X7.2Y-4.4
X7.2Y-4.5
X7.2Y-4.6
X7.2Y-4.7
X7.2Y-4.8
X7.2Y-4.9
T5
X6.75Y-4.4
X6.75Y-4.5
X6.75Y-4.6
X6.85Y-4.4
X6.85Y-4.5
X6.85Y-4.6
T6
X3.5797Y-1.65
X3.5797Y-2.45
X3.875Y-1.65
X3.875Y-2.45
T7
X4.225Y-1.525
X4.4219Y-1.525
X4.6187Y-1.525
X5.1Y-1.525
X5.2969Y-1.525
X5.4937Y-1.525
X6.25Y-1.525
X6.4469Y-1.525
X6.6437Y-1.525
T8
X5.9Y-1.4
X5.9Y-2.2661
X7.05Y-1.4
X7.05Y-2.2661
T0
M30
