G04 #@! TF.FileFunction,Legend,Top*
%FSLAX46Y46*%
G04 Gerber Fmt 4.6, Leading zero omitted, Abs format (unit mm)*
G04 Created by KiCad (PCBNEW 4.0.7) date Fri Feb  9 22:12:21 2018*
%MOMM*%
%LPD*%
G01*
G04 APERTURE LIST*
%ADD10C,0.100000*%
%ADD11C,0.300000*%
%ADD12C,0.120000*%
%ADD13C,0.150000*%
G04 APERTURE END LIST*
D10*
D11*
X219031429Y-108696429D02*
X219745714Y-108196429D01*
X219031429Y-107839286D02*
X220531429Y-107839286D01*
X220531429Y-108410714D01*
X220460000Y-108553572D01*
X220388571Y-108625000D01*
X220245714Y-108696429D01*
X220031429Y-108696429D01*
X219888571Y-108625000D01*
X219817143Y-108553572D01*
X219745714Y-108410714D01*
X219745714Y-107839286D01*
X219102857Y-109910714D02*
X219031429Y-109767857D01*
X219031429Y-109482143D01*
X219102857Y-109339286D01*
X219245714Y-109267857D01*
X219817143Y-109267857D01*
X219960000Y-109339286D01*
X220031429Y-109482143D01*
X220031429Y-109767857D01*
X219960000Y-109910714D01*
X219817143Y-109982143D01*
X219674286Y-109982143D01*
X219531429Y-109267857D01*
X219031429Y-110839286D02*
X219102857Y-110696428D01*
X219245714Y-110625000D01*
X220531429Y-110625000D01*
X219031429Y-112053571D02*
X219817143Y-112053571D01*
X219960000Y-111982142D01*
X220031429Y-111839285D01*
X220031429Y-111553571D01*
X219960000Y-111410714D01*
X219102857Y-112053571D02*
X219031429Y-111910714D01*
X219031429Y-111553571D01*
X219102857Y-111410714D01*
X219245714Y-111339285D01*
X219388571Y-111339285D01*
X219531429Y-111410714D01*
X219602857Y-111553571D01*
X219602857Y-111910714D01*
X219674286Y-112053571D01*
X220031429Y-112625000D02*
X219031429Y-112982143D01*
X220031429Y-113339285D02*
X219031429Y-112982143D01*
X218674286Y-112839285D01*
X218602857Y-112767857D01*
X218531429Y-112625000D01*
X219102857Y-113839285D02*
X219031429Y-113982142D01*
X219031429Y-114267857D01*
X219102857Y-114410714D01*
X219245714Y-114482142D01*
X219317143Y-114482142D01*
X219460000Y-114410714D01*
X219531429Y-114267857D01*
X219531429Y-114053571D01*
X219602857Y-113910714D01*
X219745714Y-113839285D01*
X219817143Y-113839285D01*
X219960000Y-113910714D01*
X220031429Y-114053571D01*
X220031429Y-114267857D01*
X219960000Y-114410714D01*
X212181429Y-140227857D02*
X212395715Y-140299286D01*
X212467143Y-140370714D01*
X212538572Y-140513571D01*
X212538572Y-140727857D01*
X212467143Y-140870714D01*
X212395715Y-140942143D01*
X212252857Y-141013571D01*
X211681429Y-141013571D01*
X211681429Y-139513571D01*
X212181429Y-139513571D01*
X212324286Y-139585000D01*
X212395715Y-139656429D01*
X212467143Y-139799286D01*
X212467143Y-139942143D01*
X212395715Y-140085000D01*
X212324286Y-140156429D01*
X212181429Y-140227857D01*
X211681429Y-140227857D01*
X213895715Y-141013571D02*
X213181429Y-141013571D01*
X213181429Y-139513571D01*
X214395715Y-140227857D02*
X214895715Y-140227857D01*
X215110001Y-141013571D02*
X214395715Y-141013571D01*
X214395715Y-139513571D01*
X215110001Y-139513571D01*
X197513000Y-114550000D02*
X198227286Y-114550000D01*
X197370143Y-114978571D02*
X197870143Y-113478571D01*
X198370143Y-114978571D01*
X198655857Y-113478571D02*
X199155857Y-114978571D01*
X199655857Y-113478571D01*
X201013000Y-114978571D02*
X200513000Y-114264286D01*
X200155857Y-114978571D02*
X200155857Y-113478571D01*
X200727285Y-113478571D01*
X200870143Y-113550000D01*
X200941571Y-113621429D01*
X201013000Y-113764286D01*
X201013000Y-113978571D01*
X200941571Y-114121429D01*
X200870143Y-114192857D01*
X200727285Y-114264286D01*
X200155857Y-114264286D01*
X142605716Y-139743571D02*
X142605716Y-138243571D01*
X143105716Y-139315000D01*
X143605716Y-138243571D01*
X143605716Y-139743571D01*
X144248573Y-139315000D02*
X144962859Y-139315000D01*
X144105716Y-139743571D02*
X144605716Y-138243571D01*
X145105716Y-139743571D01*
X145462859Y-138243571D02*
X146462859Y-139743571D01*
X146462859Y-138243571D02*
X145462859Y-139743571D01*
X146891430Y-138243571D02*
X147891430Y-138243571D01*
X147248573Y-139743571D01*
X148391429Y-138386429D02*
X148462858Y-138315000D01*
X148605715Y-138243571D01*
X148962858Y-138243571D01*
X149105715Y-138315000D01*
X149177144Y-138386429D01*
X149248572Y-138529286D01*
X149248572Y-138672143D01*
X149177144Y-138886429D01*
X148320001Y-139743571D01*
X149248572Y-139743571D01*
X149820000Y-138386429D02*
X149891429Y-138315000D01*
X150034286Y-138243571D01*
X150391429Y-138243571D01*
X150534286Y-138315000D01*
X150605715Y-138386429D01*
X150677143Y-138529286D01*
X150677143Y-138672143D01*
X150605715Y-138886429D01*
X149748572Y-139743571D01*
X150677143Y-139743571D01*
X152105714Y-139743571D02*
X151248571Y-139743571D01*
X151677143Y-139743571D02*
X151677143Y-138243571D01*
X151534286Y-138457857D01*
X151391428Y-138600714D01*
X151248571Y-138672143D01*
X175328573Y-107207857D02*
X175828573Y-107207857D01*
X176042859Y-107993571D02*
X175328573Y-107993571D01*
X175328573Y-106493571D01*
X176042859Y-106493571D01*
X177542859Y-107850714D02*
X177471430Y-107922143D01*
X177257144Y-107993571D01*
X177114287Y-107993571D01*
X176900002Y-107922143D01*
X176757144Y-107779286D01*
X176685716Y-107636429D01*
X176614287Y-107350714D01*
X176614287Y-107136429D01*
X176685716Y-106850714D01*
X176757144Y-106707857D01*
X176900002Y-106565000D01*
X177114287Y-106493571D01*
X177257144Y-106493571D01*
X177471430Y-106565000D01*
X177542859Y-106636429D01*
X178185716Y-107207857D02*
X178685716Y-107207857D01*
X178900002Y-107993571D02*
X178185716Y-107993571D01*
X178185716Y-106493571D01*
X178900002Y-106493571D01*
X180542859Y-106493571D02*
X181471430Y-106493571D01*
X180971430Y-107065000D01*
X181185716Y-107065000D01*
X181328573Y-107136429D01*
X181400002Y-107207857D01*
X181471430Y-107350714D01*
X181471430Y-107707857D01*
X181400002Y-107850714D01*
X181328573Y-107922143D01*
X181185716Y-107993571D01*
X180757144Y-107993571D01*
X180614287Y-107922143D01*
X180542859Y-107850714D01*
X182757144Y-106993571D02*
X182757144Y-107993571D01*
X182400001Y-106422143D02*
X182042858Y-107493571D01*
X182971430Y-107493571D01*
X183471429Y-106636429D02*
X183542858Y-106565000D01*
X183685715Y-106493571D01*
X184042858Y-106493571D01*
X184185715Y-106565000D01*
X184257144Y-106636429D01*
X184328572Y-106779286D01*
X184328572Y-106922143D01*
X184257144Y-107136429D01*
X183400001Y-107993571D01*
X184328572Y-107993571D01*
X186114286Y-107422143D02*
X187257143Y-107422143D01*
X188971429Y-106493571D02*
X189328572Y-107993571D01*
X189614286Y-106922143D01*
X189900000Y-107993571D01*
X190257143Y-106493571D01*
X191614286Y-107993571D02*
X190757143Y-107993571D01*
X191185715Y-107993571D02*
X191185715Y-106493571D01*
X191042858Y-106707857D01*
X190900000Y-106850714D01*
X190757143Y-106922143D01*
X192471429Y-107136429D02*
X192328571Y-107065000D01*
X192257143Y-106993571D01*
X192185714Y-106850714D01*
X192185714Y-106779286D01*
X192257143Y-106636429D01*
X192328571Y-106565000D01*
X192471429Y-106493571D01*
X192757143Y-106493571D01*
X192900000Y-106565000D01*
X192971429Y-106636429D01*
X193042857Y-106779286D01*
X193042857Y-106850714D01*
X192971429Y-106993571D01*
X192900000Y-107065000D01*
X192757143Y-107136429D01*
X192471429Y-107136429D01*
X192328571Y-107207857D01*
X192257143Y-107279286D01*
X192185714Y-107422143D01*
X192185714Y-107707857D01*
X192257143Y-107850714D01*
X192328571Y-107922143D01*
X192471429Y-107993571D01*
X192757143Y-107993571D01*
X192900000Y-107922143D01*
X192971429Y-107850714D01*
X193042857Y-107707857D01*
X193042857Y-107422143D01*
X192971429Y-107279286D01*
X192900000Y-107207857D01*
X192757143Y-107136429D01*
X162107858Y-119828571D02*
X161393572Y-119828571D01*
X161322143Y-120542857D01*
X161393572Y-120471429D01*
X161536429Y-120400000D01*
X161893572Y-120400000D01*
X162036429Y-120471429D01*
X162107858Y-120542857D01*
X162179286Y-120685714D01*
X162179286Y-121042857D01*
X162107858Y-121185714D01*
X162036429Y-121257143D01*
X161893572Y-121328571D01*
X161536429Y-121328571D01*
X161393572Y-121257143D01*
X161322143Y-121185714D01*
X162607857Y-119828571D02*
X163107857Y-121328571D01*
X163607857Y-119828571D01*
X165250714Y-121328571D02*
X165250714Y-119828571D01*
X165607857Y-119828571D01*
X165822142Y-119900000D01*
X165965000Y-120042857D01*
X166036428Y-120185714D01*
X166107857Y-120471429D01*
X166107857Y-120685714D01*
X166036428Y-120971429D01*
X165965000Y-121114286D01*
X165822142Y-121257143D01*
X165607857Y-121328571D01*
X165250714Y-121328571D01*
X167607857Y-121185714D02*
X167536428Y-121257143D01*
X167322142Y-121328571D01*
X167179285Y-121328571D01*
X166965000Y-121257143D01*
X166822142Y-121114286D01*
X166750714Y-120971429D01*
X166679285Y-120685714D01*
X166679285Y-120471429D01*
X166750714Y-120185714D01*
X166822142Y-120042857D01*
X166965000Y-119900000D01*
X167179285Y-119828571D01*
X167322142Y-119828571D01*
X167536428Y-119900000D01*
X167607857Y-119971429D01*
X138397143Y-105377857D02*
X138468571Y-105163571D01*
X138468571Y-104806428D01*
X138397143Y-104663571D01*
X138325714Y-104592142D01*
X138182857Y-104520714D01*
X138040000Y-104520714D01*
X137897143Y-104592142D01*
X137825714Y-104663571D01*
X137754286Y-104806428D01*
X137682857Y-105092142D01*
X137611429Y-105235000D01*
X137540000Y-105306428D01*
X137397143Y-105377857D01*
X137254286Y-105377857D01*
X137111429Y-105306428D01*
X137040000Y-105235000D01*
X136968571Y-105092142D01*
X136968571Y-104735000D01*
X137040000Y-104520714D01*
X138468571Y-103663571D02*
X138397143Y-103806429D01*
X138325714Y-103877857D01*
X138182857Y-103949286D01*
X137754286Y-103949286D01*
X137611429Y-103877857D01*
X137540000Y-103806429D01*
X137468571Y-103663571D01*
X137468571Y-103449286D01*
X137540000Y-103306429D01*
X137611429Y-103235000D01*
X137754286Y-103163571D01*
X138182857Y-103163571D01*
X138325714Y-103235000D01*
X138397143Y-103306429D01*
X138468571Y-103449286D01*
X138468571Y-103663571D01*
X137468571Y-101877857D02*
X138468571Y-101877857D01*
X137468571Y-102520714D02*
X138254286Y-102520714D01*
X138397143Y-102449286D01*
X138468571Y-102306428D01*
X138468571Y-102092143D01*
X138397143Y-101949286D01*
X138325714Y-101877857D01*
X137468571Y-101163571D02*
X138468571Y-101163571D01*
X137611429Y-101163571D02*
X137540000Y-101092143D01*
X137468571Y-100949285D01*
X137468571Y-100735000D01*
X137540000Y-100592143D01*
X137682857Y-100520714D01*
X138468571Y-100520714D01*
X138468571Y-99163571D02*
X136968571Y-99163571D01*
X138397143Y-99163571D02*
X138468571Y-99306428D01*
X138468571Y-99592142D01*
X138397143Y-99735000D01*
X138325714Y-99806428D01*
X138182857Y-99877857D01*
X137754286Y-99877857D01*
X137611429Y-99806428D01*
X137540000Y-99735000D01*
X137468571Y-99592142D01*
X137468571Y-99306428D01*
X137540000Y-99163571D01*
X140947143Y-105913571D02*
X141018571Y-105699285D01*
X141018571Y-105342142D01*
X140947143Y-105199285D01*
X140875714Y-105127856D01*
X140732857Y-105056428D01*
X140590000Y-105056428D01*
X140447143Y-105127856D01*
X140375714Y-105199285D01*
X140304286Y-105342142D01*
X140232857Y-105627856D01*
X140161429Y-105770714D01*
X140090000Y-105842142D01*
X139947143Y-105913571D01*
X139804286Y-105913571D01*
X139661429Y-105842142D01*
X139590000Y-105770714D01*
X139518571Y-105627856D01*
X139518571Y-105270714D01*
X139590000Y-105056428D01*
X140018571Y-104556428D02*
X141018571Y-104199285D01*
X140018571Y-103842143D02*
X141018571Y-104199285D01*
X141375714Y-104342143D01*
X141447143Y-104413571D01*
X141518571Y-104556428D01*
X140947143Y-103342143D02*
X141018571Y-103199286D01*
X141018571Y-102913571D01*
X140947143Y-102770714D01*
X140804286Y-102699286D01*
X140732857Y-102699286D01*
X140590000Y-102770714D01*
X140518571Y-102913571D01*
X140518571Y-103127857D01*
X140447143Y-103270714D01*
X140304286Y-103342143D01*
X140232857Y-103342143D01*
X140090000Y-103270714D01*
X140018571Y-103127857D01*
X140018571Y-102913571D01*
X140090000Y-102770714D01*
X140018571Y-102270714D02*
X140018571Y-101699285D01*
X139518571Y-102056428D02*
X140804286Y-102056428D01*
X140947143Y-101985000D01*
X141018571Y-101842142D01*
X141018571Y-101699285D01*
X140947143Y-100627857D02*
X141018571Y-100770714D01*
X141018571Y-101056428D01*
X140947143Y-101199285D01*
X140804286Y-101270714D01*
X140232857Y-101270714D01*
X140090000Y-101199285D01*
X140018571Y-101056428D01*
X140018571Y-100770714D01*
X140090000Y-100627857D01*
X140232857Y-100556428D01*
X140375714Y-100556428D01*
X140518571Y-101270714D01*
X141018571Y-99913571D02*
X140018571Y-99913571D01*
X140161429Y-99913571D02*
X140090000Y-99842143D01*
X140018571Y-99699285D01*
X140018571Y-99485000D01*
X140090000Y-99342143D01*
X140232857Y-99270714D01*
X141018571Y-99270714D01*
X140232857Y-99270714D02*
X140090000Y-99199285D01*
X140018571Y-99056428D01*
X140018571Y-98842143D01*
X140090000Y-98699285D01*
X140232857Y-98627857D01*
X141018571Y-98627857D01*
X204947142Y-86946429D02*
X205232856Y-86732143D01*
X205518571Y-86946429D01*
X205804285Y-86946429D02*
X206089999Y-86732143D01*
X206375714Y-86946429D01*
X206661428Y-86946429D02*
X206947142Y-86732143D01*
X207232857Y-86946429D01*
X207732857Y-88303571D02*
X207732857Y-86803571D01*
X208090000Y-86803571D01*
X208304285Y-86875000D01*
X208447143Y-87017857D01*
X208518571Y-87160714D01*
X208590000Y-87446429D01*
X208590000Y-87660714D01*
X208518571Y-87946429D01*
X208447143Y-88089286D01*
X208304285Y-88232143D01*
X208090000Y-88303571D01*
X207732857Y-88303571D01*
X209161428Y-87875000D02*
X209875714Y-87875000D01*
X209018571Y-88303571D02*
X209518571Y-86803571D01*
X210018571Y-88303571D01*
X210518571Y-88303571D02*
X210518571Y-86803571D01*
X211375714Y-88303571D01*
X211375714Y-86803571D01*
X212875714Y-86875000D02*
X212732857Y-86803571D01*
X212518571Y-86803571D01*
X212304286Y-86875000D01*
X212161428Y-87017857D01*
X212090000Y-87160714D01*
X212018571Y-87446429D01*
X212018571Y-87660714D01*
X212090000Y-87946429D01*
X212161428Y-88089286D01*
X212304286Y-88232143D01*
X212518571Y-88303571D01*
X212661428Y-88303571D01*
X212875714Y-88232143D01*
X212947143Y-88160714D01*
X212947143Y-87660714D01*
X212661428Y-87660714D01*
X213590000Y-87517857D02*
X214090000Y-87517857D01*
X214304286Y-88303571D02*
X213590000Y-88303571D01*
X213590000Y-86803571D01*
X214304286Y-86803571D01*
X215804286Y-88303571D02*
X215304286Y-87589286D01*
X214947143Y-88303571D02*
X214947143Y-86803571D01*
X215518571Y-86803571D01*
X215661429Y-86875000D01*
X215732857Y-86946429D01*
X215804286Y-87089286D01*
X215804286Y-87303571D01*
X215732857Y-87446429D01*
X215661429Y-87517857D01*
X215518571Y-87589286D01*
X214947143Y-87589286D01*
X216447143Y-88160714D02*
X216518571Y-88232143D01*
X216447143Y-88303571D01*
X216375714Y-88232143D01*
X216447143Y-88160714D01*
X216447143Y-88303571D01*
X216447143Y-87732143D02*
X216375714Y-86875000D01*
X216447143Y-86803571D01*
X216518571Y-86875000D01*
X216447143Y-87732143D01*
X216447143Y-86803571D01*
X216947143Y-86946429D02*
X217232857Y-86732143D01*
X217518572Y-86946429D01*
X217804286Y-86946429D02*
X218090000Y-86732143D01*
X218375715Y-86946429D01*
X218661429Y-86946429D02*
X218947143Y-86732143D01*
X219232858Y-86946429D01*
X204518571Y-90853571D02*
X204518571Y-89353571D01*
X204518571Y-90067857D02*
X205375714Y-90067857D01*
X205375714Y-90853571D02*
X205375714Y-89353571D01*
X206090000Y-90853571D02*
X206090000Y-89353571D01*
X207590000Y-89425000D02*
X207447143Y-89353571D01*
X207232857Y-89353571D01*
X207018572Y-89425000D01*
X206875714Y-89567857D01*
X206804286Y-89710714D01*
X206732857Y-89996429D01*
X206732857Y-90210714D01*
X206804286Y-90496429D01*
X206875714Y-90639286D01*
X207018572Y-90782143D01*
X207232857Y-90853571D01*
X207375714Y-90853571D01*
X207590000Y-90782143D01*
X207661429Y-90710714D01*
X207661429Y-90210714D01*
X207375714Y-90210714D01*
X208304286Y-90853571D02*
X208304286Y-89353571D01*
X208304286Y-90067857D02*
X209161429Y-90067857D01*
X209161429Y-90853571D02*
X209161429Y-89353571D01*
X210804286Y-89353571D02*
X211304286Y-90853571D01*
X211804286Y-89353571D01*
X212590000Y-89353571D02*
X212875714Y-89353571D01*
X213018572Y-89425000D01*
X213161429Y-89567857D01*
X213232857Y-89853571D01*
X213232857Y-90353571D01*
X213161429Y-90639286D01*
X213018572Y-90782143D01*
X212875714Y-90853571D01*
X212590000Y-90853571D01*
X212447143Y-90782143D01*
X212304286Y-90639286D01*
X212232857Y-90353571D01*
X212232857Y-89853571D01*
X212304286Y-89567857D01*
X212447143Y-89425000D01*
X212590000Y-89353571D01*
X214590001Y-90853571D02*
X213875715Y-90853571D01*
X213875715Y-89353571D01*
X214875715Y-89353571D02*
X215732858Y-89353571D01*
X215304287Y-90853571D02*
X215304287Y-89353571D01*
X216161429Y-90425000D02*
X216875715Y-90425000D01*
X216018572Y-90853571D02*
X216518572Y-89353571D01*
X217018572Y-90853571D01*
X218304286Y-89425000D02*
X218161429Y-89353571D01*
X217947143Y-89353571D01*
X217732858Y-89425000D01*
X217590000Y-89567857D01*
X217518572Y-89710714D01*
X217447143Y-89996429D01*
X217447143Y-90210714D01*
X217518572Y-90496429D01*
X217590000Y-90639286D01*
X217732858Y-90782143D01*
X217947143Y-90853571D01*
X218090000Y-90853571D01*
X218304286Y-90782143D01*
X218375715Y-90710714D01*
X218375715Y-90210714D01*
X218090000Y-90210714D01*
X219018572Y-90067857D02*
X219518572Y-90067857D01*
X219732858Y-90853571D02*
X219018572Y-90853571D01*
X219018572Y-89353571D01*
X219732858Y-89353571D01*
X175102142Y-86946429D02*
X175387856Y-86732143D01*
X175673571Y-86946429D01*
X175959285Y-86946429D02*
X176244999Y-86732143D01*
X176530714Y-86946429D01*
X176816428Y-86946429D02*
X177102142Y-86732143D01*
X177387857Y-86946429D01*
X177887857Y-88303571D02*
X177887857Y-86803571D01*
X178245000Y-86803571D01*
X178459285Y-86875000D01*
X178602143Y-87017857D01*
X178673571Y-87160714D01*
X178745000Y-87446429D01*
X178745000Y-87660714D01*
X178673571Y-87946429D01*
X178602143Y-88089286D01*
X178459285Y-88232143D01*
X178245000Y-88303571D01*
X177887857Y-88303571D01*
X179316428Y-87875000D02*
X180030714Y-87875000D01*
X179173571Y-88303571D02*
X179673571Y-86803571D01*
X180173571Y-88303571D01*
X180673571Y-88303571D02*
X180673571Y-86803571D01*
X181530714Y-88303571D01*
X181530714Y-86803571D01*
X183030714Y-86875000D02*
X182887857Y-86803571D01*
X182673571Y-86803571D01*
X182459286Y-86875000D01*
X182316428Y-87017857D01*
X182245000Y-87160714D01*
X182173571Y-87446429D01*
X182173571Y-87660714D01*
X182245000Y-87946429D01*
X182316428Y-88089286D01*
X182459286Y-88232143D01*
X182673571Y-88303571D01*
X182816428Y-88303571D01*
X183030714Y-88232143D01*
X183102143Y-88160714D01*
X183102143Y-87660714D01*
X182816428Y-87660714D01*
X183745000Y-87517857D02*
X184245000Y-87517857D01*
X184459286Y-88303571D02*
X183745000Y-88303571D01*
X183745000Y-86803571D01*
X184459286Y-86803571D01*
X185959286Y-88303571D02*
X185459286Y-87589286D01*
X185102143Y-88303571D02*
X185102143Y-86803571D01*
X185673571Y-86803571D01*
X185816429Y-86875000D01*
X185887857Y-86946429D01*
X185959286Y-87089286D01*
X185959286Y-87303571D01*
X185887857Y-87446429D01*
X185816429Y-87517857D01*
X185673571Y-87589286D01*
X185102143Y-87589286D01*
X186602143Y-88160714D02*
X186673571Y-88232143D01*
X186602143Y-88303571D01*
X186530714Y-88232143D01*
X186602143Y-88160714D01*
X186602143Y-88303571D01*
X186602143Y-87732143D02*
X186530714Y-86875000D01*
X186602143Y-86803571D01*
X186673571Y-86875000D01*
X186602143Y-87732143D01*
X186602143Y-86803571D01*
X187102143Y-86946429D02*
X187387857Y-86732143D01*
X187673572Y-86946429D01*
X187959286Y-86946429D02*
X188245000Y-86732143D01*
X188530715Y-86946429D01*
X188816429Y-86946429D02*
X189102143Y-86732143D01*
X189387858Y-86946429D01*
X174673571Y-90853571D02*
X174673571Y-89353571D01*
X174673571Y-90067857D02*
X175530714Y-90067857D01*
X175530714Y-90853571D02*
X175530714Y-89353571D01*
X176245000Y-90853571D02*
X176245000Y-89353571D01*
X177745000Y-89425000D02*
X177602143Y-89353571D01*
X177387857Y-89353571D01*
X177173572Y-89425000D01*
X177030714Y-89567857D01*
X176959286Y-89710714D01*
X176887857Y-89996429D01*
X176887857Y-90210714D01*
X176959286Y-90496429D01*
X177030714Y-90639286D01*
X177173572Y-90782143D01*
X177387857Y-90853571D01*
X177530714Y-90853571D01*
X177745000Y-90782143D01*
X177816429Y-90710714D01*
X177816429Y-90210714D01*
X177530714Y-90210714D01*
X178459286Y-90853571D02*
X178459286Y-89353571D01*
X178459286Y-90067857D02*
X179316429Y-90067857D01*
X179316429Y-90853571D02*
X179316429Y-89353571D01*
X180959286Y-89353571D02*
X181459286Y-90853571D01*
X181959286Y-89353571D01*
X182745000Y-89353571D02*
X183030714Y-89353571D01*
X183173572Y-89425000D01*
X183316429Y-89567857D01*
X183387857Y-89853571D01*
X183387857Y-90353571D01*
X183316429Y-90639286D01*
X183173572Y-90782143D01*
X183030714Y-90853571D01*
X182745000Y-90853571D01*
X182602143Y-90782143D01*
X182459286Y-90639286D01*
X182387857Y-90353571D01*
X182387857Y-89853571D01*
X182459286Y-89567857D01*
X182602143Y-89425000D01*
X182745000Y-89353571D01*
X184745001Y-90853571D02*
X184030715Y-90853571D01*
X184030715Y-89353571D01*
X185030715Y-89353571D02*
X185887858Y-89353571D01*
X185459287Y-90853571D02*
X185459287Y-89353571D01*
X186316429Y-90425000D02*
X187030715Y-90425000D01*
X186173572Y-90853571D02*
X186673572Y-89353571D01*
X187173572Y-90853571D01*
X188459286Y-89425000D02*
X188316429Y-89353571D01*
X188102143Y-89353571D01*
X187887858Y-89425000D01*
X187745000Y-89567857D01*
X187673572Y-89710714D01*
X187602143Y-89996429D01*
X187602143Y-90210714D01*
X187673572Y-90496429D01*
X187745000Y-90639286D01*
X187887858Y-90782143D01*
X188102143Y-90853571D01*
X188245000Y-90853571D01*
X188459286Y-90782143D01*
X188530715Y-90710714D01*
X188530715Y-90210714D01*
X188245000Y-90210714D01*
X189173572Y-90067857D02*
X189673572Y-90067857D01*
X189887858Y-90853571D02*
X189173572Y-90853571D01*
X189173572Y-89353571D01*
X189887858Y-89353571D01*
X159352858Y-149673571D02*
X160210001Y-149673571D01*
X159781430Y-151173571D02*
X159781430Y-149673571D01*
X161281429Y-151102143D02*
X161138572Y-151173571D01*
X160852858Y-151173571D01*
X160710001Y-151102143D01*
X160638572Y-150959286D01*
X160638572Y-150387857D01*
X160710001Y-150245000D01*
X160852858Y-150173571D01*
X161138572Y-150173571D01*
X161281429Y-150245000D01*
X161352858Y-150387857D01*
X161352858Y-150530714D01*
X160638572Y-150673571D01*
X162638572Y-151173571D02*
X162638572Y-150387857D01*
X162567143Y-150245000D01*
X162424286Y-150173571D01*
X162138572Y-150173571D01*
X161995715Y-150245000D01*
X162638572Y-151102143D02*
X162495715Y-151173571D01*
X162138572Y-151173571D01*
X161995715Y-151102143D01*
X161924286Y-150959286D01*
X161924286Y-150816429D01*
X161995715Y-150673571D01*
X162138572Y-150602143D01*
X162495715Y-150602143D01*
X162638572Y-150530714D01*
X163352858Y-151173571D02*
X163352858Y-150173571D01*
X163352858Y-150316429D02*
X163424286Y-150245000D01*
X163567144Y-150173571D01*
X163781429Y-150173571D01*
X163924286Y-150245000D01*
X163995715Y-150387857D01*
X163995715Y-151173571D01*
X163995715Y-150387857D02*
X164067144Y-150245000D01*
X164210001Y-150173571D01*
X164424286Y-150173571D01*
X164567144Y-150245000D01*
X164638572Y-150387857D01*
X164638572Y-151173571D01*
X165352858Y-151030714D02*
X165424286Y-151102143D01*
X165352858Y-151173571D01*
X165281429Y-151102143D01*
X165352858Y-151030714D01*
X165352858Y-151173571D01*
X165352858Y-150245000D02*
X165424286Y-150316429D01*
X165352858Y-150387857D01*
X165281429Y-150316429D01*
X165352858Y-150245000D01*
X165352858Y-150387857D01*
X167138572Y-151102143D02*
X167352858Y-151173571D01*
X167710001Y-151173571D01*
X167852858Y-151102143D01*
X167924287Y-151030714D01*
X167995715Y-150887857D01*
X167995715Y-150745000D01*
X167924287Y-150602143D01*
X167852858Y-150530714D01*
X167710001Y-150459286D01*
X167424287Y-150387857D01*
X167281429Y-150316429D01*
X167210001Y-150245000D01*
X167138572Y-150102143D01*
X167138572Y-149959286D01*
X167210001Y-149816429D01*
X167281429Y-149745000D01*
X167424287Y-149673571D01*
X167781429Y-149673571D01*
X167995715Y-149745000D01*
X168638572Y-150173571D02*
X168638572Y-151673571D01*
X168638572Y-150245000D02*
X168781429Y-150173571D01*
X169067143Y-150173571D01*
X169210000Y-150245000D01*
X169281429Y-150316429D01*
X169352858Y-150459286D01*
X169352858Y-150887857D01*
X169281429Y-151030714D01*
X169210000Y-151102143D01*
X169067143Y-151173571D01*
X168781429Y-151173571D01*
X168638572Y-151102143D01*
X170567143Y-151102143D02*
X170424286Y-151173571D01*
X170138572Y-151173571D01*
X169995715Y-151102143D01*
X169924286Y-150959286D01*
X169924286Y-150387857D01*
X169995715Y-150245000D01*
X170138572Y-150173571D01*
X170424286Y-150173571D01*
X170567143Y-150245000D01*
X170638572Y-150387857D01*
X170638572Y-150530714D01*
X169924286Y-150673571D01*
X171281429Y-150173571D02*
X171281429Y-151173571D01*
X171281429Y-150316429D02*
X171352857Y-150245000D01*
X171495715Y-150173571D01*
X171710000Y-150173571D01*
X171852857Y-150245000D01*
X171924286Y-150387857D01*
X171924286Y-151173571D01*
X173281429Y-151102143D02*
X173138572Y-151173571D01*
X172852858Y-151173571D01*
X172710000Y-151102143D01*
X172638572Y-151030714D01*
X172567143Y-150887857D01*
X172567143Y-150459286D01*
X172638572Y-150316429D01*
X172710000Y-150245000D01*
X172852858Y-150173571D01*
X173138572Y-150173571D01*
X173281429Y-150245000D01*
X174495714Y-151102143D02*
X174352857Y-151173571D01*
X174067143Y-151173571D01*
X173924286Y-151102143D01*
X173852857Y-150959286D01*
X173852857Y-150387857D01*
X173924286Y-150245000D01*
X174067143Y-150173571D01*
X174352857Y-150173571D01*
X174495714Y-150245000D01*
X174567143Y-150387857D01*
X174567143Y-150530714D01*
X173852857Y-150673571D01*
X175210000Y-151173571D02*
X175210000Y-150173571D01*
X175210000Y-150459286D02*
X175281428Y-150316429D01*
X175352857Y-150245000D01*
X175495714Y-150173571D01*
X175638571Y-150173571D01*
X177281428Y-151173571D02*
X177281428Y-149673571D01*
X177781428Y-150745000D01*
X178281428Y-149673571D01*
X178281428Y-151173571D01*
X179210000Y-151173571D02*
X179067142Y-151102143D01*
X178995714Y-151030714D01*
X178924285Y-150887857D01*
X178924285Y-150459286D01*
X178995714Y-150316429D01*
X179067142Y-150245000D01*
X179210000Y-150173571D01*
X179424285Y-150173571D01*
X179567142Y-150245000D01*
X179638571Y-150316429D01*
X179710000Y-150459286D01*
X179710000Y-150887857D01*
X179638571Y-151030714D01*
X179567142Y-151102143D01*
X179424285Y-151173571D01*
X179210000Y-151173571D01*
X180281428Y-151102143D02*
X180424285Y-151173571D01*
X180710000Y-151173571D01*
X180852857Y-151102143D01*
X180924285Y-150959286D01*
X180924285Y-150887857D01*
X180852857Y-150745000D01*
X180710000Y-150673571D01*
X180495714Y-150673571D01*
X180352857Y-150602143D01*
X180281428Y-150459286D01*
X180281428Y-150387857D01*
X180352857Y-150245000D01*
X180495714Y-150173571D01*
X180710000Y-150173571D01*
X180852857Y-150245000D01*
X181495714Y-151102143D02*
X181638571Y-151173571D01*
X181924286Y-151173571D01*
X182067143Y-151102143D01*
X182138571Y-150959286D01*
X182138571Y-150887857D01*
X182067143Y-150745000D01*
X181924286Y-150673571D01*
X181710000Y-150673571D01*
X181567143Y-150602143D01*
X181495714Y-150459286D01*
X181495714Y-150387857D01*
X181567143Y-150245000D01*
X181710000Y-150173571D01*
X181924286Y-150173571D01*
X182067143Y-150245000D01*
X182852857Y-151102143D02*
X182852857Y-151173571D01*
X182781429Y-151316429D01*
X182710000Y-151387857D01*
X185067143Y-149673571D02*
X185067143Y-150745000D01*
X184995715Y-150959286D01*
X184852858Y-151102143D01*
X184638572Y-151173571D01*
X184495715Y-151173571D01*
X186424286Y-151173571D02*
X186424286Y-150387857D01*
X186352857Y-150245000D01*
X186210000Y-150173571D01*
X185924286Y-150173571D01*
X185781429Y-150245000D01*
X186424286Y-151102143D02*
X186281429Y-151173571D01*
X185924286Y-151173571D01*
X185781429Y-151102143D01*
X185710000Y-150959286D01*
X185710000Y-150816429D01*
X185781429Y-150673571D01*
X185924286Y-150602143D01*
X186281429Y-150602143D01*
X186424286Y-150530714D01*
X187781429Y-151102143D02*
X187638572Y-151173571D01*
X187352858Y-151173571D01*
X187210000Y-151102143D01*
X187138572Y-151030714D01*
X187067143Y-150887857D01*
X187067143Y-150459286D01*
X187138572Y-150316429D01*
X187210000Y-150245000D01*
X187352858Y-150173571D01*
X187638572Y-150173571D01*
X187781429Y-150245000D01*
X188638572Y-151173571D02*
X188495714Y-151102143D01*
X188424286Y-151030714D01*
X188352857Y-150887857D01*
X188352857Y-150459286D01*
X188424286Y-150316429D01*
X188495714Y-150245000D01*
X188638572Y-150173571D01*
X188852857Y-150173571D01*
X188995714Y-150245000D01*
X189067143Y-150316429D01*
X189138572Y-150459286D01*
X189138572Y-150887857D01*
X189067143Y-151030714D01*
X188995714Y-151102143D01*
X188852857Y-151173571D01*
X188638572Y-151173571D01*
X189781429Y-151173571D02*
X189781429Y-149673571D01*
X189781429Y-150245000D02*
X189924286Y-150173571D01*
X190210000Y-150173571D01*
X190352857Y-150245000D01*
X190424286Y-150316429D01*
X190495715Y-150459286D01*
X190495715Y-150887857D01*
X190424286Y-151030714D01*
X190352857Y-151102143D01*
X190210000Y-151173571D01*
X189924286Y-151173571D01*
X189781429Y-151102143D01*
X192781429Y-150387857D02*
X192281429Y-150387857D01*
X192281429Y-151173571D02*
X192281429Y-149673571D01*
X192995715Y-149673571D01*
X193567143Y-151173571D02*
X193567143Y-150173571D01*
X193567143Y-149673571D02*
X193495714Y-149745000D01*
X193567143Y-149816429D01*
X193638571Y-149745000D01*
X193567143Y-149673571D01*
X193567143Y-149816429D01*
X194924286Y-151102143D02*
X194781429Y-151173571D01*
X194495715Y-151173571D01*
X194352857Y-151102143D01*
X194281429Y-151030714D01*
X194210000Y-150887857D01*
X194210000Y-150459286D01*
X194281429Y-150316429D01*
X194352857Y-150245000D01*
X194495715Y-150173571D01*
X194781429Y-150173571D01*
X194924286Y-150245000D01*
X195567143Y-151173571D02*
X195567143Y-149673571D01*
X195710000Y-150602143D02*
X196138571Y-151173571D01*
X196138571Y-150173571D02*
X195567143Y-150745000D01*
X197352857Y-151102143D02*
X197210000Y-151173571D01*
X196924286Y-151173571D01*
X196781429Y-151102143D01*
X196710000Y-150959286D01*
X196710000Y-150387857D01*
X196781429Y-150245000D01*
X196924286Y-150173571D01*
X197210000Y-150173571D01*
X197352857Y-150245000D01*
X197424286Y-150387857D01*
X197424286Y-150530714D01*
X196710000Y-150673571D01*
X198067143Y-151173571D02*
X198067143Y-150173571D01*
X198067143Y-150459286D02*
X198138571Y-150316429D01*
X198210000Y-150245000D01*
X198352857Y-150173571D01*
X198495714Y-150173571D01*
X199067142Y-151102143D02*
X199067142Y-151173571D01*
X198995714Y-151316429D01*
X198924285Y-151387857D01*
X201281428Y-149673571D02*
X201281428Y-150745000D01*
X201210000Y-150959286D01*
X201067143Y-151102143D01*
X200852857Y-151173571D01*
X200710000Y-151173571D01*
X202567142Y-151102143D02*
X202424285Y-151173571D01*
X202138571Y-151173571D01*
X201995714Y-151102143D01*
X201924285Y-150959286D01*
X201924285Y-150387857D01*
X201995714Y-150245000D01*
X202138571Y-150173571D01*
X202424285Y-150173571D01*
X202567142Y-150245000D01*
X202638571Y-150387857D01*
X202638571Y-150530714D01*
X201924285Y-150673571D01*
X203209999Y-151102143D02*
X203352856Y-151173571D01*
X203638571Y-151173571D01*
X203781428Y-151102143D01*
X203852856Y-150959286D01*
X203852856Y-150887857D01*
X203781428Y-150745000D01*
X203638571Y-150673571D01*
X203424285Y-150673571D01*
X203281428Y-150602143D01*
X203209999Y-150459286D01*
X203209999Y-150387857D01*
X203281428Y-150245000D01*
X203424285Y-150173571D01*
X203638571Y-150173571D01*
X203781428Y-150245000D01*
X205138571Y-150173571D02*
X205138571Y-151173571D01*
X204495714Y-150173571D02*
X204495714Y-150959286D01*
X204567142Y-151102143D01*
X204710000Y-151173571D01*
X204924285Y-151173571D01*
X205067142Y-151102143D01*
X205138571Y-151030714D01*
X205781428Y-151102143D02*
X205924285Y-151173571D01*
X206210000Y-151173571D01*
X206352857Y-151102143D01*
X206424285Y-150959286D01*
X206424285Y-150887857D01*
X206352857Y-150745000D01*
X206210000Y-150673571D01*
X205995714Y-150673571D01*
X205852857Y-150602143D01*
X205781428Y-150459286D01*
X205781428Y-150387857D01*
X205852857Y-150245000D01*
X205995714Y-150173571D01*
X206210000Y-150173571D01*
X206352857Y-150245000D01*
X208210000Y-151173571D02*
X208210000Y-149673571D01*
X209067143Y-151173571D01*
X209067143Y-149673571D01*
X210424286Y-151173571D02*
X210424286Y-150387857D01*
X210352857Y-150245000D01*
X210210000Y-150173571D01*
X209924286Y-150173571D01*
X209781429Y-150245000D01*
X210424286Y-151102143D02*
X210281429Y-151173571D01*
X209924286Y-151173571D01*
X209781429Y-151102143D01*
X209710000Y-150959286D01*
X209710000Y-150816429D01*
X209781429Y-150673571D01*
X209924286Y-150602143D01*
X210281429Y-150602143D01*
X210424286Y-150530714D01*
X211138572Y-151173571D02*
X211138572Y-150173571D01*
X211138572Y-150459286D02*
X211210000Y-150316429D01*
X211281429Y-150245000D01*
X211424286Y-150173571D01*
X211567143Y-150173571D01*
X211924286Y-150173571D02*
X212281429Y-151173571D01*
X212638571Y-150173571D01*
X213852857Y-151173571D02*
X213852857Y-150387857D01*
X213781428Y-150245000D01*
X213638571Y-150173571D01*
X213352857Y-150173571D01*
X213210000Y-150245000D01*
X213852857Y-151102143D02*
X213710000Y-151173571D01*
X213352857Y-151173571D01*
X213210000Y-151102143D01*
X213138571Y-150959286D01*
X213138571Y-150816429D01*
X213210000Y-150673571D01*
X213352857Y-150602143D01*
X213710000Y-150602143D01*
X213852857Y-150530714D01*
X215138571Y-151102143D02*
X214995714Y-151173571D01*
X214710000Y-151173571D01*
X214567143Y-151102143D01*
X214495714Y-150959286D01*
X214495714Y-150387857D01*
X214567143Y-150245000D01*
X214710000Y-150173571D01*
X214995714Y-150173571D01*
X215138571Y-150245000D01*
X215210000Y-150387857D01*
X215210000Y-150530714D01*
X214495714Y-150673571D01*
X215710000Y-150173571D02*
X216495714Y-150173571D01*
X215710000Y-151173571D01*
X216495714Y-151173571D01*
X172652858Y-139108571D02*
X172652858Y-138108571D01*
X172652858Y-138394286D02*
X172724286Y-138251429D01*
X172795715Y-138180000D01*
X172938572Y-138108571D01*
X173081429Y-138108571D01*
X174152857Y-139037143D02*
X174010000Y-139108571D01*
X173724286Y-139108571D01*
X173581429Y-139037143D01*
X173510000Y-138894286D01*
X173510000Y-138322857D01*
X173581429Y-138180000D01*
X173724286Y-138108571D01*
X174010000Y-138108571D01*
X174152857Y-138180000D01*
X174224286Y-138322857D01*
X174224286Y-138465714D01*
X173510000Y-138608571D01*
X174724286Y-138108571D02*
X175081429Y-139108571D01*
X175438571Y-138108571D01*
X177938571Y-139108571D02*
X177081428Y-139108571D01*
X177510000Y-139108571D02*
X177510000Y-137608571D01*
X177367143Y-137822857D01*
X177224285Y-137965714D01*
X177081428Y-138037143D01*
X170760000Y-128147857D02*
X170974286Y-128219286D01*
X171045714Y-128290714D01*
X171117143Y-128433571D01*
X171117143Y-128647857D01*
X171045714Y-128790714D01*
X170974286Y-128862143D01*
X170831428Y-128933571D01*
X170260000Y-128933571D01*
X170260000Y-127433571D01*
X170760000Y-127433571D01*
X170902857Y-127505000D01*
X170974286Y-127576429D01*
X171045714Y-127719286D01*
X171045714Y-127862143D01*
X170974286Y-128005000D01*
X170902857Y-128076429D01*
X170760000Y-128147857D01*
X170260000Y-128147857D01*
X171974286Y-128933571D02*
X171831428Y-128862143D01*
X171760000Y-128719286D01*
X171760000Y-127433571D01*
X173188571Y-127933571D02*
X173188571Y-128933571D01*
X172545714Y-127933571D02*
X172545714Y-128719286D01*
X172617142Y-128862143D01*
X172760000Y-128933571D01*
X172974285Y-128933571D01*
X173117142Y-128862143D01*
X173188571Y-128790714D01*
X174474285Y-128862143D02*
X174331428Y-128933571D01*
X174045714Y-128933571D01*
X173902857Y-128862143D01*
X173831428Y-128719286D01*
X173831428Y-128147857D01*
X173902857Y-128005000D01*
X174045714Y-127933571D01*
X174331428Y-127933571D01*
X174474285Y-128005000D01*
X174545714Y-128147857D01*
X174545714Y-128290714D01*
X173831428Y-128433571D01*
X174974285Y-127933571D02*
X175545714Y-127933571D01*
X175188571Y-127433571D02*
X175188571Y-128719286D01*
X175259999Y-128862143D01*
X175402857Y-128933571D01*
X175545714Y-128933571D01*
X176260000Y-128933571D02*
X176117142Y-128862143D01*
X176045714Y-128790714D01*
X175974285Y-128647857D01*
X175974285Y-128219286D01*
X176045714Y-128076429D01*
X176117142Y-128005000D01*
X176260000Y-127933571D01*
X176474285Y-127933571D01*
X176617142Y-128005000D01*
X176688571Y-128076429D01*
X176760000Y-128219286D01*
X176760000Y-128647857D01*
X176688571Y-128790714D01*
X176617142Y-128862143D01*
X176474285Y-128933571D01*
X176260000Y-128933571D01*
X177617143Y-128933571D02*
X177474285Y-128862143D01*
X177402857Y-128790714D01*
X177331428Y-128647857D01*
X177331428Y-128219286D01*
X177402857Y-128076429D01*
X177474285Y-128005000D01*
X177617143Y-127933571D01*
X177831428Y-127933571D01*
X177974285Y-128005000D01*
X178045714Y-128076429D01*
X178117143Y-128219286D01*
X178117143Y-128647857D01*
X178045714Y-128790714D01*
X177974285Y-128862143D01*
X177831428Y-128933571D01*
X177617143Y-128933571D01*
X178545714Y-127933571D02*
X179117143Y-127933571D01*
X178760000Y-127433571D02*
X178760000Y-128719286D01*
X178831428Y-128862143D01*
X178974286Y-128933571D01*
X179117143Y-128933571D01*
X179617143Y-128933571D02*
X179617143Y-127433571D01*
X180260000Y-128933571D02*
X180260000Y-128147857D01*
X180188571Y-128005000D01*
X180045714Y-127933571D01*
X179831429Y-127933571D01*
X179688571Y-128005000D01*
X179617143Y-128076429D01*
X170688572Y-131340714D02*
X170617143Y-131412143D01*
X170402857Y-131483571D01*
X170260000Y-131483571D01*
X170045715Y-131412143D01*
X169902857Y-131269286D01*
X169831429Y-131126429D01*
X169760000Y-130840714D01*
X169760000Y-130626429D01*
X169831429Y-130340714D01*
X169902857Y-130197857D01*
X170045715Y-130055000D01*
X170260000Y-129983571D01*
X170402857Y-129983571D01*
X170617143Y-130055000D01*
X170688572Y-130126429D01*
X171545715Y-131483571D02*
X171402857Y-131412143D01*
X171331429Y-131340714D01*
X171260000Y-131197857D01*
X171260000Y-130769286D01*
X171331429Y-130626429D01*
X171402857Y-130555000D01*
X171545715Y-130483571D01*
X171760000Y-130483571D01*
X171902857Y-130555000D01*
X171974286Y-130626429D01*
X172045715Y-130769286D01*
X172045715Y-131197857D01*
X171974286Y-131340714D01*
X171902857Y-131412143D01*
X171760000Y-131483571D01*
X171545715Y-131483571D01*
X172688572Y-130483571D02*
X172688572Y-131483571D01*
X172688572Y-130626429D02*
X172760000Y-130555000D01*
X172902858Y-130483571D01*
X173117143Y-130483571D01*
X173260000Y-130555000D01*
X173331429Y-130697857D01*
X173331429Y-131483571D01*
X173831429Y-130483571D02*
X174402858Y-130483571D01*
X174045715Y-129983571D02*
X174045715Y-131269286D01*
X174117143Y-131412143D01*
X174260001Y-131483571D01*
X174402858Y-131483571D01*
X174902858Y-131483571D02*
X174902858Y-130483571D01*
X174902858Y-130769286D02*
X174974286Y-130626429D01*
X175045715Y-130555000D01*
X175188572Y-130483571D01*
X175331429Y-130483571D01*
X176045715Y-131483571D02*
X175902857Y-131412143D01*
X175831429Y-131340714D01*
X175760000Y-131197857D01*
X175760000Y-130769286D01*
X175831429Y-130626429D01*
X175902857Y-130555000D01*
X176045715Y-130483571D01*
X176260000Y-130483571D01*
X176402857Y-130555000D01*
X176474286Y-130626429D01*
X176545715Y-130769286D01*
X176545715Y-131197857D01*
X176474286Y-131340714D01*
X176402857Y-131412143D01*
X176260000Y-131483571D01*
X176045715Y-131483571D01*
X177402858Y-131483571D02*
X177260000Y-131412143D01*
X177188572Y-131269286D01*
X177188572Y-129983571D01*
X178188572Y-131483571D02*
X178045714Y-131412143D01*
X177974286Y-131269286D01*
X177974286Y-129983571D01*
X179331428Y-131412143D02*
X179188571Y-131483571D01*
X178902857Y-131483571D01*
X178760000Y-131412143D01*
X178688571Y-131269286D01*
X178688571Y-130697857D01*
X178760000Y-130555000D01*
X178902857Y-130483571D01*
X179188571Y-130483571D01*
X179331428Y-130555000D01*
X179402857Y-130697857D01*
X179402857Y-130840714D01*
X178688571Y-130983571D01*
X180688571Y-131483571D02*
X180688571Y-129983571D01*
X180688571Y-131412143D02*
X180545714Y-131483571D01*
X180260000Y-131483571D01*
X180117142Y-131412143D01*
X180045714Y-131340714D01*
X179974285Y-131197857D01*
X179974285Y-130769286D01*
X180045714Y-130626429D01*
X180117142Y-130555000D01*
X180260000Y-130483571D01*
X180545714Y-130483571D01*
X180688571Y-130555000D01*
X174152857Y-133605000D02*
X174867143Y-133605000D01*
X174010000Y-134033571D02*
X174510000Y-132533571D01*
X175010000Y-134033571D01*
X176367143Y-133890714D02*
X176295714Y-133962143D01*
X176081428Y-134033571D01*
X175938571Y-134033571D01*
X175724286Y-133962143D01*
X175581428Y-133819286D01*
X175510000Y-133676429D01*
X175438571Y-133390714D01*
X175438571Y-133176429D01*
X175510000Y-132890714D01*
X175581428Y-132747857D01*
X175724286Y-132605000D01*
X175938571Y-132533571D01*
X176081428Y-132533571D01*
X176295714Y-132605000D01*
X176367143Y-132676429D01*
X171938571Y-136512143D02*
X172152857Y-136583571D01*
X172510000Y-136583571D01*
X172652857Y-136512143D01*
X172724286Y-136440714D01*
X172795714Y-136297857D01*
X172795714Y-136155000D01*
X172724286Y-136012143D01*
X172652857Y-135940714D01*
X172510000Y-135869286D01*
X172224286Y-135797857D01*
X172081428Y-135726429D01*
X172010000Y-135655000D01*
X171938571Y-135512143D01*
X171938571Y-135369286D01*
X172010000Y-135226429D01*
X172081428Y-135155000D01*
X172224286Y-135083571D01*
X172581428Y-135083571D01*
X172795714Y-135155000D01*
X173295714Y-135583571D02*
X173581428Y-136583571D01*
X173867142Y-135869286D01*
X174152857Y-136583571D01*
X174438571Y-135583571D01*
X175010000Y-136583571D02*
X175010000Y-135583571D01*
X175010000Y-135083571D02*
X174938571Y-135155000D01*
X175010000Y-135226429D01*
X175081428Y-135155000D01*
X175010000Y-135083571D01*
X175010000Y-135226429D01*
X175510000Y-135583571D02*
X176081429Y-135583571D01*
X175724286Y-135083571D02*
X175724286Y-136369286D01*
X175795714Y-136512143D01*
X175938572Y-136583571D01*
X176081429Y-136583571D01*
X177224286Y-136512143D02*
X177081429Y-136583571D01*
X176795715Y-136583571D01*
X176652857Y-136512143D01*
X176581429Y-136440714D01*
X176510000Y-136297857D01*
X176510000Y-135869286D01*
X176581429Y-135726429D01*
X176652857Y-135655000D01*
X176795715Y-135583571D01*
X177081429Y-135583571D01*
X177224286Y-135655000D01*
X177867143Y-136583571D02*
X177867143Y-135083571D01*
X178510000Y-136583571D02*
X178510000Y-135797857D01*
X178438571Y-135655000D01*
X178295714Y-135583571D01*
X178081429Y-135583571D01*
X177938571Y-135655000D01*
X177867143Y-135726429D01*
X176943572Y-100850000D02*
X176800715Y-100778571D01*
X176586429Y-100778571D01*
X176372144Y-100850000D01*
X176229286Y-100992857D01*
X176157858Y-101135714D01*
X176086429Y-101421429D01*
X176086429Y-101635714D01*
X176157858Y-101921429D01*
X176229286Y-102064286D01*
X176372144Y-102207143D01*
X176586429Y-102278571D01*
X176729286Y-102278571D01*
X176943572Y-102207143D01*
X177015001Y-102135714D01*
X177015001Y-101635714D01*
X176729286Y-101635714D01*
X177657858Y-102278571D02*
X177657858Y-101278571D01*
X177657858Y-101564286D02*
X177729286Y-101421429D01*
X177800715Y-101350000D01*
X177943572Y-101278571D01*
X178086429Y-101278571D01*
X178800715Y-102278571D02*
X178657857Y-102207143D01*
X178586429Y-102135714D01*
X178515000Y-101992857D01*
X178515000Y-101564286D01*
X178586429Y-101421429D01*
X178657857Y-101350000D01*
X178800715Y-101278571D01*
X179015000Y-101278571D01*
X179157857Y-101350000D01*
X179229286Y-101421429D01*
X179300715Y-101564286D01*
X179300715Y-101992857D01*
X179229286Y-102135714D01*
X179157857Y-102207143D01*
X179015000Y-102278571D01*
X178800715Y-102278571D01*
X180586429Y-101278571D02*
X180586429Y-102278571D01*
X179943572Y-101278571D02*
X179943572Y-102064286D01*
X180015000Y-102207143D01*
X180157858Y-102278571D01*
X180372143Y-102278571D01*
X180515000Y-102207143D01*
X180586429Y-102135714D01*
X181300715Y-101278571D02*
X181300715Y-102778571D01*
X181300715Y-101350000D02*
X181443572Y-101278571D01*
X181729286Y-101278571D01*
X181872143Y-101350000D01*
X181943572Y-101421429D01*
X182015001Y-101564286D01*
X182015001Y-101992857D01*
X181943572Y-102135714D01*
X181872143Y-102207143D01*
X181729286Y-102278571D01*
X181443572Y-102278571D01*
X181300715Y-102207143D01*
X184515001Y-100778571D02*
X183800715Y-100778571D01*
X183729286Y-101492857D01*
X183800715Y-101421429D01*
X183943572Y-101350000D01*
X184300715Y-101350000D01*
X184443572Y-101421429D01*
X184515001Y-101492857D01*
X184586429Y-101635714D01*
X184586429Y-101992857D01*
X184515001Y-102135714D01*
X184443572Y-102207143D01*
X184300715Y-102278571D01*
X183943572Y-102278571D01*
X183800715Y-102207143D01*
X183729286Y-102135714D01*
X186300714Y-101850000D02*
X187015000Y-101850000D01*
X186157857Y-102278571D02*
X186657857Y-100778571D01*
X187157857Y-102278571D01*
X187872143Y-102278571D02*
X187729285Y-102207143D01*
X187657857Y-102064286D01*
X187657857Y-100778571D01*
X188443571Y-102278571D02*
X188443571Y-101278571D01*
X188443571Y-100778571D02*
X188372142Y-100850000D01*
X188443571Y-100921429D01*
X188514999Y-100850000D01*
X188443571Y-100778571D01*
X188443571Y-100921429D01*
X189015000Y-101278571D02*
X189372143Y-102278571D01*
X189729285Y-101278571D01*
X190872142Y-102207143D02*
X190729285Y-102278571D01*
X190443571Y-102278571D01*
X190300714Y-102207143D01*
X190229285Y-102064286D01*
X190229285Y-101492857D01*
X190300714Y-101350000D01*
X190443571Y-101278571D01*
X190729285Y-101278571D01*
X190872142Y-101350000D01*
X190943571Y-101492857D01*
X190943571Y-101635714D01*
X190229285Y-101778571D01*
D12*
X140595000Y-67310000D02*
G75*
G03X140595000Y-67310000I-9090000J0D01*
G01*
X131505000Y-76360000D02*
X131505000Y-58260000D01*
X131465000Y-76360000D02*
X131465000Y-58260000D01*
X131425000Y-76360000D02*
X131425000Y-58260000D01*
X131385000Y-76360000D02*
X131385000Y-58260000D01*
X131345000Y-76359000D02*
X131345000Y-58261000D01*
X131305000Y-76358000D02*
X131305000Y-58262000D01*
X131265000Y-76357000D02*
X131265000Y-58263000D01*
X131225000Y-76356000D02*
X131225000Y-58264000D01*
X131185000Y-76355000D02*
X131185000Y-58265000D01*
X131145000Y-76353000D02*
X131145000Y-58267000D01*
X131105000Y-76352000D02*
X131105000Y-58268000D01*
X131065000Y-76350000D02*
X131065000Y-58270000D01*
X131025000Y-76348000D02*
X131025000Y-58272000D01*
X130985000Y-76346000D02*
X130985000Y-58274000D01*
X130945000Y-76343000D02*
X130945000Y-58277000D01*
X130905000Y-76341000D02*
X130905000Y-58279000D01*
X130865000Y-76338000D02*
X130865000Y-58282000D01*
X130825000Y-76335000D02*
X130825000Y-58285000D01*
X130784000Y-76332000D02*
X130784000Y-58288000D01*
X130744000Y-76329000D02*
X130744000Y-58291000D01*
X130704000Y-76325000D02*
X130704000Y-58295000D01*
X130664000Y-76322000D02*
X130664000Y-58298000D01*
X130624000Y-76318000D02*
X130624000Y-58302000D01*
X130584000Y-76314000D02*
X130584000Y-58306000D01*
X130544000Y-76310000D02*
X130544000Y-58310000D01*
X130504000Y-76305000D02*
X130504000Y-58315000D01*
X130464000Y-76301000D02*
X130464000Y-58319000D01*
X130424000Y-76296000D02*
X130424000Y-58324000D01*
X130384000Y-76291000D02*
X130384000Y-58329000D01*
X130344000Y-76286000D02*
X130344000Y-58334000D01*
X130304000Y-76281000D02*
X130304000Y-58339000D01*
X130264000Y-76276000D02*
X130264000Y-58344000D01*
X130224000Y-76270000D02*
X130224000Y-58350000D01*
X130184000Y-76264000D02*
X130184000Y-58356000D01*
X130144000Y-76258000D02*
X130144000Y-58362000D01*
X130104000Y-76252000D02*
X130104000Y-58368000D01*
X130064000Y-76246000D02*
X130064000Y-58374000D01*
X130024000Y-76239000D02*
X130024000Y-58381000D01*
X129984000Y-76233000D02*
X129984000Y-58387000D01*
X129944000Y-76226000D02*
X129944000Y-58394000D01*
X129904000Y-76219000D02*
X129904000Y-58401000D01*
X129864000Y-76211000D02*
X129864000Y-58409000D01*
X129824000Y-76204000D02*
X129824000Y-58416000D01*
X129784000Y-76196000D02*
X129784000Y-58424000D01*
X129744000Y-76188000D02*
X129744000Y-58432000D01*
X129704000Y-76180000D02*
X129704000Y-58440000D01*
X129664000Y-76172000D02*
X129664000Y-58448000D01*
X129624000Y-76164000D02*
X129624000Y-58456000D01*
X129584000Y-76155000D02*
X129584000Y-58465000D01*
X129544000Y-76147000D02*
X129544000Y-58473000D01*
X129504000Y-76138000D02*
X129504000Y-58482000D01*
X129464000Y-76129000D02*
X129464000Y-58491000D01*
X129424000Y-76119000D02*
X129424000Y-58501000D01*
X129384000Y-76110000D02*
X129384000Y-58510000D01*
X129344000Y-76100000D02*
X129344000Y-58520000D01*
X129304000Y-76090000D02*
X129304000Y-58530000D01*
X129264000Y-76080000D02*
X129264000Y-58540000D01*
X129224000Y-76070000D02*
X129224000Y-58550000D01*
X129184000Y-76059000D02*
X129184000Y-58561000D01*
X129144000Y-76049000D02*
X129144000Y-58571000D01*
X129104000Y-76038000D02*
X129104000Y-68690000D01*
X129104000Y-65930000D02*
X129104000Y-58582000D01*
X129064000Y-76027000D02*
X129064000Y-68690000D01*
X129064000Y-65930000D02*
X129064000Y-58593000D01*
X129024000Y-76016000D02*
X129024000Y-68690000D01*
X129024000Y-65930000D02*
X129024000Y-58604000D01*
X128984000Y-76004000D02*
X128984000Y-68690000D01*
X128984000Y-65930000D02*
X128984000Y-58616000D01*
X128944000Y-75993000D02*
X128944000Y-68690000D01*
X128944000Y-65930000D02*
X128944000Y-58627000D01*
X128904000Y-75981000D02*
X128904000Y-68690000D01*
X128904000Y-65930000D02*
X128904000Y-58639000D01*
X128864000Y-75969000D02*
X128864000Y-68690000D01*
X128864000Y-65930000D02*
X128864000Y-58651000D01*
X128824000Y-75956000D02*
X128824000Y-68690000D01*
X128824000Y-65930000D02*
X128824000Y-58664000D01*
X128784000Y-75944000D02*
X128784000Y-68690000D01*
X128784000Y-65930000D02*
X128784000Y-58676000D01*
X128744000Y-75931000D02*
X128744000Y-68690000D01*
X128744000Y-65930000D02*
X128744000Y-58689000D01*
X128704000Y-75919000D02*
X128704000Y-68690000D01*
X128704000Y-65930000D02*
X128704000Y-58701000D01*
X128664000Y-75905000D02*
X128664000Y-68690000D01*
X128664000Y-65930000D02*
X128664000Y-58715000D01*
X128624000Y-75892000D02*
X128624000Y-68690000D01*
X128624000Y-65930000D02*
X128624000Y-58728000D01*
X128584000Y-75879000D02*
X128584000Y-68690000D01*
X128584000Y-65930000D02*
X128584000Y-58741000D01*
X128544000Y-75865000D02*
X128544000Y-68690000D01*
X128544000Y-65930000D02*
X128544000Y-58755000D01*
X128504000Y-75851000D02*
X128504000Y-68690000D01*
X128504000Y-65930000D02*
X128504000Y-58769000D01*
X128464000Y-75837000D02*
X128464000Y-68690000D01*
X128464000Y-65930000D02*
X128464000Y-58783000D01*
X128424000Y-75823000D02*
X128424000Y-68690000D01*
X128424000Y-65930000D02*
X128424000Y-58797000D01*
X128384000Y-75808000D02*
X128384000Y-68690000D01*
X128384000Y-65930000D02*
X128384000Y-58812000D01*
X128344000Y-75794000D02*
X128344000Y-68690000D01*
X128344000Y-65930000D02*
X128344000Y-58826000D01*
X128304000Y-75779000D02*
X128304000Y-68690000D01*
X128304000Y-65930000D02*
X128304000Y-58841000D01*
X128264000Y-75763000D02*
X128264000Y-68690000D01*
X128264000Y-65930000D02*
X128264000Y-58857000D01*
X128224000Y-75748000D02*
X128224000Y-68690000D01*
X128224000Y-65930000D02*
X128224000Y-58872000D01*
X128184000Y-75733000D02*
X128184000Y-68690000D01*
X128184000Y-65930000D02*
X128184000Y-58887000D01*
X128144000Y-75717000D02*
X128144000Y-68690000D01*
X128144000Y-65930000D02*
X128144000Y-58903000D01*
X128104000Y-75701000D02*
X128104000Y-68690000D01*
X128104000Y-65930000D02*
X128104000Y-58919000D01*
X128064000Y-75684000D02*
X128064000Y-68690000D01*
X128064000Y-65930000D02*
X128064000Y-58936000D01*
X128024000Y-75668000D02*
X128024000Y-68690000D01*
X128024000Y-65930000D02*
X128024000Y-58952000D01*
X127984000Y-75651000D02*
X127984000Y-68690000D01*
X127984000Y-65930000D02*
X127984000Y-58969000D01*
X127944000Y-75634000D02*
X127944000Y-68690000D01*
X127944000Y-65930000D02*
X127944000Y-58986000D01*
X127904000Y-75617000D02*
X127904000Y-68690000D01*
X127904000Y-65930000D02*
X127904000Y-59003000D01*
X127864000Y-75600000D02*
X127864000Y-68690000D01*
X127864000Y-65930000D02*
X127864000Y-59020000D01*
X127824000Y-75582000D02*
X127824000Y-68690000D01*
X127824000Y-65930000D02*
X127824000Y-59038000D01*
X127784000Y-75564000D02*
X127784000Y-68690000D01*
X127784000Y-65930000D02*
X127784000Y-59056000D01*
X127744000Y-75546000D02*
X127744000Y-68690000D01*
X127744000Y-65930000D02*
X127744000Y-59074000D01*
X127704000Y-75528000D02*
X127704000Y-68690000D01*
X127704000Y-65930000D02*
X127704000Y-59092000D01*
X127664000Y-75510000D02*
X127664000Y-68690000D01*
X127664000Y-65930000D02*
X127664000Y-59110000D01*
X127624000Y-75491000D02*
X127624000Y-68690000D01*
X127624000Y-65930000D02*
X127624000Y-59129000D01*
X127584000Y-75472000D02*
X127584000Y-68690000D01*
X127584000Y-65930000D02*
X127584000Y-59148000D01*
X127544000Y-75453000D02*
X127544000Y-68690000D01*
X127544000Y-65930000D02*
X127544000Y-59167000D01*
X127504000Y-75433000D02*
X127504000Y-68690000D01*
X127504000Y-65930000D02*
X127504000Y-59187000D01*
X127464000Y-75413000D02*
X127464000Y-68690000D01*
X127464000Y-65930000D02*
X127464000Y-59207000D01*
X127424000Y-75393000D02*
X127424000Y-68690000D01*
X127424000Y-65930000D02*
X127424000Y-59227000D01*
X127384000Y-75373000D02*
X127384000Y-68690000D01*
X127384000Y-65930000D02*
X127384000Y-59247000D01*
X127344000Y-75353000D02*
X127344000Y-68690000D01*
X127344000Y-65930000D02*
X127344000Y-59267000D01*
X127304000Y-75332000D02*
X127304000Y-68690000D01*
X127304000Y-65930000D02*
X127304000Y-59288000D01*
X127264000Y-75311000D02*
X127264000Y-68690000D01*
X127264000Y-65930000D02*
X127264000Y-59309000D01*
X127224000Y-75290000D02*
X127224000Y-68690000D01*
X127224000Y-65930000D02*
X127224000Y-59330000D01*
X127184000Y-75268000D02*
X127184000Y-68690000D01*
X127184000Y-65930000D02*
X127184000Y-59352000D01*
X127144000Y-75247000D02*
X127144000Y-68690000D01*
X127144000Y-65930000D02*
X127144000Y-59373000D01*
X127104000Y-75225000D02*
X127104000Y-68690000D01*
X127104000Y-65930000D02*
X127104000Y-59395000D01*
X127064000Y-75202000D02*
X127064000Y-68690000D01*
X127064000Y-65930000D02*
X127064000Y-59418000D01*
X127024000Y-75180000D02*
X127024000Y-68690000D01*
X127024000Y-65930000D02*
X127024000Y-59440000D01*
X126984000Y-75157000D02*
X126984000Y-68690000D01*
X126984000Y-65930000D02*
X126984000Y-59463000D01*
X126944000Y-75134000D02*
X126944000Y-68690000D01*
X126944000Y-65930000D02*
X126944000Y-59486000D01*
X126904000Y-75111000D02*
X126904000Y-68690000D01*
X126904000Y-65930000D02*
X126904000Y-59509000D01*
X126864000Y-75087000D02*
X126864000Y-68690000D01*
X126864000Y-65930000D02*
X126864000Y-59533000D01*
X126824000Y-75063000D02*
X126824000Y-68690000D01*
X126824000Y-65930000D02*
X126824000Y-59557000D01*
X126784000Y-75039000D02*
X126784000Y-68690000D01*
X126784000Y-65930000D02*
X126784000Y-59581000D01*
X126744000Y-75015000D02*
X126744000Y-68690000D01*
X126744000Y-65930000D02*
X126744000Y-59605000D01*
X126704000Y-74990000D02*
X126704000Y-68690000D01*
X126704000Y-65930000D02*
X126704000Y-59630000D01*
X126664000Y-74965000D02*
X126664000Y-68690000D01*
X126664000Y-65930000D02*
X126664000Y-59655000D01*
X126624000Y-74940000D02*
X126624000Y-68690000D01*
X126624000Y-65930000D02*
X126624000Y-59680000D01*
X126584000Y-74914000D02*
X126584000Y-68690000D01*
X126584000Y-65930000D02*
X126584000Y-59706000D01*
X126544000Y-74888000D02*
X126544000Y-68690000D01*
X126544000Y-65930000D02*
X126544000Y-59732000D01*
X126504000Y-74862000D02*
X126504000Y-68690000D01*
X126504000Y-65930000D02*
X126504000Y-59758000D01*
X126464000Y-74835000D02*
X126464000Y-68690000D01*
X126464000Y-65930000D02*
X126464000Y-59785000D01*
X126424000Y-74809000D02*
X126424000Y-68690000D01*
X126424000Y-65930000D02*
X126424000Y-59811000D01*
X126384000Y-74781000D02*
X126384000Y-68690000D01*
X126384000Y-65930000D02*
X126384000Y-59839000D01*
X126344000Y-74754000D02*
X126344000Y-59866000D01*
X126304000Y-74726000D02*
X126304000Y-59894000D01*
X126264000Y-74698000D02*
X126264000Y-59922000D01*
X126224000Y-74670000D02*
X126224000Y-59950000D01*
X126184000Y-74641000D02*
X126184000Y-59979000D01*
X126144000Y-74612000D02*
X126144000Y-60008000D01*
X126104000Y-74583000D02*
X126104000Y-60037000D01*
X126064000Y-74553000D02*
X126064000Y-60067000D01*
X126024000Y-74523000D02*
X126024000Y-60097000D01*
X125984000Y-74493000D02*
X125984000Y-60127000D01*
X125944000Y-74462000D02*
X125944000Y-60158000D01*
X125904000Y-74431000D02*
X125904000Y-60189000D01*
X125864000Y-74399000D02*
X125864000Y-60221000D01*
X125824000Y-74367000D02*
X125824000Y-60253000D01*
X125784000Y-74335000D02*
X125784000Y-60285000D01*
X125744000Y-74303000D02*
X125744000Y-60317000D01*
X125704000Y-74270000D02*
X125704000Y-60350000D01*
X125664000Y-74236000D02*
X125664000Y-60384000D01*
X125624000Y-74203000D02*
X125624000Y-60417000D01*
X125584000Y-74168000D02*
X125584000Y-60452000D01*
X125544000Y-74134000D02*
X125544000Y-60486000D01*
X125504000Y-74099000D02*
X125504000Y-60521000D01*
X125464000Y-74064000D02*
X125464000Y-60556000D01*
X125424000Y-74028000D02*
X125424000Y-60592000D01*
X125384000Y-73992000D02*
X125384000Y-60628000D01*
X125344000Y-73955000D02*
X125344000Y-60665000D01*
X125304000Y-73918000D02*
X125304000Y-60702000D01*
X125264000Y-73880000D02*
X125264000Y-60740000D01*
X125224000Y-73842000D02*
X125224000Y-60778000D01*
X125184000Y-73804000D02*
X125184000Y-60816000D01*
X125144000Y-73765000D02*
X125144000Y-60855000D01*
X125104000Y-73726000D02*
X125104000Y-60894000D01*
X125064000Y-73686000D02*
X125064000Y-60934000D01*
X125024000Y-73645000D02*
X125024000Y-60975000D01*
X124984000Y-73604000D02*
X124984000Y-61016000D01*
X124944000Y-73563000D02*
X124944000Y-61057000D01*
X124904000Y-73521000D02*
X124904000Y-61099000D01*
X124864000Y-73478000D02*
X124864000Y-61142000D01*
X124824000Y-73435000D02*
X124824000Y-61185000D01*
X124784000Y-73392000D02*
X124784000Y-61228000D01*
X124744000Y-73348000D02*
X124744000Y-61272000D01*
X124704000Y-73303000D02*
X124704000Y-61317000D01*
X124664000Y-73257000D02*
X124664000Y-61363000D01*
X124624000Y-73211000D02*
X124624000Y-61409000D01*
X124584000Y-73165000D02*
X124584000Y-61455000D01*
X124544000Y-73117000D02*
X124544000Y-61503000D01*
X124504000Y-73069000D02*
X124504000Y-61551000D01*
X124464000Y-73021000D02*
X124464000Y-61599000D01*
X124424000Y-72972000D02*
X124424000Y-61648000D01*
X124384000Y-72921000D02*
X124384000Y-61699000D01*
X124344000Y-72871000D02*
X124344000Y-61749000D01*
X124304000Y-72819000D02*
X124304000Y-61801000D01*
X124264000Y-72767000D02*
X124264000Y-61853000D01*
X124224000Y-72714000D02*
X124224000Y-61906000D01*
X124184000Y-72660000D02*
X124184000Y-61960000D01*
X124144000Y-72605000D02*
X124144000Y-62015000D01*
X124104000Y-72550000D02*
X124104000Y-62070000D01*
X124064000Y-72493000D02*
X124064000Y-62127000D01*
X124024000Y-72436000D02*
X124024000Y-62184000D01*
X123984000Y-72377000D02*
X123984000Y-62243000D01*
X123944000Y-72318000D02*
X123944000Y-62302000D01*
X123904000Y-72257000D02*
X123904000Y-62363000D01*
X123864000Y-72196000D02*
X123864000Y-62424000D01*
X123824000Y-72133000D02*
X123824000Y-62487000D01*
X123784000Y-72069000D02*
X123784000Y-62551000D01*
X123744000Y-72004000D02*
X123744000Y-62616000D01*
X123704000Y-71938000D02*
X123704000Y-62682000D01*
X123664000Y-71871000D02*
X123664000Y-62749000D01*
X123624000Y-71802000D02*
X123624000Y-62818000D01*
X123584000Y-71732000D02*
X123584000Y-62888000D01*
X123544000Y-71660000D02*
X123544000Y-62960000D01*
X123504000Y-71587000D02*
X123504000Y-63033000D01*
X123464000Y-71512000D02*
X123464000Y-63108000D01*
X123424000Y-71435000D02*
X123424000Y-63185000D01*
X123384000Y-71356000D02*
X123384000Y-63264000D01*
X123344000Y-71276000D02*
X123344000Y-63344000D01*
X123305000Y-71193000D02*
X123305000Y-63427000D01*
X123265000Y-71109000D02*
X123265000Y-63511000D01*
X123225000Y-71021000D02*
X123225000Y-63599000D01*
X123185000Y-70932000D02*
X123185000Y-63688000D01*
X123145000Y-70840000D02*
X123145000Y-63780000D01*
X123105000Y-70744000D02*
X123105000Y-63876000D01*
X123065000Y-70646000D02*
X123065000Y-63974000D01*
X123025000Y-70544000D02*
X123025000Y-64076000D01*
X122985000Y-70439000D02*
X122985000Y-64181000D01*
X122945000Y-70329000D02*
X122945000Y-64291000D01*
X122905000Y-70215000D02*
X122905000Y-64405000D01*
X122865000Y-70095000D02*
X122865000Y-64525000D01*
X122825000Y-69970000D02*
X122825000Y-64650000D01*
X122785000Y-69838000D02*
X122785000Y-64782000D01*
X122745000Y-69698000D02*
X122745000Y-64922000D01*
X122705000Y-69548000D02*
X122705000Y-65072000D01*
X122665000Y-69388000D02*
X122665000Y-65232000D01*
X122625000Y-69213000D02*
X122625000Y-65407000D01*
X122585000Y-69020000D02*
X122585000Y-65600000D01*
X122545000Y-68802000D02*
X122545000Y-65818000D01*
X122505000Y-68546000D02*
X122505000Y-66074000D01*
X122465000Y-68223000D02*
X122465000Y-66397000D01*
X122425000Y-67697000D02*
X122425000Y-66923000D01*
X138455000Y-67310000D02*
X136655000Y-67310000D01*
X137555000Y-68210000D02*
X137555000Y-66410000D01*
X198072500Y-111322500D02*
X196302500Y-111322500D01*
X196302500Y-111322500D02*
X196302500Y-147122500D01*
X196302500Y-147122500D02*
X201842500Y-147122500D01*
X201842500Y-147122500D02*
X201842500Y-111322500D01*
X201842500Y-111322500D02*
X200072500Y-111322500D01*
X193872500Y-111322500D02*
X193872500Y-147122500D01*
X193872500Y-147122500D02*
X204272500Y-147122500D01*
X204272500Y-147122500D02*
X204272500Y-111322500D01*
X204272500Y-111322500D02*
X193872500Y-111322500D01*
X200072500Y-111322500D02*
G75*
G02X198072500Y-111322500I-1000000J0D01*
G01*
X176470000Y-121345000D02*
X179130000Y-121345000D01*
X176470000Y-113665000D02*
X176470000Y-121345000D01*
X179130000Y-113665000D02*
X179130000Y-121345000D01*
X176470000Y-113665000D02*
X179130000Y-113665000D01*
X176470000Y-112395000D02*
X176470000Y-111065000D01*
X176470000Y-111065000D02*
X177800000Y-111065000D01*
X131960000Y-140065000D02*
X131960000Y-141835000D01*
X131960000Y-141835000D02*
X162680000Y-141835000D01*
X162680000Y-141835000D02*
X162680000Y-136295000D01*
X162680000Y-136295000D02*
X131960000Y-136295000D01*
X131960000Y-136295000D02*
X131960000Y-138065000D01*
X131960000Y-144265000D02*
X162680000Y-144265000D01*
X162680000Y-144265000D02*
X162680000Y-133865000D01*
X162680000Y-133865000D02*
X131960000Y-133865000D01*
X131960000Y-133865000D02*
X131960000Y-144265000D01*
X131960000Y-138065000D02*
G75*
G02X131960000Y-140065000I0J-1000000D01*
G01*
X194318000Y-93560000D02*
X195318000Y-93560000D01*
X195318000Y-91860000D02*
X194318000Y-91860000D01*
X189307500Y-127067500D02*
X188137500Y-127067500D01*
X184737500Y-127067500D02*
X185907500Y-127067500D01*
X185497500Y-122487500D02*
X185907500Y-122487500D01*
X188547500Y-122487500D02*
X188137500Y-122487500D01*
X189307500Y-123257500D02*
X189307500Y-127067500D01*
X189307500Y-123257500D02*
X188547500Y-122487500D01*
X184737500Y-123257500D02*
X184737500Y-127067500D01*
X184737500Y-123257500D02*
X185497500Y-122487500D01*
X183613500Y-132747500D02*
X183613500Y-132047500D01*
X184813500Y-132047500D02*
X184813500Y-132747500D01*
X191837500Y-125777500D02*
X191837500Y-123777500D01*
X189797500Y-123777500D02*
X189797500Y-125777500D01*
X184813500Y-135857500D02*
X184813500Y-136557500D01*
X183613500Y-136557500D02*
X183613500Y-135857500D01*
X140595000Y-87630000D02*
G75*
G03X140595000Y-87630000I-9090000J0D01*
G01*
X131505000Y-96680000D02*
X131505000Y-78580000D01*
X131465000Y-96680000D02*
X131465000Y-78580000D01*
X131425000Y-96680000D02*
X131425000Y-78580000D01*
X131385000Y-96680000D02*
X131385000Y-78580000D01*
X131345000Y-96679000D02*
X131345000Y-78581000D01*
X131305000Y-96678000D02*
X131305000Y-78582000D01*
X131265000Y-96677000D02*
X131265000Y-78583000D01*
X131225000Y-96676000D02*
X131225000Y-78584000D01*
X131185000Y-96675000D02*
X131185000Y-78585000D01*
X131145000Y-96673000D02*
X131145000Y-78587000D01*
X131105000Y-96672000D02*
X131105000Y-78588000D01*
X131065000Y-96670000D02*
X131065000Y-78590000D01*
X131025000Y-96668000D02*
X131025000Y-78592000D01*
X130985000Y-96666000D02*
X130985000Y-78594000D01*
X130945000Y-96663000D02*
X130945000Y-78597000D01*
X130905000Y-96661000D02*
X130905000Y-78599000D01*
X130865000Y-96658000D02*
X130865000Y-78602000D01*
X130825000Y-96655000D02*
X130825000Y-78605000D01*
X130784000Y-96652000D02*
X130784000Y-78608000D01*
X130744000Y-96649000D02*
X130744000Y-78611000D01*
X130704000Y-96645000D02*
X130704000Y-78615000D01*
X130664000Y-96642000D02*
X130664000Y-78618000D01*
X130624000Y-96638000D02*
X130624000Y-78622000D01*
X130584000Y-96634000D02*
X130584000Y-78626000D01*
X130544000Y-96630000D02*
X130544000Y-78630000D01*
X130504000Y-96625000D02*
X130504000Y-78635000D01*
X130464000Y-96621000D02*
X130464000Y-78639000D01*
X130424000Y-96616000D02*
X130424000Y-78644000D01*
X130384000Y-96611000D02*
X130384000Y-78649000D01*
X130344000Y-96606000D02*
X130344000Y-78654000D01*
X130304000Y-96601000D02*
X130304000Y-78659000D01*
X130264000Y-96596000D02*
X130264000Y-78664000D01*
X130224000Y-96590000D02*
X130224000Y-78670000D01*
X130184000Y-96584000D02*
X130184000Y-78676000D01*
X130144000Y-96578000D02*
X130144000Y-78682000D01*
X130104000Y-96572000D02*
X130104000Y-78688000D01*
X130064000Y-96566000D02*
X130064000Y-78694000D01*
X130024000Y-96559000D02*
X130024000Y-78701000D01*
X129984000Y-96553000D02*
X129984000Y-78707000D01*
X129944000Y-96546000D02*
X129944000Y-78714000D01*
X129904000Y-96539000D02*
X129904000Y-78721000D01*
X129864000Y-96531000D02*
X129864000Y-78729000D01*
X129824000Y-96524000D02*
X129824000Y-78736000D01*
X129784000Y-96516000D02*
X129784000Y-78744000D01*
X129744000Y-96508000D02*
X129744000Y-78752000D01*
X129704000Y-96500000D02*
X129704000Y-78760000D01*
X129664000Y-96492000D02*
X129664000Y-78768000D01*
X129624000Y-96484000D02*
X129624000Y-78776000D01*
X129584000Y-96475000D02*
X129584000Y-78785000D01*
X129544000Y-96467000D02*
X129544000Y-78793000D01*
X129504000Y-96458000D02*
X129504000Y-78802000D01*
X129464000Y-96449000D02*
X129464000Y-78811000D01*
X129424000Y-96439000D02*
X129424000Y-78821000D01*
X129384000Y-96430000D02*
X129384000Y-78830000D01*
X129344000Y-96420000D02*
X129344000Y-78840000D01*
X129304000Y-96410000D02*
X129304000Y-78850000D01*
X129264000Y-96400000D02*
X129264000Y-78860000D01*
X129224000Y-96390000D02*
X129224000Y-78870000D01*
X129184000Y-96379000D02*
X129184000Y-78881000D01*
X129144000Y-96369000D02*
X129144000Y-78891000D01*
X129104000Y-96358000D02*
X129104000Y-89010000D01*
X129104000Y-86250000D02*
X129104000Y-78902000D01*
X129064000Y-96347000D02*
X129064000Y-89010000D01*
X129064000Y-86250000D02*
X129064000Y-78913000D01*
X129024000Y-96336000D02*
X129024000Y-89010000D01*
X129024000Y-86250000D02*
X129024000Y-78924000D01*
X128984000Y-96324000D02*
X128984000Y-89010000D01*
X128984000Y-86250000D02*
X128984000Y-78936000D01*
X128944000Y-96313000D02*
X128944000Y-89010000D01*
X128944000Y-86250000D02*
X128944000Y-78947000D01*
X128904000Y-96301000D02*
X128904000Y-89010000D01*
X128904000Y-86250000D02*
X128904000Y-78959000D01*
X128864000Y-96289000D02*
X128864000Y-89010000D01*
X128864000Y-86250000D02*
X128864000Y-78971000D01*
X128824000Y-96276000D02*
X128824000Y-89010000D01*
X128824000Y-86250000D02*
X128824000Y-78984000D01*
X128784000Y-96264000D02*
X128784000Y-89010000D01*
X128784000Y-86250000D02*
X128784000Y-78996000D01*
X128744000Y-96251000D02*
X128744000Y-89010000D01*
X128744000Y-86250000D02*
X128744000Y-79009000D01*
X128704000Y-96239000D02*
X128704000Y-89010000D01*
X128704000Y-86250000D02*
X128704000Y-79021000D01*
X128664000Y-96225000D02*
X128664000Y-89010000D01*
X128664000Y-86250000D02*
X128664000Y-79035000D01*
X128624000Y-96212000D02*
X128624000Y-89010000D01*
X128624000Y-86250000D02*
X128624000Y-79048000D01*
X128584000Y-96199000D02*
X128584000Y-89010000D01*
X128584000Y-86250000D02*
X128584000Y-79061000D01*
X128544000Y-96185000D02*
X128544000Y-89010000D01*
X128544000Y-86250000D02*
X128544000Y-79075000D01*
X128504000Y-96171000D02*
X128504000Y-89010000D01*
X128504000Y-86250000D02*
X128504000Y-79089000D01*
X128464000Y-96157000D02*
X128464000Y-89010000D01*
X128464000Y-86250000D02*
X128464000Y-79103000D01*
X128424000Y-96143000D02*
X128424000Y-89010000D01*
X128424000Y-86250000D02*
X128424000Y-79117000D01*
X128384000Y-96128000D02*
X128384000Y-89010000D01*
X128384000Y-86250000D02*
X128384000Y-79132000D01*
X128344000Y-96114000D02*
X128344000Y-89010000D01*
X128344000Y-86250000D02*
X128344000Y-79146000D01*
X128304000Y-96099000D02*
X128304000Y-89010000D01*
X128304000Y-86250000D02*
X128304000Y-79161000D01*
X128264000Y-96083000D02*
X128264000Y-89010000D01*
X128264000Y-86250000D02*
X128264000Y-79177000D01*
X128224000Y-96068000D02*
X128224000Y-89010000D01*
X128224000Y-86250000D02*
X128224000Y-79192000D01*
X128184000Y-96053000D02*
X128184000Y-89010000D01*
X128184000Y-86250000D02*
X128184000Y-79207000D01*
X128144000Y-96037000D02*
X128144000Y-89010000D01*
X128144000Y-86250000D02*
X128144000Y-79223000D01*
X128104000Y-96021000D02*
X128104000Y-89010000D01*
X128104000Y-86250000D02*
X128104000Y-79239000D01*
X128064000Y-96004000D02*
X128064000Y-89010000D01*
X128064000Y-86250000D02*
X128064000Y-79256000D01*
X128024000Y-95988000D02*
X128024000Y-89010000D01*
X128024000Y-86250000D02*
X128024000Y-79272000D01*
X127984000Y-95971000D02*
X127984000Y-89010000D01*
X127984000Y-86250000D02*
X127984000Y-79289000D01*
X127944000Y-95954000D02*
X127944000Y-89010000D01*
X127944000Y-86250000D02*
X127944000Y-79306000D01*
X127904000Y-95937000D02*
X127904000Y-89010000D01*
X127904000Y-86250000D02*
X127904000Y-79323000D01*
X127864000Y-95920000D02*
X127864000Y-89010000D01*
X127864000Y-86250000D02*
X127864000Y-79340000D01*
X127824000Y-95902000D02*
X127824000Y-89010000D01*
X127824000Y-86250000D02*
X127824000Y-79358000D01*
X127784000Y-95884000D02*
X127784000Y-89010000D01*
X127784000Y-86250000D02*
X127784000Y-79376000D01*
X127744000Y-95866000D02*
X127744000Y-89010000D01*
X127744000Y-86250000D02*
X127744000Y-79394000D01*
X127704000Y-95848000D02*
X127704000Y-89010000D01*
X127704000Y-86250000D02*
X127704000Y-79412000D01*
X127664000Y-95830000D02*
X127664000Y-89010000D01*
X127664000Y-86250000D02*
X127664000Y-79430000D01*
X127624000Y-95811000D02*
X127624000Y-89010000D01*
X127624000Y-86250000D02*
X127624000Y-79449000D01*
X127584000Y-95792000D02*
X127584000Y-89010000D01*
X127584000Y-86250000D02*
X127584000Y-79468000D01*
X127544000Y-95773000D02*
X127544000Y-89010000D01*
X127544000Y-86250000D02*
X127544000Y-79487000D01*
X127504000Y-95753000D02*
X127504000Y-89010000D01*
X127504000Y-86250000D02*
X127504000Y-79507000D01*
X127464000Y-95733000D02*
X127464000Y-89010000D01*
X127464000Y-86250000D02*
X127464000Y-79527000D01*
X127424000Y-95713000D02*
X127424000Y-89010000D01*
X127424000Y-86250000D02*
X127424000Y-79547000D01*
X127384000Y-95693000D02*
X127384000Y-89010000D01*
X127384000Y-86250000D02*
X127384000Y-79567000D01*
X127344000Y-95673000D02*
X127344000Y-89010000D01*
X127344000Y-86250000D02*
X127344000Y-79587000D01*
X127304000Y-95652000D02*
X127304000Y-89010000D01*
X127304000Y-86250000D02*
X127304000Y-79608000D01*
X127264000Y-95631000D02*
X127264000Y-89010000D01*
X127264000Y-86250000D02*
X127264000Y-79629000D01*
X127224000Y-95610000D02*
X127224000Y-89010000D01*
X127224000Y-86250000D02*
X127224000Y-79650000D01*
X127184000Y-95588000D02*
X127184000Y-89010000D01*
X127184000Y-86250000D02*
X127184000Y-79672000D01*
X127144000Y-95567000D02*
X127144000Y-89010000D01*
X127144000Y-86250000D02*
X127144000Y-79693000D01*
X127104000Y-95545000D02*
X127104000Y-89010000D01*
X127104000Y-86250000D02*
X127104000Y-79715000D01*
X127064000Y-95522000D02*
X127064000Y-89010000D01*
X127064000Y-86250000D02*
X127064000Y-79738000D01*
X127024000Y-95500000D02*
X127024000Y-89010000D01*
X127024000Y-86250000D02*
X127024000Y-79760000D01*
X126984000Y-95477000D02*
X126984000Y-89010000D01*
X126984000Y-86250000D02*
X126984000Y-79783000D01*
X126944000Y-95454000D02*
X126944000Y-89010000D01*
X126944000Y-86250000D02*
X126944000Y-79806000D01*
X126904000Y-95431000D02*
X126904000Y-89010000D01*
X126904000Y-86250000D02*
X126904000Y-79829000D01*
X126864000Y-95407000D02*
X126864000Y-89010000D01*
X126864000Y-86250000D02*
X126864000Y-79853000D01*
X126824000Y-95383000D02*
X126824000Y-89010000D01*
X126824000Y-86250000D02*
X126824000Y-79877000D01*
X126784000Y-95359000D02*
X126784000Y-89010000D01*
X126784000Y-86250000D02*
X126784000Y-79901000D01*
X126744000Y-95335000D02*
X126744000Y-89010000D01*
X126744000Y-86250000D02*
X126744000Y-79925000D01*
X126704000Y-95310000D02*
X126704000Y-89010000D01*
X126704000Y-86250000D02*
X126704000Y-79950000D01*
X126664000Y-95285000D02*
X126664000Y-89010000D01*
X126664000Y-86250000D02*
X126664000Y-79975000D01*
X126624000Y-95260000D02*
X126624000Y-89010000D01*
X126624000Y-86250000D02*
X126624000Y-80000000D01*
X126584000Y-95234000D02*
X126584000Y-89010000D01*
X126584000Y-86250000D02*
X126584000Y-80026000D01*
X126544000Y-95208000D02*
X126544000Y-89010000D01*
X126544000Y-86250000D02*
X126544000Y-80052000D01*
X126504000Y-95182000D02*
X126504000Y-89010000D01*
X126504000Y-86250000D02*
X126504000Y-80078000D01*
X126464000Y-95155000D02*
X126464000Y-89010000D01*
X126464000Y-86250000D02*
X126464000Y-80105000D01*
X126424000Y-95129000D02*
X126424000Y-89010000D01*
X126424000Y-86250000D02*
X126424000Y-80131000D01*
X126384000Y-95101000D02*
X126384000Y-89010000D01*
X126384000Y-86250000D02*
X126384000Y-80159000D01*
X126344000Y-95074000D02*
X126344000Y-80186000D01*
X126304000Y-95046000D02*
X126304000Y-80214000D01*
X126264000Y-95018000D02*
X126264000Y-80242000D01*
X126224000Y-94990000D02*
X126224000Y-80270000D01*
X126184000Y-94961000D02*
X126184000Y-80299000D01*
X126144000Y-94932000D02*
X126144000Y-80328000D01*
X126104000Y-94903000D02*
X126104000Y-80357000D01*
X126064000Y-94873000D02*
X126064000Y-80387000D01*
X126024000Y-94843000D02*
X126024000Y-80417000D01*
X125984000Y-94813000D02*
X125984000Y-80447000D01*
X125944000Y-94782000D02*
X125944000Y-80478000D01*
X125904000Y-94751000D02*
X125904000Y-80509000D01*
X125864000Y-94719000D02*
X125864000Y-80541000D01*
X125824000Y-94687000D02*
X125824000Y-80573000D01*
X125784000Y-94655000D02*
X125784000Y-80605000D01*
X125744000Y-94623000D02*
X125744000Y-80637000D01*
X125704000Y-94590000D02*
X125704000Y-80670000D01*
X125664000Y-94556000D02*
X125664000Y-80704000D01*
X125624000Y-94523000D02*
X125624000Y-80737000D01*
X125584000Y-94488000D02*
X125584000Y-80772000D01*
X125544000Y-94454000D02*
X125544000Y-80806000D01*
X125504000Y-94419000D02*
X125504000Y-80841000D01*
X125464000Y-94384000D02*
X125464000Y-80876000D01*
X125424000Y-94348000D02*
X125424000Y-80912000D01*
X125384000Y-94312000D02*
X125384000Y-80948000D01*
X125344000Y-94275000D02*
X125344000Y-80985000D01*
X125304000Y-94238000D02*
X125304000Y-81022000D01*
X125264000Y-94200000D02*
X125264000Y-81060000D01*
X125224000Y-94162000D02*
X125224000Y-81098000D01*
X125184000Y-94124000D02*
X125184000Y-81136000D01*
X125144000Y-94085000D02*
X125144000Y-81175000D01*
X125104000Y-94046000D02*
X125104000Y-81214000D01*
X125064000Y-94006000D02*
X125064000Y-81254000D01*
X125024000Y-93965000D02*
X125024000Y-81295000D01*
X124984000Y-93924000D02*
X124984000Y-81336000D01*
X124944000Y-93883000D02*
X124944000Y-81377000D01*
X124904000Y-93841000D02*
X124904000Y-81419000D01*
X124864000Y-93798000D02*
X124864000Y-81462000D01*
X124824000Y-93755000D02*
X124824000Y-81505000D01*
X124784000Y-93712000D02*
X124784000Y-81548000D01*
X124744000Y-93668000D02*
X124744000Y-81592000D01*
X124704000Y-93623000D02*
X124704000Y-81637000D01*
X124664000Y-93577000D02*
X124664000Y-81683000D01*
X124624000Y-93531000D02*
X124624000Y-81729000D01*
X124584000Y-93485000D02*
X124584000Y-81775000D01*
X124544000Y-93437000D02*
X124544000Y-81823000D01*
X124504000Y-93389000D02*
X124504000Y-81871000D01*
X124464000Y-93341000D02*
X124464000Y-81919000D01*
X124424000Y-93292000D02*
X124424000Y-81968000D01*
X124384000Y-93241000D02*
X124384000Y-82019000D01*
X124344000Y-93191000D02*
X124344000Y-82069000D01*
X124304000Y-93139000D02*
X124304000Y-82121000D01*
X124264000Y-93087000D02*
X124264000Y-82173000D01*
X124224000Y-93034000D02*
X124224000Y-82226000D01*
X124184000Y-92980000D02*
X124184000Y-82280000D01*
X124144000Y-92925000D02*
X124144000Y-82335000D01*
X124104000Y-92870000D02*
X124104000Y-82390000D01*
X124064000Y-92813000D02*
X124064000Y-82447000D01*
X124024000Y-92756000D02*
X124024000Y-82504000D01*
X123984000Y-92697000D02*
X123984000Y-82563000D01*
X123944000Y-92638000D02*
X123944000Y-82622000D01*
X123904000Y-92577000D02*
X123904000Y-82683000D01*
X123864000Y-92516000D02*
X123864000Y-82744000D01*
X123824000Y-92453000D02*
X123824000Y-82807000D01*
X123784000Y-92389000D02*
X123784000Y-82871000D01*
X123744000Y-92324000D02*
X123744000Y-82936000D01*
X123704000Y-92258000D02*
X123704000Y-83002000D01*
X123664000Y-92191000D02*
X123664000Y-83069000D01*
X123624000Y-92122000D02*
X123624000Y-83138000D01*
X123584000Y-92052000D02*
X123584000Y-83208000D01*
X123544000Y-91980000D02*
X123544000Y-83280000D01*
X123504000Y-91907000D02*
X123504000Y-83353000D01*
X123464000Y-91832000D02*
X123464000Y-83428000D01*
X123424000Y-91755000D02*
X123424000Y-83505000D01*
X123384000Y-91676000D02*
X123384000Y-83584000D01*
X123344000Y-91596000D02*
X123344000Y-83664000D01*
X123305000Y-91513000D02*
X123305000Y-83747000D01*
X123265000Y-91429000D02*
X123265000Y-83831000D01*
X123225000Y-91341000D02*
X123225000Y-83919000D01*
X123185000Y-91252000D02*
X123185000Y-84008000D01*
X123145000Y-91160000D02*
X123145000Y-84100000D01*
X123105000Y-91064000D02*
X123105000Y-84196000D01*
X123065000Y-90966000D02*
X123065000Y-84294000D01*
X123025000Y-90864000D02*
X123025000Y-84396000D01*
X122985000Y-90759000D02*
X122985000Y-84501000D01*
X122945000Y-90649000D02*
X122945000Y-84611000D01*
X122905000Y-90535000D02*
X122905000Y-84725000D01*
X122865000Y-90415000D02*
X122865000Y-84845000D01*
X122825000Y-90290000D02*
X122825000Y-84970000D01*
X122785000Y-90158000D02*
X122785000Y-85102000D01*
X122745000Y-90018000D02*
X122745000Y-85242000D01*
X122705000Y-89868000D02*
X122705000Y-85392000D01*
X122665000Y-89708000D02*
X122665000Y-85552000D01*
X122625000Y-89533000D02*
X122625000Y-85727000D01*
X122585000Y-89340000D02*
X122585000Y-85920000D01*
X122545000Y-89122000D02*
X122545000Y-86138000D01*
X122505000Y-88866000D02*
X122505000Y-86394000D01*
X122465000Y-88543000D02*
X122465000Y-86717000D01*
X122425000Y-88017000D02*
X122425000Y-87243000D01*
X138455000Y-87630000D02*
X136655000Y-87630000D01*
X137555000Y-88530000D02*
X137555000Y-86730000D01*
X160405000Y-87995000D02*
X160405000Y-85995000D01*
X158365000Y-85995000D02*
X158365000Y-87995000D01*
X131195000Y-140065000D02*
X131195000Y-138065000D01*
X129155000Y-138065000D02*
X129155000Y-140065000D01*
X152670000Y-86110000D02*
X154670000Y-86110000D01*
X154670000Y-84070000D02*
X152670000Y-84070000D01*
X168035000Y-141355000D02*
X166865000Y-141355000D01*
X163465000Y-141355000D02*
X164635000Y-141355000D01*
X164225000Y-136775000D02*
X164635000Y-136775000D01*
X167275000Y-136775000D02*
X166865000Y-136775000D01*
X168035000Y-137545000D02*
X168035000Y-141355000D01*
X168035000Y-137545000D02*
X167275000Y-136775000D01*
X163465000Y-137545000D02*
X163465000Y-141355000D01*
X163465000Y-137545000D02*
X164225000Y-136775000D01*
X144280000Y-85940000D02*
X145280000Y-85940000D01*
X145280000Y-84240000D02*
X144280000Y-84240000D01*
X145630000Y-100830000D02*
X145630000Y-99830000D01*
X143930000Y-99830000D02*
X143930000Y-100830000D01*
X147820000Y-95670000D02*
X146820000Y-95670000D01*
X146820000Y-97370000D02*
X147820000Y-97370000D01*
X158365000Y-93615000D02*
X158365000Y-95615000D01*
X160405000Y-95615000D02*
X160405000Y-93615000D01*
X196358000Y-97540000D02*
X198358000Y-97540000D01*
X198358000Y-95500000D02*
X196358000Y-95500000D01*
X167275000Y-97540000D02*
X169275000Y-97540000D01*
X169275000Y-95500000D02*
X167275000Y-95500000D01*
X165235000Y-93560000D02*
X166235000Y-93560000D01*
X166235000Y-91860000D02*
X165235000Y-91860000D01*
X150225000Y-77540000D02*
X150225000Y-74340000D01*
X149277157Y-72553521D02*
G75*
G03X144145000Y-72517000I-2592157J-3646479D01*
G01*
X142877895Y-73909182D02*
G75*
G03X142875000Y-78486000I3807105J-2290818D01*
G01*
X144092843Y-79846479D02*
G75*
G03X149225000Y-79883000I2592157J3646479D01*
G01*
X153290000Y-95221000D02*
X156590000Y-95221000D01*
X153290000Y-98015000D02*
X156590000Y-98015000D01*
X156590000Y-98015000D02*
X156590000Y-92615000D01*
X153290000Y-98015000D02*
X153290000Y-92615000D01*
X152315000Y-108055000D02*
X151215000Y-108055000D01*
X151215000Y-108055000D02*
X151215000Y-110655000D01*
X152315000Y-108055000D02*
X152315000Y-110655000D01*
X218400000Y-65960000D02*
X220900000Y-65960000D01*
X210900000Y-65960000D02*
X213400000Y-65960000D01*
X210900000Y-77960000D02*
X213400000Y-77960000D01*
X220900000Y-77960000D02*
X218400000Y-77960000D01*
X215900000Y-67460000D02*
X215900000Y-76460000D01*
X218400000Y-67460000D02*
X213400000Y-67460000D01*
X218400000Y-76460000D02*
X213400000Y-76460000D01*
X217800000Y-81960000D02*
X218400000Y-81960000D01*
X214000000Y-61960000D02*
X213400000Y-61960000D01*
X213400000Y-61960000D02*
X213400000Y-81960000D01*
X213400000Y-81960000D02*
X214000000Y-81960000D01*
X218400000Y-81960000D02*
X218400000Y-61960000D01*
X218400000Y-61960000D02*
X217800000Y-61960000D01*
X217800000Y-83960000D02*
X220900000Y-83960000D01*
X214000000Y-59960000D02*
X210900000Y-59960000D01*
X210900000Y-59960000D02*
X210900000Y-83960000D01*
X210900000Y-83960000D02*
X214000000Y-83960000D01*
X220900000Y-83960000D02*
X220900000Y-59960000D01*
X220900000Y-59960000D02*
X217800000Y-59960000D01*
X189190000Y-65960000D02*
X191690000Y-65960000D01*
X181690000Y-65960000D02*
X184190000Y-65960000D01*
X181690000Y-77960000D02*
X184190000Y-77960000D01*
X191690000Y-77960000D02*
X189190000Y-77960000D01*
X186690000Y-67460000D02*
X186690000Y-76460000D01*
X189190000Y-67460000D02*
X184190000Y-67460000D01*
X189190000Y-76460000D02*
X184190000Y-76460000D01*
X188590000Y-81960000D02*
X189190000Y-81960000D01*
X184790000Y-61960000D02*
X184190000Y-61960000D01*
X184190000Y-61960000D02*
X184190000Y-81960000D01*
X184190000Y-81960000D02*
X184790000Y-81960000D01*
X189190000Y-81960000D02*
X189190000Y-61960000D01*
X189190000Y-61960000D02*
X188590000Y-61960000D01*
X188590000Y-83960000D02*
X191690000Y-83960000D01*
X184790000Y-59960000D02*
X181690000Y-59960000D01*
X181690000Y-59960000D02*
X181690000Y-83960000D01*
X181690000Y-83960000D02*
X184790000Y-83960000D01*
X191690000Y-83960000D02*
X191690000Y-59960000D01*
X191690000Y-59960000D02*
X188590000Y-59960000D01*
X141495000Y-57835000D02*
X141495000Y-70435000D01*
X141495000Y-70435000D02*
X156895000Y-70435000D01*
X156895000Y-70435000D02*
X156895000Y-69485000D01*
X156895000Y-69485000D02*
X157395000Y-69785000D01*
X157395000Y-69785000D02*
X157395000Y-67785000D01*
X157395000Y-67785000D02*
X156895000Y-68035000D01*
X156895000Y-68035000D02*
X156895000Y-62635000D01*
X156895000Y-62635000D02*
X157395000Y-62885000D01*
X157395000Y-62885000D02*
X157395000Y-57835000D01*
X157395000Y-57835000D02*
X141495000Y-57835000D01*
X157540000Y-149285000D02*
X157540000Y-146625000D01*
X139700000Y-149285000D02*
X157540000Y-149285000D01*
X139700000Y-146625000D02*
X157540000Y-146625000D01*
X139700000Y-149285000D02*
X139700000Y-146625000D01*
X138430000Y-149285000D02*
X137100000Y-149285000D01*
X137100000Y-149285000D02*
X137100000Y-147955000D01*
X137100000Y-126305000D02*
X137100000Y-128965000D01*
X154940000Y-126305000D02*
X137100000Y-126305000D01*
X154940000Y-128965000D02*
X137100000Y-128965000D01*
X154940000Y-126305000D02*
X154940000Y-128965000D01*
X156210000Y-126305000D02*
X157540000Y-126305000D01*
X157540000Y-126305000D02*
X157540000Y-127635000D01*
X213300000Y-121345000D02*
X215960000Y-121345000D01*
X213300000Y-113665000D02*
X213300000Y-121345000D01*
X215960000Y-113665000D02*
X215960000Y-121345000D01*
X213300000Y-113665000D02*
X215960000Y-113665000D01*
X213300000Y-112395000D02*
X213300000Y-111065000D01*
X213300000Y-111065000D02*
X214630000Y-111065000D01*
X218380000Y-151190000D02*
X221040000Y-151190000D01*
X218380000Y-130810000D02*
X218380000Y-151190000D01*
X221040000Y-130810000D02*
X221040000Y-151190000D01*
X218380000Y-130810000D02*
X221040000Y-130810000D01*
X218380000Y-129540000D02*
X218380000Y-128210000D01*
X218380000Y-128210000D02*
X219710000Y-128210000D01*
X221040000Y-93920000D02*
X218380000Y-93920000D01*
X221040000Y-101600000D02*
X221040000Y-93920000D01*
X218380000Y-101600000D02*
X218380000Y-93920000D01*
X221040000Y-101600000D02*
X218380000Y-101600000D01*
X221040000Y-102870000D02*
X221040000Y-104200000D01*
X221040000Y-104200000D02*
X219710000Y-104200000D01*
X201228000Y-101660000D02*
X201228000Y-99000000D01*
X196088000Y-101660000D02*
X201228000Y-101660000D01*
X196088000Y-99000000D02*
X201228000Y-99000000D01*
X196088000Y-101660000D02*
X196088000Y-99000000D01*
X194818000Y-101660000D02*
X193488000Y-101660000D01*
X193488000Y-101660000D02*
X193488000Y-100330000D01*
X172145000Y-101660000D02*
X172145000Y-99000000D01*
X167005000Y-101660000D02*
X172145000Y-101660000D01*
X167005000Y-99000000D02*
X172145000Y-99000000D01*
X167005000Y-101660000D02*
X167005000Y-99000000D01*
X165735000Y-101660000D02*
X164405000Y-101660000D01*
X164405000Y-101660000D02*
X164405000Y-100330000D01*
X165040000Y-103445000D02*
X165040000Y-106105000D01*
X167640000Y-103445000D02*
X165040000Y-103445000D01*
X167640000Y-106105000D02*
X165040000Y-106105000D01*
X167640000Y-103445000D02*
X167640000Y-106105000D01*
X168910000Y-103445000D02*
X170240000Y-103445000D01*
X170240000Y-103445000D02*
X170240000Y-104775000D01*
X152975000Y-72330000D02*
X152975000Y-74990000D01*
X155575000Y-72330000D02*
X152975000Y-72330000D01*
X155575000Y-74990000D02*
X152975000Y-74990000D01*
X155575000Y-72330000D02*
X155575000Y-74990000D01*
X156845000Y-72330000D02*
X158175000Y-72330000D01*
X158175000Y-72330000D02*
X158175000Y-73660000D01*
X192930000Y-57835000D02*
X192930000Y-70435000D01*
X192930000Y-70435000D02*
X208330000Y-70435000D01*
X208330000Y-70435000D02*
X208330000Y-69485000D01*
X208330000Y-69485000D02*
X208830000Y-69785000D01*
X208830000Y-69785000D02*
X208830000Y-67785000D01*
X208830000Y-67785000D02*
X208330000Y-68035000D01*
X208330000Y-68035000D02*
X208330000Y-62635000D01*
X208330000Y-62635000D02*
X208830000Y-62885000D01*
X208830000Y-62885000D02*
X208830000Y-57835000D01*
X208830000Y-57835000D02*
X192930000Y-57835000D01*
X163720000Y-57835000D02*
X163720000Y-70435000D01*
X163720000Y-70435000D02*
X179120000Y-70435000D01*
X179120000Y-70435000D02*
X179120000Y-69485000D01*
X179120000Y-69485000D02*
X179620000Y-69785000D01*
X179620000Y-69785000D02*
X179620000Y-67785000D01*
X179620000Y-67785000D02*
X179120000Y-68035000D01*
X179120000Y-68035000D02*
X179120000Y-62635000D01*
X179120000Y-62635000D02*
X179620000Y-62885000D01*
X179620000Y-62885000D02*
X179620000Y-57835000D01*
X179620000Y-57835000D02*
X163720000Y-57835000D01*
D13*
X155805000Y-99685000D02*
X153205000Y-99685000D01*
X155805000Y-99685000D02*
X156855000Y-100735000D01*
X156855000Y-100735000D02*
X156855000Y-103335000D01*
X151755000Y-104785000D02*
X155455000Y-104785000D01*
X151755000Y-104785000D02*
X151755000Y-101085000D01*
D12*
X128012500Y-102612500D02*
X128012500Y-99952500D01*
X125412500Y-102612500D02*
X128012500Y-102612500D01*
X125412500Y-99952500D02*
X128012500Y-99952500D01*
X125412500Y-102612500D02*
X125412500Y-99952500D01*
X124142500Y-102612500D02*
X122812500Y-102612500D01*
X122812500Y-102612500D02*
X122812500Y-101282500D01*
X128012500Y-114042500D02*
X128012500Y-111382500D01*
X125412500Y-114042500D02*
X128012500Y-114042500D01*
X125412500Y-111382500D02*
X128012500Y-111382500D01*
X125412500Y-114042500D02*
X125412500Y-111382500D01*
X124142500Y-114042500D02*
X122812500Y-114042500D01*
X122812500Y-114042500D02*
X122812500Y-112712500D01*
X135150000Y-99750000D02*
X131550000Y-99750000D01*
X135188478Y-99761522D02*
G75*
G02X133350000Y-104200000I-1838478J-1838478D01*
G01*
X131511522Y-99761522D02*
G75*
G03X133350000Y-104200000I1838478J-1838478D01*
G01*
X135150000Y-111180000D02*
X131550000Y-111180000D01*
X135188478Y-111191522D02*
G75*
G02X133350000Y-115630000I-1838478J-1838478D01*
G01*
X131511522Y-111191522D02*
G75*
G03X133350000Y-115630000I1838478J-1838478D01*
G01*
D13*
X199898000Y-89281000D02*
X194818000Y-89281000D01*
X194818000Y-89281000D02*
X194818000Y-84709000D01*
X194818000Y-84709000D02*
X199898000Y-84709000D01*
X199898000Y-84709000D02*
X199898000Y-89281000D01*
X199898000Y-87757000D02*
X199390000Y-87757000D01*
X199390000Y-87757000D02*
X199390000Y-86487000D01*
X199390000Y-86487000D02*
X199898000Y-86487000D01*
X170815000Y-89281000D02*
X165735000Y-89281000D01*
X165735000Y-89281000D02*
X165735000Y-84709000D01*
X165735000Y-84709000D02*
X170815000Y-84709000D01*
X170815000Y-84709000D02*
X170815000Y-89281000D01*
X170815000Y-87757000D02*
X170307000Y-87757000D01*
X170307000Y-87757000D02*
X170307000Y-86487000D01*
X170307000Y-86487000D02*
X170815000Y-86487000D01*
D12*
X185435000Y-137666000D02*
X185435000Y-131266000D01*
X190485000Y-137666000D02*
X190485000Y-131266000D01*
X190485000Y-137666000D02*
G75*
G02X185435000Y-137666000I-2525000J0D01*
G01*
X190485000Y-131266000D02*
G75*
G03X185435000Y-131266000I-2525000J0D01*
G01*
X191697500Y-113382500D02*
X191697500Y-114582500D01*
X189937500Y-114582500D02*
X189937500Y-113382500D01*
X147920000Y-132960000D02*
X146720000Y-132960000D01*
X146720000Y-131200000D02*
X147920000Y-131200000D01*
X149260000Y-81670000D02*
X150460000Y-81670000D01*
X150460000Y-83430000D02*
X149260000Y-83430000D01*
X144180000Y-81670000D02*
X145380000Y-81670000D01*
X145380000Y-83430000D02*
X144180000Y-83430000D01*
X146720000Y-103260000D02*
X147920000Y-103260000D01*
X147920000Y-105020000D02*
X146720000Y-105020000D01*
X146720000Y-110880000D02*
X147920000Y-110880000D01*
X147920000Y-112640000D02*
X146720000Y-112640000D01*
X147920000Y-108830000D02*
X146720000Y-108830000D01*
X146720000Y-107070000D02*
X147920000Y-107070000D01*
X153425000Y-110455000D02*
X153425000Y-109255000D01*
X155185000Y-109255000D02*
X155185000Y-110455000D01*
X134585000Y-107560000D02*
X133385000Y-107560000D01*
X133385000Y-105800000D02*
X134585000Y-105800000D01*
X134585000Y-118990000D02*
X133385000Y-118990000D01*
X133385000Y-117230000D02*
X134585000Y-117230000D01*
X186312500Y-119122500D02*
X188972500Y-119122500D01*
X186312500Y-116522500D02*
X186312500Y-119122500D01*
X188972500Y-116522500D02*
X188972500Y-119122500D01*
X186312500Y-116522500D02*
X188972500Y-116522500D01*
X186312500Y-115252500D02*
X186312500Y-113922500D01*
X186312500Y-113922500D02*
X187642500Y-113922500D01*
X205680000Y-114995000D02*
X208340000Y-114995000D01*
X205680000Y-114935000D02*
X205680000Y-114995000D01*
X208340000Y-114935000D02*
X208340000Y-114995000D01*
X205680000Y-114935000D02*
X208340000Y-114935000D01*
X205680000Y-113665000D02*
X205680000Y-112335000D01*
X205680000Y-112335000D02*
X207010000Y-112335000D01*
X205385000Y-106930000D02*
X205385000Y-91190000D01*
X205385000Y-91190000D02*
X214985000Y-91190000D01*
X214985000Y-91190000D02*
X214985000Y-106930000D01*
X214985000Y-106930000D02*
X205385000Y-106930000D01*
X130215000Y-106045000D02*
G75*
G03X130215000Y-106045000I-1310000J0D01*
G01*
X127595000Y-106045000D02*
X124925000Y-106045000D01*
X130215000Y-117475000D02*
G75*
G03X130215000Y-117475000I-1310000J0D01*
G01*
X127595000Y-117475000D02*
X124925000Y-117475000D01*
X137100000Y-122495000D02*
X137100000Y-125155000D01*
X154940000Y-122495000D02*
X137100000Y-122495000D01*
X154940000Y-125155000D02*
X137100000Y-125155000D01*
X154940000Y-122495000D02*
X154940000Y-125155000D01*
X156210000Y-122495000D02*
X157540000Y-122495000D01*
X157540000Y-122495000D02*
X157540000Y-123825000D01*
D13*
X151130000Y-92456000D02*
X146050000Y-92456000D01*
X146050000Y-92456000D02*
X146050000Y-87884000D01*
X146050000Y-87884000D02*
X151130000Y-87884000D01*
X151130000Y-87884000D02*
X151130000Y-92456000D01*
X151130000Y-90932000D02*
X150622000Y-90932000D01*
X150622000Y-90932000D02*
X150622000Y-89662000D01*
X150622000Y-89662000D02*
X151130000Y-89662000D01*
X205565476Y-73096381D02*
X205565476Y-72096381D01*
X205898810Y-72810667D01*
X206232143Y-72096381D01*
X206232143Y-73096381D01*
X207184524Y-72096381D02*
X206708333Y-72096381D01*
X206660714Y-72572571D01*
X206708333Y-72524952D01*
X206803571Y-72477333D01*
X207041667Y-72477333D01*
X207136905Y-72524952D01*
X207184524Y-72572571D01*
X207232143Y-72667810D01*
X207232143Y-72905905D01*
X207184524Y-73001143D01*
X207136905Y-73048762D01*
X207041667Y-73096381D01*
X206803571Y-73096381D01*
X206708333Y-73048762D01*
X206660714Y-73001143D01*
X176355476Y-73096381D02*
X176355476Y-72096381D01*
X176688810Y-72810667D01*
X177022143Y-72096381D01*
X177022143Y-73096381D01*
X177926905Y-72429714D02*
X177926905Y-73096381D01*
X177688809Y-72048762D02*
X177450714Y-72763048D01*
X178069762Y-72763048D01*
X176355476Y-141676381D02*
X176355476Y-140676381D01*
X176688810Y-141390667D01*
X177022143Y-140676381D01*
X177022143Y-141676381D01*
X177403095Y-140676381D02*
X178022143Y-140676381D01*
X177688809Y-141057333D01*
X177831667Y-141057333D01*
X177926905Y-141104952D01*
X177974524Y-141152571D01*
X178022143Y-141247810D01*
X178022143Y-141485905D01*
X177974524Y-141581143D01*
X177926905Y-141628762D01*
X177831667Y-141676381D01*
X177545952Y-141676381D01*
X177450714Y-141628762D01*
X177403095Y-141581143D01*
X125555476Y-123252381D02*
X125555476Y-122252381D01*
X125888810Y-122966667D01*
X126222143Y-122252381D01*
X126222143Y-123252381D01*
X126650714Y-122347619D02*
X126698333Y-122300000D01*
X126793571Y-122252381D01*
X127031667Y-122252381D01*
X127126905Y-122300000D01*
X127174524Y-122347619D01*
X127222143Y-122442857D01*
X127222143Y-122538095D01*
X127174524Y-122680952D01*
X126603095Y-123252381D01*
X127222143Y-123252381D01*
X131338334Y-77977143D02*
X131290715Y-78024762D01*
X131147858Y-78072381D01*
X131052620Y-78072381D01*
X130909762Y-78024762D01*
X130814524Y-77929524D01*
X130766905Y-77834286D01*
X130719286Y-77643810D01*
X130719286Y-77500952D01*
X130766905Y-77310476D01*
X130814524Y-77215238D01*
X130909762Y-77120000D01*
X131052620Y-77072381D01*
X131147858Y-77072381D01*
X131290715Y-77120000D01*
X131338334Y-77167619D01*
X132243096Y-77072381D02*
X131766905Y-77072381D01*
X131719286Y-77548571D01*
X131766905Y-77500952D01*
X131862143Y-77453333D01*
X132100239Y-77453333D01*
X132195477Y-77500952D01*
X132243096Y-77548571D01*
X132290715Y-77643810D01*
X132290715Y-77881905D01*
X132243096Y-77977143D01*
X132195477Y-78024762D01*
X132100239Y-78072381D01*
X131862143Y-78072381D01*
X131766905Y-78024762D01*
X131719286Y-77977143D01*
X198310595Y-109774881D02*
X198310595Y-110584405D01*
X198358214Y-110679643D01*
X198405833Y-110727262D01*
X198501071Y-110774881D01*
X198691548Y-110774881D01*
X198786786Y-110727262D01*
X198834405Y-110679643D01*
X198882024Y-110584405D01*
X198882024Y-109774881D01*
X199882024Y-110774881D02*
X199310595Y-110774881D01*
X199596309Y-110774881D02*
X199596309Y-109774881D01*
X199501071Y-109917738D01*
X199405833Y-110012976D01*
X199310595Y-110060595D01*
X177466667Y-109517381D02*
X177466667Y-110231667D01*
X177419047Y-110374524D01*
X177323809Y-110469762D01*
X177180952Y-110517381D01*
X177085714Y-110517381D01*
X178419048Y-109517381D02*
X177942857Y-109517381D01*
X177895238Y-109993571D01*
X177942857Y-109945952D01*
X178038095Y-109898333D01*
X178276191Y-109898333D01*
X178371429Y-109945952D01*
X178419048Y-109993571D01*
X178466667Y-110088810D01*
X178466667Y-110326905D01*
X178419048Y-110422143D01*
X178371429Y-110469762D01*
X178276191Y-110517381D01*
X178038095Y-110517381D01*
X177942857Y-110469762D01*
X177895238Y-110422143D01*
X132588095Y-132167381D02*
X132588095Y-132976905D01*
X132635714Y-133072143D01*
X132683333Y-133119762D01*
X132778571Y-133167381D01*
X132969048Y-133167381D01*
X133064286Y-133119762D01*
X133111905Y-133072143D01*
X133159524Y-132976905D01*
X133159524Y-132167381D01*
X133588095Y-132262619D02*
X133635714Y-132215000D01*
X133730952Y-132167381D01*
X133969048Y-132167381D01*
X134064286Y-132215000D01*
X134111905Y-132262619D01*
X134159524Y-132357857D01*
X134159524Y-132453095D01*
X134111905Y-132595952D01*
X133540476Y-133167381D01*
X134159524Y-133167381D01*
X194175143Y-94817143D02*
X194127524Y-94864762D01*
X193984667Y-94912381D01*
X193889429Y-94912381D01*
X193746571Y-94864762D01*
X193651333Y-94769524D01*
X193603714Y-94674286D01*
X193556095Y-94483810D01*
X193556095Y-94340952D01*
X193603714Y-94150476D01*
X193651333Y-94055238D01*
X193746571Y-93960000D01*
X193889429Y-93912381D01*
X193984667Y-93912381D01*
X194127524Y-93960000D01*
X194175143Y-94007619D01*
X195127524Y-94912381D02*
X194556095Y-94912381D01*
X194841809Y-94912381D02*
X194841809Y-93912381D01*
X194746571Y-94055238D01*
X194651333Y-94150476D01*
X194556095Y-94198095D01*
X195460857Y-93912381D02*
X196127524Y-93912381D01*
X195698952Y-94912381D01*
X183784643Y-124944166D02*
X183832262Y-124991785D01*
X183879881Y-125134642D01*
X183879881Y-125229880D01*
X183832262Y-125372738D01*
X183737024Y-125467976D01*
X183641786Y-125515595D01*
X183451310Y-125563214D01*
X183308452Y-125563214D01*
X183117976Y-125515595D01*
X183022738Y-125467976D01*
X182927500Y-125372738D01*
X182879881Y-125229880D01*
X182879881Y-125134642D01*
X182927500Y-124991785D01*
X182975119Y-124944166D01*
X183879881Y-123991785D02*
X183879881Y-124563214D01*
X183879881Y-124277500D02*
X182879881Y-124277500D01*
X183022738Y-124372738D01*
X183117976Y-124467976D01*
X183165595Y-124563214D01*
X185088929Y-122378452D02*
X185088929Y-121616547D01*
X185469881Y-121997499D02*
X184707976Y-121997499D01*
X183300643Y-132564166D02*
X183348262Y-132611785D01*
X183395881Y-132754642D01*
X183395881Y-132849880D01*
X183348262Y-132992738D01*
X183253024Y-133087976D01*
X183157786Y-133135595D01*
X182967310Y-133183214D01*
X182824452Y-133183214D01*
X182633976Y-133135595D01*
X182538738Y-133087976D01*
X182443500Y-132992738D01*
X182395881Y-132849880D01*
X182395881Y-132754642D01*
X182443500Y-132611785D01*
X182491119Y-132564166D01*
X182491119Y-132183214D02*
X182443500Y-132135595D01*
X182395881Y-132040357D01*
X182395881Y-131802261D01*
X182443500Y-131707023D01*
X182491119Y-131659404D01*
X182586357Y-131611785D01*
X182681595Y-131611785D01*
X182824452Y-131659404D01*
X183395881Y-132230833D01*
X183395881Y-131611785D01*
X192924643Y-124944166D02*
X192972262Y-124991785D01*
X193019881Y-125134642D01*
X193019881Y-125229880D01*
X192972262Y-125372738D01*
X192877024Y-125467976D01*
X192781786Y-125515595D01*
X192591310Y-125563214D01*
X192448452Y-125563214D01*
X192257976Y-125515595D01*
X192162738Y-125467976D01*
X192067500Y-125372738D01*
X192019881Y-125229880D01*
X192019881Y-125134642D01*
X192067500Y-124991785D01*
X192115119Y-124944166D01*
X192019881Y-124610833D02*
X192019881Y-123991785D01*
X192400833Y-124325119D01*
X192400833Y-124182261D01*
X192448452Y-124087023D01*
X192496071Y-124039404D01*
X192591310Y-123991785D01*
X192829405Y-123991785D01*
X192924643Y-124039404D01*
X192972262Y-124087023D01*
X193019881Y-124182261D01*
X193019881Y-124467976D01*
X192972262Y-124563214D01*
X192924643Y-124610833D01*
X183300643Y-136374166D02*
X183348262Y-136421785D01*
X183395881Y-136564642D01*
X183395881Y-136659880D01*
X183348262Y-136802738D01*
X183253024Y-136897976D01*
X183157786Y-136945595D01*
X182967310Y-136993214D01*
X182824452Y-136993214D01*
X182633976Y-136945595D01*
X182538738Y-136897976D01*
X182443500Y-136802738D01*
X182395881Y-136659880D01*
X182395881Y-136564642D01*
X182443500Y-136421785D01*
X182491119Y-136374166D01*
X182729214Y-135517023D02*
X183395881Y-135517023D01*
X182348262Y-135755119D02*
X183062548Y-135993214D01*
X183062548Y-135374166D01*
X131338334Y-98297143D02*
X131290715Y-98344762D01*
X131147858Y-98392381D01*
X131052620Y-98392381D01*
X130909762Y-98344762D01*
X130814524Y-98249524D01*
X130766905Y-98154286D01*
X130719286Y-97963810D01*
X130719286Y-97820952D01*
X130766905Y-97630476D01*
X130814524Y-97535238D01*
X130909762Y-97440000D01*
X131052620Y-97392381D01*
X131147858Y-97392381D01*
X131290715Y-97440000D01*
X131338334Y-97487619D01*
X132195477Y-97392381D02*
X132005000Y-97392381D01*
X131909762Y-97440000D01*
X131862143Y-97487619D01*
X131766905Y-97630476D01*
X131719286Y-97820952D01*
X131719286Y-98201905D01*
X131766905Y-98297143D01*
X131814524Y-98344762D01*
X131909762Y-98392381D01*
X132100239Y-98392381D01*
X132195477Y-98344762D01*
X132243096Y-98297143D01*
X132290715Y-98201905D01*
X132290715Y-97963810D01*
X132243096Y-97868571D01*
X132195477Y-97820952D01*
X132100239Y-97773333D01*
X131909762Y-97773333D01*
X131814524Y-97820952D01*
X131766905Y-97868571D01*
X131719286Y-97963810D01*
X161492143Y-87161666D02*
X161539762Y-87209285D01*
X161587381Y-87352142D01*
X161587381Y-87447380D01*
X161539762Y-87590238D01*
X161444524Y-87685476D01*
X161349286Y-87733095D01*
X161158810Y-87780714D01*
X161015952Y-87780714D01*
X160825476Y-87733095D01*
X160730238Y-87685476D01*
X160635000Y-87590238D01*
X160587381Y-87447380D01*
X160587381Y-87352142D01*
X160635000Y-87209285D01*
X160682619Y-87161666D01*
X160587381Y-86828333D02*
X160587381Y-86161666D01*
X161587381Y-86590238D01*
X130008334Y-134977143D02*
X129960715Y-135024762D01*
X129817858Y-135072381D01*
X129722620Y-135072381D01*
X129579762Y-135024762D01*
X129484524Y-134929524D01*
X129436905Y-134834286D01*
X129389286Y-134643810D01*
X129389286Y-134500952D01*
X129436905Y-134310476D01*
X129484524Y-134215238D01*
X129579762Y-134120000D01*
X129722620Y-134072381D01*
X129817858Y-134072381D01*
X129960715Y-134120000D01*
X130008334Y-134167619D01*
X130579762Y-134500952D02*
X130484524Y-134453333D01*
X130436905Y-134405714D01*
X130389286Y-134310476D01*
X130389286Y-134262857D01*
X130436905Y-134167619D01*
X130484524Y-134120000D01*
X130579762Y-134072381D01*
X130770239Y-134072381D01*
X130865477Y-134120000D01*
X130913096Y-134167619D01*
X130960715Y-134262857D01*
X130960715Y-134310476D01*
X130913096Y-134405714D01*
X130865477Y-134453333D01*
X130770239Y-134500952D01*
X130579762Y-134500952D01*
X130484524Y-134548571D01*
X130436905Y-134596190D01*
X130389286Y-134691429D01*
X130389286Y-134881905D01*
X130436905Y-134977143D01*
X130484524Y-135024762D01*
X130579762Y-135072381D01*
X130770239Y-135072381D01*
X130865477Y-135024762D01*
X130913096Y-134977143D01*
X130960715Y-134881905D01*
X130960715Y-134691429D01*
X130913096Y-134596190D01*
X130865477Y-134548571D01*
X130770239Y-134500952D01*
X153503334Y-87197143D02*
X153455715Y-87244762D01*
X153312858Y-87292381D01*
X153217620Y-87292381D01*
X153074762Y-87244762D01*
X152979524Y-87149524D01*
X152931905Y-87054286D01*
X152884286Y-86863810D01*
X152884286Y-86720952D01*
X152931905Y-86530476D01*
X152979524Y-86435238D01*
X153074762Y-86340000D01*
X153217620Y-86292381D01*
X153312858Y-86292381D01*
X153455715Y-86340000D01*
X153503334Y-86387619D01*
X153979524Y-87292381D02*
X154170000Y-87292381D01*
X154265239Y-87244762D01*
X154312858Y-87197143D01*
X154408096Y-87054286D01*
X154455715Y-86863810D01*
X154455715Y-86482857D01*
X154408096Y-86387619D01*
X154360477Y-86340000D01*
X154265239Y-86292381D01*
X154074762Y-86292381D01*
X153979524Y-86340000D01*
X153931905Y-86387619D01*
X153884286Y-86482857D01*
X153884286Y-86720952D01*
X153931905Y-86816190D01*
X153979524Y-86863810D01*
X154074762Y-86911429D01*
X154265239Y-86911429D01*
X154360477Y-86863810D01*
X154408096Y-86816190D01*
X154455715Y-86720952D01*
X165092143Y-134977143D02*
X165044524Y-135024762D01*
X164901667Y-135072381D01*
X164806429Y-135072381D01*
X164663571Y-135024762D01*
X164568333Y-134929524D01*
X164520714Y-134834286D01*
X164473095Y-134643810D01*
X164473095Y-134500952D01*
X164520714Y-134310476D01*
X164568333Y-134215238D01*
X164663571Y-134120000D01*
X164806429Y-134072381D01*
X164901667Y-134072381D01*
X165044524Y-134120000D01*
X165092143Y-134167619D01*
X166044524Y-135072381D02*
X165473095Y-135072381D01*
X165758809Y-135072381D02*
X165758809Y-134072381D01*
X165663571Y-134215238D01*
X165568333Y-134310476D01*
X165473095Y-134358095D01*
X166663571Y-134072381D02*
X166758810Y-134072381D01*
X166854048Y-134120000D01*
X166901667Y-134167619D01*
X166949286Y-134262857D01*
X166996905Y-134453333D01*
X166996905Y-134691429D01*
X166949286Y-134881905D01*
X166901667Y-134977143D01*
X166854048Y-135024762D01*
X166758810Y-135072381D01*
X166663571Y-135072381D01*
X166568333Y-135024762D01*
X166520714Y-134977143D01*
X166473095Y-134881905D01*
X166425476Y-134691429D01*
X166425476Y-134453333D01*
X166473095Y-134262857D01*
X166520714Y-134167619D01*
X166568333Y-134120000D01*
X166663571Y-134072381D01*
X163816429Y-136665952D02*
X163816429Y-135904047D01*
X164197381Y-136284999D02*
X163435476Y-136284999D01*
X144137143Y-87197143D02*
X144089524Y-87244762D01*
X143946667Y-87292381D01*
X143851429Y-87292381D01*
X143708571Y-87244762D01*
X143613333Y-87149524D01*
X143565714Y-87054286D01*
X143518095Y-86863810D01*
X143518095Y-86720952D01*
X143565714Y-86530476D01*
X143613333Y-86435238D01*
X143708571Y-86340000D01*
X143851429Y-86292381D01*
X143946667Y-86292381D01*
X144089524Y-86340000D01*
X144137143Y-86387619D01*
X145089524Y-87292381D02*
X144518095Y-87292381D01*
X144803809Y-87292381D02*
X144803809Y-86292381D01*
X144708571Y-86435238D01*
X144613333Y-86530476D01*
X144518095Y-86578095D01*
X146041905Y-87292381D02*
X145470476Y-87292381D01*
X145756190Y-87292381D02*
X145756190Y-86292381D01*
X145660952Y-86435238D01*
X145565714Y-86530476D01*
X145470476Y-86578095D01*
X143232143Y-100972857D02*
X143279762Y-101020476D01*
X143327381Y-101163333D01*
X143327381Y-101258571D01*
X143279762Y-101401429D01*
X143184524Y-101496667D01*
X143089286Y-101544286D01*
X142898810Y-101591905D01*
X142755952Y-101591905D01*
X142565476Y-101544286D01*
X142470238Y-101496667D01*
X142375000Y-101401429D01*
X142327381Y-101258571D01*
X142327381Y-101163333D01*
X142375000Y-101020476D01*
X142422619Y-100972857D01*
X143327381Y-100020476D02*
X143327381Y-100591905D01*
X143327381Y-100306191D02*
X142327381Y-100306191D01*
X142470238Y-100401429D01*
X142565476Y-100496667D01*
X142613095Y-100591905D01*
X142422619Y-99639524D02*
X142375000Y-99591905D01*
X142327381Y-99496667D01*
X142327381Y-99258571D01*
X142375000Y-99163333D01*
X142422619Y-99115714D01*
X142517857Y-99068095D01*
X142613095Y-99068095D01*
X142755952Y-99115714D01*
X143327381Y-99687143D01*
X143327381Y-99068095D01*
X146677143Y-98782143D02*
X146629524Y-98829762D01*
X146486667Y-98877381D01*
X146391429Y-98877381D01*
X146248571Y-98829762D01*
X146153333Y-98734524D01*
X146105714Y-98639286D01*
X146058095Y-98448810D01*
X146058095Y-98305952D01*
X146105714Y-98115476D01*
X146153333Y-98020238D01*
X146248571Y-97925000D01*
X146391429Y-97877381D01*
X146486667Y-97877381D01*
X146629524Y-97925000D01*
X146677143Y-97972619D01*
X147629524Y-98877381D02*
X147058095Y-98877381D01*
X147343809Y-98877381D02*
X147343809Y-97877381D01*
X147248571Y-98020238D01*
X147153333Y-98115476D01*
X147058095Y-98163095D01*
X147962857Y-97877381D02*
X148581905Y-97877381D01*
X148248571Y-98258333D01*
X148391429Y-98258333D01*
X148486667Y-98305952D01*
X148534286Y-98353571D01*
X148581905Y-98448810D01*
X148581905Y-98686905D01*
X148534286Y-98782143D01*
X148486667Y-98829762D01*
X148391429Y-98877381D01*
X148105714Y-98877381D01*
X148010476Y-98829762D01*
X147962857Y-98782143D01*
X161647143Y-95257857D02*
X161694762Y-95305476D01*
X161742381Y-95448333D01*
X161742381Y-95543571D01*
X161694762Y-95686429D01*
X161599524Y-95781667D01*
X161504286Y-95829286D01*
X161313810Y-95876905D01*
X161170952Y-95876905D01*
X160980476Y-95829286D01*
X160885238Y-95781667D01*
X160790000Y-95686429D01*
X160742381Y-95543571D01*
X160742381Y-95448333D01*
X160790000Y-95305476D01*
X160837619Y-95257857D01*
X161742381Y-94305476D02*
X161742381Y-94876905D01*
X161742381Y-94591191D02*
X160742381Y-94591191D01*
X160885238Y-94686429D01*
X160980476Y-94781667D01*
X161028095Y-94876905D01*
X161075714Y-93448333D02*
X161742381Y-93448333D01*
X160694762Y-93686429D02*
X161409048Y-93924524D01*
X161409048Y-93305476D01*
X196715143Y-98627143D02*
X196667524Y-98674762D01*
X196524667Y-98722381D01*
X196429429Y-98722381D01*
X196286571Y-98674762D01*
X196191333Y-98579524D01*
X196143714Y-98484286D01*
X196096095Y-98293810D01*
X196096095Y-98150952D01*
X196143714Y-97960476D01*
X196191333Y-97865238D01*
X196286571Y-97770000D01*
X196429429Y-97722381D01*
X196524667Y-97722381D01*
X196667524Y-97770000D01*
X196715143Y-97817619D01*
X197667524Y-98722381D02*
X197096095Y-98722381D01*
X197381809Y-98722381D02*
X197381809Y-97722381D01*
X197286571Y-97865238D01*
X197191333Y-97960476D01*
X197096095Y-98008095D01*
X198572286Y-97722381D02*
X198096095Y-97722381D01*
X198048476Y-98198571D01*
X198096095Y-98150952D01*
X198191333Y-98103333D01*
X198429429Y-98103333D01*
X198524667Y-98150952D01*
X198572286Y-98198571D01*
X198619905Y-98293810D01*
X198619905Y-98531905D01*
X198572286Y-98627143D01*
X198524667Y-98674762D01*
X198429429Y-98722381D01*
X198191333Y-98722381D01*
X198096095Y-98674762D01*
X198048476Y-98627143D01*
X167632143Y-98627143D02*
X167584524Y-98674762D01*
X167441667Y-98722381D01*
X167346429Y-98722381D01*
X167203571Y-98674762D01*
X167108333Y-98579524D01*
X167060714Y-98484286D01*
X167013095Y-98293810D01*
X167013095Y-98150952D01*
X167060714Y-97960476D01*
X167108333Y-97865238D01*
X167203571Y-97770000D01*
X167346429Y-97722381D01*
X167441667Y-97722381D01*
X167584524Y-97770000D01*
X167632143Y-97817619D01*
X168584524Y-98722381D02*
X168013095Y-98722381D01*
X168298809Y-98722381D02*
X168298809Y-97722381D01*
X168203571Y-97865238D01*
X168108333Y-97960476D01*
X168013095Y-98008095D01*
X169441667Y-97722381D02*
X169251190Y-97722381D01*
X169155952Y-97770000D01*
X169108333Y-97817619D01*
X169013095Y-97960476D01*
X168965476Y-98150952D01*
X168965476Y-98531905D01*
X169013095Y-98627143D01*
X169060714Y-98674762D01*
X169155952Y-98722381D01*
X169346429Y-98722381D01*
X169441667Y-98674762D01*
X169489286Y-98627143D01*
X169536905Y-98531905D01*
X169536905Y-98293810D01*
X169489286Y-98198571D01*
X169441667Y-98150952D01*
X169346429Y-98103333D01*
X169155952Y-98103333D01*
X169060714Y-98150952D01*
X169013095Y-98198571D01*
X168965476Y-98293810D01*
X165092143Y-94817143D02*
X165044524Y-94864762D01*
X164901667Y-94912381D01*
X164806429Y-94912381D01*
X164663571Y-94864762D01*
X164568333Y-94769524D01*
X164520714Y-94674286D01*
X164473095Y-94483810D01*
X164473095Y-94340952D01*
X164520714Y-94150476D01*
X164568333Y-94055238D01*
X164663571Y-93960000D01*
X164806429Y-93912381D01*
X164901667Y-93912381D01*
X165044524Y-93960000D01*
X165092143Y-94007619D01*
X166044524Y-94912381D02*
X165473095Y-94912381D01*
X165758809Y-94912381D02*
X165758809Y-93912381D01*
X165663571Y-94055238D01*
X165568333Y-94150476D01*
X165473095Y-94198095D01*
X166615952Y-94340952D02*
X166520714Y-94293333D01*
X166473095Y-94245714D01*
X166425476Y-94150476D01*
X166425476Y-94102857D01*
X166473095Y-94007619D01*
X166520714Y-93960000D01*
X166615952Y-93912381D01*
X166806429Y-93912381D01*
X166901667Y-93960000D01*
X166949286Y-94007619D01*
X166996905Y-94102857D01*
X166996905Y-94150476D01*
X166949286Y-94245714D01*
X166901667Y-94293333D01*
X166806429Y-94340952D01*
X166615952Y-94340952D01*
X166520714Y-94388571D01*
X166473095Y-94436190D01*
X166425476Y-94531429D01*
X166425476Y-94721905D01*
X166473095Y-94817143D01*
X166520714Y-94864762D01*
X166615952Y-94912381D01*
X166806429Y-94912381D01*
X166901667Y-94864762D01*
X166949286Y-94817143D01*
X166996905Y-94721905D01*
X166996905Y-94531429D01*
X166949286Y-94436190D01*
X166901667Y-94388571D01*
X166806429Y-94340952D01*
X145946905Y-81986381D02*
X145946905Y-80986381D01*
X146185000Y-80986381D01*
X146327858Y-81034000D01*
X146423096Y-81129238D01*
X146470715Y-81224476D01*
X146518334Y-81414952D01*
X146518334Y-81557810D01*
X146470715Y-81748286D01*
X146423096Y-81843524D01*
X146327858Y-81938762D01*
X146185000Y-81986381D01*
X145946905Y-81986381D01*
X147470715Y-81986381D02*
X146899286Y-81986381D01*
X147185000Y-81986381D02*
X147185000Y-80986381D01*
X147089762Y-81129238D01*
X146994524Y-81224476D01*
X146899286Y-81272095D01*
X152892381Y-95353095D02*
X151892381Y-95353095D01*
X151892381Y-95115000D01*
X151940000Y-94972142D01*
X152035238Y-94876904D01*
X152130476Y-94829285D01*
X152320952Y-94781666D01*
X152463810Y-94781666D01*
X152654286Y-94829285D01*
X152749524Y-94876904D01*
X152844762Y-94972142D01*
X152892381Y-95115000D01*
X152892381Y-95353095D01*
X151987619Y-94400714D02*
X151940000Y-94353095D01*
X151892381Y-94257857D01*
X151892381Y-94019761D01*
X151940000Y-93924523D01*
X151987619Y-93876904D01*
X152082857Y-93829285D01*
X152178095Y-93829285D01*
X152320952Y-93876904D01*
X152892381Y-94448333D01*
X152892381Y-93829285D01*
X150947381Y-110593095D02*
X149947381Y-110593095D01*
X149947381Y-110355000D01*
X149995000Y-110212142D01*
X150090238Y-110116904D01*
X150185476Y-110069285D01*
X150375952Y-110021666D01*
X150518810Y-110021666D01*
X150709286Y-110069285D01*
X150804524Y-110116904D01*
X150899762Y-110212142D01*
X150947381Y-110355000D01*
X150947381Y-110593095D01*
X149947381Y-109688333D02*
X149947381Y-109069285D01*
X150328333Y-109402619D01*
X150328333Y-109259761D01*
X150375952Y-109164523D01*
X150423571Y-109116904D01*
X150518810Y-109069285D01*
X150756905Y-109069285D01*
X150852143Y-109116904D01*
X150899762Y-109164523D01*
X150947381Y-109259761D01*
X150947381Y-109545476D01*
X150899762Y-109640714D01*
X150852143Y-109688333D01*
X209478571Y-72088333D02*
X209478571Y-72421667D01*
X210002381Y-72421667D02*
X209002381Y-72421667D01*
X209002381Y-71945476D01*
X210002381Y-71040714D02*
X210002381Y-71612143D01*
X210002381Y-71326429D02*
X209002381Y-71326429D01*
X209145238Y-71421667D01*
X209240476Y-71516905D01*
X209288095Y-71612143D01*
X180268571Y-72088333D02*
X180268571Y-72421667D01*
X180792381Y-72421667D02*
X179792381Y-72421667D01*
X179792381Y-71945476D01*
X179887619Y-71612143D02*
X179840000Y-71564524D01*
X179792381Y-71469286D01*
X179792381Y-71231190D01*
X179840000Y-71135952D01*
X179887619Y-71088333D01*
X179982857Y-71040714D01*
X180078095Y-71040714D01*
X180220952Y-71088333D01*
X180792381Y-71659762D01*
X180792381Y-71040714D01*
X158416667Y-63587381D02*
X158416667Y-64301667D01*
X158369047Y-64444524D01*
X158273809Y-64539762D01*
X158130952Y-64587381D01*
X158035714Y-64587381D01*
X159416667Y-64587381D02*
X158845238Y-64587381D01*
X159130952Y-64587381D02*
X159130952Y-63587381D01*
X159035714Y-63730238D01*
X158940476Y-63825476D01*
X158845238Y-63873095D01*
X135552381Y-148288333D02*
X136266667Y-148288333D01*
X136409524Y-148335953D01*
X136504762Y-148431191D01*
X136552381Y-148574048D01*
X136552381Y-148669286D01*
X135647619Y-147859762D02*
X135600000Y-147812143D01*
X135552381Y-147716905D01*
X135552381Y-147478809D01*
X135600000Y-147383571D01*
X135647619Y-147335952D01*
X135742857Y-147288333D01*
X135838095Y-147288333D01*
X135980952Y-147335952D01*
X136552381Y-147907381D01*
X136552381Y-147288333D01*
X157992381Y-127968333D02*
X158706667Y-127968333D01*
X158849524Y-128015953D01*
X158944762Y-128111191D01*
X158992381Y-128254048D01*
X158992381Y-128349286D01*
X157992381Y-127587381D02*
X157992381Y-126968333D01*
X158373333Y-127301667D01*
X158373333Y-127158809D01*
X158420952Y-127063571D01*
X158468571Y-127015952D01*
X158563810Y-126968333D01*
X158801905Y-126968333D01*
X158897143Y-127015952D01*
X158944762Y-127063571D01*
X158992381Y-127158809D01*
X158992381Y-127444524D01*
X158944762Y-127539762D01*
X158897143Y-127587381D01*
X214296667Y-109517381D02*
X214296667Y-110231667D01*
X214249047Y-110374524D01*
X214153809Y-110469762D01*
X214010952Y-110517381D01*
X213915714Y-110517381D01*
X215201429Y-109850714D02*
X215201429Y-110517381D01*
X214963333Y-109469762D02*
X214725238Y-110184048D01*
X215344286Y-110184048D01*
X219376667Y-126662381D02*
X219376667Y-127376667D01*
X219329047Y-127519524D01*
X219233809Y-127614762D01*
X219090952Y-127662381D01*
X218995714Y-127662381D01*
X220281429Y-126662381D02*
X220090952Y-126662381D01*
X219995714Y-126710000D01*
X219948095Y-126757619D01*
X219852857Y-126900476D01*
X219805238Y-127090952D01*
X219805238Y-127471905D01*
X219852857Y-127567143D01*
X219900476Y-127614762D01*
X219995714Y-127662381D01*
X220186191Y-127662381D01*
X220281429Y-127614762D01*
X220329048Y-127567143D01*
X220376667Y-127471905D01*
X220376667Y-127233810D01*
X220329048Y-127138571D01*
X220281429Y-127090952D01*
X220186191Y-127043333D01*
X219995714Y-127043333D01*
X219900476Y-127090952D01*
X219852857Y-127138571D01*
X219805238Y-127233810D01*
X219376667Y-104652381D02*
X219376667Y-105366667D01*
X219329047Y-105509524D01*
X219233809Y-105604762D01*
X219090952Y-105652381D01*
X218995714Y-105652381D01*
X219757619Y-104652381D02*
X220424286Y-104652381D01*
X219995714Y-105652381D01*
X191940381Y-100663333D02*
X192654667Y-100663333D01*
X192797524Y-100710953D01*
X192892762Y-100806191D01*
X192940381Y-100949048D01*
X192940381Y-101044286D01*
X192368952Y-100044286D02*
X192321333Y-100139524D01*
X192273714Y-100187143D01*
X192178476Y-100234762D01*
X192130857Y-100234762D01*
X192035619Y-100187143D01*
X191988000Y-100139524D01*
X191940381Y-100044286D01*
X191940381Y-99853809D01*
X191988000Y-99758571D01*
X192035619Y-99710952D01*
X192130857Y-99663333D01*
X192178476Y-99663333D01*
X192273714Y-99710952D01*
X192321333Y-99758571D01*
X192368952Y-99853809D01*
X192368952Y-100044286D01*
X192416571Y-100139524D01*
X192464190Y-100187143D01*
X192559429Y-100234762D01*
X192749905Y-100234762D01*
X192845143Y-100187143D01*
X192892762Y-100139524D01*
X192940381Y-100044286D01*
X192940381Y-99853809D01*
X192892762Y-99758571D01*
X192845143Y-99710952D01*
X192749905Y-99663333D01*
X192559429Y-99663333D01*
X192464190Y-99710952D01*
X192416571Y-99758571D01*
X192368952Y-99853809D01*
X162857381Y-100663333D02*
X163571667Y-100663333D01*
X163714524Y-100710953D01*
X163809762Y-100806191D01*
X163857381Y-100949048D01*
X163857381Y-101044286D01*
X163857381Y-100139524D02*
X163857381Y-99949048D01*
X163809762Y-99853809D01*
X163762143Y-99806190D01*
X163619286Y-99710952D01*
X163428810Y-99663333D01*
X163047857Y-99663333D01*
X162952619Y-99710952D01*
X162905000Y-99758571D01*
X162857381Y-99853809D01*
X162857381Y-100044286D01*
X162905000Y-100139524D01*
X162952619Y-100187143D01*
X163047857Y-100234762D01*
X163285952Y-100234762D01*
X163381190Y-100187143D01*
X163428810Y-100139524D01*
X163476429Y-100044286D01*
X163476429Y-99853809D01*
X163428810Y-99758571D01*
X163381190Y-99710952D01*
X163285952Y-99663333D01*
X170692381Y-105584523D02*
X171406667Y-105584523D01*
X171549524Y-105632143D01*
X171644762Y-105727381D01*
X171692381Y-105870238D01*
X171692381Y-105965476D01*
X171692381Y-104584523D02*
X171692381Y-105155952D01*
X171692381Y-104870238D02*
X170692381Y-104870238D01*
X170835238Y-104965476D01*
X170930476Y-105060714D01*
X170978095Y-105155952D01*
X170692381Y-103965476D02*
X170692381Y-103870237D01*
X170740000Y-103774999D01*
X170787619Y-103727380D01*
X170882857Y-103679761D01*
X171073333Y-103632142D01*
X171311429Y-103632142D01*
X171501905Y-103679761D01*
X171597143Y-103727380D01*
X171644762Y-103774999D01*
X171692381Y-103870237D01*
X171692381Y-103965476D01*
X171644762Y-104060714D01*
X171597143Y-104108333D01*
X171501905Y-104155952D01*
X171311429Y-104203571D01*
X171073333Y-104203571D01*
X170882857Y-104155952D01*
X170787619Y-104108333D01*
X170740000Y-104060714D01*
X170692381Y-103965476D01*
X158627381Y-74469523D02*
X159341667Y-74469523D01*
X159484524Y-74517143D01*
X159579762Y-74612381D01*
X159627381Y-74755238D01*
X159627381Y-74850476D01*
X159627381Y-73469523D02*
X159627381Y-74040952D01*
X159627381Y-73755238D02*
X158627381Y-73755238D01*
X158770238Y-73850476D01*
X158865476Y-73945714D01*
X158913095Y-74040952D01*
X159627381Y-72517142D02*
X159627381Y-73088571D01*
X159627381Y-72802857D02*
X158627381Y-72802857D01*
X158770238Y-72898095D01*
X158865476Y-72993333D01*
X158913095Y-73088571D01*
X203025477Y-71207381D02*
X203025477Y-71921667D01*
X202977857Y-72064524D01*
X202882619Y-72159762D01*
X202739762Y-72207381D01*
X202644524Y-72207381D01*
X204025477Y-72207381D02*
X203454048Y-72207381D01*
X203739762Y-72207381D02*
X203739762Y-71207381D01*
X203644524Y-71350238D01*
X203549286Y-71445476D01*
X203454048Y-71493095D01*
X204406429Y-71302619D02*
X204454048Y-71255000D01*
X204549286Y-71207381D01*
X204787382Y-71207381D01*
X204882620Y-71255000D01*
X204930239Y-71302619D01*
X204977858Y-71397857D01*
X204977858Y-71493095D01*
X204930239Y-71635952D01*
X204358810Y-72207381D01*
X204977858Y-72207381D01*
X173815477Y-71207381D02*
X173815477Y-71921667D01*
X173767857Y-72064524D01*
X173672619Y-72159762D01*
X173529762Y-72207381D01*
X173434524Y-72207381D01*
X174815477Y-72207381D02*
X174244048Y-72207381D01*
X174529762Y-72207381D02*
X174529762Y-71207381D01*
X174434524Y-71350238D01*
X174339286Y-71445476D01*
X174244048Y-71493095D01*
X175148810Y-71207381D02*
X175767858Y-71207381D01*
X175434524Y-71588333D01*
X175577382Y-71588333D01*
X175672620Y-71635952D01*
X175720239Y-71683571D01*
X175767858Y-71778810D01*
X175767858Y-72016905D01*
X175720239Y-72112143D01*
X175672620Y-72159762D01*
X175577382Y-72207381D01*
X175291667Y-72207381D01*
X175196429Y-72159762D01*
X175148810Y-72112143D01*
X154088334Y-106087381D02*
X153612143Y-106087381D01*
X153612143Y-105087381D01*
X154945477Y-106087381D02*
X154374048Y-106087381D01*
X154659762Y-106087381D02*
X154659762Y-105087381D01*
X154564524Y-105230238D01*
X154469286Y-105325476D01*
X154374048Y-105373095D01*
X125087143Y-98877381D02*
X124610952Y-98877381D01*
X124610952Y-97877381D01*
X125372857Y-98829762D02*
X125515714Y-98877381D01*
X125753810Y-98877381D01*
X125849048Y-98829762D01*
X125896667Y-98782143D01*
X125944286Y-98686905D01*
X125944286Y-98591667D01*
X125896667Y-98496429D01*
X125849048Y-98448810D01*
X125753810Y-98401190D01*
X125563333Y-98353571D01*
X125468095Y-98305952D01*
X125420476Y-98258333D01*
X125372857Y-98163095D01*
X125372857Y-98067857D01*
X125420476Y-97972619D01*
X125468095Y-97925000D01*
X125563333Y-97877381D01*
X125801429Y-97877381D01*
X125944286Y-97925000D01*
X126896667Y-98877381D02*
X126325238Y-98877381D01*
X126610952Y-98877381D02*
X126610952Y-97877381D01*
X126515714Y-98020238D01*
X126420476Y-98115476D01*
X126325238Y-98163095D01*
X125087143Y-110942381D02*
X124610952Y-110942381D01*
X124610952Y-109942381D01*
X125372857Y-110894762D02*
X125515714Y-110942381D01*
X125753810Y-110942381D01*
X125849048Y-110894762D01*
X125896667Y-110847143D01*
X125944286Y-110751905D01*
X125944286Y-110656667D01*
X125896667Y-110561429D01*
X125849048Y-110513810D01*
X125753810Y-110466190D01*
X125563333Y-110418571D01*
X125468095Y-110370952D01*
X125420476Y-110323333D01*
X125372857Y-110228095D01*
X125372857Y-110132857D01*
X125420476Y-110037619D01*
X125468095Y-109990000D01*
X125563333Y-109942381D01*
X125801429Y-109942381D01*
X125944286Y-109990000D01*
X126325238Y-110037619D02*
X126372857Y-109990000D01*
X126468095Y-109942381D01*
X126706191Y-109942381D01*
X126801429Y-109990000D01*
X126849048Y-110037619D01*
X126896667Y-110132857D01*
X126896667Y-110228095D01*
X126849048Y-110370952D01*
X126277619Y-110942381D01*
X126896667Y-110942381D01*
X133254762Y-105707619D02*
X133159524Y-105660000D01*
X133064286Y-105564762D01*
X132921429Y-105421905D01*
X132826190Y-105374286D01*
X132730952Y-105374286D01*
X132778571Y-105612381D02*
X132683333Y-105564762D01*
X132588095Y-105469524D01*
X132540476Y-105279048D01*
X132540476Y-104945714D01*
X132588095Y-104755238D01*
X132683333Y-104660000D01*
X132778571Y-104612381D01*
X132969048Y-104612381D01*
X133064286Y-104660000D01*
X133159524Y-104755238D01*
X133207143Y-104945714D01*
X133207143Y-105279048D01*
X133159524Y-105469524D01*
X133064286Y-105564762D01*
X132969048Y-105612381D01*
X132778571Y-105612381D01*
X134159524Y-105612381D02*
X133588095Y-105612381D01*
X133873809Y-105612381D02*
X133873809Y-104612381D01*
X133778571Y-104755238D01*
X133683333Y-104850476D01*
X133588095Y-104898095D01*
X133254762Y-117137619D02*
X133159524Y-117090000D01*
X133064286Y-116994762D01*
X132921429Y-116851905D01*
X132826190Y-116804286D01*
X132730952Y-116804286D01*
X132778571Y-117042381D02*
X132683333Y-116994762D01*
X132588095Y-116899524D01*
X132540476Y-116709048D01*
X132540476Y-116375714D01*
X132588095Y-116185238D01*
X132683333Y-116090000D01*
X132778571Y-116042381D01*
X132969048Y-116042381D01*
X133064286Y-116090000D01*
X133159524Y-116185238D01*
X133207143Y-116375714D01*
X133207143Y-116709048D01*
X133159524Y-116899524D01*
X133064286Y-116994762D01*
X132969048Y-117042381D01*
X132778571Y-117042381D01*
X133588095Y-116137619D02*
X133635714Y-116090000D01*
X133730952Y-116042381D01*
X133969048Y-116042381D01*
X134064286Y-116090000D01*
X134111905Y-116137619D01*
X134159524Y-116232857D01*
X134159524Y-116328095D01*
X134111905Y-116470952D01*
X133540476Y-117042381D01*
X134159524Y-117042381D01*
X196596095Y-87717381D02*
X196596095Y-88526905D01*
X196643714Y-88622143D01*
X196691333Y-88669762D01*
X196786571Y-88717381D01*
X196977048Y-88717381D01*
X197072286Y-88669762D01*
X197119905Y-88622143D01*
X197167524Y-88526905D01*
X197167524Y-87717381D01*
X198072286Y-88050714D02*
X198072286Y-88717381D01*
X197834190Y-87669762D02*
X197596095Y-88384048D01*
X198215143Y-88384048D01*
X167513095Y-87717381D02*
X167513095Y-88526905D01*
X167560714Y-88622143D01*
X167608333Y-88669762D01*
X167703571Y-88717381D01*
X167894048Y-88717381D01*
X167989286Y-88669762D01*
X168036905Y-88622143D01*
X168084524Y-88526905D01*
X168084524Y-87717381D01*
X169036905Y-87717381D02*
X168560714Y-87717381D01*
X168513095Y-88193571D01*
X168560714Y-88145952D01*
X168655952Y-88098333D01*
X168894048Y-88098333D01*
X168989286Y-88145952D01*
X169036905Y-88193571D01*
X169084524Y-88288810D01*
X169084524Y-88526905D01*
X169036905Y-88622143D01*
X168989286Y-88669762D01*
X168894048Y-88717381D01*
X168655952Y-88717381D01*
X168560714Y-88669762D01*
X168513095Y-88622143D01*
X184411190Y-134942191D02*
X184887381Y-134942191D01*
X183887381Y-135275524D02*
X184411190Y-134942191D01*
X183887381Y-134608857D01*
X184887381Y-133751714D02*
X184887381Y-134323143D01*
X184887381Y-134037429D02*
X183887381Y-134037429D01*
X184030238Y-134132667D01*
X184125476Y-134227905D01*
X184173095Y-134323143D01*
X190650834Y-111259881D02*
X190317500Y-110783690D01*
X190079405Y-111259881D02*
X190079405Y-110259881D01*
X190460358Y-110259881D01*
X190555596Y-110307500D01*
X190603215Y-110355119D01*
X190650834Y-110450357D01*
X190650834Y-110593214D01*
X190603215Y-110688452D01*
X190555596Y-110736071D01*
X190460358Y-110783690D01*
X190079405Y-110783690D01*
X191603215Y-111259881D02*
X191031786Y-111259881D01*
X191317500Y-111259881D02*
X191317500Y-110259881D01*
X191222262Y-110402738D01*
X191127024Y-110497976D01*
X191031786Y-110545595D01*
X143343334Y-132532381D02*
X143010000Y-132056190D01*
X142771905Y-132532381D02*
X142771905Y-131532381D01*
X143152858Y-131532381D01*
X143248096Y-131580000D01*
X143295715Y-131627619D01*
X143343334Y-131722857D01*
X143343334Y-131865714D01*
X143295715Y-131960952D01*
X143248096Y-132008571D01*
X143152858Y-132056190D01*
X142771905Y-132056190D01*
X143724286Y-131627619D02*
X143771905Y-131580000D01*
X143867143Y-131532381D01*
X144105239Y-131532381D01*
X144200477Y-131580000D01*
X144248096Y-131627619D01*
X144295715Y-131722857D01*
X144295715Y-131818095D01*
X144248096Y-131960952D01*
X143676667Y-132532381D01*
X144295715Y-132532381D01*
X149693334Y-81097381D02*
X149360000Y-80621190D01*
X149121905Y-81097381D02*
X149121905Y-80097381D01*
X149502858Y-80097381D01*
X149598096Y-80145000D01*
X149645715Y-80192619D01*
X149693334Y-80287857D01*
X149693334Y-80430714D01*
X149645715Y-80525952D01*
X149598096Y-80573571D01*
X149502858Y-80621190D01*
X149121905Y-80621190D01*
X150026667Y-80097381D02*
X150645715Y-80097381D01*
X150312381Y-80478333D01*
X150455239Y-80478333D01*
X150550477Y-80525952D01*
X150598096Y-80573571D01*
X150645715Y-80668810D01*
X150645715Y-80906905D01*
X150598096Y-81002143D01*
X150550477Y-81049762D01*
X150455239Y-81097381D01*
X150169524Y-81097381D01*
X150074286Y-81049762D01*
X150026667Y-81002143D01*
X144613334Y-81097381D02*
X144280000Y-80621190D01*
X144041905Y-81097381D02*
X144041905Y-80097381D01*
X144422858Y-80097381D01*
X144518096Y-80145000D01*
X144565715Y-80192619D01*
X144613334Y-80287857D01*
X144613334Y-80430714D01*
X144565715Y-80525952D01*
X144518096Y-80573571D01*
X144422858Y-80621190D01*
X144041905Y-80621190D01*
X145470477Y-80430714D02*
X145470477Y-81097381D01*
X145232381Y-80049762D02*
X144994286Y-80764048D01*
X145613334Y-80764048D01*
X147153334Y-102687381D02*
X146820000Y-102211190D01*
X146581905Y-102687381D02*
X146581905Y-101687381D01*
X146962858Y-101687381D01*
X147058096Y-101735000D01*
X147105715Y-101782619D01*
X147153334Y-101877857D01*
X147153334Y-102020714D01*
X147105715Y-102115952D01*
X147058096Y-102163571D01*
X146962858Y-102211190D01*
X146581905Y-102211190D01*
X148058096Y-101687381D02*
X147581905Y-101687381D01*
X147534286Y-102163571D01*
X147581905Y-102115952D01*
X147677143Y-102068333D01*
X147915239Y-102068333D01*
X148010477Y-102115952D01*
X148058096Y-102163571D01*
X148105715Y-102258810D01*
X148105715Y-102496905D01*
X148058096Y-102592143D01*
X148010477Y-102639762D01*
X147915239Y-102687381D01*
X147677143Y-102687381D01*
X147581905Y-102639762D01*
X147534286Y-102592143D01*
X147153334Y-113912381D02*
X146820000Y-113436190D01*
X146581905Y-113912381D02*
X146581905Y-112912381D01*
X146962858Y-112912381D01*
X147058096Y-112960000D01*
X147105715Y-113007619D01*
X147153334Y-113102857D01*
X147153334Y-113245714D01*
X147105715Y-113340952D01*
X147058096Y-113388571D01*
X146962858Y-113436190D01*
X146581905Y-113436190D01*
X148010477Y-112912381D02*
X147820000Y-112912381D01*
X147724762Y-112960000D01*
X147677143Y-113007619D01*
X147581905Y-113150476D01*
X147534286Y-113340952D01*
X147534286Y-113721905D01*
X147581905Y-113817143D01*
X147629524Y-113864762D01*
X147724762Y-113912381D01*
X147915239Y-113912381D01*
X148010477Y-113864762D01*
X148058096Y-113817143D01*
X148105715Y-113721905D01*
X148105715Y-113483810D01*
X148058096Y-113388571D01*
X148010477Y-113340952D01*
X147915239Y-113293333D01*
X147724762Y-113293333D01*
X147629524Y-113340952D01*
X147581905Y-113388571D01*
X147534286Y-113483810D01*
X147153334Y-106702381D02*
X146820000Y-106226190D01*
X146581905Y-106702381D02*
X146581905Y-105702381D01*
X146962858Y-105702381D01*
X147058096Y-105750000D01*
X147105715Y-105797619D01*
X147153334Y-105892857D01*
X147153334Y-106035714D01*
X147105715Y-106130952D01*
X147058096Y-106178571D01*
X146962858Y-106226190D01*
X146581905Y-106226190D01*
X147486667Y-105702381D02*
X148153334Y-105702381D01*
X147724762Y-106702381D01*
X156457381Y-110021666D02*
X155981190Y-110355000D01*
X156457381Y-110593095D02*
X155457381Y-110593095D01*
X155457381Y-110212142D01*
X155505000Y-110116904D01*
X155552619Y-110069285D01*
X155647857Y-110021666D01*
X155790714Y-110021666D01*
X155885952Y-110069285D01*
X155933571Y-110116904D01*
X155981190Y-110212142D01*
X155981190Y-110593095D01*
X155885952Y-109450238D02*
X155838333Y-109545476D01*
X155790714Y-109593095D01*
X155695476Y-109640714D01*
X155647857Y-109640714D01*
X155552619Y-109593095D01*
X155505000Y-109545476D01*
X155457381Y-109450238D01*
X155457381Y-109259761D01*
X155505000Y-109164523D01*
X155552619Y-109116904D01*
X155647857Y-109069285D01*
X155695476Y-109069285D01*
X155790714Y-109116904D01*
X155838333Y-109164523D01*
X155885952Y-109259761D01*
X155885952Y-109450238D01*
X155933571Y-109545476D01*
X155981190Y-109593095D01*
X156076429Y-109640714D01*
X156266905Y-109640714D01*
X156362143Y-109593095D01*
X156409762Y-109545476D01*
X156457381Y-109450238D01*
X156457381Y-109259761D01*
X156409762Y-109164523D01*
X156362143Y-109116904D01*
X156266905Y-109069285D01*
X156076429Y-109069285D01*
X155981190Y-109116904D01*
X155933571Y-109164523D01*
X155885952Y-109259761D01*
X133342143Y-109037381D02*
X133008809Y-108561190D01*
X132770714Y-109037381D02*
X132770714Y-108037381D01*
X133151667Y-108037381D01*
X133246905Y-108085000D01*
X133294524Y-108132619D01*
X133342143Y-108227857D01*
X133342143Y-108370714D01*
X133294524Y-108465952D01*
X133246905Y-108513571D01*
X133151667Y-108561190D01*
X132770714Y-108561190D01*
X134294524Y-109037381D02*
X133723095Y-109037381D01*
X134008809Y-109037381D02*
X134008809Y-108037381D01*
X133913571Y-108180238D01*
X133818333Y-108275476D01*
X133723095Y-108323095D01*
X134913571Y-108037381D02*
X135008810Y-108037381D01*
X135104048Y-108085000D01*
X135151667Y-108132619D01*
X135199286Y-108227857D01*
X135246905Y-108418333D01*
X135246905Y-108656429D01*
X135199286Y-108846905D01*
X135151667Y-108942143D01*
X135104048Y-108989762D01*
X135008810Y-109037381D01*
X134913571Y-109037381D01*
X134818333Y-108989762D01*
X134770714Y-108942143D01*
X134723095Y-108846905D01*
X134675476Y-108656429D01*
X134675476Y-108418333D01*
X134723095Y-108227857D01*
X134770714Y-108132619D01*
X134818333Y-108085000D01*
X134913571Y-108037381D01*
X133342143Y-120467381D02*
X133008809Y-119991190D01*
X132770714Y-120467381D02*
X132770714Y-119467381D01*
X133151667Y-119467381D01*
X133246905Y-119515000D01*
X133294524Y-119562619D01*
X133342143Y-119657857D01*
X133342143Y-119800714D01*
X133294524Y-119895952D01*
X133246905Y-119943571D01*
X133151667Y-119991190D01*
X132770714Y-119991190D01*
X134294524Y-120467381D02*
X133723095Y-120467381D01*
X134008809Y-120467381D02*
X134008809Y-119467381D01*
X133913571Y-119610238D01*
X133818333Y-119705476D01*
X133723095Y-119753095D01*
X134675476Y-119562619D02*
X134723095Y-119515000D01*
X134818333Y-119467381D01*
X135056429Y-119467381D01*
X135151667Y-119515000D01*
X135199286Y-119562619D01*
X135246905Y-119657857D01*
X135246905Y-119753095D01*
X135199286Y-119895952D01*
X134627857Y-120467381D01*
X135246905Y-120467381D01*
X186832977Y-112374881D02*
X186832977Y-113089167D01*
X186785357Y-113232024D01*
X186690119Y-113327262D01*
X186547262Y-113374881D01*
X186452024Y-113374881D01*
X187832977Y-113374881D02*
X187261548Y-113374881D01*
X187547262Y-113374881D02*
X187547262Y-112374881D01*
X187452024Y-112517738D01*
X187356786Y-112612976D01*
X187261548Y-112660595D01*
X188690120Y-112708214D02*
X188690120Y-113374881D01*
X188452024Y-112327262D02*
X188213929Y-113041548D01*
X188832977Y-113041548D01*
X206200477Y-110787381D02*
X206200477Y-111501667D01*
X206152857Y-111644524D01*
X206057619Y-111739762D01*
X205914762Y-111787381D01*
X205819524Y-111787381D01*
X207200477Y-111787381D02*
X206629048Y-111787381D01*
X206914762Y-111787381D02*
X206914762Y-110787381D01*
X206819524Y-110930238D01*
X206724286Y-111025476D01*
X206629048Y-111073095D01*
X208105239Y-110787381D02*
X207629048Y-110787381D01*
X207581429Y-111263571D01*
X207629048Y-111215952D01*
X207724286Y-111168333D01*
X207962382Y-111168333D01*
X208057620Y-111215952D01*
X208105239Y-111263571D01*
X208152858Y-111358810D01*
X208152858Y-111596905D01*
X208105239Y-111692143D01*
X208057620Y-111739762D01*
X207962382Y-111787381D01*
X207724286Y-111787381D01*
X207629048Y-111739762D01*
X207581429Y-111692143D01*
X204312143Y-99814285D02*
X204359762Y-99861904D01*
X204407381Y-100004761D01*
X204407381Y-100099999D01*
X204359762Y-100242857D01*
X204264524Y-100338095D01*
X204169286Y-100385714D01*
X203978810Y-100433333D01*
X203835952Y-100433333D01*
X203645476Y-100385714D01*
X203550238Y-100338095D01*
X203455000Y-100242857D01*
X203407381Y-100099999D01*
X203407381Y-100004761D01*
X203455000Y-99861904D01*
X203502619Y-99814285D01*
X203407381Y-99195238D02*
X203407381Y-99004761D01*
X203455000Y-98909523D01*
X203550238Y-98814285D01*
X203740714Y-98766666D01*
X204074048Y-98766666D01*
X204264524Y-98814285D01*
X204359762Y-98909523D01*
X204407381Y-99004761D01*
X204407381Y-99195238D01*
X204359762Y-99290476D01*
X204264524Y-99385714D01*
X204074048Y-99433333D01*
X203740714Y-99433333D01*
X203550238Y-99385714D01*
X203455000Y-99290476D01*
X203407381Y-99195238D01*
X204407381Y-98338095D02*
X203407381Y-98338095D01*
X204407381Y-97766666D01*
X203407381Y-97766666D01*
X204407381Y-96766666D02*
X204407381Y-97338095D01*
X204407381Y-97052381D02*
X203407381Y-97052381D01*
X203550238Y-97147619D01*
X203645476Y-97242857D01*
X203693095Y-97338095D01*
D12*
X213627381Y-101294285D02*
X213627381Y-101865714D01*
X213627381Y-101580000D02*
X212627381Y-101580000D01*
X212770238Y-101675238D01*
X212865476Y-101770476D01*
X212913095Y-101865714D01*
D13*
X126198334Y-108807381D02*
X125865000Y-108331190D01*
X125626905Y-108807381D02*
X125626905Y-107807381D01*
X126007858Y-107807381D01*
X126103096Y-107855000D01*
X126150715Y-107902619D01*
X126198334Y-107997857D01*
X126198334Y-108140714D01*
X126150715Y-108235952D01*
X126103096Y-108283571D01*
X126007858Y-108331190D01*
X125626905Y-108331190D01*
X126674524Y-108807381D02*
X126865000Y-108807381D01*
X126960239Y-108759762D01*
X127007858Y-108712143D01*
X127103096Y-108569286D01*
X127150715Y-108378810D01*
X127150715Y-107997857D01*
X127103096Y-107902619D01*
X127055477Y-107855000D01*
X126960239Y-107807381D01*
X126769762Y-107807381D01*
X126674524Y-107855000D01*
X126626905Y-107902619D01*
X126579286Y-107997857D01*
X126579286Y-108235952D01*
X126626905Y-108331190D01*
X126674524Y-108378810D01*
X126769762Y-108426429D01*
X126960239Y-108426429D01*
X127055477Y-108378810D01*
X127103096Y-108331190D01*
X127150715Y-108235952D01*
X125722143Y-120237381D02*
X125388809Y-119761190D01*
X125150714Y-120237381D02*
X125150714Y-119237381D01*
X125531667Y-119237381D01*
X125626905Y-119285000D01*
X125674524Y-119332619D01*
X125722143Y-119427857D01*
X125722143Y-119570714D01*
X125674524Y-119665952D01*
X125626905Y-119713571D01*
X125531667Y-119761190D01*
X125150714Y-119761190D01*
X126674524Y-120237381D02*
X126103095Y-120237381D01*
X126388809Y-120237381D02*
X126388809Y-119237381D01*
X126293571Y-119380238D01*
X126198333Y-119475476D01*
X126103095Y-119523095D01*
X127626905Y-120237381D02*
X127055476Y-120237381D01*
X127341190Y-120237381D02*
X127341190Y-119237381D01*
X127245952Y-119380238D01*
X127150714Y-119475476D01*
X127055476Y-119523095D01*
X157992381Y-124634523D02*
X158706667Y-124634523D01*
X158849524Y-124682143D01*
X158944762Y-124777381D01*
X158992381Y-124920238D01*
X158992381Y-125015476D01*
X158992381Y-123634523D02*
X158992381Y-124205952D01*
X158992381Y-123920238D02*
X157992381Y-123920238D01*
X158135238Y-124015476D01*
X158230476Y-124110714D01*
X158278095Y-124205952D01*
X157992381Y-122777380D02*
X157992381Y-122967857D01*
X158040000Y-123063095D01*
X158087619Y-123110714D01*
X158230476Y-123205952D01*
X158420952Y-123253571D01*
X158801905Y-123253571D01*
X158897143Y-123205952D01*
X158944762Y-123158333D01*
X158992381Y-123063095D01*
X158992381Y-122872618D01*
X158944762Y-122777380D01*
X158897143Y-122729761D01*
X158801905Y-122682142D01*
X158563810Y-122682142D01*
X158468571Y-122729761D01*
X158420952Y-122777380D01*
X158373333Y-122872618D01*
X158373333Y-123063095D01*
X158420952Y-123158333D01*
X158468571Y-123205952D01*
X158563810Y-123253571D01*
X147828095Y-90892381D02*
X147828095Y-91701905D01*
X147875714Y-91797143D01*
X147923333Y-91844762D01*
X148018571Y-91892381D01*
X148209048Y-91892381D01*
X148304286Y-91844762D01*
X148351905Y-91797143D01*
X148399524Y-91701905D01*
X148399524Y-90892381D01*
X148780476Y-90892381D02*
X149399524Y-90892381D01*
X149066190Y-91273333D01*
X149209048Y-91273333D01*
X149304286Y-91320952D01*
X149351905Y-91368571D01*
X149399524Y-91463810D01*
X149399524Y-91701905D01*
X149351905Y-91797143D01*
X149304286Y-91844762D01*
X149209048Y-91892381D01*
X148923333Y-91892381D01*
X148828095Y-91844762D01*
X148780476Y-91797143D01*
X125555476Y-141667381D02*
X125555476Y-140667381D01*
X125888810Y-141381667D01*
X126222143Y-140667381D01*
X126222143Y-141667381D01*
X127222143Y-141667381D02*
X126650714Y-141667381D01*
X126936428Y-141667381D02*
X126936428Y-140667381D01*
X126841190Y-140810238D01*
X126745952Y-140905476D01*
X126650714Y-140953095D01*
M02*
