G04 #@! TF.FileFunction,Copper,L1,Top,Signal*
%FSLAX46Y46*%
G04 Gerber Fmt 4.6, Leading zero omitted, Abs format (unit mm)*
G04 Created by KiCad (PCBNEW 4.0.7) date Fri Feb  9 05:02:28 2018*
%MOMM*%
%LPD*%
G01*
G04 APERTURE LIST*
%ADD10C,0.100000*%
%ADD11R,1.500000X1.250000*%
%ADD12R,1.600000X2.600000*%
%ADD13R,0.750000X0.800000*%
%ADD14R,1.600000X2.000000*%
%ADD15R,2.400000X2.400000*%
%ADD16C,2.400000*%
%ADD17R,2.000000X1.600000*%
%ADD18R,1.250000X1.500000*%
%ADD19C,2.000000*%
%ADD20R,1.800000X2.500000*%
%ADD21R,0.900000X1.200000*%
%ADD22O,2.500000X4.000000*%
%ADD23R,1.980000X3.960000*%
%ADD24O,1.980000X3.960000*%
%ADD25R,1.700000X1.700000*%
%ADD26O,1.700000X1.700000*%
%ADD27C,1.000000*%
%ADD28R,1.000000X1.000000*%
%ADD29R,1.600000X1.600000*%
%ADD30O,1.600000X1.600000*%
%ADD31R,0.508000X1.143000*%
%ADD32C,1.500000*%
%ADD33R,1.300000X1.500000*%
%ADD34R,1.500000X1.300000*%
%ADD35R,1.727200X1.727200*%
%ADD36O,1.727200X1.727200*%
%ADD37C,1.600000*%
%ADD38C,0.600000*%
%ADD39C,0.254000*%
%ADD40C,0.381000*%
%ADD41C,0.812800*%
%ADD42C,0.508000*%
G04 APERTURE END LIST*
D10*
D11*
X159238000Y-67310000D03*
X156738000Y-67310000D03*
D12*
X147320000Y-101705000D03*
X147320000Y-105305000D03*
D13*
X146050000Y-111875000D03*
X146050000Y-110375000D03*
D14*
X151130000Y-101505000D03*
X151130000Y-105505000D03*
D13*
X146050000Y-114185000D03*
X146050000Y-115685000D03*
D15*
X98425000Y-41910000D03*
D16*
X90925000Y-41910000D03*
D15*
X98425000Y-62230000D03*
D16*
X90925000Y-62230000D03*
D14*
X122555000Y-63405000D03*
X122555000Y-67405000D03*
X137795000Y-110395000D03*
X137795000Y-114395000D03*
D17*
X118840000Y-63500000D03*
X114840000Y-63500000D03*
D12*
X133985000Y-110595000D03*
X133985000Y-114195000D03*
D11*
X109200000Y-63500000D03*
X106700000Y-63500000D03*
D18*
X107950000Y-77490000D03*
X107950000Y-79990000D03*
D11*
X109240000Y-74930000D03*
X111740000Y-74930000D03*
D14*
X122555000Y-75025000D03*
X122555000Y-71025000D03*
D17*
X162528000Y-71120000D03*
X158528000Y-71120000D03*
X133445000Y-71120000D03*
X129445000Y-71120000D03*
D11*
X130155000Y-67310000D03*
X127655000Y-67310000D03*
D19*
X108802898Y-52287898D02*
X108802898Y-52287898D01*
X115987102Y-52287898D02*
X115987102Y-52287898D01*
X112395000Y-48695795D02*
X112395000Y-48695795D01*
D10*
G36*
X113809214Y-55880000D02*
X112395000Y-57294214D01*
X110980786Y-55880000D01*
X112395000Y-54465786D01*
X113809214Y-55880000D01*
X113809214Y-55880000D01*
G37*
D20*
X118110000Y-75025000D03*
X118110000Y-71025000D03*
D21*
X114935000Y-87165000D03*
X114935000Y-89365000D03*
D22*
X179070000Y-57560000D03*
X179070000Y-35560000D03*
X149860000Y-57560000D03*
X149860000Y-35560000D03*
D23*
X107315000Y-38735000D03*
D24*
X112315000Y-38735000D03*
X117315000Y-38735000D03*
D25*
X106680000Y-123190000D03*
D26*
X109220000Y-123190000D03*
X111760000Y-123190000D03*
X114300000Y-123190000D03*
X116840000Y-123190000D03*
X119380000Y-123190000D03*
X121920000Y-123190000D03*
X124460000Y-123190000D03*
D25*
X106680000Y-99060000D03*
D26*
X109220000Y-99060000D03*
X111760000Y-99060000D03*
X114300000Y-99060000D03*
X116840000Y-99060000D03*
X119380000Y-99060000D03*
X121920000Y-99060000D03*
X124460000Y-99060000D03*
D25*
X142240000Y-76835000D03*
D26*
X144780000Y-76835000D03*
X147320000Y-76835000D03*
X149860000Y-76835000D03*
D25*
X142240000Y-81915000D03*
D26*
X144780000Y-81915000D03*
X147320000Y-81915000D03*
X149860000Y-81915000D03*
D25*
X182880000Y-104140000D03*
D26*
X182880000Y-106680000D03*
X182880000Y-109220000D03*
X182880000Y-111760000D03*
X182880000Y-114300000D03*
X182880000Y-116840000D03*
X182880000Y-119380000D03*
X182880000Y-121920000D03*
X182880000Y-124460000D03*
D25*
X182880000Y-77470000D03*
D26*
X182880000Y-74930000D03*
X182880000Y-72390000D03*
X182880000Y-69850000D03*
D25*
X157988000Y-74930000D03*
D26*
X160528000Y-74930000D03*
X163068000Y-74930000D03*
D25*
X128905000Y-74930000D03*
D26*
X131445000Y-74930000D03*
X133985000Y-74930000D03*
D25*
X124460000Y-88265000D03*
D26*
X121920000Y-88265000D03*
D25*
X121920000Y-57150000D03*
D26*
X119380000Y-57150000D03*
D23*
X158750000Y-38735000D03*
D24*
X163750000Y-38735000D03*
X168750000Y-38735000D03*
D23*
X129540000Y-38735000D03*
D24*
X134540000Y-38735000D03*
X139540000Y-38735000D03*
D10*
G36*
X115345711Y-79929924D02*
X113790076Y-78374289D01*
X115204289Y-76960076D01*
X116759924Y-78515711D01*
X115345711Y-79929924D01*
X115345711Y-79929924D01*
G37*
G36*
X119745711Y-84329924D02*
X118190076Y-82774289D01*
X119604289Y-81360076D01*
X121159924Y-82915711D01*
X119745711Y-84329924D01*
X119745711Y-84329924D01*
G37*
D25*
X87947500Y-87312500D03*
D26*
X87947500Y-84772500D03*
D25*
X87947500Y-106997500D03*
D26*
X87947500Y-104457500D03*
D27*
X89217500Y-78422500D03*
X87947500Y-79692500D03*
D28*
X87947500Y-77152500D03*
D27*
X89217500Y-98107500D03*
X87947500Y-99377500D03*
D28*
X87947500Y-96837500D03*
D29*
X155575000Y-91440000D03*
D30*
X163195000Y-124460000D03*
X155575000Y-93980000D03*
X163195000Y-121920000D03*
X155575000Y-96520000D03*
X163195000Y-119380000D03*
X155575000Y-99060000D03*
X163195000Y-116840000D03*
X155575000Y-101600000D03*
X163195000Y-114300000D03*
X155575000Y-104140000D03*
X163195000Y-111760000D03*
X155575000Y-106680000D03*
X163195000Y-109220000D03*
X155575000Y-109220000D03*
X163195000Y-106680000D03*
X155575000Y-111760000D03*
X163195000Y-104140000D03*
X155575000Y-114300000D03*
X163195000Y-101600000D03*
X155575000Y-116840000D03*
X163195000Y-99060000D03*
X155575000Y-119380000D03*
X163195000Y-96520000D03*
X155575000Y-121920000D03*
X163195000Y-93980000D03*
X155575000Y-124460000D03*
X163195000Y-91440000D03*
D29*
X101600000Y-116205000D03*
D30*
X129540000Y-108585000D03*
X104140000Y-116205000D03*
X127000000Y-108585000D03*
X106680000Y-116205000D03*
X124460000Y-108585000D03*
X109220000Y-116205000D03*
X121920000Y-108585000D03*
X111760000Y-116205000D03*
X119380000Y-108585000D03*
X114300000Y-116205000D03*
X116840000Y-108585000D03*
X116840000Y-116205000D03*
X114300000Y-108585000D03*
X119380000Y-116205000D03*
X111760000Y-108585000D03*
X121920000Y-116205000D03*
X109220000Y-108585000D03*
X124460000Y-116205000D03*
X106680000Y-108585000D03*
X127000000Y-116205000D03*
X104140000Y-108585000D03*
X129540000Y-116205000D03*
X101600000Y-108585000D03*
D31*
X113665000Y-71755000D03*
X112395000Y-71755000D03*
X111125000Y-71755000D03*
X109855000Y-71755000D03*
X109855000Y-65405000D03*
X111125000Y-65405000D03*
X112395000Y-65405000D03*
X113665000Y-65405000D03*
X162433000Y-64770000D03*
X161163000Y-64770000D03*
X159893000Y-64770000D03*
X158623000Y-64770000D03*
X158623000Y-58420000D03*
X159893000Y-58420000D03*
X161163000Y-58420000D03*
X162433000Y-58420000D03*
X133350000Y-64770000D03*
X132080000Y-64770000D03*
X130810000Y-64770000D03*
X129540000Y-64770000D03*
X129540000Y-58420000D03*
X130810000Y-58420000D03*
X132080000Y-58420000D03*
X133350000Y-58420000D03*
D32*
X149860000Y-115570000D03*
X149860000Y-110690000D03*
D33*
X151130000Y-94060000D03*
X151130000Y-91360000D03*
D34*
X114220000Y-105410000D03*
X116920000Y-105410000D03*
X114380000Y-60960000D03*
X111680000Y-60960000D03*
X109300000Y-60960000D03*
X106600000Y-60960000D03*
X111840000Y-82550000D03*
X109140000Y-82550000D03*
X111840000Y-90170000D03*
X109140000Y-90170000D03*
X109140000Y-86360000D03*
X111840000Y-86360000D03*
D33*
X117475000Y-86915000D03*
X117475000Y-89615000D03*
X93662500Y-78502500D03*
X93662500Y-75802500D03*
X93662500Y-98187500D03*
X93662500Y-95487500D03*
D25*
X147955000Y-93980000D03*
D26*
X147955000Y-96520000D03*
D25*
X167005000Y-96520000D03*
D35*
X173990000Y-116840000D03*
D36*
X171450000Y-116840000D03*
X173990000Y-114300000D03*
X171450000Y-114300000D03*
X173990000Y-111760000D03*
X171450000Y-111760000D03*
D37*
X93345000Y-81915000D03*
D30*
X93345000Y-86995000D03*
D37*
X93345000Y-102235000D03*
D30*
X93345000Y-107315000D03*
D38*
X179705000Y-125095000D03*
X186055000Y-121285000D03*
X114300000Y-111125000D03*
X166370000Y-111760000D03*
X165100000Y-69850000D03*
X96520000Y-85090000D03*
X125095000Y-76200000D03*
X118745000Y-85090000D03*
X113665000Y-90170000D03*
X159385000Y-78105000D03*
X127635000Y-64770000D03*
X154940000Y-65405000D03*
X123190000Y-60960000D03*
X102235000Y-60960000D03*
X129540000Y-113665000D03*
X160655000Y-106680000D03*
X158115000Y-109220000D03*
X146050000Y-113030000D03*
X110490000Y-67945000D03*
X158750000Y-100330000D03*
X166370000Y-104140000D03*
X179705000Y-116205000D03*
X166370000Y-114300000D03*
X186055000Y-123825000D03*
X118110000Y-119380000D03*
X114300000Y-95885000D03*
X111760000Y-95885000D03*
X172720000Y-104140000D03*
X179070000Y-105410000D03*
X144780000Y-85090000D03*
X144780000Y-97790000D03*
X158115000Y-111125000D03*
X92710000Y-90170000D03*
X95250000Y-92710000D03*
X161163000Y-68580000D03*
X159385000Y-87630000D03*
X149225000Y-73660000D03*
X132080000Y-68580000D03*
X118745000Y-65405000D03*
X114935000Y-71755000D03*
D39*
X171450000Y-116840000D02*
X179705000Y-125095000D01*
X186055000Y-121285000D02*
X184785000Y-120015000D01*
X184785000Y-120015000D02*
X184785000Y-117475000D01*
X184785000Y-117475000D02*
X184150000Y-116840000D01*
X184150000Y-116840000D02*
X184150000Y-105410000D01*
X184150000Y-105410000D02*
X182880000Y-104140000D01*
X147320000Y-101705000D02*
X147320000Y-101600000D01*
X147320000Y-101600000D02*
X146685000Y-101600000D01*
X146685000Y-101600000D02*
X137795000Y-110490000D01*
X137795000Y-110490000D02*
X137795000Y-110395000D01*
X144780000Y-81915000D02*
X149860000Y-86995000D01*
X149860000Y-86995000D02*
X149860000Y-92710000D01*
X149860000Y-92710000D02*
X151130000Y-93980000D01*
X151130000Y-93980000D02*
X151130000Y-94060000D01*
X114220000Y-105410000D02*
X114300000Y-105410000D01*
X114300000Y-105410000D02*
X115570000Y-106680000D01*
X115570000Y-106680000D02*
X115570000Y-109855000D01*
X115570000Y-109855000D02*
X114300000Y-111125000D01*
X166370000Y-111760000D02*
X171450000Y-116840000D01*
X162528000Y-71120000D02*
X163830000Y-71120000D01*
X163830000Y-71120000D02*
X165100000Y-69850000D01*
X111840000Y-90170000D02*
X111760000Y-90170000D01*
X111760000Y-90170000D02*
X112395000Y-90805000D01*
X112395000Y-90805000D02*
X112395000Y-91440000D01*
X112395000Y-91440000D02*
X115570000Y-94615000D01*
X115570000Y-94615000D02*
X115570000Y-103505000D01*
X115570000Y-103505000D02*
X114300000Y-104775000D01*
X114300000Y-104775000D02*
X114300000Y-105410000D01*
X114300000Y-105410000D02*
X114220000Y-105410000D01*
X93345000Y-102235000D02*
X96520000Y-99060000D01*
X96520000Y-99060000D02*
X96520000Y-85090000D01*
X125095000Y-76200000D02*
X123825000Y-76200000D01*
X123825000Y-76200000D02*
X122555000Y-74930000D01*
X122555000Y-74930000D02*
X122555000Y-75025000D01*
X117475000Y-86915000D02*
X117475000Y-86995000D01*
X117475000Y-86995000D02*
X123190000Y-86995000D01*
X123190000Y-86995000D02*
X124460000Y-88265000D01*
X142240000Y-76835000D02*
X142240000Y-81915000D01*
X137795000Y-110395000D02*
X137795000Y-110490000D01*
X137795000Y-110490000D02*
X133985000Y-110490000D01*
X133985000Y-110490000D02*
X133985000Y-110595000D01*
X114220000Y-105410000D02*
X114300000Y-105410000D01*
X114300000Y-105410000D02*
X114300000Y-108585000D01*
X163068000Y-74930000D02*
X163068000Y-71660000D01*
X163068000Y-71660000D02*
X162528000Y-71120000D01*
X162433000Y-64770000D02*
X162433000Y-71025000D01*
X162433000Y-71025000D02*
X162528000Y-71120000D01*
X133985000Y-74930000D02*
X133985000Y-71660000D01*
X133985000Y-71660000D02*
X133445000Y-71120000D01*
X133350000Y-64770000D02*
X133350000Y-71025000D01*
X133350000Y-71025000D02*
X133445000Y-71120000D01*
X163068000Y-71660000D02*
X162528000Y-71120000D01*
X162433000Y-71025000D02*
X162528000Y-71120000D01*
D40*
X151130000Y-94060000D02*
X151130000Y-101505000D01*
X155575000Y-106680000D02*
X158115000Y-106680000D01*
X158115000Y-106680000D02*
X163195000Y-111760000D01*
X151130000Y-101505000D02*
X151130000Y-102235000D01*
X151130000Y-102235000D02*
X155575000Y-106680000D01*
X147320000Y-101705000D02*
X150930000Y-101705000D01*
X150930000Y-101705000D02*
X151130000Y-101505000D01*
D41*
X111840000Y-90170000D02*
X113665000Y-90170000D01*
X117475000Y-86915000D02*
X117475000Y-85090000D01*
D39*
X119380000Y-57150000D02*
X118110000Y-57150000D01*
X118110000Y-57150000D02*
X112395000Y-51435000D01*
X112395000Y-51435000D02*
X112395000Y-48695795D01*
X157988000Y-74930000D02*
X158115000Y-74930000D01*
X158115000Y-74930000D02*
X158750000Y-75565000D01*
X158750000Y-75565000D02*
X158750000Y-76200000D01*
X158750000Y-76200000D02*
X159385000Y-76835000D01*
X159385000Y-76835000D02*
X159385000Y-78105000D01*
X127655000Y-67310000D02*
X127635000Y-67310000D01*
X127635000Y-67310000D02*
X127635000Y-64770000D01*
X154940000Y-65405000D02*
X156845000Y-67310000D01*
X156845000Y-67310000D02*
X156738000Y-67310000D01*
X121920000Y-88265000D02*
X123190000Y-89535000D01*
X123190000Y-89535000D02*
X123190000Y-109855000D01*
X123190000Y-109855000D02*
X121920000Y-111125000D01*
X121920000Y-111125000D02*
X121920000Y-116205000D01*
X90925000Y-62230000D02*
X90805000Y-62230000D01*
X90805000Y-62230000D02*
X93980000Y-65405000D01*
X93980000Y-65405000D02*
X93980000Y-75565000D01*
X93980000Y-75565000D02*
X93662500Y-75802500D01*
X122555000Y-67405000D02*
X122555000Y-67310000D01*
X122555000Y-67310000D02*
X123825000Y-66040000D01*
X123825000Y-66040000D02*
X123825000Y-61595000D01*
X123825000Y-61595000D02*
X123190000Y-60960000D01*
X90925000Y-62230000D02*
X90805000Y-62230000D01*
X90805000Y-62230000D02*
X90805000Y-41910000D01*
X90805000Y-41910000D02*
X90925000Y-41910000D01*
X106600000Y-60960000D02*
X102235000Y-60960000D01*
X93662500Y-75802500D02*
X93980000Y-75565000D01*
X93980000Y-75565000D02*
X95250000Y-76835000D01*
X95250000Y-76835000D02*
X95250000Y-80010000D01*
X95250000Y-80010000D02*
X94615000Y-80645000D01*
X94615000Y-80645000D02*
X94615000Y-88265000D01*
X94615000Y-88265000D02*
X93980000Y-88900000D01*
X93980000Y-88900000D02*
X93980000Y-95250000D01*
X93980000Y-95250000D02*
X93662500Y-95487500D01*
X129540000Y-113665000D02*
X133350000Y-113665000D01*
X133350000Y-113665000D02*
X133985000Y-114300000D01*
X133985000Y-114300000D02*
X133985000Y-114195000D01*
X93662500Y-95487500D02*
X93980000Y-95250000D01*
X93980000Y-95250000D02*
X90170000Y-95250000D01*
X90170000Y-95250000D02*
X88265000Y-97155000D01*
X88265000Y-97155000D02*
X87947500Y-96837500D01*
X93662500Y-75802500D02*
X93980000Y-75565000D01*
X93980000Y-75565000D02*
X90170000Y-75565000D01*
X90170000Y-75565000D02*
X88265000Y-77470000D01*
X88265000Y-77470000D02*
X87947500Y-77152500D01*
X114935000Y-87165000D02*
X114935000Y-86995000D01*
X114935000Y-86995000D02*
X116205000Y-88265000D01*
X116205000Y-88265000D02*
X121920000Y-88265000D01*
X137795000Y-114395000D02*
X137795000Y-114300000D01*
X137795000Y-114300000D02*
X146050000Y-114300000D01*
X146050000Y-114300000D02*
X146050000Y-114185000D01*
X122555000Y-67405000D02*
X122555000Y-67310000D01*
X122555000Y-67310000D02*
X127655000Y-67310000D01*
X133985000Y-114195000D02*
X133985000Y-114300000D01*
X133985000Y-114300000D02*
X137795000Y-114300000D01*
X137795000Y-114300000D02*
X137795000Y-114395000D01*
D41*
X112315000Y-48615795D02*
X112395000Y-48695795D01*
X112315000Y-38735000D02*
X112315000Y-48615795D01*
D39*
X158623000Y-64770000D02*
X158623000Y-65425000D01*
X157988000Y-74930000D02*
X157988000Y-71660000D01*
X157988000Y-71660000D02*
X158528000Y-71120000D01*
X156738000Y-67310000D02*
X156738000Y-69330000D01*
X156738000Y-69330000D02*
X158528000Y-71120000D01*
X158623000Y-65425000D02*
X156738000Y-67310000D01*
X127655000Y-67310000D02*
X127655000Y-69330000D01*
X127655000Y-69330000D02*
X129445000Y-71120000D01*
X129540000Y-64770000D02*
X129540000Y-65425000D01*
X129540000Y-65425000D02*
X127655000Y-67310000D01*
X128905000Y-74930000D02*
X128905000Y-71660000D01*
X128905000Y-71660000D02*
X129445000Y-71120000D01*
X157988000Y-71660000D02*
X158528000Y-71120000D01*
D40*
X155575000Y-109220000D02*
X158115000Y-109220000D01*
X160655000Y-106680000D02*
X163195000Y-106680000D01*
X151130000Y-105505000D02*
X151860000Y-105505000D01*
X151860000Y-105505000D02*
X155575000Y-109220000D01*
X147320000Y-105305000D02*
X150930000Y-105305000D01*
X150930000Y-105305000D02*
X151130000Y-105505000D01*
D39*
X146050000Y-111875000D02*
X146050000Y-113030000D01*
X146050000Y-113030000D02*
X146050000Y-114185000D01*
D41*
X114935000Y-87165000D02*
X112645000Y-87165000D01*
X112645000Y-87165000D02*
X111840000Y-86360000D01*
X111840000Y-75030000D02*
X111740000Y-74930000D01*
D39*
X149860000Y-110690000D02*
X146365000Y-110690000D01*
X146365000Y-110690000D02*
X146050000Y-110375000D01*
X146365000Y-110690000D02*
X146165000Y-110490000D01*
X155575000Y-111760000D02*
X150930000Y-111760000D01*
X150930000Y-111760000D02*
X149860000Y-110690000D01*
X146050000Y-115685000D02*
X149745000Y-115685000D01*
X149745000Y-115685000D02*
X149860000Y-115570000D01*
X155575000Y-114300000D02*
X151130000Y-114300000D01*
X151130000Y-114300000D02*
X149860000Y-115570000D01*
X112395000Y-65405000D02*
X112395000Y-66040000D01*
X112395000Y-66040000D02*
X110490000Y-67945000D01*
X98425000Y-62230000D02*
X98425000Y-41910000D01*
X114380000Y-60960000D02*
X114300000Y-60960000D01*
X114300000Y-60960000D02*
X112395000Y-59055000D01*
X112395000Y-59055000D02*
X112395000Y-55880000D01*
X122555000Y-63405000D02*
X122555000Y-63500000D01*
X122555000Y-63500000D02*
X121920000Y-62865000D01*
X121920000Y-62865000D02*
X121920000Y-57150000D01*
D41*
X120110000Y-60960000D02*
X122555000Y-63405000D01*
X114380000Y-60960000D02*
X120110000Y-60960000D01*
X112395000Y-65405000D02*
X112395000Y-62945000D01*
X112395000Y-62945000D02*
X114380000Y-60960000D01*
X122555000Y-63405000D02*
X122540000Y-63405000D01*
D39*
X109855000Y-65405000D02*
X109855000Y-64155000D01*
X109855000Y-64155000D02*
X109200000Y-63500000D01*
X155575000Y-91440000D02*
X156845000Y-92710000D01*
X156845000Y-92710000D02*
X156845000Y-93345000D01*
X156845000Y-93345000D02*
X158750000Y-95250000D01*
X158750000Y-95250000D02*
X158750000Y-100330000D01*
X166370000Y-104140000D02*
X173990000Y-111760000D01*
D40*
X151130000Y-91360000D02*
X155495000Y-91360000D01*
X155495000Y-91360000D02*
X155575000Y-91440000D01*
D39*
X179705000Y-116205000D02*
X181610000Y-118110000D01*
X181610000Y-118110000D02*
X184150000Y-118110000D01*
X184150000Y-118110000D02*
X184150000Y-123190000D01*
X184150000Y-123190000D02*
X182880000Y-124460000D01*
X171450000Y-114300000D02*
X172720000Y-115570000D01*
X172720000Y-115570000D02*
X176530000Y-115570000D01*
X176530000Y-115570000D02*
X182880000Y-121920000D01*
X163195000Y-116840000D02*
X163830000Y-116840000D01*
X163830000Y-116840000D02*
X166370000Y-114300000D01*
D41*
X117315000Y-50960000D02*
X115987102Y-52287898D01*
X117315000Y-38735000D02*
X117315000Y-50960000D01*
X107315000Y-50800000D02*
X108802898Y-52287898D01*
X107315000Y-38735000D02*
X107315000Y-50800000D01*
D39*
X182880000Y-74930000D02*
X164465000Y-93345000D01*
X164465000Y-93345000D02*
X164465000Y-113030000D01*
X164465000Y-113030000D02*
X161925000Y-113030000D01*
X161925000Y-113030000D02*
X158115000Y-116840000D01*
X158115000Y-116840000D02*
X158115000Y-123825000D01*
X158115000Y-123825000D02*
X156845000Y-125095000D01*
X156845000Y-125095000D02*
X156845000Y-125730000D01*
X156845000Y-125730000D02*
X154305000Y-125730000D01*
X154305000Y-125730000D02*
X154305000Y-120650000D01*
X154305000Y-120650000D02*
X155575000Y-119380000D01*
X186055000Y-123825000D02*
X187325000Y-122555000D01*
X187325000Y-122555000D02*
X187325000Y-120650000D01*
X187325000Y-120650000D02*
X186055000Y-119380000D01*
X186055000Y-119380000D02*
X186055000Y-116840000D01*
X186055000Y-116840000D02*
X185420000Y-116205000D01*
X185420000Y-116205000D02*
X185420000Y-104775000D01*
X185420000Y-104775000D02*
X184150000Y-103505000D01*
X184150000Y-103505000D02*
X184150000Y-73660000D01*
X184150000Y-73660000D02*
X182880000Y-72390000D01*
D41*
X114935000Y-89365000D02*
X117225000Y-89365000D01*
X117225000Y-89365000D02*
X117475000Y-89615000D01*
D39*
X106680000Y-123190000D02*
X104140000Y-120650000D01*
X104140000Y-120650000D02*
X104140000Y-116205000D01*
X111760000Y-123190000D02*
X114300000Y-120650000D01*
X114300000Y-120650000D02*
X114300000Y-116205000D01*
X114300000Y-123190000D02*
X116840000Y-120650000D01*
X116840000Y-120650000D02*
X116840000Y-116205000D01*
X118110000Y-119380000D02*
X121920000Y-123190000D01*
X124460000Y-123190000D02*
X119380000Y-118110000D01*
X119380000Y-118110000D02*
X119380000Y-116205000D01*
X111760000Y-108585000D02*
X113030000Y-107315000D01*
X113030000Y-107315000D02*
X113030000Y-104140000D01*
X113030000Y-104140000D02*
X114300000Y-102870000D01*
X114300000Y-102870000D02*
X114300000Y-99060000D01*
X114300000Y-95885000D02*
X113030000Y-97155000D01*
X113030000Y-97155000D02*
X113030000Y-100330000D01*
X113030000Y-100330000D02*
X106680000Y-106680000D01*
X106680000Y-106680000D02*
X106680000Y-108585000D01*
X121920000Y-99060000D02*
X118110000Y-102870000D01*
X118110000Y-102870000D02*
X118110000Y-109855000D01*
X118110000Y-109855000D02*
X117475000Y-109855000D01*
X117475000Y-109855000D02*
X114935000Y-112395000D01*
X114935000Y-112395000D02*
X113030000Y-112395000D01*
X113030000Y-112395000D02*
X109220000Y-108585000D01*
X111760000Y-95885000D02*
X110490000Y-97155000D01*
X110490000Y-97155000D02*
X110490000Y-100330000D01*
X110490000Y-100330000D02*
X104140000Y-106680000D01*
X104140000Y-106680000D02*
X104140000Y-108585000D01*
X182880000Y-114300000D02*
X172720000Y-104140000D01*
X179070000Y-105410000D02*
X182880000Y-109220000D01*
X149860000Y-76835000D02*
X148590000Y-78105000D01*
X148590000Y-78105000D02*
X148590000Y-83185000D01*
X148590000Y-83185000D02*
X149225000Y-83185000D01*
X149225000Y-83185000D02*
X156210000Y-90170000D01*
X156210000Y-90170000D02*
X156845000Y-90170000D01*
X156845000Y-90170000D02*
X156845000Y-90805000D01*
X156845000Y-90805000D02*
X158115000Y-92075000D01*
X158115000Y-92075000D02*
X158115000Y-92710000D01*
X158115000Y-92710000D02*
X160655000Y-95250000D01*
X160655000Y-95250000D02*
X160655000Y-100965000D01*
X160655000Y-100965000D02*
X161925000Y-102235000D01*
X161925000Y-102235000D02*
X161925000Y-102870000D01*
X161925000Y-102870000D02*
X163195000Y-104140000D01*
X144780000Y-85090000D02*
X144780000Y-97790000D01*
X158115000Y-111125000D02*
X156845000Y-112395000D01*
X156845000Y-112395000D02*
X156845000Y-123190000D01*
X156845000Y-123190000D02*
X155575000Y-124460000D01*
X149860000Y-81915000D02*
X159385000Y-91440000D01*
X159385000Y-91440000D02*
X159385000Y-92075000D01*
X159385000Y-92075000D02*
X161925000Y-94615000D01*
X161925000Y-94615000D02*
X161925000Y-100330000D01*
X161925000Y-100330000D02*
X163195000Y-101600000D01*
X87947500Y-79692500D02*
X88265000Y-80010000D01*
X88265000Y-80010000D02*
X88265000Y-85090000D01*
X88265000Y-85090000D02*
X87947500Y-84772500D01*
X87947500Y-104457500D02*
X88265000Y-104775000D01*
X88265000Y-104775000D02*
X88265000Y-99695000D01*
X88265000Y-99695000D02*
X87947500Y-99377500D01*
X93662500Y-78502500D02*
X93980000Y-78740000D01*
X93980000Y-78740000D02*
X92075000Y-80645000D01*
X92075000Y-80645000D02*
X92075000Y-88265000D01*
X92075000Y-88265000D02*
X92710000Y-88900000D01*
X92710000Y-88900000D02*
X92710000Y-90170000D01*
X89217500Y-78422500D02*
X89535000Y-78740000D01*
X89535000Y-78740000D02*
X93980000Y-78740000D01*
X93980000Y-78740000D02*
X93662500Y-78502500D01*
X95250000Y-92710000D02*
X95250000Y-97155000D01*
X95250000Y-97155000D02*
X93980000Y-98425000D01*
X93980000Y-98425000D02*
X93662500Y-98187500D01*
X93662500Y-98187500D02*
X93980000Y-98425000D01*
X93980000Y-98425000D02*
X89535000Y-98425000D01*
X89535000Y-98425000D02*
X89217500Y-98107500D01*
X109300000Y-60960000D02*
X111680000Y-60960000D01*
X111125000Y-65405000D02*
X111125000Y-61515000D01*
X111125000Y-61515000D02*
X111680000Y-60960000D01*
X163195000Y-93980000D02*
X160655000Y-91440000D01*
X160655000Y-91440000D02*
X160655000Y-74930000D01*
X160655000Y-74930000D02*
X160528000Y-74930000D01*
X161163000Y-64770000D02*
X161163000Y-68580000D01*
X159385000Y-87630000D02*
X151130000Y-79375000D01*
X151130000Y-79375000D02*
X151130000Y-75565000D01*
X151130000Y-75565000D02*
X149225000Y-73660000D01*
X132080000Y-64770000D02*
X132080000Y-68580000D01*
D42*
X113665000Y-71755000D02*
X114935000Y-71755000D01*
X118840000Y-65310000D02*
X118840000Y-63500000D01*
X118745000Y-65405000D02*
X118840000Y-65310000D01*
X113665000Y-65405000D02*
X113665000Y-64675000D01*
X113665000Y-64675000D02*
X114840000Y-63500000D01*
D40*
X111125000Y-71755000D02*
X111125000Y-73045000D01*
X111125000Y-73045000D02*
X109240000Y-74930000D01*
X107950000Y-77490000D02*
X107950000Y-76220000D01*
X107950000Y-76220000D02*
X109240000Y-74930000D01*
X107950000Y-79990000D02*
X107950000Y-81360000D01*
X107950000Y-81360000D02*
X109140000Y-82550000D01*
D39*
X116920000Y-105410000D02*
X116840000Y-105410000D01*
X116840000Y-105410000D02*
X116840000Y-108585000D01*
X159893000Y-64770000D02*
X159893000Y-66655000D01*
X159893000Y-66655000D02*
X159238000Y-67310000D01*
X130810000Y-64770000D02*
X130810000Y-66655000D01*
X130810000Y-66655000D02*
X130155000Y-67310000D01*
D42*
X109855000Y-71755000D02*
X109220000Y-71755000D01*
X106045000Y-83265000D02*
X109140000Y-86360000D01*
X106045000Y-74930000D02*
X106045000Y-83265000D01*
X109220000Y-71755000D02*
X106045000Y-74930000D01*
D41*
X109140000Y-86360000D02*
X109140000Y-90170000D01*
D39*
G36*
X107823000Y-62774064D02*
X107802560Y-62875000D01*
X107802560Y-64125000D01*
X107823000Y-64233629D01*
X107823000Y-65405000D01*
X107833006Y-65454410D01*
X107861447Y-65496035D01*
X107903841Y-65523315D01*
X107950000Y-65532000D01*
X108953560Y-65532000D01*
X108953560Y-65976500D01*
X108997838Y-66211817D01*
X109093000Y-66359703D01*
X109093000Y-66675000D01*
X109103006Y-66724410D01*
X109131447Y-66766035D01*
X109173841Y-66793315D01*
X109220000Y-66802000D01*
X110555370Y-66802000D01*
X110347495Y-67009875D01*
X110304833Y-67009838D01*
X109961057Y-67151883D01*
X109697808Y-67414673D01*
X109555162Y-67758201D01*
X109554838Y-68130167D01*
X109696883Y-68473943D01*
X109959673Y-68737192D01*
X110303201Y-68879838D01*
X110675167Y-68880162D01*
X111018943Y-68738117D01*
X111282192Y-68475327D01*
X111424838Y-68131799D01*
X111424876Y-68087754D01*
X112710630Y-66802000D01*
X123063000Y-66802000D01*
X123063000Y-71628000D01*
X121412000Y-71628000D01*
X121412000Y-70485000D01*
X121401994Y-70435590D01*
X121373553Y-70393965D01*
X121331159Y-70366685D01*
X121285000Y-70358000D01*
X119380000Y-70358000D01*
X119330590Y-70368006D01*
X119288965Y-70396447D01*
X119261685Y-70438841D01*
X119253000Y-70485000D01*
X119253000Y-71628000D01*
X116967000Y-71628000D01*
X116967000Y-70485000D01*
X116956994Y-70435590D01*
X116928553Y-70393965D01*
X116886159Y-70366685D01*
X116840000Y-70358000D01*
X113030000Y-70358000D01*
X112980590Y-70368006D01*
X112938965Y-70396447D01*
X112911685Y-70438841D01*
X112903000Y-70485000D01*
X112903000Y-70802187D01*
X112814569Y-70931610D01*
X112763560Y-71183500D01*
X112763560Y-72326500D01*
X112807838Y-72561817D01*
X112903000Y-72709703D01*
X112903000Y-87503000D01*
X111252000Y-87503000D01*
X111252000Y-74085433D01*
X111550433Y-73787000D01*
X111760000Y-73787000D01*
X111809410Y-73776994D01*
X111851035Y-73748553D01*
X111878315Y-73706159D01*
X111887000Y-73660000D01*
X111887000Y-73361897D01*
X111887663Y-73360905D01*
X111925271Y-73171838D01*
X111950501Y-73045000D01*
X111950500Y-73044995D01*
X111950500Y-72614878D01*
X111975431Y-72578390D01*
X112026440Y-72326500D01*
X112026440Y-71183500D01*
X111982162Y-70948183D01*
X111887000Y-70800297D01*
X111887000Y-70485000D01*
X111876994Y-70435590D01*
X111848553Y-70393965D01*
X111806159Y-70366685D01*
X111760000Y-70358000D01*
X109220000Y-70358000D01*
X109170590Y-70368006D01*
X109128965Y-70396447D01*
X109101685Y-70438841D01*
X109093000Y-70485000D01*
X109093000Y-70802187D01*
X109022565Y-70905272D01*
X108879794Y-70933671D01*
X108591382Y-71126382D01*
X108089764Y-71628000D01*
X105537000Y-71628000D01*
X105537000Y-59817000D01*
X107823000Y-59817000D01*
X107823000Y-62774064D01*
X107823000Y-62774064D01*
G37*
X107823000Y-62774064D02*
X107802560Y-62875000D01*
X107802560Y-64125000D01*
X107823000Y-64233629D01*
X107823000Y-65405000D01*
X107833006Y-65454410D01*
X107861447Y-65496035D01*
X107903841Y-65523315D01*
X107950000Y-65532000D01*
X108953560Y-65532000D01*
X108953560Y-65976500D01*
X108997838Y-66211817D01*
X109093000Y-66359703D01*
X109093000Y-66675000D01*
X109103006Y-66724410D01*
X109131447Y-66766035D01*
X109173841Y-66793315D01*
X109220000Y-66802000D01*
X110555370Y-66802000D01*
X110347495Y-67009875D01*
X110304833Y-67009838D01*
X109961057Y-67151883D01*
X109697808Y-67414673D01*
X109555162Y-67758201D01*
X109554838Y-68130167D01*
X109696883Y-68473943D01*
X109959673Y-68737192D01*
X110303201Y-68879838D01*
X110675167Y-68880162D01*
X111018943Y-68738117D01*
X111282192Y-68475327D01*
X111424838Y-68131799D01*
X111424876Y-68087754D01*
X112710630Y-66802000D01*
X123063000Y-66802000D01*
X123063000Y-71628000D01*
X121412000Y-71628000D01*
X121412000Y-70485000D01*
X121401994Y-70435590D01*
X121373553Y-70393965D01*
X121331159Y-70366685D01*
X121285000Y-70358000D01*
X119380000Y-70358000D01*
X119330590Y-70368006D01*
X119288965Y-70396447D01*
X119261685Y-70438841D01*
X119253000Y-70485000D01*
X119253000Y-71628000D01*
X116967000Y-71628000D01*
X116967000Y-70485000D01*
X116956994Y-70435590D01*
X116928553Y-70393965D01*
X116886159Y-70366685D01*
X116840000Y-70358000D01*
X113030000Y-70358000D01*
X112980590Y-70368006D01*
X112938965Y-70396447D01*
X112911685Y-70438841D01*
X112903000Y-70485000D01*
X112903000Y-70802187D01*
X112814569Y-70931610D01*
X112763560Y-71183500D01*
X112763560Y-72326500D01*
X112807838Y-72561817D01*
X112903000Y-72709703D01*
X112903000Y-87503000D01*
X111252000Y-87503000D01*
X111252000Y-74085433D01*
X111550433Y-73787000D01*
X111760000Y-73787000D01*
X111809410Y-73776994D01*
X111851035Y-73748553D01*
X111878315Y-73706159D01*
X111887000Y-73660000D01*
X111887000Y-73361897D01*
X111887663Y-73360905D01*
X111925271Y-73171838D01*
X111950501Y-73045000D01*
X111950500Y-73044995D01*
X111950500Y-72614878D01*
X111975431Y-72578390D01*
X112026440Y-72326500D01*
X112026440Y-71183500D01*
X111982162Y-70948183D01*
X111887000Y-70800297D01*
X111887000Y-70485000D01*
X111876994Y-70435590D01*
X111848553Y-70393965D01*
X111806159Y-70366685D01*
X111760000Y-70358000D01*
X109220000Y-70358000D01*
X109170590Y-70368006D01*
X109128965Y-70396447D01*
X109101685Y-70438841D01*
X109093000Y-70485000D01*
X109093000Y-70802187D01*
X109022565Y-70905272D01*
X108879794Y-70933671D01*
X108591382Y-71126382D01*
X108089764Y-71628000D01*
X105537000Y-71628000D01*
X105537000Y-59817000D01*
X107823000Y-59817000D01*
X107823000Y-62774064D01*
G36*
X123698000Y-85598000D02*
X116967000Y-85598000D01*
X116967000Y-82602606D01*
X120739803Y-78829803D01*
X120767666Y-78787789D01*
X120777000Y-78740000D01*
X120777000Y-73152000D01*
X123698000Y-73152000D01*
X123698000Y-85598000D01*
X123698000Y-85598000D01*
G37*
X123698000Y-85598000D02*
X116967000Y-85598000D01*
X116967000Y-82602606D01*
X120739803Y-78829803D01*
X120767666Y-78787789D01*
X120777000Y-78740000D01*
X120777000Y-73152000D01*
X123698000Y-73152000D01*
X123698000Y-85598000D01*
G36*
X119888000Y-78052394D02*
X116115197Y-81825197D01*
X116087334Y-81867211D01*
X116078000Y-81915000D01*
X116078000Y-85598000D01*
X113792000Y-85598000D01*
X113792000Y-73152000D01*
X119888000Y-73152000D01*
X119888000Y-78052394D01*
X119888000Y-78052394D01*
G37*
X119888000Y-78052394D02*
X116115197Y-81825197D01*
X116087334Y-81867211D01*
X116078000Y-81915000D01*
X116078000Y-85598000D01*
X113792000Y-85598000D01*
X113792000Y-73152000D01*
X119888000Y-73152000D01*
X119888000Y-78052394D01*
G36*
X130937000Y-58801000D02*
X128524000Y-58801000D01*
X128524000Y-36703000D01*
X130937000Y-36703000D01*
X130937000Y-58801000D01*
X130937000Y-58801000D01*
G37*
X130937000Y-58801000D02*
X128524000Y-58801000D01*
X128524000Y-36703000D01*
X130937000Y-36703000D01*
X130937000Y-58801000D01*
G36*
X135763000Y-56134000D02*
X135773006Y-56183410D01*
X135801447Y-56225035D01*
X135843841Y-56252315D01*
X135890000Y-56261000D01*
X151251096Y-56261000D01*
X151135642Y-58801000D01*
X131953000Y-58801000D01*
X131953000Y-56261000D01*
X133350000Y-56261000D01*
X133399410Y-56250994D01*
X133441035Y-56222553D01*
X133468315Y-56180159D01*
X133477000Y-56134000D01*
X133477000Y-36957000D01*
X135763000Y-36957000D01*
X135763000Y-56134000D01*
X135763000Y-56134000D01*
G37*
X135763000Y-56134000D02*
X135773006Y-56183410D01*
X135801447Y-56225035D01*
X135843841Y-56252315D01*
X135890000Y-56261000D01*
X151251096Y-56261000D01*
X151135642Y-58801000D01*
X131953000Y-58801000D01*
X131953000Y-56261000D01*
X133350000Y-56261000D01*
X133399410Y-56250994D01*
X133441035Y-56222553D01*
X133468315Y-56180159D01*
X133477000Y-56134000D01*
X133477000Y-36957000D01*
X135763000Y-36957000D01*
X135763000Y-56134000D01*
G36*
X151003000Y-40513000D02*
X138557000Y-40513000D01*
X138557000Y-34417000D01*
X151003000Y-34417000D01*
X151003000Y-40513000D01*
X151003000Y-40513000D01*
G37*
X151003000Y-40513000D02*
X138557000Y-40513000D01*
X138557000Y-34417000D01*
X151003000Y-34417000D01*
X151003000Y-40513000D01*
G36*
X180213000Y-40513000D02*
X167767000Y-40513000D01*
X167767000Y-34417000D01*
X180213000Y-34417000D01*
X180213000Y-40513000D01*
X180213000Y-40513000D01*
G37*
X180213000Y-40513000D02*
X167767000Y-40513000D01*
X167767000Y-34417000D01*
X180213000Y-34417000D01*
X180213000Y-40513000D01*
G36*
X164973000Y-56134000D02*
X164983006Y-56183410D01*
X165011447Y-56225035D01*
X165053841Y-56252315D01*
X165100000Y-56261000D01*
X180340000Y-56261000D01*
X180340000Y-58801000D01*
X161036000Y-58801000D01*
X161036000Y-56261000D01*
X162560000Y-56261000D01*
X162609410Y-56250994D01*
X162651035Y-56222553D01*
X162678315Y-56180159D01*
X162687000Y-56134000D01*
X162687000Y-36957000D01*
X164973000Y-36957000D01*
X164973000Y-56134000D01*
X164973000Y-56134000D01*
G37*
X164973000Y-56134000D02*
X164983006Y-56183410D01*
X165011447Y-56225035D01*
X165053841Y-56252315D01*
X165100000Y-56261000D01*
X180340000Y-56261000D01*
X180340000Y-58801000D01*
X161036000Y-58801000D01*
X161036000Y-56261000D01*
X162560000Y-56261000D01*
X162609410Y-56250994D01*
X162651035Y-56222553D01*
X162678315Y-56180159D01*
X162687000Y-56134000D01*
X162687000Y-36957000D01*
X164973000Y-36957000D01*
X164973000Y-56134000D01*
G36*
X160020000Y-58801000D02*
X157734000Y-58801000D01*
X157734000Y-36703000D01*
X160020000Y-36703000D01*
X160020000Y-58801000D01*
X160020000Y-58801000D01*
G37*
X160020000Y-58801000D02*
X157734000Y-58801000D01*
X157734000Y-36703000D01*
X160020000Y-36703000D01*
X160020000Y-58801000D01*
M02*
