G04 #@! TF.FileFunction,Soldermask,Bot*
%FSLAX46Y46*%
G04 Gerber Fmt 4.6, Leading zero omitted, Abs format (unit mm)*
G04 Created by KiCad (PCBNEW 4.0.7) date Fri Feb  9 22:12:21 2018*
%MOMM*%
%LPD*%
G01*
G04 APERTURE LIST*
%ADD10C,0.100000*%
%ADD11C,3.600000*%
%ADD12C,1.000000*%
%ADD13R,2.800000X2.800000*%
%ADD14C,2.800000*%
%ADD15R,2.000000X2.000000*%
%ADD16O,2.000000X2.000000*%
%ADD17R,2.100000X2.100000*%
%ADD18O,2.100000X2.100000*%
%ADD19O,2.400000X2.400000*%
%ADD20R,2.400000X2.400000*%
%ADD21O,2.900000X4.400000*%
%ADD22C,1.400000*%
%ADD23R,1.400000X1.400000*%
%ADD24C,1.900000*%
%ADD25R,2.127200X2.127200*%
%ADD26O,2.127200X2.127200*%
%ADD27C,2.000000*%
G04 APERTURE END LIST*
D10*
D11*
X206375000Y-76835000D03*
X177165000Y-76835000D03*
X177165000Y-145415000D03*
X126365000Y-127000000D03*
D12*
X149225000Y-99695000D03*
D13*
X135255000Y-67310000D03*
D14*
X127755000Y-67310000D03*
D15*
X195262500Y-112712500D03*
D16*
X202882500Y-145732500D03*
X195262500Y-115252500D03*
X202882500Y-143192500D03*
X195262500Y-117792500D03*
X202882500Y-140652500D03*
X195262500Y-120332500D03*
X202882500Y-138112500D03*
X195262500Y-122872500D03*
X202882500Y-135572500D03*
X195262500Y-125412500D03*
X202882500Y-133032500D03*
X195262500Y-127952500D03*
X202882500Y-130492500D03*
X195262500Y-130492500D03*
X202882500Y-127952500D03*
X195262500Y-133032500D03*
X202882500Y-125412500D03*
X195262500Y-135572500D03*
X202882500Y-122872500D03*
X195262500Y-138112500D03*
X202882500Y-120332500D03*
X195262500Y-140652500D03*
X202882500Y-117792500D03*
X195262500Y-143192500D03*
X202882500Y-115252500D03*
X195262500Y-145732500D03*
X202882500Y-112712500D03*
D17*
X177800000Y-112395000D03*
D18*
X177800000Y-114935000D03*
X177800000Y-117475000D03*
X177800000Y-120015000D03*
D15*
X133350000Y-142875000D03*
D16*
X161290000Y-135255000D03*
X135890000Y-142875000D03*
X158750000Y-135255000D03*
X138430000Y-142875000D03*
X156210000Y-135255000D03*
X140970000Y-142875000D03*
X153670000Y-135255000D03*
X143510000Y-142875000D03*
X151130000Y-135255000D03*
X146050000Y-142875000D03*
X148590000Y-135255000D03*
X148590000Y-142875000D03*
X146050000Y-135255000D03*
X151130000Y-142875000D03*
X143510000Y-135255000D03*
X153670000Y-142875000D03*
X140970000Y-135255000D03*
X156210000Y-142875000D03*
X138430000Y-135255000D03*
X158750000Y-142875000D03*
X135890000Y-135255000D03*
X161290000Y-142875000D03*
X133350000Y-135255000D03*
D13*
X135255000Y-87630000D03*
D14*
X127755000Y-87630000D03*
D19*
X144145000Y-78740000D03*
X149225000Y-73660000D03*
X144145000Y-73660000D03*
D20*
X149225000Y-78740000D03*
D21*
X215900000Y-82960000D03*
X215900000Y-60960000D03*
X186690000Y-82960000D03*
X186690000Y-60960000D03*
D17*
X138430000Y-147955000D03*
D18*
X140970000Y-147955000D03*
X143510000Y-147955000D03*
X146050000Y-147955000D03*
X148590000Y-147955000D03*
X151130000Y-147955000D03*
X153670000Y-147955000D03*
X156210000Y-147955000D03*
D17*
X156210000Y-127635000D03*
D18*
X153670000Y-127635000D03*
X151130000Y-127635000D03*
X148590000Y-127635000D03*
X146050000Y-127635000D03*
X143510000Y-127635000D03*
X140970000Y-127635000D03*
X138430000Y-127635000D03*
D17*
X214630000Y-112395000D03*
D18*
X214630000Y-114935000D03*
X214630000Y-117475000D03*
X214630000Y-120015000D03*
D17*
X219710000Y-129540000D03*
D18*
X219710000Y-132080000D03*
X219710000Y-134620000D03*
X219710000Y-137160000D03*
X219710000Y-139700000D03*
X219710000Y-142240000D03*
X219710000Y-144780000D03*
X219710000Y-147320000D03*
X219710000Y-149860000D03*
D17*
X219710000Y-102870000D03*
D18*
X219710000Y-100330000D03*
X219710000Y-97790000D03*
X219710000Y-95250000D03*
D17*
X194818000Y-100330000D03*
D18*
X197358000Y-100330000D03*
X199898000Y-100330000D03*
D17*
X165735000Y-100330000D03*
D18*
X168275000Y-100330000D03*
X170815000Y-100330000D03*
D17*
X168910000Y-104775000D03*
D18*
X166370000Y-104775000D03*
D17*
X156845000Y-73660000D03*
D18*
X154305000Y-73660000D03*
D17*
X124142500Y-101282500D03*
D18*
X126682500Y-101282500D03*
D17*
X124142500Y-112712500D03*
D18*
X126682500Y-112712500D03*
D22*
X133350000Y-102870000D03*
X132080000Y-101600000D03*
D23*
X134620000Y-101600000D03*
D22*
X133350000Y-114300000D03*
X132080000Y-113030000D03*
D23*
X134620000Y-113030000D03*
D24*
X187960000Y-136906000D03*
X187960000Y-132026000D03*
D17*
X187642500Y-115252500D03*
D18*
X187642500Y-117792500D03*
D17*
X207010000Y-113665000D03*
D25*
X211455000Y-101600000D03*
D26*
X208915000Y-101600000D03*
X211455000Y-99060000D03*
X208915000Y-99060000D03*
X211455000Y-96520000D03*
X208915000Y-96520000D03*
D27*
X128905000Y-106045000D03*
D16*
X123825000Y-106045000D03*
D27*
X128905000Y-117475000D03*
D16*
X123825000Y-117475000D03*
D17*
X156210000Y-123825000D03*
D18*
X153670000Y-123825000D03*
X151130000Y-123825000D03*
X148590000Y-123825000D03*
X146050000Y-123825000D03*
X143510000Y-123825000D03*
X140970000Y-123825000D03*
X138430000Y-123825000D03*
D12*
X144780000Y-90805000D03*
X144780000Y-92075000D03*
X144780000Y-88265000D03*
D11*
X126365000Y-145415000D03*
M02*
