G04 #@! TF.FileFunction,Copper,L2,Bot,Signal*
%FSLAX46Y46*%
G04 Gerber Fmt 4.6, Leading zero omitted, Abs format (unit mm)*
G04 Created by KiCad (PCBNEW 4.0.7) date Fri Feb  9 05:02:28 2018*
%MOMM*%
%LPD*%
G01*
G04 APERTURE LIST*
%ADD10C,0.100000*%
%ADD11R,2.400000X2.400000*%
%ADD12C,2.400000*%
%ADD13C,2.000000*%
%ADD14O,2.500000X4.000000*%
%ADD15R,1.980000X3.960000*%
%ADD16O,1.980000X3.960000*%
%ADD17R,1.700000X1.700000*%
%ADD18O,1.700000X1.700000*%
%ADD19C,1.000000*%
%ADD20R,1.000000X1.000000*%
%ADD21R,1.600000X1.600000*%
%ADD22O,1.600000X1.600000*%
%ADD23C,1.500000*%
%ADD24R,1.727200X1.727200*%
%ADD25O,1.727200X1.727200*%
%ADD26C,1.600000*%
%ADD27C,0.600000*%
%ADD28C,0.254000*%
%ADD29C,0.812800*%
%ADD30C,0.381000*%
%ADD31C,0.508000*%
G04 APERTURE END LIST*
D10*
D11*
X98425000Y-41910000D03*
D12*
X90925000Y-41910000D03*
D11*
X98425000Y-62230000D03*
D12*
X90925000Y-62230000D03*
D13*
X108802898Y-52287898D02*
X108802898Y-52287898D01*
X115987102Y-52287898D02*
X115987102Y-52287898D01*
X112395000Y-48695795D02*
X112395000Y-48695795D01*
D10*
G36*
X113809214Y-55880000D02*
X112395000Y-57294214D01*
X110980786Y-55880000D01*
X112395000Y-54465786D01*
X113809214Y-55880000D01*
X113809214Y-55880000D01*
G37*
D14*
X179070000Y-57560000D03*
X179070000Y-35560000D03*
X149860000Y-57560000D03*
X149860000Y-35560000D03*
D15*
X107315000Y-38735000D03*
D16*
X112315000Y-38735000D03*
X117315000Y-38735000D03*
D17*
X106680000Y-123190000D03*
D18*
X109220000Y-123190000D03*
X111760000Y-123190000D03*
X114300000Y-123190000D03*
X116840000Y-123190000D03*
X119380000Y-123190000D03*
X121920000Y-123190000D03*
X124460000Y-123190000D03*
D17*
X106680000Y-99060000D03*
D18*
X109220000Y-99060000D03*
X111760000Y-99060000D03*
X114300000Y-99060000D03*
X116840000Y-99060000D03*
X119380000Y-99060000D03*
X121920000Y-99060000D03*
X124460000Y-99060000D03*
D17*
X142240000Y-76835000D03*
D18*
X144780000Y-76835000D03*
X147320000Y-76835000D03*
X149860000Y-76835000D03*
D17*
X142240000Y-81915000D03*
D18*
X144780000Y-81915000D03*
X147320000Y-81915000D03*
X149860000Y-81915000D03*
D17*
X182880000Y-104140000D03*
D18*
X182880000Y-106680000D03*
X182880000Y-109220000D03*
X182880000Y-111760000D03*
X182880000Y-114300000D03*
X182880000Y-116840000D03*
X182880000Y-119380000D03*
X182880000Y-121920000D03*
X182880000Y-124460000D03*
D17*
X182880000Y-77470000D03*
D18*
X182880000Y-74930000D03*
X182880000Y-72390000D03*
X182880000Y-69850000D03*
D17*
X157988000Y-74930000D03*
D18*
X160528000Y-74930000D03*
X163068000Y-74930000D03*
D17*
X128905000Y-74930000D03*
D18*
X131445000Y-74930000D03*
X133985000Y-74930000D03*
D17*
X124460000Y-88265000D03*
D18*
X121920000Y-88265000D03*
D17*
X121920000Y-57150000D03*
D18*
X119380000Y-57150000D03*
D15*
X158750000Y-38735000D03*
D16*
X163750000Y-38735000D03*
X168750000Y-38735000D03*
D15*
X129540000Y-38735000D03*
D16*
X134540000Y-38735000D03*
X139540000Y-38735000D03*
D17*
X87947500Y-87312500D03*
D18*
X87947500Y-84772500D03*
D17*
X87947500Y-106997500D03*
D18*
X87947500Y-104457500D03*
D19*
X89217500Y-78422500D03*
X87947500Y-79692500D03*
D20*
X87947500Y-77152500D03*
D19*
X89217500Y-98107500D03*
X87947500Y-99377500D03*
D20*
X87947500Y-96837500D03*
D21*
X155575000Y-91440000D03*
D22*
X163195000Y-124460000D03*
X155575000Y-93980000D03*
X163195000Y-121920000D03*
X155575000Y-96520000D03*
X163195000Y-119380000D03*
X155575000Y-99060000D03*
X163195000Y-116840000D03*
X155575000Y-101600000D03*
X163195000Y-114300000D03*
X155575000Y-104140000D03*
X163195000Y-111760000D03*
X155575000Y-106680000D03*
X163195000Y-109220000D03*
X155575000Y-109220000D03*
X163195000Y-106680000D03*
X155575000Y-111760000D03*
X163195000Y-104140000D03*
X155575000Y-114300000D03*
X163195000Y-101600000D03*
X155575000Y-116840000D03*
X163195000Y-99060000D03*
X155575000Y-119380000D03*
X163195000Y-96520000D03*
X155575000Y-121920000D03*
X163195000Y-93980000D03*
X155575000Y-124460000D03*
X163195000Y-91440000D03*
D21*
X101600000Y-116205000D03*
D22*
X129540000Y-108585000D03*
X104140000Y-116205000D03*
X127000000Y-108585000D03*
X106680000Y-116205000D03*
X124460000Y-108585000D03*
X109220000Y-116205000D03*
X121920000Y-108585000D03*
X111760000Y-116205000D03*
X119380000Y-108585000D03*
X114300000Y-116205000D03*
X116840000Y-108585000D03*
X116840000Y-116205000D03*
X114300000Y-108585000D03*
X119380000Y-116205000D03*
X111760000Y-108585000D03*
X121920000Y-116205000D03*
X109220000Y-108585000D03*
X124460000Y-116205000D03*
X106680000Y-108585000D03*
X127000000Y-116205000D03*
X104140000Y-108585000D03*
X129540000Y-116205000D03*
X101600000Y-108585000D03*
D23*
X149860000Y-115570000D03*
X149860000Y-110690000D03*
D17*
X147955000Y-93980000D03*
D18*
X147955000Y-96520000D03*
D17*
X167005000Y-96520000D03*
D24*
X173990000Y-116840000D03*
D25*
X171450000Y-116840000D03*
X173990000Y-114300000D03*
X171450000Y-114300000D03*
X173990000Y-111760000D03*
X171450000Y-111760000D03*
D26*
X93345000Y-81915000D03*
D22*
X93345000Y-86995000D03*
D26*
X93345000Y-102235000D03*
D22*
X93345000Y-107315000D03*
D27*
X179705000Y-125095000D03*
X186055000Y-121285000D03*
X114300000Y-111125000D03*
X166370000Y-111760000D03*
X165100000Y-69850000D03*
X96520000Y-85090000D03*
X125095000Y-76200000D03*
X118745000Y-85090000D03*
X113665000Y-90170000D03*
X159385000Y-78105000D03*
X127635000Y-64770000D03*
X154940000Y-65405000D03*
X123190000Y-60960000D03*
X102235000Y-60960000D03*
X129540000Y-113665000D03*
X160655000Y-106680000D03*
X158115000Y-109220000D03*
X146050000Y-113030000D03*
X110490000Y-67945000D03*
X158750000Y-100330000D03*
X166370000Y-104140000D03*
X179705000Y-116205000D03*
X166370000Y-114300000D03*
X186055000Y-123825000D03*
X118110000Y-119380000D03*
X114300000Y-95885000D03*
X111760000Y-95885000D03*
X172720000Y-104140000D03*
X179070000Y-105410000D03*
X144780000Y-85090000D03*
X144780000Y-97790000D03*
X158115000Y-111125000D03*
X92710000Y-90170000D03*
X95250000Y-92710000D03*
X161163000Y-68580000D03*
X159385000Y-87630000D03*
X149225000Y-73660000D03*
X132080000Y-68580000D03*
X118745000Y-65405000D03*
X114935000Y-71755000D03*
D28*
X179705000Y-125095000D02*
X181610000Y-123190000D01*
X181610000Y-123190000D02*
X184150000Y-123190000D01*
X184150000Y-123190000D02*
X186055000Y-121285000D01*
X114300000Y-111125000D02*
X113030000Y-109855000D01*
X113030000Y-109855000D02*
X100330000Y-109855000D01*
X100330000Y-109855000D02*
X100330000Y-109220000D01*
X100330000Y-109220000D02*
X93345000Y-102235000D01*
X163195000Y-111760000D02*
X166370000Y-111760000D01*
X144780000Y-76835000D02*
X146050000Y-75565000D01*
X146050000Y-75565000D02*
X151130000Y-75565000D01*
X151130000Y-75565000D02*
X151765000Y-76200000D01*
X151765000Y-76200000D02*
X161925000Y-76200000D01*
X161925000Y-76200000D02*
X163195000Y-74930000D01*
X163195000Y-74930000D02*
X163068000Y-74930000D01*
X165100000Y-69850000D02*
X182880000Y-69850000D01*
X96520000Y-85090000D02*
X93345000Y-81915000D01*
X142240000Y-76835000D02*
X140335000Y-74930000D01*
X140335000Y-74930000D02*
X133985000Y-74930000D01*
X133985000Y-74930000D02*
X132715000Y-76200000D01*
X132715000Y-76200000D02*
X125095000Y-76200000D01*
X142240000Y-81915000D02*
X144780000Y-81915000D01*
X142240000Y-76835000D02*
X144780000Y-76835000D01*
D29*
X113665000Y-90170000D02*
X118745000Y-85090000D01*
D28*
X159385000Y-78105000D02*
X160020000Y-77470000D01*
X160020000Y-77470000D02*
X182880000Y-77470000D01*
X171450000Y-111760000D02*
X176530000Y-106680000D01*
X176530000Y-106680000D02*
X182880000Y-106680000D01*
X163195000Y-106680000D02*
X168275000Y-111760000D01*
X168275000Y-111760000D02*
X171450000Y-111760000D01*
X127635000Y-64770000D02*
X128270000Y-65405000D01*
X128270000Y-65405000D02*
X154940000Y-65405000D01*
X123190000Y-60960000D02*
X119380000Y-57150000D01*
X102235000Y-60960000D02*
X101600000Y-60325000D01*
X101600000Y-60325000D02*
X96520000Y-60325000D01*
X96520000Y-60325000D02*
X94615000Y-62230000D01*
X94615000Y-62230000D02*
X90925000Y-62230000D01*
X121920000Y-116205000D02*
X124460000Y-113665000D01*
X124460000Y-113665000D02*
X129540000Y-113665000D01*
X121920000Y-116205000D02*
X120650000Y-114935000D01*
X120650000Y-114935000D02*
X110490000Y-114935000D01*
X110490000Y-114935000D02*
X109220000Y-116205000D01*
D30*
X158115000Y-109220000D02*
X160655000Y-106680000D01*
D28*
X155575000Y-109220000D02*
X151765000Y-113030000D01*
X151130000Y-113030000D02*
X151765000Y-113030000D01*
X151130000Y-113030000D02*
X146050000Y-113030000D01*
X110490000Y-67945000D02*
X104775000Y-62230000D01*
X104775000Y-62230000D02*
X98425000Y-62230000D01*
X101600000Y-116205000D02*
X105410000Y-112395000D01*
X105410000Y-112395000D02*
X125095000Y-112395000D01*
X125095000Y-112395000D02*
X125730000Y-113030000D01*
X125730000Y-113030000D02*
X130175000Y-113030000D01*
X130175000Y-113030000D02*
X135255000Y-118110000D01*
X135255000Y-118110000D02*
X156845000Y-118110000D01*
X156845000Y-118110000D02*
X158115000Y-119380000D01*
X158115000Y-119380000D02*
X163195000Y-119380000D01*
X163195000Y-119380000D02*
X164465000Y-118110000D01*
X164465000Y-118110000D02*
X172720000Y-118110000D01*
X172720000Y-118110000D02*
X173990000Y-116840000D01*
X173990000Y-116840000D02*
X176530000Y-119380000D01*
X176530000Y-119380000D02*
X182880000Y-119380000D01*
X158750000Y-100330000D02*
X161290000Y-102870000D01*
X161290000Y-102870000D02*
X164465000Y-102870000D01*
X164465000Y-102870000D02*
X165735000Y-104140000D01*
X165735000Y-104140000D02*
X166370000Y-104140000D01*
X163195000Y-114300000D02*
X161925000Y-113030000D01*
X161925000Y-113030000D02*
X154305000Y-113030000D01*
X154305000Y-113030000D02*
X153670000Y-113665000D01*
X153670000Y-113665000D02*
X145415000Y-113665000D01*
X145415000Y-113665000D02*
X140335000Y-108585000D01*
X140335000Y-108585000D02*
X129540000Y-108585000D01*
X173990000Y-114300000D02*
X175895000Y-116205000D01*
X175895000Y-116205000D02*
X179705000Y-116205000D01*
X163195000Y-114300000D02*
X164465000Y-115570000D01*
X164465000Y-115570000D02*
X172720000Y-115570000D01*
X172720000Y-115570000D02*
X173990000Y-114300000D01*
X166370000Y-114300000D02*
X171450000Y-114300000D01*
X155575000Y-121920000D02*
X160020000Y-126365000D01*
X160020000Y-126365000D02*
X180340000Y-126365000D01*
X180340000Y-126365000D02*
X180975000Y-125730000D01*
X180975000Y-125730000D02*
X184150000Y-125730000D01*
X184150000Y-125730000D02*
X186055000Y-123825000D01*
X127000000Y-116205000D02*
X121285000Y-121920000D01*
X121285000Y-121920000D02*
X120650000Y-121920000D01*
X120650000Y-121920000D02*
X120650000Y-124460000D01*
X120650000Y-124460000D02*
X110490000Y-124460000D01*
X110490000Y-124460000D02*
X109220000Y-123190000D01*
X116840000Y-123190000D02*
X111125000Y-117475000D01*
X111125000Y-117475000D02*
X107950000Y-117475000D01*
X107950000Y-117475000D02*
X106680000Y-116205000D01*
X119380000Y-123190000D02*
X119380000Y-121285000D01*
X119380000Y-121285000D02*
X124460000Y-116205000D01*
X111760000Y-116205000D02*
X114935000Y-119380000D01*
X114935000Y-119380000D02*
X118110000Y-119380000D01*
X106680000Y-99060000D02*
X107950000Y-97790000D01*
X107950000Y-97790000D02*
X115570000Y-97790000D01*
X115570000Y-97790000D02*
X115570000Y-100965000D01*
X115570000Y-100965000D02*
X121285000Y-106680000D01*
X121285000Y-106680000D02*
X121285000Y-107950000D01*
X121285000Y-107950000D02*
X121920000Y-108585000D01*
X119380000Y-108585000D02*
X111125000Y-100330000D01*
X111125000Y-100330000D02*
X110490000Y-100330000D01*
X110490000Y-100330000D02*
X109220000Y-99060000D01*
X111760000Y-99060000D02*
X120015000Y-107315000D01*
X120015000Y-107315000D02*
X120650000Y-107315000D01*
X120650000Y-107315000D02*
X120650000Y-109855000D01*
X120650000Y-109855000D02*
X125730000Y-109855000D01*
X125730000Y-109855000D02*
X127000000Y-108585000D01*
X124460000Y-108585000D02*
X124460000Y-106680000D01*
X124460000Y-106680000D02*
X116840000Y-99060000D01*
X119380000Y-99060000D02*
X116205000Y-95885000D01*
X116205000Y-95885000D02*
X114300000Y-95885000D01*
X124460000Y-99060000D02*
X120015000Y-94615000D01*
X120015000Y-94615000D02*
X115570000Y-94615000D01*
X115570000Y-94615000D02*
X114935000Y-95250000D01*
X114935000Y-95250000D02*
X113665000Y-95250000D01*
X113665000Y-95250000D02*
X113030000Y-95885000D01*
X113030000Y-95885000D02*
X111760000Y-95885000D01*
X182880000Y-116840000D02*
X184150000Y-118110000D01*
X184150000Y-118110000D02*
X184150000Y-120650000D01*
X184150000Y-120650000D02*
X181610000Y-120650000D01*
X181610000Y-120650000D02*
X177800000Y-124460000D01*
X177800000Y-124460000D02*
X163195000Y-124460000D01*
X172720000Y-104140000D02*
X168910000Y-100330000D01*
X168910000Y-100330000D02*
X161925000Y-100330000D01*
X161925000Y-100330000D02*
X160655000Y-99060000D01*
X160655000Y-99060000D02*
X155575000Y-99060000D01*
X155575000Y-104140000D02*
X156845000Y-105410000D01*
X156845000Y-105410000D02*
X179070000Y-105410000D01*
X147320000Y-76835000D02*
X151130000Y-80645000D01*
X151130000Y-80645000D02*
X151130000Y-84455000D01*
X151130000Y-84455000D02*
X156845000Y-90170000D01*
X156845000Y-90170000D02*
X156845000Y-92710000D01*
X156845000Y-92710000D02*
X163195000Y-99060000D01*
X147320000Y-81915000D02*
X147320000Y-82550000D01*
X147320000Y-82550000D02*
X144780000Y-85090000D01*
X144780000Y-97790000D02*
X154305000Y-107315000D01*
X154305000Y-107315000D02*
X154305000Y-107950000D01*
X154305000Y-107950000D02*
X156845000Y-107950000D01*
X156845000Y-107950000D02*
X156845000Y-109855000D01*
X156845000Y-109855000D02*
X158115000Y-111125000D01*
X93345000Y-86995000D02*
X92710000Y-87630000D01*
X92710000Y-87630000D02*
X88265000Y-87630000D01*
X88265000Y-87630000D02*
X87947500Y-87312500D01*
X93345000Y-107315000D02*
X88265000Y-107315000D01*
X88265000Y-107315000D02*
X87947500Y-106997500D01*
X92710000Y-90170000D02*
X93980000Y-91440000D01*
X93980000Y-91440000D02*
X98425000Y-91440000D01*
X98425000Y-91440000D02*
X100330000Y-93345000D01*
X100330000Y-93345000D02*
X120650000Y-93345000D01*
X120650000Y-93345000D02*
X123825000Y-96520000D01*
X123825000Y-96520000D02*
X145415000Y-96520000D01*
X145415000Y-96520000D02*
X150495000Y-101600000D01*
X150495000Y-101600000D02*
X155575000Y-101600000D01*
X155575000Y-116840000D02*
X148590000Y-116840000D01*
X148590000Y-116840000D02*
X146685000Y-114935000D01*
X146685000Y-114935000D02*
X144780000Y-114935000D01*
X144780000Y-114935000D02*
X140970000Y-111125000D01*
X140970000Y-111125000D02*
X125095000Y-111125000D01*
X125095000Y-111125000D02*
X124460000Y-110490000D01*
X124460000Y-110490000D02*
X120015000Y-110490000D01*
X120015000Y-110490000D02*
X119380000Y-109855000D01*
X119380000Y-109855000D02*
X115570000Y-109855000D01*
X115570000Y-109855000D02*
X115570000Y-107315000D01*
X115570000Y-107315000D02*
X108585000Y-100330000D01*
X108585000Y-100330000D02*
X105410000Y-100330000D01*
X105410000Y-100330000D02*
X97790000Y-92710000D01*
X97790000Y-92710000D02*
X95250000Y-92710000D01*
X129540000Y-116205000D02*
X133985000Y-120650000D01*
X133985000Y-120650000D02*
X156845000Y-120650000D01*
X156845000Y-120650000D02*
X158115000Y-121920000D01*
X158115000Y-121920000D02*
X163195000Y-121920000D01*
X160528000Y-69215000D02*
X160528000Y-74930000D01*
X161163000Y-68580000D02*
X160528000Y-69215000D01*
X163195000Y-91440000D02*
X159385000Y-87630000D01*
X149225000Y-73660000D02*
X132715000Y-73660000D01*
X132715000Y-73660000D02*
X131445000Y-74930000D01*
X131445000Y-69215000D02*
X131445000Y-74930000D01*
X132080000Y-68580000D02*
X131445000Y-69215000D01*
D31*
X115570000Y-68580000D02*
X118745000Y-65405000D01*
X115570000Y-71120000D02*
X115570000Y-68580000D01*
X114935000Y-71755000D02*
X115570000Y-71120000D01*
D28*
X147955000Y-93980000D02*
X155575000Y-93980000D01*
X155575000Y-96520000D02*
X147955000Y-96520000D01*
X163195000Y-96520000D02*
X167005000Y-96520000D01*
M02*
