G04 #@! TF.FileFunction,Soldermask,Bot*
%FSLAX46Y46*%
G04 Gerber Fmt 4.6, Leading zero omitted, Abs format (unit mm)*
G04 Created by KiCad (PCBNEW 4.0.7) date Fri Feb  9 05:02:28 2018*
%MOMM*%
%LPD*%
G01*
G04 APERTURE LIST*
%ADD10C,0.100000*%
%ADD11R,2.800000X2.800000*%
%ADD12C,2.800000*%
%ADD13C,2.400000*%
%ADD14O,2.900000X4.400000*%
%ADD15R,2.100000X2.100000*%
%ADD16O,2.100000X2.100000*%
%ADD17C,1.400000*%
%ADD18R,1.400000X1.400000*%
%ADD19R,2.000000X2.000000*%
%ADD20O,2.000000X2.000000*%
%ADD21C,1.900000*%
%ADD22R,2.127200X2.127200*%
%ADD23O,2.127200X2.127200*%
%ADD24C,2.000000*%
G04 APERTURE END LIST*
D10*
D11*
X98425000Y-41910000D03*
D12*
X90925000Y-41910000D03*
D11*
X98425000Y-62230000D03*
D12*
X90925000Y-62230000D03*
D13*
X108802898Y-52287898D02*
X108802898Y-52287898D01*
X115987102Y-52287898D02*
X115987102Y-52287898D01*
X112395000Y-48695795D02*
X112395000Y-48695795D01*
D10*
G36*
X114092056Y-55880000D02*
X112395000Y-57577056D01*
X110697944Y-55880000D01*
X112395000Y-54182944D01*
X114092056Y-55880000D01*
X114092056Y-55880000D01*
G37*
D14*
X179070000Y-57560000D03*
X179070000Y-35560000D03*
X149860000Y-57560000D03*
X149860000Y-35560000D03*
D15*
X106680000Y-123190000D03*
D16*
X109220000Y-123190000D03*
X111760000Y-123190000D03*
X114300000Y-123190000D03*
X116840000Y-123190000D03*
X119380000Y-123190000D03*
X121920000Y-123190000D03*
X124460000Y-123190000D03*
D15*
X106680000Y-99060000D03*
D16*
X109220000Y-99060000D03*
X111760000Y-99060000D03*
X114300000Y-99060000D03*
X116840000Y-99060000D03*
X119380000Y-99060000D03*
X121920000Y-99060000D03*
X124460000Y-99060000D03*
D15*
X142240000Y-76835000D03*
D16*
X144780000Y-76835000D03*
X147320000Y-76835000D03*
X149860000Y-76835000D03*
D15*
X142240000Y-81915000D03*
D16*
X144780000Y-81915000D03*
X147320000Y-81915000D03*
X149860000Y-81915000D03*
D15*
X182880000Y-104140000D03*
D16*
X182880000Y-106680000D03*
X182880000Y-109220000D03*
X182880000Y-111760000D03*
X182880000Y-114300000D03*
X182880000Y-116840000D03*
X182880000Y-119380000D03*
X182880000Y-121920000D03*
X182880000Y-124460000D03*
D15*
X182880000Y-77470000D03*
D16*
X182880000Y-74930000D03*
X182880000Y-72390000D03*
X182880000Y-69850000D03*
D15*
X157988000Y-74930000D03*
D16*
X160528000Y-74930000D03*
X163068000Y-74930000D03*
D15*
X128905000Y-74930000D03*
D16*
X131445000Y-74930000D03*
X133985000Y-74930000D03*
D15*
X124460000Y-88265000D03*
D16*
X121920000Y-88265000D03*
D15*
X121920000Y-57150000D03*
D16*
X119380000Y-57150000D03*
D15*
X87947500Y-87312500D03*
D16*
X87947500Y-84772500D03*
D15*
X87947500Y-106997500D03*
D16*
X87947500Y-104457500D03*
D17*
X89217500Y-78422500D03*
X87947500Y-79692500D03*
D18*
X87947500Y-77152500D03*
D17*
X89217500Y-98107500D03*
X87947500Y-99377500D03*
D18*
X87947500Y-96837500D03*
D19*
X155575000Y-91440000D03*
D20*
X163195000Y-124460000D03*
X155575000Y-93980000D03*
X163195000Y-121920000D03*
X155575000Y-96520000D03*
X163195000Y-119380000D03*
X155575000Y-99060000D03*
X163195000Y-116840000D03*
X155575000Y-101600000D03*
X163195000Y-114300000D03*
X155575000Y-104140000D03*
X163195000Y-111760000D03*
X155575000Y-106680000D03*
X163195000Y-109220000D03*
X155575000Y-109220000D03*
X163195000Y-106680000D03*
X155575000Y-111760000D03*
X163195000Y-104140000D03*
X155575000Y-114300000D03*
X163195000Y-101600000D03*
X155575000Y-116840000D03*
X163195000Y-99060000D03*
X155575000Y-119380000D03*
X163195000Y-96520000D03*
X155575000Y-121920000D03*
X163195000Y-93980000D03*
X155575000Y-124460000D03*
X163195000Y-91440000D03*
D19*
X101600000Y-116205000D03*
D20*
X129540000Y-108585000D03*
X104140000Y-116205000D03*
X127000000Y-108585000D03*
X106680000Y-116205000D03*
X124460000Y-108585000D03*
X109220000Y-116205000D03*
X121920000Y-108585000D03*
X111760000Y-116205000D03*
X119380000Y-108585000D03*
X114300000Y-116205000D03*
X116840000Y-108585000D03*
X116840000Y-116205000D03*
X114300000Y-108585000D03*
X119380000Y-116205000D03*
X111760000Y-108585000D03*
X121920000Y-116205000D03*
X109220000Y-108585000D03*
X124460000Y-116205000D03*
X106680000Y-108585000D03*
X127000000Y-116205000D03*
X104140000Y-108585000D03*
X129540000Y-116205000D03*
X101600000Y-108585000D03*
D21*
X149860000Y-115570000D03*
X149860000Y-110690000D03*
D15*
X147955000Y-93980000D03*
D16*
X147955000Y-96520000D03*
D15*
X167005000Y-96520000D03*
D22*
X173990000Y-116840000D03*
D23*
X171450000Y-116840000D03*
X173990000Y-114300000D03*
X171450000Y-114300000D03*
X173990000Y-111760000D03*
X171450000Y-111760000D03*
D24*
X93345000Y-81915000D03*
D20*
X93345000Y-86995000D03*
D24*
X93345000Y-102235000D03*
D20*
X93345000Y-107315000D03*
M02*
