G04 #@! TF.FileFunction,Soldermask,Top*
%FSLAX46Y46*%
G04 Gerber Fmt 4.6, Leading zero omitted, Abs format (unit mm)*
G04 Created by KiCad (PCBNEW 4.0.7) date Fri Feb  9 05:02:28 2018*
%MOMM*%
%LPD*%
G01*
G04 APERTURE LIST*
%ADD10C,0.100000*%
%ADD11R,1.900000X1.650000*%
%ADD12R,2.000000X3.000000*%
%ADD13R,1.150000X1.200000*%
%ADD14R,2.000000X2.400000*%
%ADD15R,2.800000X2.800000*%
%ADD16C,2.800000*%
%ADD17R,2.400000X2.000000*%
%ADD18R,1.650000X1.900000*%
%ADD19C,2.400000*%
%ADD20R,2.200000X2.900000*%
%ADD21R,1.300000X1.600000*%
%ADD22O,2.900000X4.400000*%
%ADD23R,2.380000X4.360000*%
%ADD24O,2.380000X4.360000*%
%ADD25R,2.100000X2.100000*%
%ADD26O,2.100000X2.100000*%
%ADD27C,1.400000*%
%ADD28R,1.400000X1.400000*%
%ADD29R,2.000000X2.000000*%
%ADD30O,2.000000X2.000000*%
%ADD31R,0.908000X1.543000*%
%ADD32C,1.900000*%
%ADD33R,1.700000X1.900000*%
%ADD34R,1.900000X1.700000*%
%ADD35R,2.127200X2.127200*%
%ADD36O,2.127200X2.127200*%
%ADD37C,2.000000*%
G04 APERTURE END LIST*
D10*
D11*
X159238000Y-67310000D03*
X156738000Y-67310000D03*
D12*
X147320000Y-101705000D03*
X147320000Y-105305000D03*
D13*
X146050000Y-111875000D03*
X146050000Y-110375000D03*
D14*
X151130000Y-101505000D03*
X151130000Y-105505000D03*
D13*
X146050000Y-114185000D03*
X146050000Y-115685000D03*
D15*
X98425000Y-41910000D03*
D16*
X90925000Y-41910000D03*
D15*
X98425000Y-62230000D03*
D16*
X90925000Y-62230000D03*
D14*
X122555000Y-63405000D03*
X122555000Y-67405000D03*
X137795000Y-110395000D03*
X137795000Y-114395000D03*
D17*
X118840000Y-63500000D03*
X114840000Y-63500000D03*
D12*
X133985000Y-110595000D03*
X133985000Y-114195000D03*
D11*
X109200000Y-63500000D03*
X106700000Y-63500000D03*
D18*
X107950000Y-77490000D03*
X107950000Y-79990000D03*
D11*
X109240000Y-74930000D03*
X111740000Y-74930000D03*
D14*
X122555000Y-75025000D03*
X122555000Y-71025000D03*
D17*
X162528000Y-71120000D03*
X158528000Y-71120000D03*
X133445000Y-71120000D03*
X129445000Y-71120000D03*
D11*
X130155000Y-67310000D03*
X127655000Y-67310000D03*
D19*
X108802898Y-52287898D02*
X108802898Y-52287898D01*
X115987102Y-52287898D02*
X115987102Y-52287898D01*
X112395000Y-48695795D02*
X112395000Y-48695795D01*
D10*
G36*
X114092056Y-55880000D02*
X112395000Y-57577056D01*
X110697944Y-55880000D01*
X112395000Y-54182944D01*
X114092056Y-55880000D01*
X114092056Y-55880000D01*
G37*
D20*
X118110000Y-75025000D03*
X118110000Y-71025000D03*
D21*
X114935000Y-87165000D03*
X114935000Y-89365000D03*
D22*
X179070000Y-57560000D03*
X179070000Y-35560000D03*
X149860000Y-57560000D03*
X149860000Y-35560000D03*
D23*
X107315000Y-38735000D03*
D24*
X112315000Y-38735000D03*
X117315000Y-38735000D03*
D25*
X106680000Y-123190000D03*
D26*
X109220000Y-123190000D03*
X111760000Y-123190000D03*
X114300000Y-123190000D03*
X116840000Y-123190000D03*
X119380000Y-123190000D03*
X121920000Y-123190000D03*
X124460000Y-123190000D03*
D25*
X106680000Y-99060000D03*
D26*
X109220000Y-99060000D03*
X111760000Y-99060000D03*
X114300000Y-99060000D03*
X116840000Y-99060000D03*
X119380000Y-99060000D03*
X121920000Y-99060000D03*
X124460000Y-99060000D03*
D25*
X142240000Y-76835000D03*
D26*
X144780000Y-76835000D03*
X147320000Y-76835000D03*
X149860000Y-76835000D03*
D25*
X142240000Y-81915000D03*
D26*
X144780000Y-81915000D03*
X147320000Y-81915000D03*
X149860000Y-81915000D03*
D25*
X182880000Y-104140000D03*
D26*
X182880000Y-106680000D03*
X182880000Y-109220000D03*
X182880000Y-111760000D03*
X182880000Y-114300000D03*
X182880000Y-116840000D03*
X182880000Y-119380000D03*
X182880000Y-121920000D03*
X182880000Y-124460000D03*
D25*
X182880000Y-77470000D03*
D26*
X182880000Y-74930000D03*
X182880000Y-72390000D03*
X182880000Y-69850000D03*
D25*
X157988000Y-74930000D03*
D26*
X160528000Y-74930000D03*
X163068000Y-74930000D03*
D25*
X128905000Y-74930000D03*
D26*
X131445000Y-74930000D03*
X133985000Y-74930000D03*
D25*
X124460000Y-88265000D03*
D26*
X121920000Y-88265000D03*
D25*
X121920000Y-57150000D03*
D26*
X119380000Y-57150000D03*
D23*
X158750000Y-38735000D03*
D24*
X163750000Y-38735000D03*
X168750000Y-38735000D03*
D23*
X129540000Y-38735000D03*
D24*
X134540000Y-38735000D03*
X139540000Y-38735000D03*
D10*
G36*
X115345711Y-80212767D02*
X113507233Y-78374289D01*
X115204289Y-76677233D01*
X117042767Y-78515711D01*
X115345711Y-80212767D01*
X115345711Y-80212767D01*
G37*
G36*
X119745711Y-84612767D02*
X117907233Y-82774289D01*
X119604289Y-81077233D01*
X121442767Y-82915711D01*
X119745711Y-84612767D01*
X119745711Y-84612767D01*
G37*
D25*
X87947500Y-87312500D03*
D26*
X87947500Y-84772500D03*
D25*
X87947500Y-106997500D03*
D26*
X87947500Y-104457500D03*
D27*
X89217500Y-78422500D03*
X87947500Y-79692500D03*
D28*
X87947500Y-77152500D03*
D27*
X89217500Y-98107500D03*
X87947500Y-99377500D03*
D28*
X87947500Y-96837500D03*
D29*
X155575000Y-91440000D03*
D30*
X163195000Y-124460000D03*
X155575000Y-93980000D03*
X163195000Y-121920000D03*
X155575000Y-96520000D03*
X163195000Y-119380000D03*
X155575000Y-99060000D03*
X163195000Y-116840000D03*
X155575000Y-101600000D03*
X163195000Y-114300000D03*
X155575000Y-104140000D03*
X163195000Y-111760000D03*
X155575000Y-106680000D03*
X163195000Y-109220000D03*
X155575000Y-109220000D03*
X163195000Y-106680000D03*
X155575000Y-111760000D03*
X163195000Y-104140000D03*
X155575000Y-114300000D03*
X163195000Y-101600000D03*
X155575000Y-116840000D03*
X163195000Y-99060000D03*
X155575000Y-119380000D03*
X163195000Y-96520000D03*
X155575000Y-121920000D03*
X163195000Y-93980000D03*
X155575000Y-124460000D03*
X163195000Y-91440000D03*
D29*
X101600000Y-116205000D03*
D30*
X129540000Y-108585000D03*
X104140000Y-116205000D03*
X127000000Y-108585000D03*
X106680000Y-116205000D03*
X124460000Y-108585000D03*
X109220000Y-116205000D03*
X121920000Y-108585000D03*
X111760000Y-116205000D03*
X119380000Y-108585000D03*
X114300000Y-116205000D03*
X116840000Y-108585000D03*
X116840000Y-116205000D03*
X114300000Y-108585000D03*
X119380000Y-116205000D03*
X111760000Y-108585000D03*
X121920000Y-116205000D03*
X109220000Y-108585000D03*
X124460000Y-116205000D03*
X106680000Y-108585000D03*
X127000000Y-116205000D03*
X104140000Y-108585000D03*
X129540000Y-116205000D03*
X101600000Y-108585000D03*
D31*
X113665000Y-71755000D03*
X112395000Y-71755000D03*
X111125000Y-71755000D03*
X109855000Y-71755000D03*
X109855000Y-65405000D03*
X111125000Y-65405000D03*
X112395000Y-65405000D03*
X113665000Y-65405000D03*
X162433000Y-64770000D03*
X161163000Y-64770000D03*
X159893000Y-64770000D03*
X158623000Y-64770000D03*
X158623000Y-58420000D03*
X159893000Y-58420000D03*
X161163000Y-58420000D03*
X162433000Y-58420000D03*
X133350000Y-64770000D03*
X132080000Y-64770000D03*
X130810000Y-64770000D03*
X129540000Y-64770000D03*
X129540000Y-58420000D03*
X130810000Y-58420000D03*
X132080000Y-58420000D03*
X133350000Y-58420000D03*
D32*
X149860000Y-115570000D03*
X149860000Y-110690000D03*
D33*
X151130000Y-94060000D03*
X151130000Y-91360000D03*
D34*
X114220000Y-105410000D03*
X116920000Y-105410000D03*
X114380000Y-60960000D03*
X111680000Y-60960000D03*
X109300000Y-60960000D03*
X106600000Y-60960000D03*
X111840000Y-82550000D03*
X109140000Y-82550000D03*
X111840000Y-90170000D03*
X109140000Y-90170000D03*
X109140000Y-86360000D03*
X111840000Y-86360000D03*
D33*
X117475000Y-86915000D03*
X117475000Y-89615000D03*
X93662500Y-78502500D03*
X93662500Y-75802500D03*
X93662500Y-98187500D03*
X93662500Y-95487500D03*
D25*
X147955000Y-93980000D03*
D26*
X147955000Y-96520000D03*
D25*
X167005000Y-96520000D03*
D35*
X173990000Y-116840000D03*
D36*
X171450000Y-116840000D03*
X173990000Y-114300000D03*
X171450000Y-114300000D03*
X173990000Y-111760000D03*
X171450000Y-111760000D03*
D37*
X93345000Y-81915000D03*
D30*
X93345000Y-86995000D03*
D37*
X93345000Y-102235000D03*
D30*
X93345000Y-107315000D03*
M02*
