M48
;DRILL file {KiCad 4.0.7} date Sun Feb  4 20:13:59 2018
;FORMAT={-:-/ absolute / inch / decimal}
FMAT,2
INCH,TZ
T1C0.016
T2C0.030
T3C0.031
T4C0.039
%
G90
G05
M72
T1
X6.775Y-4.725
X7.05Y-5.025
T2
X6.5755Y-4.2165
X6.5755Y-4.3165
X6.5755Y-4.4165
X6.5755Y-4.5165
X6.5755Y-4.6165
X6.5755Y-4.7165
X6.5755Y-4.8165
X6.5755Y-4.9165
X6.9755Y-4.2165
X6.9755Y-4.3165
X6.9755Y-4.4165
X6.9755Y-4.5165
X6.9755Y-4.6165
X6.9755Y-4.7165
X6.9755Y-4.8165
X6.9755Y-4.9165
T3
X7.125Y-4.375
X7.125Y-5.175
X7.425Y-4.375
X7.425Y-5.175
T4
X6.35Y-4.375
X6.35Y-4.475
X6.35Y-4.575
X6.35Y-4.675
X6.425Y-3.625
X6.525Y-3.625
X6.625Y-3.625
X6.725Y-3.625
X6.825Y-3.625
X6.925Y-3.625
X7.025Y-3.625
X7.125Y-3.625
X7.275Y-4.625
X7.275Y-4.725
X7.275Y-4.825
X7.275Y-4.925
T0
M30
