G04 #@! TF.FileFunction,Legend,Top*
%FSLAX46Y46*%
G04 Gerber Fmt 4.6, Leading zero omitted, Abs format (unit mm)*
G04 Created by KiCad (PCBNEW 4.0.7) date Sun Feb  4 20:13:57 2018*
%MOMM*%
%LPD*%
G01*
G04 APERTURE LIST*
%ADD10C,0.100000*%
%ADD11C,0.112500*%
%ADD12C,0.120000*%
%ADD13C,0.150000*%
G04 APERTURE END LIST*
D10*
D11*
X165862000Y-96012000D02*
X165862000Y-135966200D01*
X165862000Y-135966200D02*
X178409600Y-135966200D01*
X178409600Y-135966200D02*
X178409600Y-96012000D01*
X178409600Y-96012000D02*
X165862000Y-96012000D01*
D12*
X161865000Y-90745000D02*
X161865000Y-93405000D01*
X179705000Y-90745000D02*
X161865000Y-90745000D01*
X179705000Y-93405000D02*
X161865000Y-93405000D01*
X179705000Y-90745000D02*
X179705000Y-93405000D01*
X180975000Y-90745000D02*
X182305000Y-90745000D01*
X182305000Y-90745000D02*
X182305000Y-92075000D01*
X159960000Y-120075000D02*
X162620000Y-120075000D01*
X159960000Y-112395000D02*
X159960000Y-120075000D01*
X162620000Y-112395000D02*
X162620000Y-120075000D01*
X159960000Y-112395000D02*
X162620000Y-112395000D01*
X159960000Y-111125000D02*
X159960000Y-109795000D01*
X159960000Y-109795000D02*
X161290000Y-109795000D01*
X183455000Y-126425000D02*
X186115000Y-126425000D01*
X183455000Y-118745000D02*
X183455000Y-126425000D01*
X186115000Y-118745000D02*
X186115000Y-126425000D01*
X183455000Y-118745000D02*
X186115000Y-118745000D01*
X183455000Y-117475000D02*
X183455000Y-116145000D01*
X183455000Y-116145000D02*
X184785000Y-116145000D01*
X181575000Y-130465000D02*
X181575000Y-130135000D01*
X181575000Y-130135000D02*
X187995000Y-130135000D01*
X187995000Y-130135000D02*
X187995000Y-130465000D01*
X181575000Y-132425000D02*
X181575000Y-132755000D01*
X181575000Y-132755000D02*
X187995000Y-132755000D01*
X187995000Y-132755000D02*
X187995000Y-132425000D01*
X187995000Y-112105000D02*
X187995000Y-112435000D01*
X187995000Y-112435000D02*
X181575000Y-112435000D01*
X181575000Y-112435000D02*
X181575000Y-112105000D01*
X187995000Y-110145000D02*
X187995000Y-109815000D01*
X187995000Y-109815000D02*
X181575000Y-109815000D01*
X181575000Y-109815000D02*
X181575000Y-110145000D01*
D13*
X166044762Y-95702381D02*
X165568571Y-95702381D01*
X165568571Y-94702381D01*
X166378095Y-95178571D02*
X166711429Y-95178571D01*
X166854286Y-95702381D02*
X166378095Y-95702381D01*
X166378095Y-94702381D01*
X166854286Y-94702381D01*
X167282857Y-95702381D02*
X167282857Y-94702381D01*
X167520952Y-94702381D01*
X167663810Y-94750000D01*
X167759048Y-94845238D01*
X167806667Y-94940476D01*
X167854286Y-95130952D01*
X167854286Y-95273810D01*
X167806667Y-95464286D01*
X167759048Y-95559524D01*
X167663810Y-95654762D01*
X167520952Y-95702381D01*
X167282857Y-95702381D01*
X168235238Y-95654762D02*
X168378095Y-95702381D01*
X168616191Y-95702381D01*
X168711429Y-95654762D01*
X168759048Y-95607143D01*
X168806667Y-95511905D01*
X168806667Y-95416667D01*
X168759048Y-95321429D01*
X168711429Y-95273810D01*
X168616191Y-95226190D01*
X168425714Y-95178571D01*
X168330476Y-95130952D01*
X168282857Y-95083333D01*
X168235238Y-94988095D01*
X168235238Y-94892857D01*
X168282857Y-94797619D01*
X168330476Y-94750000D01*
X168425714Y-94702381D01*
X168663810Y-94702381D01*
X168806667Y-94750000D01*
X169759048Y-95702381D02*
X169187619Y-95702381D01*
X169473333Y-95702381D02*
X169473333Y-94702381D01*
X169378095Y-94845238D01*
X169282857Y-94940476D01*
X169187619Y-94988095D01*
X182757381Y-92408333D02*
X183471667Y-92408333D01*
X183614524Y-92455953D01*
X183709762Y-92551191D01*
X183757381Y-92694048D01*
X183757381Y-92789286D01*
X183757381Y-91408333D02*
X183757381Y-91979762D01*
X183757381Y-91694048D02*
X182757381Y-91694048D01*
X182900238Y-91789286D01*
X182995476Y-91884524D01*
X183043095Y-91979762D01*
X160956667Y-108247381D02*
X160956667Y-108961667D01*
X160909047Y-109104524D01*
X160813809Y-109199762D01*
X160670952Y-109247381D01*
X160575714Y-109247381D01*
X161385238Y-108342619D02*
X161432857Y-108295000D01*
X161528095Y-108247381D01*
X161766191Y-108247381D01*
X161861429Y-108295000D01*
X161909048Y-108342619D01*
X161956667Y-108437857D01*
X161956667Y-108533095D01*
X161909048Y-108675952D01*
X161337619Y-109247381D01*
X161956667Y-109247381D01*
X184451667Y-114597381D02*
X184451667Y-115311667D01*
X184404047Y-115454524D01*
X184308809Y-115549762D01*
X184165952Y-115597381D01*
X184070714Y-115597381D01*
X184832619Y-114597381D02*
X185451667Y-114597381D01*
X185118333Y-114978333D01*
X185261191Y-114978333D01*
X185356429Y-115025952D01*
X185404048Y-115073571D01*
X185451667Y-115168810D01*
X185451667Y-115406905D01*
X185404048Y-115502143D01*
X185356429Y-115549762D01*
X185261191Y-115597381D01*
X184975476Y-115597381D01*
X184880238Y-115549762D01*
X184832619Y-115502143D01*
X184618334Y-129587381D02*
X184285000Y-129111190D01*
X184046905Y-129587381D02*
X184046905Y-128587381D01*
X184427858Y-128587381D01*
X184523096Y-128635000D01*
X184570715Y-128682619D01*
X184618334Y-128777857D01*
X184618334Y-128920714D01*
X184570715Y-129015952D01*
X184523096Y-129063571D01*
X184427858Y-129111190D01*
X184046905Y-129111190D01*
X185570715Y-129587381D02*
X184999286Y-129587381D01*
X185285000Y-129587381D02*
X185285000Y-128587381D01*
X185189762Y-128730238D01*
X185094524Y-128825476D01*
X184999286Y-128873095D01*
X184618334Y-113887381D02*
X184285000Y-113411190D01*
X184046905Y-113887381D02*
X184046905Y-112887381D01*
X184427858Y-112887381D01*
X184523096Y-112935000D01*
X184570715Y-112982619D01*
X184618334Y-113077857D01*
X184618334Y-113220714D01*
X184570715Y-113315952D01*
X184523096Y-113363571D01*
X184427858Y-113411190D01*
X184046905Y-113411190D01*
X184999286Y-112982619D02*
X185046905Y-112935000D01*
X185142143Y-112887381D01*
X185380239Y-112887381D01*
X185475477Y-112935000D01*
X185523096Y-112982619D01*
X185570715Y-113077857D01*
X185570715Y-113173095D01*
X185523096Y-113315952D01*
X184951667Y-113887381D01*
X185570715Y-113887381D01*
X161750476Y-131237381D02*
X161750476Y-130237381D01*
X162083810Y-130951667D01*
X162417143Y-130237381D01*
X162417143Y-131237381D01*
X162845714Y-130332619D02*
X162893333Y-130285000D01*
X162988571Y-130237381D01*
X163226667Y-130237381D01*
X163321905Y-130285000D01*
X163369524Y-130332619D01*
X163417143Y-130427857D01*
X163417143Y-130523095D01*
X163369524Y-130665952D01*
X162798095Y-131237381D01*
X163417143Y-131237381D01*
X185880476Y-90597381D02*
X185880476Y-89597381D01*
X186213810Y-90311667D01*
X186547143Y-89597381D01*
X186547143Y-90597381D01*
X187547143Y-90597381D02*
X186975714Y-90597381D01*
X187261428Y-90597381D02*
X187261428Y-89597381D01*
X187166190Y-89740238D01*
X187070952Y-89835476D01*
X186975714Y-89883095D01*
M02*
