G04 #@! TF.FileFunction,Legend,Bot*
%FSLAX46Y46*%
G04 Gerber Fmt 4.6, Leading zero omitted, Abs format (unit mm)*
G04 Created by KiCad (PCBNEW 4.0.7) date Sun Feb  4 20:13:57 2018*
%MOMM*%
%LPD*%
G01*
G04 APERTURE LIST*
%ADD10C,0.100000*%
%ADD11C,0.300000*%
G04 APERTURE END LIST*
D10*
D11*
X185312857Y-97517143D02*
X185384286Y-97731429D01*
X185455714Y-97802857D01*
X185598571Y-97874286D01*
X185812857Y-97874286D01*
X185955714Y-97802857D01*
X186027143Y-97731429D01*
X186098571Y-97588571D01*
X186098571Y-97017143D01*
X184598571Y-97017143D01*
X184598571Y-97517143D01*
X184670000Y-97660000D01*
X184741429Y-97731429D01*
X184884286Y-97802857D01*
X185027143Y-97802857D01*
X185170000Y-97731429D01*
X185241429Y-97660000D01*
X185312857Y-97517143D01*
X185312857Y-97017143D01*
X186098571Y-98517143D02*
X185098571Y-98517143D01*
X185384286Y-98517143D02*
X185241429Y-98588571D01*
X185170000Y-98660000D01*
X185098571Y-98802857D01*
X185098571Y-98945714D01*
X186027143Y-100017142D02*
X186098571Y-99874285D01*
X186098571Y-99588571D01*
X186027143Y-99445714D01*
X185884286Y-99374285D01*
X185312857Y-99374285D01*
X185170000Y-99445714D01*
X185098571Y-99588571D01*
X185098571Y-99874285D01*
X185170000Y-100017142D01*
X185312857Y-100088571D01*
X185455714Y-100088571D01*
X185598571Y-99374285D01*
X186098571Y-101374285D02*
X185312857Y-101374285D01*
X185170000Y-101302856D01*
X185098571Y-101159999D01*
X185098571Y-100874285D01*
X185170000Y-100731428D01*
X186027143Y-101374285D02*
X186098571Y-101231428D01*
X186098571Y-100874285D01*
X186027143Y-100731428D01*
X185884286Y-100659999D01*
X185741429Y-100659999D01*
X185598571Y-100731428D01*
X185527143Y-100874285D01*
X185527143Y-101231428D01*
X185455714Y-101374285D01*
X186098571Y-102088571D02*
X184598571Y-102088571D01*
X185527143Y-102231428D02*
X186098571Y-102659999D01*
X185098571Y-102659999D02*
X185670000Y-102088571D01*
X186098571Y-103517143D02*
X186027143Y-103374285D01*
X185955714Y-103302857D01*
X185812857Y-103231428D01*
X185384286Y-103231428D01*
X185241429Y-103302857D01*
X185170000Y-103374285D01*
X185098571Y-103517143D01*
X185098571Y-103731428D01*
X185170000Y-103874285D01*
X185241429Y-103945714D01*
X185384286Y-104017143D01*
X185812857Y-104017143D01*
X185955714Y-103945714D01*
X186027143Y-103874285D01*
X186098571Y-103731428D01*
X186098571Y-103517143D01*
X185098571Y-105302857D02*
X186098571Y-105302857D01*
X185098571Y-104660000D02*
X185884286Y-104660000D01*
X186027143Y-104731428D01*
X186098571Y-104874286D01*
X186098571Y-105088571D01*
X186027143Y-105231428D01*
X185955714Y-105302857D01*
X185098571Y-105802857D02*
X185098571Y-106374286D01*
X184598571Y-106017143D02*
X185884286Y-106017143D01*
X186027143Y-106088571D01*
X186098571Y-106231429D01*
X186098571Y-106374286D01*
X185312857Y-108517143D02*
X185384286Y-108731429D01*
X185455714Y-108802857D01*
X185598571Y-108874286D01*
X185812857Y-108874286D01*
X185955714Y-108802857D01*
X186027143Y-108731429D01*
X186098571Y-108588571D01*
X186098571Y-108017143D01*
X184598571Y-108017143D01*
X184598571Y-108517143D01*
X184670000Y-108660000D01*
X184741429Y-108731429D01*
X184884286Y-108802857D01*
X185027143Y-108802857D01*
X185170000Y-108731429D01*
X185241429Y-108660000D01*
X185312857Y-108517143D01*
X185312857Y-108017143D01*
X186098571Y-109731429D02*
X186027143Y-109588571D01*
X185955714Y-109517143D01*
X185812857Y-109445714D01*
X185384286Y-109445714D01*
X185241429Y-109517143D01*
X185170000Y-109588571D01*
X185098571Y-109731429D01*
X185098571Y-109945714D01*
X185170000Y-110088571D01*
X185241429Y-110160000D01*
X185384286Y-110231429D01*
X185812857Y-110231429D01*
X185955714Y-110160000D01*
X186027143Y-110088571D01*
X186098571Y-109945714D01*
X186098571Y-109731429D01*
X186098571Y-111517143D02*
X185312857Y-111517143D01*
X185170000Y-111445714D01*
X185098571Y-111302857D01*
X185098571Y-111017143D01*
X185170000Y-110874286D01*
X186027143Y-111517143D02*
X186098571Y-111374286D01*
X186098571Y-111017143D01*
X186027143Y-110874286D01*
X185884286Y-110802857D01*
X185741429Y-110802857D01*
X185598571Y-110874286D01*
X185527143Y-111017143D01*
X185527143Y-111374286D01*
X185455714Y-111517143D01*
X186098571Y-112231429D02*
X185098571Y-112231429D01*
X185384286Y-112231429D02*
X185241429Y-112302857D01*
X185170000Y-112374286D01*
X185098571Y-112517143D01*
X185098571Y-112660000D01*
X186098571Y-113802857D02*
X184598571Y-113802857D01*
X186027143Y-113802857D02*
X186098571Y-113660000D01*
X186098571Y-113374286D01*
X186027143Y-113231428D01*
X185955714Y-113160000D01*
X185812857Y-113088571D01*
X185384286Y-113088571D01*
X185241429Y-113160000D01*
X185170000Y-113231428D01*
X185098571Y-113374286D01*
X185098571Y-113660000D01*
X185170000Y-113802857D01*
X182058571Y-96969287D02*
X182058571Y-97826430D01*
X183558571Y-97397859D02*
X182058571Y-97397859D01*
X183558571Y-98326430D02*
X182058571Y-98326430D01*
X182058571Y-98683573D01*
X182130000Y-98897858D01*
X182272857Y-99040716D01*
X182415714Y-99112144D01*
X182701429Y-99183573D01*
X182915714Y-99183573D01*
X183201429Y-99112144D01*
X183344286Y-99040716D01*
X183487143Y-98897858D01*
X183558571Y-98683573D01*
X183558571Y-98326430D01*
X183415714Y-100683573D02*
X183487143Y-100612144D01*
X183558571Y-100397858D01*
X183558571Y-100255001D01*
X183487143Y-100040716D01*
X183344286Y-99897858D01*
X183201429Y-99826430D01*
X182915714Y-99755001D01*
X182701429Y-99755001D01*
X182415714Y-99826430D01*
X182272857Y-99897858D01*
X182130000Y-100040716D01*
X182058571Y-100255001D01*
X182058571Y-100397858D01*
X182130000Y-100612144D01*
X182201429Y-100683573D01*
X182130000Y-102112144D02*
X182058571Y-101969287D01*
X182058571Y-101755001D01*
X182130000Y-101540716D01*
X182272857Y-101397858D01*
X182415714Y-101326430D01*
X182701429Y-101255001D01*
X182915714Y-101255001D01*
X183201429Y-101326430D01*
X183344286Y-101397858D01*
X183487143Y-101540716D01*
X183558571Y-101755001D01*
X183558571Y-101897858D01*
X183487143Y-102112144D01*
X183415714Y-102183573D01*
X182915714Y-102183573D01*
X182915714Y-101897858D01*
X183558571Y-103612144D02*
X183558571Y-102755001D01*
X183558571Y-103183573D02*
X182058571Y-103183573D01*
X182272857Y-103040716D01*
X182415714Y-102897858D01*
X182487143Y-102755001D01*
X182058571Y-104540715D02*
X182058571Y-104683572D01*
X182130000Y-104826429D01*
X182201429Y-104897858D01*
X182344286Y-104969287D01*
X182630000Y-105040715D01*
X182987143Y-105040715D01*
X183272857Y-104969287D01*
X183415714Y-104897858D01*
X183487143Y-104826429D01*
X183558571Y-104683572D01*
X183558571Y-104540715D01*
X183487143Y-104397858D01*
X183415714Y-104326429D01*
X183272857Y-104255001D01*
X182987143Y-104183572D01*
X182630000Y-104183572D01*
X182344286Y-104255001D01*
X182201429Y-104326429D01*
X182130000Y-104397858D01*
X182058571Y-104540715D01*
X182058571Y-106326429D02*
X182058571Y-106040715D01*
X182130000Y-105897858D01*
X182201429Y-105826429D01*
X182415714Y-105683572D01*
X182701429Y-105612143D01*
X183272857Y-105612143D01*
X183415714Y-105683572D01*
X183487143Y-105755000D01*
X183558571Y-105897858D01*
X183558571Y-106183572D01*
X183487143Y-106326429D01*
X183415714Y-106397858D01*
X183272857Y-106469286D01*
X182915714Y-106469286D01*
X182772857Y-106397858D01*
X182701429Y-106326429D01*
X182630000Y-106183572D01*
X182630000Y-105897858D01*
X182701429Y-105755000D01*
X182772857Y-105683572D01*
X182915714Y-105612143D01*
X182058571Y-107397857D02*
X182058571Y-107540714D01*
X182130000Y-107683571D01*
X182201429Y-107755000D01*
X182344286Y-107826429D01*
X182630000Y-107897857D01*
X182987143Y-107897857D01*
X183272857Y-107826429D01*
X183415714Y-107755000D01*
X183487143Y-107683571D01*
X183558571Y-107540714D01*
X183558571Y-107397857D01*
X183487143Y-107255000D01*
X183415714Y-107183571D01*
X183272857Y-107112143D01*
X182987143Y-107040714D01*
X182630000Y-107040714D01*
X182344286Y-107112143D01*
X182201429Y-107183571D01*
X182130000Y-107255000D01*
X182058571Y-107397857D01*
X183558571Y-108540714D02*
X182558571Y-108540714D01*
X182701429Y-108540714D02*
X182630000Y-108612142D01*
X182558571Y-108755000D01*
X182558571Y-108969285D01*
X182630000Y-109112142D01*
X182772857Y-109183571D01*
X183558571Y-109183571D01*
X182772857Y-109183571D02*
X182630000Y-109255000D01*
X182558571Y-109397857D01*
X182558571Y-109612142D01*
X182630000Y-109755000D01*
X182772857Y-109826428D01*
X183558571Y-109826428D01*
M02*
