G04 #@! TF.FileFunction,Legend,Top*
%FSLAX46Y46*%
G04 Gerber Fmt 4.6, Leading zero omitted, Abs format (unit mm)*
G04 Created by KiCad (PCBNEW 4.0.7) date Sun Feb  4 21:06:27 2018*
%MOMM*%
%LPD*%
G01*
G04 APERTURE LIST*
%ADD10C,0.100000*%
%ADD11C,0.112500*%
%ADD12C,0.150000*%
G04 APERTURE END LIST*
D10*
D11*
X140462000Y-94742000D02*
X140462000Y-134696200D01*
X140462000Y-134696200D02*
X153009600Y-134696200D01*
X153009600Y-134696200D02*
X153009600Y-94742000D01*
X153009600Y-94742000D02*
X140462000Y-94742000D01*
D12*
X152217381Y-103830238D02*
X152217381Y-104306429D01*
X151217381Y-104306429D01*
X151693571Y-103496905D02*
X151693571Y-103163571D01*
X152217381Y-103020714D02*
X152217381Y-103496905D01*
X151217381Y-103496905D01*
X151217381Y-103020714D01*
X152217381Y-102592143D02*
X151217381Y-102592143D01*
X151217381Y-102354048D01*
X151265000Y-102211190D01*
X151360238Y-102115952D01*
X151455476Y-102068333D01*
X151645952Y-102020714D01*
X151788810Y-102020714D01*
X151979286Y-102068333D01*
X152074524Y-102115952D01*
X152169762Y-102211190D01*
X152217381Y-102354048D01*
X152217381Y-102592143D01*
X152169762Y-101639762D02*
X152217381Y-101496905D01*
X152217381Y-101258809D01*
X152169762Y-101163571D01*
X152122143Y-101115952D01*
X152026905Y-101068333D01*
X151931667Y-101068333D01*
X151836429Y-101115952D01*
X151788810Y-101163571D01*
X151741190Y-101258809D01*
X151693571Y-101449286D01*
X151645952Y-101544524D01*
X151598333Y-101592143D01*
X151503095Y-101639762D01*
X151407857Y-101639762D01*
X151312619Y-101592143D01*
X151265000Y-101544524D01*
X151217381Y-101449286D01*
X151217381Y-101211190D01*
X151265000Y-101068333D01*
X152217381Y-100115952D02*
X152217381Y-100687381D01*
X152217381Y-100401667D02*
X151217381Y-100401667D01*
X151360238Y-100496905D01*
X151455476Y-100592143D01*
X151503095Y-100687381D01*
X136350476Y-129357381D02*
X136350476Y-128357381D01*
X136683810Y-129071667D01*
X137017143Y-128357381D01*
X137017143Y-129357381D01*
X137445714Y-128452619D02*
X137493333Y-128405000D01*
X137588571Y-128357381D01*
X137826667Y-128357381D01*
X137921905Y-128405000D01*
X137969524Y-128452619D01*
X138017143Y-128547857D01*
X138017143Y-128643095D01*
X137969524Y-128785952D01*
X137398095Y-129357381D01*
X138017143Y-129357381D01*
X136350476Y-100782381D02*
X136350476Y-99782381D01*
X136683810Y-100496667D01*
X137017143Y-99782381D01*
X137017143Y-100782381D01*
X138017143Y-100782381D02*
X137445714Y-100782381D01*
X137731428Y-100782381D02*
X137731428Y-99782381D01*
X137636190Y-99925238D01*
X137540952Y-100020476D01*
X137445714Y-100068095D01*
M02*
