G04 #@! TF.FileFunction,Copper,L1,Top,Signal*
%FSLAX46Y46*%
G04 Gerber Fmt 4.6, Leading zero omitted, Abs format (unit mm)*
G04 Created by KiCad (PCBNEW 4.0.7) date Sun Feb  4 21:06:27 2018*
%MOMM*%
%LPD*%
G01*
G04 APERTURE LIST*
%ADD10C,0.100000*%
%ADD11R,1.500000X1.500000*%
%ADD12C,1.500000*%
%ADD13R,1.700000X1.700000*%
%ADD14O,1.700000X1.700000*%
%ADD15C,1.600000*%
%ADD16O,1.600000X1.600000*%
%ADD17C,0.600000*%
%ADD18C,0.250000*%
G04 APERTURE END LIST*
D10*
D11*
X141617700Y-105829100D03*
D12*
X141617700Y-108369100D03*
X141617700Y-110909100D03*
X141617700Y-113449100D03*
X141617700Y-115989100D03*
X141617700Y-118529100D03*
X141617700Y-121069100D03*
X141617700Y-123609100D03*
X151777700Y-123609100D03*
X151777700Y-121069100D03*
X151777700Y-118529100D03*
X151777700Y-115989100D03*
X151777700Y-113449100D03*
X151777700Y-110909100D03*
X151777700Y-108369100D03*
X151777700Y-105829100D03*
D13*
X146685000Y-106045000D03*
D14*
X146685000Y-108585000D03*
X146685000Y-111125000D03*
X146685000Y-113665000D03*
X146685000Y-116205000D03*
X146685000Y-118745000D03*
X146685000Y-121285000D03*
X146685000Y-123825000D03*
D13*
X137160000Y-104140000D03*
D14*
X137160000Y-106680000D03*
X137160000Y-109220000D03*
X137160000Y-111760000D03*
D13*
X137160000Y-124968000D03*
D14*
X137160000Y-122428000D03*
X137160000Y-119888000D03*
X137160000Y-117348000D03*
D15*
X150368000Y-131064000D03*
D16*
X142748000Y-131064000D03*
D15*
X142748000Y-98552000D03*
D16*
X150368000Y-98552000D03*
D17*
X143510000Y-120015000D03*
X134620000Y-119380000D03*
D18*
X146685000Y-121285000D02*
X141605000Y-116205000D01*
X141605000Y-116205000D02*
X141617700Y-115989100D01*
X145415000Y-123825000D02*
X146685000Y-123825000D01*
X143510000Y-121920000D02*
X145415000Y-123825000D01*
X143510000Y-120015000D02*
X143510000Y-121920000D01*
X141617700Y-110909100D02*
X141605000Y-111125000D01*
X141617700Y-118529100D02*
X141605000Y-118745000D01*
X141605000Y-118745000D02*
X138430000Y-115570000D01*
X138430000Y-115570000D02*
X138430000Y-110490000D01*
X138430000Y-110490000D02*
X137160000Y-109220000D01*
X137160000Y-111760000D02*
X135890000Y-113030000D01*
X135890000Y-113030000D02*
X135890000Y-126365000D01*
X135890000Y-126365000D02*
X139065000Y-126365000D01*
X139065000Y-126365000D02*
X141605000Y-123825000D01*
X141605000Y-123825000D02*
X141617700Y-123609100D01*
X151777700Y-123609100D02*
X151765000Y-123825000D01*
X151765000Y-123825000D02*
X150495000Y-125095000D01*
X150495000Y-125095000D02*
X150495000Y-130810000D01*
X150495000Y-130810000D02*
X150368000Y-131064000D01*
X150368000Y-98552000D02*
X150495000Y-98425000D01*
X150495000Y-98425000D02*
X150495000Y-114935000D01*
X150495000Y-114935000D02*
X151765000Y-116205000D01*
X151765000Y-116205000D02*
X151777700Y-115989100D01*
X134620000Y-119380000D02*
X134620000Y-118745000D01*
X134620000Y-118745000D02*
X134620000Y-107950000D01*
X134620000Y-107950000D02*
X134620000Y-102235000D01*
X134620000Y-102235000D02*
X135255000Y-101600000D01*
X135255000Y-101600000D02*
X140335000Y-101600000D01*
X140335000Y-101600000D02*
X140970000Y-101600000D01*
X140970000Y-101600000D02*
X142240000Y-101600000D01*
X142240000Y-101600000D02*
X142875000Y-100965000D01*
X142875000Y-100965000D02*
X142875000Y-98425000D01*
X142875000Y-98425000D02*
X142748000Y-98552000D01*
M02*
