M48
;DRILL file {KiCad 4.0.7} date Sun Feb  4 21:06:29 2018
;FORMAT={-:-/ absolute / inch / decimal}
FMAT,2
INCH,TZ
T1C0.016
T2C0.030
T3C0.031
T4C0.039
%
G90
G05
M72
T1
X5.3Y-4.7
X5.65Y-4.725
T2
X5.5755Y-4.1665
X5.5755Y-4.2665
X5.5755Y-4.3665
X5.5755Y-4.4665
X5.5755Y-4.5665
X5.5755Y-4.6665
X5.5755Y-4.7665
X5.5755Y-4.8665
X5.9755Y-4.1665
X5.9755Y-4.2665
X5.9755Y-4.3665
X5.9755Y-4.4665
X5.9755Y-4.5665
X5.9755Y-4.6665
X5.9755Y-4.7665
X5.9755Y-4.8665
T3
X5.62Y-3.88
X5.62Y-5.16
X5.92Y-3.88
X5.92Y-5.16
T4
X5.4Y-4.1
X5.4Y-4.2
X5.4Y-4.3
X5.4Y-4.4
X5.4Y-4.62
X5.4Y-4.72
X5.4Y-4.82
X5.4Y-4.92
X5.775Y-4.175
X5.775Y-4.275
X5.775Y-4.375
X5.775Y-4.475
X5.775Y-4.575
X5.775Y-4.675
X5.775Y-4.775
X5.775Y-4.875
T0
M30
