G04 #@! TF.FileFunction,Copper,L2,Bot,Signal*
%FSLAX46Y46*%
G04 Gerber Fmt 4.6, Leading zero omitted, Abs format (unit mm)*
G04 Created by KiCad (PCBNEW 4.0.7) date Sun Feb  4 21:06:27 2018*
%MOMM*%
%LPD*%
G01*
G04 APERTURE LIST*
%ADD10C,0.100000*%
%ADD11R,1.500000X1.500000*%
%ADD12C,1.500000*%
%ADD13R,1.700000X1.700000*%
%ADD14O,1.700000X1.700000*%
%ADD15C,1.600000*%
%ADD16O,1.600000X1.600000*%
%ADD17C,0.600000*%
%ADD18C,0.250000*%
G04 APERTURE END LIST*
D10*
D11*
X141617700Y-105829100D03*
D12*
X141617700Y-108369100D03*
X141617700Y-110909100D03*
X141617700Y-113449100D03*
X141617700Y-115989100D03*
X141617700Y-118529100D03*
X141617700Y-121069100D03*
X141617700Y-123609100D03*
X151777700Y-123609100D03*
X151777700Y-121069100D03*
X151777700Y-118529100D03*
X151777700Y-115989100D03*
X151777700Y-113449100D03*
X151777700Y-110909100D03*
X151777700Y-108369100D03*
X151777700Y-105829100D03*
D13*
X146685000Y-106045000D03*
D14*
X146685000Y-108585000D03*
X146685000Y-111125000D03*
X146685000Y-113665000D03*
X146685000Y-116205000D03*
X146685000Y-118745000D03*
X146685000Y-121285000D03*
X146685000Y-123825000D03*
D13*
X137160000Y-104140000D03*
D14*
X137160000Y-106680000D03*
X137160000Y-109220000D03*
X137160000Y-111760000D03*
D13*
X137160000Y-124968000D03*
D14*
X137160000Y-122428000D03*
X137160000Y-119888000D03*
X137160000Y-117348000D03*
D15*
X150368000Y-131064000D03*
D16*
X142748000Y-131064000D03*
D15*
X142748000Y-98552000D03*
D16*
X150368000Y-98552000D03*
D17*
X143510000Y-120015000D03*
X134620000Y-119380000D03*
D18*
X151777700Y-105829100D02*
X151765000Y-106045000D01*
X151765000Y-106045000D02*
X146685000Y-106045000D01*
X146685000Y-108585000D02*
X151765000Y-108585000D01*
X151765000Y-108585000D02*
X151777700Y-108369100D01*
X146685000Y-111125000D02*
X151765000Y-111125000D01*
X151765000Y-111125000D02*
X151777700Y-110909100D01*
X146685000Y-113665000D02*
X151765000Y-113665000D01*
X151765000Y-113665000D02*
X151777700Y-113449100D01*
X151777700Y-118529100D02*
X151765000Y-118745000D01*
X151765000Y-118745000D02*
X149225000Y-116205000D01*
X149225000Y-116205000D02*
X146685000Y-116205000D01*
X141617700Y-121069100D02*
X144360900Y-121069100D01*
X144360900Y-121069100D02*
X146685000Y-118745000D01*
X141617700Y-121069100D02*
X141605000Y-121285000D01*
X141617700Y-110909100D02*
X142024100Y-110909100D01*
X142024100Y-110909100D02*
X143510000Y-112395000D01*
X143510000Y-112395000D02*
X143510000Y-120015000D01*
X141617700Y-105829100D02*
X141605000Y-106045000D01*
X141605000Y-106045000D02*
X139700000Y-104140000D01*
X139700000Y-104140000D02*
X137160000Y-104140000D01*
X141617700Y-108369100D02*
X141605000Y-108585000D01*
X141605000Y-108585000D02*
X139700000Y-106680000D01*
X139700000Y-106680000D02*
X137160000Y-106680000D01*
X137160000Y-124968000D02*
X137160000Y-125095000D01*
X137160000Y-125095000D02*
X142875000Y-130810000D01*
X142875000Y-130810000D02*
X142748000Y-131064000D01*
X151765000Y-121285000D02*
X147955000Y-125095000D01*
X151777700Y-121069100D02*
X151765000Y-121285000D01*
X139700000Y-124460000D02*
X140335000Y-125095000D01*
X139700000Y-124460000D02*
X139700000Y-121920000D01*
X147955000Y-125095000D02*
X140335000Y-125095000D01*
X139700000Y-121920000D02*
X137795000Y-120015000D01*
X137795000Y-120015000D02*
X137160000Y-120015000D01*
X137160000Y-120015000D02*
X137160000Y-119888000D01*
X141617700Y-113449100D02*
X141605000Y-113665000D01*
X141605000Y-113665000D02*
X137795000Y-117475000D01*
X137795000Y-117475000D02*
X137160000Y-117475000D01*
X137160000Y-117475000D02*
X137160000Y-117348000D01*
X137160000Y-122428000D02*
X137160000Y-122555000D01*
X137160000Y-122555000D02*
X134620000Y-119380000D01*
M02*
