M48
;DRILL file {KiCad 4.0.7} date Mon Feb  5 18:41:45 2018
;FORMAT={-:-/ absolute / inch / decimal}
FMAT,2
INCH,TZ
T1C0.024
T2C0.031
T3C0.039
T4C0.040
T5C0.047
T6C0.051
T7C0.052
T8C0.059
%
G90
G05
M72
T1
X6.Y-2.75
X6.Y-3.65
X6.05Y-2.7
X6.05Y-3.6
X6.1Y-2.75
X6.1Y-3.65
X7.6Y-5.475
X7.65Y-5.425
X7.65Y-5.525
X7.9Y-5.475
X7.95Y-5.425
X7.95Y-5.525
T2
X3.175Y-5.425
X3.175Y-5.725
X3.275Y-4.85
X3.275Y-5.425
X3.275Y-5.725
X3.375Y-5.425
X3.375Y-5.725
X3.4671Y-4.85
X3.475Y-5.425
X3.475Y-5.725
X3.575Y-5.425
X3.575Y-5.725
X3.675Y-5.425
X3.675Y-5.725
X3.775Y-5.425
X3.775Y-5.725
X3.875Y-5.425
X3.875Y-5.725
X3.975Y-5.425
X3.975Y-5.725
X4.075Y-5.425
X4.075Y-5.725
X4.175Y-5.425
X4.175Y-5.725
X4.275Y-5.425
X4.275Y-5.725
X4.375Y-5.425
X4.375Y-5.725
X4.475Y-5.425
X4.475Y-5.725
X5.05Y-5.325
X5.05Y-5.625
X5.15Y-5.325
X5.15Y-5.625
X5.25Y-5.325
X5.25Y-5.625
X5.35Y-5.325
X5.35Y-5.625
X5.45Y-5.325
X5.45Y-5.625
X5.55Y-5.325
X5.55Y-5.625
X5.65Y-5.325
X5.65Y-5.625
X5.75Y-5.325
X5.75Y-5.625
X5.85Y-5.325
X5.85Y-5.625
X5.95Y-5.325
X5.95Y-5.625
X6.05Y-5.325
X6.05Y-5.625
X6.15Y-5.325
X6.15Y-5.625
X6.225Y-2.225
X6.225Y-2.525
X6.225Y-3.125
X6.225Y-3.425
X6.325Y-2.225
X6.325Y-2.525
X6.325Y-3.125
X6.325Y-3.425
X7.1Y-5.125
X7.5Y-5.125
X7.55Y-4.925
X7.95Y-4.925
T3
X3.175Y-6.1
X3.275Y-6.1
X3.375Y-6.1
X3.475Y-6.1
X3.575Y-3.125
X3.575Y-3.225
X3.575Y-3.325
X3.575Y-6.1
X3.675Y-6.1
X3.775Y-6.1
X3.875Y-6.1
X3.975Y-6.1
X4.225Y-6.1
X4.3086Y-2.8086
X4.325Y-6.1
X4.425Y-6.1
X4.45Y-2.6672
X4.45Y-2.95
X4.45Y-5.05
X4.525Y-6.1
X4.55Y-5.05
X4.5914Y-2.8086
X4.65Y-5.05
X4.75Y-5.05
X5.25Y-5.05
X5.25Y-6.225
X5.35Y-5.05
X5.35Y-6.225
X5.45Y-5.05
X5.45Y-6.225
X5.55Y-5.05
X5.55Y-6.225
X5.65Y-5.05
X5.65Y-6.225
X5.75Y-5.05
X5.75Y-6.225
X5.85Y-5.05
X5.85Y-6.225
X5.95Y-5.05
X5.95Y-6.225
X6.5768Y-2.3407
X6.5768Y-2.8132
X6.5768Y-3.2407
X6.5768Y-3.7132
X7.65Y-5.125
X7.65Y-5.225
X7.95Y-5.125
X7.95Y-5.225
T4
X5.875Y-4.475
X5.875Y-4.575
X5.975Y-4.475
X5.975Y-4.575
X6.075Y-4.475
X6.075Y-4.575
X6.175Y-4.475
X6.175Y-4.575
X6.275Y-4.475
X6.275Y-4.575
T5
X2.8Y-2.8
X2.8Y-3.0953
X2.8Y-3.55
X2.8Y-3.8453
T6
X6.5Y-2.575
X6.5Y-3.475
X7.0571Y-2.8132
X7.0571Y-3.7132
X7.0591Y-2.3388
X7.0591Y-3.2388
T7
X4.25Y-2.175
X4.4469Y-2.175
X4.6437Y-2.175
X8.675Y-2.175
X8.675Y-2.3719
X8.675Y-2.5687
X8.675Y-3.475
X8.675Y-3.6719
X8.675Y-3.8687
T8
X7.425Y-2.575
X7.425Y-3.475
X8.2911Y-2.575
X8.2911Y-3.475
T0
M30
